G04 ================== begin FILE IDENTIFICATION RECORD ==================*
G04 Layout Name:  E:/Project/SmartDiet/Device/Schematic/allegro/CyberBalance.brd*
G04 Film Name:    drill*
G04 File Format:  Gerber RS274X*
G04 File Origin:  Cadence Allegro 17.4-S015*
G04 Origin Date:  Fri May 21 17:14:24 2021*
G04 *
G04 Layer:  MANUFACTURING/NCLEGEND-1-2*
G04 Layer:  BOARD GEOMETRY/DESIGN_OUTLINE*
G04 *
G04 Offset:    (0.00 0.00)*
G04 Mirror:    No*
G04 Mode:      Positive*
G04 Rotation:  0*
G04 FullContactRelief:  No*
G04 UndefLineWidth:     2.00*
G04 ================== end FILE IDENTIFICATION RECORD ====================*
%FSLAX25Y25*MOIN*%
%IR0*IPPOS*OFA0.00000B0.00000*MIA0B0*SFA1.00000B1.00000*%
%AMMACRO17*
1,1,.002,.01949,0.0*
20,1,.002,.01949,0.0,.009745,.016879,0.0*
1,1,.002,.009745,.016879*
20,1,.002,.009745,.016879,-.009745,.016879,0.0*
1,1,.002,-.009745,.016879*
20,1,.002,-.009745,.016879,-.01949,0.0,0.0*
1,1,.002,-.01949,0.0*
20,1,.002,-.01949,0.0,-.009745,-.016879,0.0*
1,1,.002,-.009745,-.016879*
20,1,.002,-.009745,-.016879,.009745,-.016879,0.0*
1,1,.002,.009745,-.016879*
20,1,.002,.009745,-.016879,.01949,0.0,0.0*
1,1,.002,.01949,0.0*
%
%ADD17MACRO17*%
%AMMACRO16*
1,1,.002,.008284,-.02*
20,1,.002,.008284,-.02,-.008284,-.02,0.0*
1,1,.002,-.008284,-.02*
20,1,.002,-.008284,-.02,-.02,-.008284,0.0*
1,1,.002,-.02,-.008284*
20,1,.002,-.02,-.008284,-.02,.008284,0.0*
1,1,.002,-.02,.008284*
20,1,.002,-.02,.008284,-.008284,.02,0.0*
1,1,.002,-.008284,.02*
20,1,.002,-.008284,.02,.008284,.02,0.0*
1,1,.002,.008284,.02*
20,1,.002,.008284,.02,.02,.008284,0.0*
1,1,.002,.02,.008284*
20,1,.002,.02,.008284,.02,-.008284,0.0*
1,1,.002,.02,-.008284*
20,1,.002,.02,-.008284,.008284,-.02,0.0*
1,1,.002,.008284,-.02*
%
%ADD16MACRO16*%
%AMMACRO19*
1,1,.002,.006005,0.0*
20,1,.002,.006005,0.0,-.006005,0.0,0.0*
1,1,.002,-.006005,0.0*
1,1,.002,0.0,.006005*
20,1,.002,0.0,.006005,0.0,-.006005,0.0*
1,1,.002,0.0,-.006005*
%
%ADD19MACRO19*%
%AMMACRO14*
1,1,.002,.02,0.0*
20,1,.002,.02,0.0,0.0,-.02,0.0*
1,1,.002,0.0,-.02*
20,1,.002,0.0,-.02,-.02,0.0,0.0*
1,1,.002,-.02,0.0*
20,1,.002,-.02,0.0,0.0,.02,0.0*
1,1,.002,0.0,.02*
20,1,.002,0.0,.02,.02,0.0,0.0*
1,1,.002,.02,0.0*
%
%ADD14MACRO14*%
%AMMACRO18*
1,1,.002,.01575,.01575*
20,1,.002,.01575,.01575,.01575,-.01575,0.0*
1,1,.002,.01575,-.01575*
20,1,.002,.01575,-.01575,-.01575,-.01575,0.0*
1,1,.002,-.01575,-.01575*
20,1,.002,-.01575,-.01575,-.01575,.01575,0.0*
1,1,.002,-.01575,.01575*
20,1,.002,-.01575,.01575,.01575,.01575,0.0*
1,1,.002,.01575,.01575*
%
%ADD18MACRO18*%
%AMMACRO12*
1,1,.002,-.01575,.04724*
20,1,.002,-.01575,.04724,.01575,.04724,0.0*
1,1,.002,.01575,.04724*
20,1,.002,.01575,.04724,.023953,.046522,0.0*
1,1,.002,.023953,.046522*
20,1,.002,.023953,.046522,.031907,.044391,0.0*
1,1,.002,.031907,.044391*
20,1,.002,.031907,.044391,.03937,.040911,0.0*
1,1,.002,.03937,.040911*
20,1,.002,.03937,.040911,.046115,.036188,0.0*
1,1,.002,.046115,.036188*
20,1,.002,.046115,.036188,.051938,.030365,0.0*
1,1,.002,.051938,.030365*
20,1,.002,.051938,.030365,.056661,.02362,0.0*
1,1,.002,.056661,.02362*
20,1,.002,.056661,.02362,.060141,.016157,0.0*
1,1,.002,.060141,.016157*
20,1,.002,.060141,.016157,.062272,.008203,0.0*
1,1,.002,.062272,.008203*
20,1,.002,.062272,.008203,.06299,0.0,0.0*
1,1,.002,.06299,0.0*
20,1,.002,.06299,0.0,.062272,-.008203,0.0*
1,1,.002,.062272,-.008203*
20,1,.002,.062272,-.008203,.060141,-.016157,0.0*
1,1,.002,.060141,-.016157*
20,1,.002,.060141,-.016157,.056661,-.02362,0.0*
1,1,.002,.056661,-.02362*
20,1,.002,.056661,-.02362,.051938,-.030365,0.0*
1,1,.002,.051938,-.030365*
20,1,.002,.051938,-.030365,.046115,-.036188,0.0*
1,1,.002,.046115,-.036188*
20,1,.002,.046115,-.036188,.03937,-.040911,0.0*
1,1,.002,.03937,-.040911*
20,1,.002,.03937,-.040911,.031907,-.044391,0.0*
1,1,.002,.031907,-.044391*
20,1,.002,.031907,-.044391,.023953,-.046522,0.0*
1,1,.002,.023953,-.046522*
20,1,.002,.023953,-.046522,.01575,-.04724,0.0*
1,1,.002,.01575,-.04724*
20,1,.002,.01575,-.04724,-.01575,-.04724,0.0*
1,1,.002,-.01575,-.04724*
20,1,.002,-.01575,-.04724,-.023953,-.046522,0.0*
1,1,.002,-.023953,-.046522*
20,1,.002,-.023953,-.046522,-.031907,-.044391,0.0*
1,1,.002,-.031907,-.044391*
20,1,.002,-.031907,-.044391,-.03937,-.040911,0.0*
1,1,.002,-.03937,-.040911*
20,1,.002,-.03937,-.040911,-.046115,-.036188,0.0*
1,1,.002,-.046115,-.036188*
20,1,.002,-.046115,-.036188,-.051938,-.030365,0.0*
1,1,.002,-.051938,-.030365*
20,1,.002,-.051938,-.030365,-.056661,-.02362,0.0*
1,1,.002,-.056661,-.02362*
20,1,.002,-.056661,-.02362,-.060141,-.016157,0.0*
1,1,.002,-.060141,-.016157*
20,1,.002,-.060141,-.016157,-.062272,-.008203,0.0*
1,1,.002,-.062272,-.008203*
20,1,.002,-.062272,-.008203,-.06299,0.0,0.0*
1,1,.002,-.06299,0.0*
20,1,.002,-.06299,0.0,-.062272,.008203,0.0*
1,1,.002,-.062272,.008203*
20,1,.002,-.062272,.008203,-.060141,.016157,0.0*
1,1,.002,-.060141,.016157*
20,1,.002,-.060141,.016157,-.056661,.02362,0.0*
1,1,.002,-.056661,.02362*
20,1,.002,-.056661,.02362,-.051938,.030365,0.0*
1,1,.002,-.051938,.030365*
20,1,.002,-.051938,.030365,-.046115,.036188,0.0*
1,1,.002,-.046115,.036188*
20,1,.002,-.046115,.036188,-.03937,.040911,0.0*
1,1,.002,-.03937,.040911*
20,1,.002,-.03937,.040911,-.031907,.044391,0.0*
1,1,.002,-.031907,.044391*
20,1,.002,-.031907,.044391,-.023953,.046522,0.0*
1,1,.002,-.023953,.046522*
20,1,.002,-.023953,.046522,-.01575,.04724,0.0*
1,1,.002,-.01575,.04724*
%
%ADD12MACRO12*%
%AMMACRO15*
1,1,.002,0.0,.02*
20,1,.002,0.0,.02,-.017321,.01,0.0*
1,1,.002,-.017321,.01*
20,1,.002,-.017321,.01,-.017321,-.01,0.0*
1,1,.002,-.017321,-.01*
20,1,.002,-.017321,-.01,0.0,-.02,0.0*
1,1,.002,0.0,-.02*
20,1,.002,0.0,-.02,.017321,-.01,0.0*
1,1,.002,.017321,-.01*
20,1,.002,.017321,-.01,.017321,.01,0.0*
1,1,.002,.017321,.01*
20,1,.002,.017321,.01,0.0,.02,0.0*
1,1,.002,0.0,.02*
%
%ADD15MACRO15*%
%AMMACRO13*
1,1,.002,0.0,.02559*
20,1,.002,0.0,.02559,.022162,-.012795,0.0*
1,1,.002,.022162,-.012795*
20,1,.002,.022162,-.012795,-.022162,-.012795,0.0*
1,1,.002,-.022162,-.012795*
20,1,.002,-.022162,-.012795,0.0,.02559,0.0*
1,1,.002,0.0,.02559*
%
%ADD13MACRO13*%
%AMMACRO11*
1,1,.002,-.022145,.007385*
20,1,.002,-.022145,.007385,-.021809,.01123,0.0*
1,1,.002,-.021809,.01123*
20,1,.002,-.021809,.01123,-.020809,.014959,0.0*
1,1,.002,-.020809,.014959*
20,1,.002,-.020809,.014959,-.019178,.018457,0.0*
1,1,.002,-.019178,.018457*
20,1,.002,-.019178,.018457,-.016964,.02162,0.0*
1,1,.002,-.016964,.02162*
20,1,.002,-.016964,.02162,-.014235,.024349,0.0*
1,1,.002,-.014235,.024349*
20,1,.002,-.014235,.024349,-.011073,.026563,0.0*
1,1,.002,-.011073,.026563*
20,1,.002,-.011073,.026563,-.007574,.028194,0.0*
1,1,.002,-.007574,.028194*
20,1,.002,-.007574,.028194,-.003845,.029194,0.0*
1,1,.002,-.003845,.029194*
20,1,.002,-.003845,.029194,0.0,.02953,0.0*
1,1,.002,0.0,.02953*
20,1,.002,0.0,.02953,.003845,.029194,0.0*
1,1,.002,.003845,.029194*
20,1,.002,.003845,.029194,.007574,.028194,0.0*
1,1,.002,.007574,.028194*
20,1,.002,.007574,.028194,.011072,.026563,0.0*
1,1,.002,.011072,.026563*
20,1,.002,.011072,.026563,.014235,.024349,0.0*
1,1,.002,.014235,.024349*
20,1,.002,.014235,.024349,.016964,.02162,0.0*
1,1,.002,.016964,.02162*
20,1,.002,.016964,.02162,.019178,.018458,0.0*
1,1,.002,.019178,.018458*
20,1,.002,.019178,.018458,.020809,.014959,0.0*
1,1,.002,.020809,.014959*
20,1,.002,.020809,.014959,.021809,.01123,0.0*
1,1,.002,.021809,.01123*
20,1,.002,.021809,.01123,.022145,.007385,0.0*
1,1,.002,.022145,.007385*
20,1,.002,.022145,.007385,.022145,-.007385,0.0*
1,1,.002,.022145,-.007385*
20,1,.002,.022145,-.007385,.021809,-.01123,0.0*
1,1,.002,.021809,-.01123*
20,1,.002,.021809,-.01123,.020809,-.014959,0.0*
1,1,.002,.020809,-.014959*
20,1,.002,.020809,-.014959,.019178,-.018457,0.0*
1,1,.002,.019178,-.018457*
20,1,.002,.019178,-.018457,.016964,-.02162,0.0*
1,1,.002,.016964,-.02162*
20,1,.002,.016964,-.02162,.014235,-.024349,0.0*
1,1,.002,.014235,-.024349*
20,1,.002,.014235,-.024349,.011073,-.026563,0.0*
1,1,.002,.011073,-.026563*
20,1,.002,.011073,-.026563,.007574,-.028194,0.0*
1,1,.002,.007574,-.028194*
20,1,.002,.007574,-.028194,.003845,-.029194,0.0*
1,1,.002,.003845,-.029194*
20,1,.002,.003845,-.029194,0.0,-.02953,0.0*
1,1,.002,0.0,-.02953*
20,1,.002,0.0,-.02953,-.003845,-.029194,0.0*
1,1,.002,-.003845,-.029194*
20,1,.002,-.003845,-.029194,-.007574,-.028194,0.0*
1,1,.002,-.007574,-.028194*
20,1,.002,-.007574,-.028194,-.011072,-.026563,0.0*
1,1,.002,-.011072,-.026563*
20,1,.002,-.011072,-.026563,-.014235,-.024349,0.0*
1,1,.002,-.014235,-.024349*
20,1,.002,-.014235,-.024349,-.016964,-.02162,0.0*
1,1,.002,-.016964,-.02162*
20,1,.002,-.016964,-.02162,-.019178,-.018458,0.0*
1,1,.002,-.019178,-.018458*
20,1,.002,-.019178,-.018458,-.020809,-.014959,0.0*
1,1,.002,-.020809,-.014959*
20,1,.002,-.020809,-.014959,-.021809,-.01123,0.0*
1,1,.002,-.021809,-.01123*
20,1,.002,-.021809,-.01123,-.022145,-.007385,0.0*
1,1,.002,-.022145,-.007385*
20,1,.002,-.022145,-.007385,-.022145,.007385,0.0*
1,1,.002,-.022145,.007385*
%
%ADD11MACRO11*%
%AMMACRO10*
1,1,.002,.059055,.04429*
20,1,.002,.059055,.04429,.059055,-.04429,0.0*
1,1,.002,.059055,-.04429*
20,1,.002,.059055,-.04429,-.059055,-.04429,0.0*
1,1,.002,-.059055,-.04429*
20,1,.002,-.059055,-.04429,-.059055,.04429,0.0*
1,1,.002,-.059055,.04429*
20,1,.002,-.059055,.04429,.059055,.04429,0.0*
1,1,.002,.059055,.04429*
%
%ADD10MACRO10*%
%ADD20C,.015*%
%ADD21C,.002*%
G75*
%LPD*%
G75*
G54D10*
X-229162Y-425500D03*
X98425Y23622D03*
G54D20*
G01X-263099Y-181750D02*
Y-169250D01*
X-257210D01*
G01X-259380Y-175292D02*
X-263099D01*
G01X-249617Y-169250D02*
X-245898D01*
G01X-247758D02*
Y-181750D01*
G01X-249617D02*
X-245898D01*
G01X-234431Y-175500D02*
X-231331D01*
Y-179250D01*
X-232261Y-180500D01*
X-233346Y-181333D01*
X-234896Y-181750D01*
X-236445Y-181333D01*
X-237530Y-180500D01*
X-238460Y-179250D01*
X-239080Y-177792D01*
X-239390Y-176125D01*
Y-174667D01*
X-239080Y-173417D01*
X-238460Y-171958D01*
X-237530Y-170708D01*
X-236601Y-169875D01*
X-235361Y-169250D01*
X-234276D01*
X-233036Y-169667D01*
X-232106Y-170500D01*
G01X-226373Y-169250D02*
Y-178208D01*
X-225753Y-180084D01*
X-224513Y-181333D01*
X-222964Y-181750D01*
X-221414Y-181333D01*
X-220174Y-180084D01*
X-219554Y-178208D01*
Y-169250D01*
G01X-213666Y-181750D02*
Y-169250D01*
X-209792D01*
X-208552Y-169875D01*
X-207777Y-170708D01*
X-207467Y-172375D01*
X-207777Y-174042D01*
X-208707Y-175083D01*
X-209792Y-175708D01*
X-213666D01*
G01X-209792D02*
X-207467Y-181750D01*
G01X-195070D02*
X-201269D01*
Y-169250D01*
X-195070D01*
G01X-197550Y-175292D02*
X-201269D01*
G01X-160828Y-181750D02*
Y-169250D01*
X-154939D01*
G01X-157109Y-175292D02*
X-160828D01*
G01X-147346Y-169250D02*
X-143627D01*
G01X-145487D02*
Y-181750D01*
G01X-147346D02*
X-143627D01*
G01X-136654D02*
Y-169250D01*
X-129525Y-181750D01*
Y-169250D01*
G01X-122552D02*
X-118833D01*
G01X-120693D02*
Y-181750D01*
G01X-122552D02*
X-118833D01*
G01X-111550Y-180084D02*
X-110310Y-181125D01*
X-108915Y-181750D01*
X-107676D01*
X-106436Y-181125D01*
X-105506Y-180084D01*
X-105041Y-178625D01*
X-105351Y-177167D01*
X-106126Y-175917D01*
X-107521Y-175083D01*
X-109380Y-174667D01*
X-110465Y-173833D01*
X-110930Y-172375D01*
X-110620Y-170917D01*
X-109845Y-169875D01*
X-108760Y-169250D01*
X-107676D01*
X-106591Y-169667D01*
X-105661Y-170708D01*
G01X-99153Y-181750D02*
Y-169250D01*
G01X-92644D02*
Y-181750D01*
G01Y-175500D02*
X-99153D01*
G01X-80402Y-181750D02*
X-86601D01*
Y-169250D01*
X-80402D01*
G01X-82882Y-175292D02*
X-86601D01*
G01X-74514Y-181750D02*
Y-169250D01*
X-71415D01*
X-70175Y-169875D01*
X-69245Y-170708D01*
X-68470Y-171958D01*
X-67850Y-173417D01*
X-67695Y-175500D01*
X-67850Y-177583D01*
X-68470Y-179042D01*
X-69245Y-180292D01*
X-70175Y-181125D01*
X-71415Y-181750D01*
X-74514D01*
G01X-63357Y-185917D02*
X-54058D01*
G01X-49565Y-180084D02*
X-48325Y-181125D01*
X-46930Y-181750D01*
X-45691D01*
X-44451Y-181125D01*
X-43521Y-180084D01*
X-43056Y-178625D01*
X-43366Y-177167D01*
X-44141Y-175917D01*
X-45536Y-175083D01*
X-47395Y-174667D01*
X-48480Y-173833D01*
X-48945Y-172375D01*
X-48635Y-170917D01*
X-47860Y-169875D01*
X-46775Y-169250D01*
X-45691D01*
X-44606Y-169667D01*
X-43676Y-170708D01*
G01X-35773Y-169250D02*
X-32054D01*
G01X-33914D02*
Y-181750D01*
G01X-35773D02*
X-32054D01*
G01X-24461Y-169250D02*
X-18572D01*
X-24461Y-181750D01*
X-18572D01*
G01X-6020D02*
X-12219D01*
Y-169250D01*
X-6020D01*
G01X-8500Y-175292D02*
X-12219D01*
G01X-114494Y-431750D02*
Y-419250D01*
X-116353Y-421750D01*
G01Y-431750D02*
X-112634D01*
G01X-102097D02*
Y-419250D01*
X-103956Y-421750D01*
G01Y-431750D02*
X-100237D01*
G01X-89700D02*
X-88615Y-431542D01*
X-87375Y-430917D01*
X-86600Y-429875D01*
X-86290Y-428417D01*
X-86600Y-426959D01*
X-87530Y-425708D01*
X-88925Y-425083D01*
X-90474D01*
X-91404Y-424667D01*
X-92179Y-423625D01*
X-92489Y-422167D01*
X-92024Y-420708D01*
X-90940Y-419667D01*
X-89700Y-419250D01*
X-88460Y-419667D01*
X-87375Y-420708D01*
X-86910Y-422167D01*
X-87220Y-423625D01*
X-87995Y-424667D01*
X-88925Y-425083D01*
X-90474D01*
X-91869Y-425708D01*
X-92799Y-426959D01*
X-93109Y-428417D01*
X-92799Y-429875D01*
X-92024Y-430917D01*
X-90784Y-431542D01*
X-89700Y-431750D01*
G01X-77303Y-432167D02*
X-77613Y-431958D01*
Y-431542D01*
X-77303Y-431333D01*
X-76992Y-431542D01*
Y-431958D01*
X-77303Y-432167D01*
G01X-64906Y-431750D02*
Y-419250D01*
X-66765Y-421750D01*
G01Y-431750D02*
X-63046D01*
G01X-52509D02*
Y-419250D01*
X-54368Y-421750D01*
G01Y-431750D02*
X-50649D01*
G01X-117903Y-404875D02*
X-116973Y-405917D01*
X-115888Y-406542D01*
X-114494Y-406750D01*
X-113099Y-406333D01*
X-112014Y-405500D01*
X-111239Y-404042D01*
X-111084Y-402375D01*
X-111394Y-400708D01*
X-112169Y-399667D01*
X-113254Y-398833D01*
X-114338Y-398625D01*
X-115423Y-398833D01*
X-116818Y-399667D01*
X-116353Y-394250D01*
X-112169D01*
G01X-104731Y-405292D02*
X-103646Y-406333D01*
X-102407Y-406750D01*
X-101167Y-406333D01*
X-100082Y-405084D01*
X-99307Y-403208D01*
X-98997Y-401333D01*
Y-399042D01*
X-99307Y-397167D01*
X-100082Y-395500D01*
X-101012Y-394667D01*
X-102097Y-394250D01*
X-103337Y-394667D01*
X-104266Y-395500D01*
X-104886Y-396750D01*
X-105196Y-398417D01*
X-104886Y-399875D01*
X-104111Y-401333D01*
X-103181Y-402167D01*
X-102097Y-402375D01*
X-100857Y-401959D01*
X-99927Y-400917D01*
X-98997Y-399042D01*
G01X-89700Y-407167D02*
X-90010Y-406958D01*
Y-406542D01*
X-89700Y-406333D01*
X-89389Y-406542D01*
Y-406958D01*
X-89700Y-407167D01*
G01X-77303Y-394250D02*
X-78543Y-394667D01*
X-79472Y-395708D01*
X-80092Y-396958D01*
X-80557Y-398625D01*
X-80712Y-400500D01*
X-80557Y-402375D01*
X-80092Y-404042D01*
X-79472Y-405292D01*
X-78543Y-406333D01*
X-77303Y-406750D01*
X-76063Y-406333D01*
X-75133Y-405292D01*
X-74513Y-404042D01*
X-74048Y-402375D01*
X-73893Y-400500D01*
X-74048Y-398625D01*
X-74513Y-396958D01*
X-75133Y-395708D01*
X-76063Y-394667D01*
X-77303Y-394250D01*
G01X-68315Y-404875D02*
X-67385Y-405917D01*
X-66300Y-406542D01*
X-64906Y-406750D01*
X-63511Y-406333D01*
X-62426Y-405500D01*
X-61651Y-404042D01*
X-61496Y-402375D01*
X-61806Y-400708D01*
X-62581Y-399667D01*
X-63666Y-398833D01*
X-64750Y-398625D01*
X-65835Y-398833D01*
X-67230Y-399667D01*
X-66765Y-394250D01*
X-62581D01*
G01X-55143Y-405292D02*
X-54058Y-406333D01*
X-52819Y-406750D01*
X-51579Y-406333D01*
X-50494Y-405084D01*
X-49719Y-403208D01*
X-49409Y-401333D01*
Y-399042D01*
X-49719Y-397167D01*
X-50494Y-395500D01*
X-51424Y-394667D01*
X-52509Y-394250D01*
X-53749Y-394667D01*
X-54678Y-395500D01*
X-55298Y-396750D01*
X-55608Y-398417D01*
X-55298Y-399875D01*
X-54523Y-401333D01*
X-53593Y-402167D01*
X-52509Y-402375D01*
X-51269Y-401959D01*
X-50339Y-400917D01*
X-49409Y-399042D01*
G01X-114494Y-381750D02*
Y-369250D01*
X-116353Y-371750D01*
G01Y-381750D02*
X-112634D01*
G01X-105041Y-371333D02*
X-104111Y-370084D01*
X-103026Y-369458D01*
X-101786Y-369250D01*
X-100237Y-369667D01*
X-99152Y-370708D01*
X-98842Y-371958D01*
X-98997Y-373209D01*
X-99617Y-374250D01*
X-102716Y-376333D01*
X-104111Y-377792D01*
X-105041Y-379875D01*
X-105351Y-381750D01*
X-98842D01*
G01X-93109Y-379875D02*
X-92179Y-380917D01*
X-91094Y-381542D01*
X-89700Y-381750D01*
X-88305Y-381333D01*
X-87220Y-380500D01*
X-86445Y-379042D01*
X-86290Y-377375D01*
X-86600Y-375708D01*
X-87375Y-374667D01*
X-88460Y-373833D01*
X-89544Y-373625D01*
X-90629Y-373833D01*
X-92024Y-374667D01*
X-91559Y-369250D01*
X-87375D01*
G01X-77303Y-382167D02*
X-77613Y-381958D01*
Y-381542D01*
X-77303Y-381333D01*
X-76992Y-381542D01*
Y-381958D01*
X-77303Y-382167D01*
G01X-67540Y-380292D02*
X-66455Y-381333D01*
X-65216Y-381750D01*
X-63976Y-381333D01*
X-62891Y-380084D01*
X-62116Y-378208D01*
X-61806Y-376333D01*
Y-374042D01*
X-62116Y-372167D01*
X-62891Y-370500D01*
X-63821Y-369667D01*
X-64906Y-369250D01*
X-66146Y-369667D01*
X-67075Y-370500D01*
X-67695Y-371750D01*
X-68005Y-373417D01*
X-67695Y-374875D01*
X-66920Y-376333D01*
X-65990Y-377167D01*
X-64906Y-377375D01*
X-63666Y-376959D01*
X-62736Y-375917D01*
X-61806Y-374042D01*
G01X-52509Y-381750D02*
X-51424Y-381542D01*
X-50184Y-380917D01*
X-49409Y-379875D01*
X-49099Y-378417D01*
X-49409Y-376959D01*
X-50339Y-375708D01*
X-51734Y-375083D01*
X-53283D01*
X-54213Y-374667D01*
X-54988Y-373625D01*
X-55298Y-372167D01*
X-54833Y-370708D01*
X-53749Y-369667D01*
X-52509Y-369250D01*
X-51269Y-369667D01*
X-50184Y-370708D01*
X-49719Y-372167D01*
X-50029Y-373625D01*
X-50804Y-374667D01*
X-51734Y-375083D01*
X-53283D01*
X-54678Y-375708D01*
X-55608Y-376959D01*
X-55918Y-378417D01*
X-55608Y-379875D01*
X-54833Y-380917D01*
X-53593Y-381542D01*
X-52509Y-381750D01*
G01X-117903Y-354875D02*
X-116973Y-355917D01*
X-115888Y-356542D01*
X-114494Y-356750D01*
X-113099Y-356333D01*
X-112014Y-355500D01*
X-111239Y-354042D01*
X-111084Y-352375D01*
X-111394Y-350708D01*
X-112169Y-349667D01*
X-113254Y-348833D01*
X-114338Y-348625D01*
X-115423Y-348833D01*
X-116818Y-349667D01*
X-116353Y-344250D01*
X-112169D01*
G01X-102097Y-356750D02*
Y-344250D01*
X-103956Y-346750D01*
G01Y-356750D02*
X-100237D01*
G01X-89700Y-357167D02*
X-90010Y-356958D01*
Y-356542D01*
X-89700Y-356333D01*
X-89389Y-356542D01*
Y-356958D01*
X-89700Y-357167D01*
G01X-77303Y-356750D02*
Y-344250D01*
X-79162Y-346750D01*
G01Y-356750D02*
X-75443D01*
G01X-64906D02*
X-63821Y-356542D01*
X-62581Y-355917D01*
X-61806Y-354875D01*
X-61496Y-353417D01*
X-61806Y-351959D01*
X-62736Y-350708D01*
X-64131Y-350083D01*
X-65680D01*
X-66610Y-349667D01*
X-67385Y-348625D01*
X-67695Y-347167D01*
X-67230Y-345708D01*
X-66146Y-344667D01*
X-64906Y-344250D01*
X-63666Y-344667D01*
X-62581Y-345708D01*
X-62116Y-347167D01*
X-62426Y-348625D01*
X-63201Y-349667D01*
X-64131Y-350083D01*
X-65680D01*
X-67075Y-350708D01*
X-68005Y-351959D01*
X-68315Y-353417D01*
X-68005Y-354875D01*
X-67230Y-355917D01*
X-65990Y-356542D01*
X-64906Y-356750D01*
G01X-52509D02*
Y-344250D01*
X-54368Y-346750D01*
G01Y-356750D02*
X-50649D01*
G01X-100237Y-331750D02*
Y-319250D01*
X-105971Y-328208D01*
X-98222D01*
G01X-89700Y-319250D02*
X-90940Y-319667D01*
X-91869Y-320708D01*
X-92489Y-321958D01*
X-92954Y-323625D01*
X-93109Y-325500D01*
X-92954Y-327375D01*
X-92489Y-329042D01*
X-91869Y-330292D01*
X-90940Y-331333D01*
X-89700Y-331750D01*
X-88460Y-331333D01*
X-87530Y-330292D01*
X-86910Y-329042D01*
X-86445Y-327375D01*
X-86290Y-325500D01*
X-86445Y-323625D01*
X-86910Y-321958D01*
X-87530Y-320708D01*
X-88460Y-319667D01*
X-89700Y-319250D01*
G01X-77303Y-332167D02*
X-77613Y-331958D01*
Y-331542D01*
X-77303Y-331333D01*
X-76992Y-331542D01*
Y-331958D01*
X-77303Y-332167D01*
G01X-64906Y-319250D02*
X-66146Y-319667D01*
X-67075Y-320708D01*
X-67695Y-321958D01*
X-68160Y-323625D01*
X-68315Y-325500D01*
X-68160Y-327375D01*
X-67695Y-329042D01*
X-67075Y-330292D01*
X-66146Y-331333D01*
X-64906Y-331750D01*
X-63666Y-331333D01*
X-62736Y-330292D01*
X-62116Y-329042D01*
X-61651Y-327375D01*
X-61496Y-325500D01*
X-61651Y-323625D01*
X-62116Y-321958D01*
X-62736Y-320708D01*
X-63666Y-319667D01*
X-64906Y-319250D01*
G01X-100237Y-306750D02*
Y-294250D01*
X-105971Y-303208D01*
X-98222D01*
G01X-89700Y-294250D02*
X-90940Y-294667D01*
X-91869Y-295708D01*
X-92489Y-296958D01*
X-92954Y-298625D01*
X-93109Y-300500D01*
X-92954Y-302375D01*
X-92489Y-304042D01*
X-91869Y-305292D01*
X-90940Y-306333D01*
X-89700Y-306750D01*
X-88460Y-306333D01*
X-87530Y-305292D01*
X-86910Y-304042D01*
X-86445Y-302375D01*
X-86290Y-300500D01*
X-86445Y-298625D01*
X-86910Y-296958D01*
X-87530Y-295708D01*
X-88460Y-294667D01*
X-89700Y-294250D01*
G01X-77303Y-307167D02*
X-77613Y-306958D01*
Y-306542D01*
X-77303Y-306333D01*
X-76992Y-306542D01*
Y-306958D01*
X-77303Y-307167D01*
G01X-64906Y-294250D02*
X-66146Y-294667D01*
X-67075Y-295708D01*
X-67695Y-296958D01*
X-68160Y-298625D01*
X-68315Y-300500D01*
X-68160Y-302375D01*
X-67695Y-304042D01*
X-67075Y-305292D01*
X-66146Y-306333D01*
X-64906Y-306750D01*
X-63666Y-306333D01*
X-62736Y-305292D01*
X-62116Y-304042D01*
X-61651Y-302375D01*
X-61496Y-300500D01*
X-61651Y-298625D01*
X-62116Y-296958D01*
X-62736Y-295708D01*
X-63666Y-294667D01*
X-64906Y-294250D01*
G01X-100237Y-281750D02*
Y-269250D01*
X-105971Y-278208D01*
X-98222D01*
G01X-89700Y-269250D02*
X-90940Y-269667D01*
X-91869Y-270708D01*
X-92489Y-271958D01*
X-92954Y-273625D01*
X-93109Y-275500D01*
X-92954Y-277375D01*
X-92489Y-279042D01*
X-91869Y-280292D01*
X-90940Y-281333D01*
X-89700Y-281750D01*
X-88460Y-281333D01*
X-87530Y-280292D01*
X-86910Y-279042D01*
X-86445Y-277375D01*
X-86290Y-275500D01*
X-86445Y-273625D01*
X-86910Y-271958D01*
X-87530Y-270708D01*
X-88460Y-269667D01*
X-89700Y-269250D01*
G01X-77303Y-282167D02*
X-77613Y-281958D01*
Y-281542D01*
X-77303Y-281333D01*
X-76992Y-281542D01*
Y-281958D01*
X-77303Y-282167D01*
G01X-64906Y-269250D02*
X-66146Y-269667D01*
X-67075Y-270708D01*
X-67695Y-271958D01*
X-68160Y-273625D01*
X-68315Y-275500D01*
X-68160Y-277375D01*
X-67695Y-279042D01*
X-67075Y-280292D01*
X-66146Y-281333D01*
X-64906Y-281750D01*
X-63666Y-281333D01*
X-62736Y-280292D01*
X-62116Y-279042D01*
X-61651Y-277375D01*
X-61496Y-275500D01*
X-61651Y-273625D01*
X-62116Y-271958D01*
X-62736Y-270708D01*
X-63666Y-269667D01*
X-64906Y-269250D01*
G01X-111705Y-254250D02*
X-110775Y-255709D01*
X-109536Y-256542D01*
X-108140Y-256750D01*
X-106901Y-256542D01*
X-105661Y-255500D01*
X-104886Y-254250D01*
X-104731Y-253000D01*
X-105041Y-251542D01*
X-106126Y-250500D01*
X-107211Y-250083D01*
X-108606D01*
G01X-107211D02*
X-106281Y-249458D01*
X-105506Y-248417D01*
X-105196Y-247167D01*
X-105506Y-245917D01*
X-106281Y-244875D01*
X-107676Y-244250D01*
X-109070Y-244458D01*
X-110465Y-245292D01*
G01X-95899Y-256750D02*
X-94814Y-256542D01*
X-93574Y-255917D01*
X-92799Y-254875D01*
X-92489Y-253417D01*
X-92799Y-251959D01*
X-93729Y-250708D01*
X-95124Y-250083D01*
X-96673D01*
X-97603Y-249667D01*
X-98378Y-248625D01*
X-98688Y-247167D01*
X-98223Y-245708D01*
X-97139Y-244667D01*
X-95899Y-244250D01*
X-94659Y-244667D01*
X-93574Y-245708D01*
X-93109Y-247167D01*
X-93419Y-248625D01*
X-94194Y-249667D01*
X-95124Y-250083D01*
X-96673D01*
X-98068Y-250708D01*
X-98998Y-251959D01*
X-99308Y-253417D01*
X-98998Y-254875D01*
X-98223Y-255917D01*
X-96983Y-256542D01*
X-95899Y-256750D01*
G01X-83502Y-257167D02*
X-83812Y-256958D01*
Y-256542D01*
X-83502Y-256333D01*
X-83191Y-256542D01*
Y-256958D01*
X-83502Y-257167D01*
G01X-73739Y-255292D02*
X-72654Y-256333D01*
X-71415Y-256750D01*
X-70175Y-256333D01*
X-69090Y-255084D01*
X-68315Y-253208D01*
X-68005Y-251333D01*
Y-249042D01*
X-68315Y-247167D01*
X-69090Y-245500D01*
X-70020Y-244667D01*
X-71105Y-244250D01*
X-72345Y-244667D01*
X-73274Y-245500D01*
X-73894Y-246750D01*
X-74204Y-248417D01*
X-73894Y-249875D01*
X-73119Y-251333D01*
X-72189Y-252167D01*
X-71105Y-252375D01*
X-69865Y-251959D01*
X-68935Y-250917D01*
X-68005Y-249042D01*
G01X-58708Y-256750D02*
X-57623Y-256542D01*
X-56383Y-255917D01*
X-55608Y-254875D01*
X-55298Y-253417D01*
X-55608Y-251959D01*
X-56538Y-250708D01*
X-57933Y-250083D01*
X-59482D01*
X-60412Y-249667D01*
X-61187Y-248625D01*
X-61497Y-247167D01*
X-61032Y-245708D01*
X-59948Y-244667D01*
X-58708Y-244250D01*
X-57468Y-244667D01*
X-56383Y-245708D01*
X-55918Y-247167D01*
X-56228Y-248625D01*
X-57003Y-249667D01*
X-57933Y-250083D01*
X-59482D01*
X-60877Y-250708D01*
X-61807Y-251959D01*
X-62117Y-253417D01*
X-61807Y-254875D01*
X-61032Y-255917D01*
X-59792Y-256542D01*
X-58708Y-256750D01*
G01X-105506Y-229250D02*
X-104576Y-230709D01*
X-103337Y-231542D01*
X-101941Y-231750D01*
X-100702Y-231542D01*
X-99462Y-230500D01*
X-98687Y-229250D01*
X-98532Y-228000D01*
X-98842Y-226542D01*
X-99927Y-225500D01*
X-101012Y-225083D01*
X-102407D01*
G01X-101012D02*
X-100082Y-224458D01*
X-99307Y-223417D01*
X-98997Y-222167D01*
X-99307Y-220917D01*
X-100082Y-219875D01*
X-101477Y-219250D01*
X-102871Y-219458D01*
X-104266Y-220292D01*
G01X-89700Y-231750D02*
Y-219250D01*
X-91559Y-221750D01*
G01Y-231750D02*
X-87840D01*
G01X-77303Y-232167D02*
X-77613Y-231958D01*
Y-231542D01*
X-77303Y-231333D01*
X-76992Y-231542D01*
Y-231958D01*
X-77303Y-232167D01*
G01X-68315Y-229875D02*
X-67385Y-230917D01*
X-66300Y-231542D01*
X-64906Y-231750D01*
X-63511Y-231333D01*
X-62426Y-230500D01*
X-61651Y-229042D01*
X-61496Y-227375D01*
X-61806Y-225708D01*
X-62581Y-224667D01*
X-63666Y-223833D01*
X-64750Y-223625D01*
X-65835Y-223833D01*
X-67230Y-224667D01*
X-66765Y-219250D01*
X-62581D01*
G01X-114494Y-206750D02*
Y-194250D01*
X-116353Y-196750D01*
G01Y-206750D02*
X-112634D01*
G01X-105041Y-196333D02*
X-104111Y-195084D01*
X-103026Y-194458D01*
X-101786Y-194250D01*
X-100237Y-194667D01*
X-99152Y-195708D01*
X-98842Y-196958D01*
X-98997Y-198209D01*
X-99617Y-199250D01*
X-102716Y-201333D01*
X-104111Y-202792D01*
X-105041Y-204875D01*
X-105351Y-206750D01*
X-98842D01*
G01X-89700Y-207167D02*
X-90010Y-206958D01*
Y-206542D01*
X-89700Y-206333D01*
X-89389Y-206542D01*
Y-206958D01*
X-89700Y-207167D01*
G01X-77303Y-194250D02*
X-78543Y-194667D01*
X-79472Y-195708D01*
X-80092Y-196958D01*
X-80557Y-198625D01*
X-80712Y-200500D01*
X-80557Y-202375D01*
X-80092Y-204042D01*
X-79472Y-205292D01*
X-78543Y-206333D01*
X-77303Y-206750D01*
X-76063Y-206333D01*
X-75133Y-205292D01*
X-74513Y-204042D01*
X-74048Y-202375D01*
X-73893Y-200500D01*
X-74048Y-198625D01*
X-74513Y-196958D01*
X-75133Y-195708D01*
X-76063Y-194667D01*
X-77303Y-194250D01*
G01X-64906Y-206750D02*
Y-194250D01*
X-66765Y-196750D01*
G01Y-206750D02*
X-63046D01*
G01X-55453Y-196333D02*
X-54523Y-195084D01*
X-53438Y-194458D01*
X-52198Y-194250D01*
X-50649Y-194667D01*
X-49564Y-195708D01*
X-49254Y-196958D01*
X-49409Y-198209D01*
X-50029Y-199250D01*
X-53128Y-201333D01*
X-54523Y-202792D01*
X-55453Y-204875D01*
X-55763Y-206750D01*
X-49254D01*
G01X-83815Y-131750D02*
Y-119250D01*
X-80716D01*
X-79476Y-119875D01*
X-78546Y-120708D01*
X-77771Y-121958D01*
X-77151Y-123417D01*
X-76996Y-125500D01*
X-77151Y-127583D01*
X-77771Y-129042D01*
X-78546Y-130292D01*
X-79476Y-131125D01*
X-80716Y-131750D01*
X-83815D01*
G01X-71108D02*
Y-119250D01*
X-67234D01*
X-65994Y-119875D01*
X-65219Y-120708D01*
X-64909Y-122375D01*
X-65219Y-124042D01*
X-66149Y-125083D01*
X-67234Y-125708D01*
X-71108D01*
G01X-67234D02*
X-64909Y-131750D01*
G01X-57471Y-119250D02*
X-53752D01*
G01X-55612D02*
Y-131750D01*
G01X-57471D02*
X-53752D01*
G01X-46314Y-119250D02*
Y-131750D01*
X-40115D01*
G01X-33917Y-119250D02*
Y-131750D01*
X-27718D01*
G01X-2614Y-120292D02*
X-3544Y-119667D01*
X-4629Y-119250D01*
X-5868D01*
X-7264Y-119875D01*
X-8348Y-120917D01*
X-9123Y-122167D01*
X-9743Y-124250D01*
X-9898Y-126125D01*
X-9588Y-128000D01*
X-9123Y-129250D01*
X-8193Y-130500D01*
X-7108Y-131333D01*
X-6024Y-131750D01*
X-4939D01*
X-3854Y-131333D01*
X-2924Y-130709D01*
X-2149Y-129875D01*
G01X3119Y-131750D02*
Y-119250D01*
G01X9628D02*
Y-131750D01*
G01Y-125500D02*
X3119D01*
G01X14896Y-131750D02*
X18770Y-119250D01*
X22645Y-131750D01*
G01X21250Y-127375D02*
X16291D01*
G01X28068Y-131750D02*
Y-119250D01*
X31942D01*
X33182Y-119875D01*
X33957Y-120708D01*
X34267Y-122375D01*
X33957Y-124042D01*
X33027Y-125083D01*
X31942Y-125708D01*
X28068D01*
G01X31942D02*
X34267Y-131750D01*
G01X43564Y-119250D02*
Y-131750D01*
G01X40000Y-119250D02*
X47129D01*
G01X55961Y-132167D02*
X55651Y-131958D01*
Y-131542D01*
X55961Y-131333D01*
X56272Y-131542D01*
Y-131958D01*
X55961Y-132167D01*
G01Y-126542D02*
X55651Y-126333D01*
Y-125917D01*
X55961Y-125708D01*
X56272Y-125917D01*
Y-126333D01*
X55961Y-126542D01*
G01X80755Y-119250D02*
Y-131750D01*
G01X77191Y-119250D02*
X84320D01*
G01X93152Y-131750D02*
X91912Y-131542D01*
X90828Y-130709D01*
X89898Y-129458D01*
X89278Y-128000D01*
X88968Y-126333D01*
Y-124667D01*
X89278Y-123000D01*
X89898Y-121542D01*
X90828Y-120292D01*
X91912Y-119458D01*
X93152Y-119250D01*
X94392Y-119458D01*
X95477Y-120292D01*
X96407Y-121542D01*
X97027Y-123000D01*
X97337Y-124667D01*
Y-126333D01*
X97027Y-128000D01*
X96407Y-129458D01*
X95477Y-130709D01*
X94392Y-131542D01*
X93152Y-131750D01*
G01X102450D02*
Y-119250D01*
X106169D01*
X107409Y-119875D01*
X108339Y-121333D01*
X108649Y-123000D01*
X108339Y-124667D01*
X107564Y-125917D01*
X106169Y-126542D01*
X102450D01*
G01X130343Y-119250D02*
Y-131750D01*
G01X128174Y-123417D02*
X132513D01*
G01X142740Y-131750D02*
X141811Y-131542D01*
X140881Y-130709D01*
X140261Y-129250D01*
X139951Y-127583D01*
X140261Y-125917D01*
X140881Y-124458D01*
X141811Y-123625D01*
X142740Y-123417D01*
X143670Y-123625D01*
X144600Y-124458D01*
X145220Y-125917D01*
X145375Y-127583D01*
X145220Y-129250D01*
X144600Y-130709D01*
X143670Y-131542D01*
X142740Y-131750D01*
G01X168774Y-125083D02*
X169394Y-124458D01*
X169859Y-123417D01*
X170169Y-121958D01*
X169859Y-120708D01*
X169239Y-119875D01*
X168154Y-119250D01*
X163970D01*
Y-131750D01*
X169084D01*
X170169Y-130917D01*
X170789Y-129667D01*
X171099Y-128208D01*
X170789Y-126750D01*
X169859Y-125500D01*
X168774Y-125083D01*
X163970D01*
G01X179931Y-131750D02*
X178691Y-131542D01*
X177607Y-130709D01*
X176677Y-129458D01*
X176057Y-128000D01*
X175747Y-126333D01*
Y-124667D01*
X176057Y-123000D01*
X176677Y-121542D01*
X177607Y-120292D01*
X178691Y-119458D01*
X179931Y-119250D01*
X181171Y-119458D01*
X182256Y-120292D01*
X183186Y-121542D01*
X183806Y-123000D01*
X184116Y-124667D01*
Y-126333D01*
X183806Y-128000D01*
X183186Y-129458D01*
X182256Y-130709D01*
X181171Y-131542D01*
X179931Y-131750D01*
G01X192328Y-119250D02*
Y-131750D01*
G01X188764Y-119250D02*
X195893D01*
G01X204725D02*
Y-131750D01*
G01X201161Y-119250D02*
X208290D01*
G01X217122Y-131750D02*
X215882Y-131542D01*
X214798Y-130709D01*
X213868Y-129458D01*
X213248Y-128000D01*
X212938Y-126333D01*
Y-124667D01*
X213248Y-123000D01*
X213868Y-121542D01*
X214798Y-120292D01*
X215882Y-119458D01*
X217122Y-119250D01*
X218362Y-119458D01*
X219447Y-120292D01*
X220377Y-121542D01*
X220997Y-123000D01*
X221307Y-124667D01*
Y-126333D01*
X220997Y-128000D01*
X220377Y-129458D01*
X219447Y-130709D01*
X218362Y-131542D01*
X217122Y-131750D01*
G01X225490D02*
Y-119250D01*
X229519Y-129667D01*
X233549Y-119250D01*
Y-131750D01*
G01X-53288Y-156750D02*
X-49414Y-144250D01*
X-45539Y-156750D01*
G01X-46934Y-152375D02*
X-51893D01*
G01X-40116Y-144250D02*
Y-156750D01*
X-33917D01*
G01X-27719Y-144250D02*
Y-156750D01*
X-21520D01*
G01X-3235Y-144250D02*
Y-153208D01*
X-2615Y-155084D01*
X-1375Y-156333D01*
X174Y-156750D01*
X1724Y-156333D01*
X2964Y-155084D01*
X3584Y-153208D01*
Y-144250D01*
G01X9007Y-156750D02*
Y-144250D01*
X16136Y-156750D01*
Y-144250D01*
G01X23109D02*
X26828D01*
G01X24968D02*
Y-156750D01*
G01X23109D02*
X26828D01*
G01X37365Y-144250D02*
Y-156750D01*
G01X33801Y-144250D02*
X40930D01*
G01X46508Y-155084D02*
X47748Y-156125D01*
X49143Y-156750D01*
X50382D01*
X51622Y-156125D01*
X52552Y-155084D01*
X53017Y-153625D01*
X52707Y-152167D01*
X51932Y-150917D01*
X50537Y-150083D01*
X48678Y-149667D01*
X47593Y-148833D01*
X47128Y-147375D01*
X47438Y-145917D01*
X48213Y-144875D01*
X49298Y-144250D01*
X50382D01*
X51467Y-144667D01*
X52397Y-145708D01*
G01X70682Y-156750D02*
X74556Y-144250D01*
X78431Y-156750D01*
G01X77036Y-152375D02*
X72077D01*
G01X83854Y-156750D02*
Y-144250D01*
X87728D01*
X88968Y-144875D01*
X89743Y-145708D01*
X90053Y-147375D01*
X89743Y-149042D01*
X88813Y-150083D01*
X87728Y-150708D01*
X83854D01*
G01X87728D02*
X90053Y-156750D01*
G01X102450D02*
X96251D01*
Y-144250D01*
X102450D01*
G01X99970Y-150292D02*
X96251D01*
G01X122285Y-144250D02*
X126004D01*
G01X124144D02*
Y-156750D01*
G01X122285D02*
X126004D01*
G01X132977D02*
Y-144250D01*
X140106Y-156750D01*
Y-144250D01*
G01X157306Y-156750D02*
Y-144250D01*
X161335Y-154667D01*
X165365Y-144250D01*
Y-156750D01*
G01X171873Y-144250D02*
X175592D01*
G01X173732D02*
Y-156750D01*
G01X171873D02*
X175592D01*
G01X183030Y-144250D02*
Y-156750D01*
X189229D01*
G01X195272Y-155084D02*
X196512Y-156125D01*
X197907Y-156750D01*
X199146D01*
X200386Y-156125D01*
X201316Y-155084D01*
X201781Y-153625D01*
X201471Y-152167D01*
X200696Y-150917D01*
X199301Y-150083D01*
X197442Y-149667D01*
X196357Y-148833D01*
X195892Y-147375D01*
X196202Y-145917D01*
X196977Y-144875D01*
X198062Y-144250D01*
X199146D01*
X200231Y-144667D01*
X201161Y-145708D01*
G01X41859Y-302583D02*
X45578D01*
G01X43563Y-299875D02*
Y-305292D01*
G01X53016Y-296333D02*
X53946Y-295084D01*
X55031Y-294458D01*
X56271Y-294250D01*
X57820Y-294667D01*
X58905Y-295708D01*
X59215Y-296958D01*
X59060Y-298209D01*
X58440Y-299250D01*
X55341Y-301333D01*
X53946Y-302792D01*
X53016Y-304875D01*
X52706Y-306750D01*
X59215D01*
G01X68357Y-307167D02*
X68047Y-306958D01*
Y-306542D01*
X68357Y-306333D01*
X68668Y-306542D01*
Y-306958D01*
X68357Y-307167D01*
G01X78120Y-305292D02*
X79205Y-306333D01*
X80444Y-306750D01*
X81684Y-306333D01*
X82769Y-305084D01*
X83544Y-303208D01*
X83854Y-301333D01*
Y-299042D01*
X83544Y-297167D01*
X82769Y-295500D01*
X81839Y-294667D01*
X80754Y-294250D01*
X79514Y-294667D01*
X78585Y-295500D01*
X77965Y-296750D01*
X77655Y-298417D01*
X77965Y-299875D01*
X78740Y-301333D01*
X79670Y-302167D01*
X80754Y-302375D01*
X81994Y-301959D01*
X82924Y-300917D01*
X83854Y-299042D01*
G01X93151Y-306750D02*
X94236Y-306542D01*
X95476Y-305917D01*
X96251Y-304875D01*
X96561Y-303417D01*
X96251Y-301959D01*
X95321Y-300708D01*
X93926Y-300083D01*
X92377D01*
X91447Y-299667D01*
X90672Y-298625D01*
X90362Y-297167D01*
X90827Y-295708D01*
X91911Y-294667D01*
X93151Y-294250D01*
X94391Y-294667D01*
X95476Y-295708D01*
X95941Y-297167D01*
X95631Y-298625D01*
X94856Y-299667D01*
X93926Y-300083D01*
X92377D01*
X90982Y-300708D01*
X90052Y-301959D01*
X89742Y-303417D01*
X90052Y-304875D01*
X90827Y-305917D01*
X92067Y-306542D01*
X93151Y-306750D01*
G01X105548D02*
X106633Y-306542D01*
X107873Y-305917D01*
X108648Y-304875D01*
X108958Y-303417D01*
X108648Y-301959D01*
X107718Y-300708D01*
X106323Y-300083D01*
X104774D01*
X103844Y-299667D01*
X103069Y-298625D01*
X102759Y-297167D01*
X103224Y-295708D01*
X104308Y-294667D01*
X105548Y-294250D01*
X106788Y-294667D01*
X107873Y-295708D01*
X108338Y-297167D01*
X108028Y-298625D01*
X107253Y-299667D01*
X106323Y-300083D01*
X104774D01*
X103379Y-300708D01*
X102449Y-301959D01*
X102139Y-303417D01*
X102449Y-304875D01*
X103224Y-305917D01*
X104464Y-306542D01*
X105548Y-306750D01*
G01X115156Y-307167D02*
X120735Y-294250D01*
G01X128328Y-302583D02*
X132357D01*
G01X139795Y-296333D02*
X140725Y-295084D01*
X141810Y-294458D01*
X143050Y-294250D01*
X144599Y-294667D01*
X145684Y-295708D01*
X145994Y-296958D01*
X145839Y-298209D01*
X145219Y-299250D01*
X142120Y-301333D01*
X140725Y-302792D01*
X139795Y-304875D01*
X139485Y-306750D01*
X145994D01*
G01X155136Y-307167D02*
X154826Y-306958D01*
Y-306542D01*
X155136Y-306333D01*
X155447Y-306542D01*
Y-306958D01*
X155136Y-307167D01*
G01X164899Y-305292D02*
X165984Y-306333D01*
X167223Y-306750D01*
X168463Y-306333D01*
X169548Y-305084D01*
X170323Y-303208D01*
X170633Y-301333D01*
Y-299042D01*
X170323Y-297167D01*
X169548Y-295500D01*
X168618Y-294667D01*
X167533Y-294250D01*
X166293Y-294667D01*
X165364Y-295500D01*
X164744Y-296750D01*
X164434Y-298417D01*
X164744Y-299875D01*
X165519Y-301333D01*
X166449Y-302167D01*
X167533Y-302375D01*
X168773Y-301959D01*
X169703Y-300917D01*
X170633Y-299042D01*
G01X179930Y-306750D02*
X181015Y-306542D01*
X182255Y-305917D01*
X183030Y-304875D01*
X183340Y-303417D01*
X183030Y-301959D01*
X182100Y-300708D01*
X180705Y-300083D01*
X179156D01*
X178226Y-299667D01*
X177451Y-298625D01*
X177141Y-297167D01*
X177606Y-295708D01*
X178690Y-294667D01*
X179930Y-294250D01*
X181170Y-294667D01*
X182255Y-295708D01*
X182720Y-297167D01*
X182410Y-298625D01*
X181635Y-299667D01*
X180705Y-300083D01*
X179156D01*
X177761Y-300708D01*
X176831Y-301959D01*
X176521Y-303417D01*
X176831Y-304875D01*
X177606Y-305917D01*
X178846Y-306542D01*
X179930Y-306750D01*
G01X192327D02*
X193412Y-306542D01*
X194652Y-305917D01*
X195427Y-304875D01*
X195737Y-303417D01*
X195427Y-301959D01*
X194497Y-300708D01*
X193102Y-300083D01*
X191553D01*
X190623Y-299667D01*
X189848Y-298625D01*
X189538Y-297167D01*
X190003Y-295708D01*
X191087Y-294667D01*
X192327Y-294250D01*
X193567Y-294667D01*
X194652Y-295708D01*
X195117Y-297167D01*
X194807Y-298625D01*
X194032Y-299667D01*
X193102Y-300083D01*
X191553D01*
X190158Y-300708D01*
X189228Y-301959D01*
X188918Y-303417D01*
X189228Y-304875D01*
X190003Y-305917D01*
X191243Y-306542D01*
X192327Y-306750D01*
G01X48058Y-202583D02*
X51777D01*
G01X49762Y-199875D02*
Y-205292D01*
G01X62159Y-194250D02*
X60919Y-194667D01*
X59990Y-195708D01*
X59370Y-196958D01*
X58905Y-198625D01*
X58750Y-200500D01*
X58905Y-202375D01*
X59370Y-204042D01*
X59990Y-205292D01*
X60919Y-206333D01*
X62159Y-206750D01*
X63399Y-206333D01*
X64329Y-205292D01*
X64949Y-204042D01*
X65414Y-202375D01*
X65569Y-200500D01*
X65414Y-198625D01*
X64949Y-196958D01*
X64329Y-195708D01*
X63399Y-194667D01*
X62159Y-194250D01*
G01X74556Y-207167D02*
X74246Y-206958D01*
Y-206542D01*
X74556Y-206333D01*
X74867Y-206542D01*
Y-206958D01*
X74556Y-207167D01*
G01X86953Y-194250D02*
X85713Y-194667D01*
X84784Y-195708D01*
X84164Y-196958D01*
X83699Y-198625D01*
X83544Y-200500D01*
X83699Y-202375D01*
X84164Y-204042D01*
X84784Y-205292D01*
X85713Y-206333D01*
X86953Y-206750D01*
X88193Y-206333D01*
X89123Y-205292D01*
X89743Y-204042D01*
X90208Y-202375D01*
X90363Y-200500D01*
X90208Y-198625D01*
X89743Y-196958D01*
X89123Y-195708D01*
X88193Y-194667D01*
X86953Y-194250D01*
G01X96561Y-207167D02*
X102140Y-194250D01*
G01X109733Y-202583D02*
X113762D01*
G01X124144Y-206750D02*
Y-194250D01*
X122285Y-196750D01*
G01Y-206750D02*
X126004D01*
G01X133597Y-196333D02*
X134527Y-195084D01*
X135612Y-194458D01*
X136852Y-194250D01*
X138401Y-194667D01*
X139486Y-195708D01*
X139796Y-196958D01*
X139641Y-198209D01*
X139021Y-199250D01*
X135922Y-201333D01*
X134527Y-202792D01*
X133597Y-204875D01*
X133287Y-206750D01*
X139796D01*
G01X148938Y-207167D02*
X148628Y-206958D01*
Y-206542D01*
X148938Y-206333D01*
X149249Y-206542D01*
Y-206958D01*
X148938Y-207167D01*
G01X161335Y-194250D02*
X160095Y-194667D01*
X159166Y-195708D01*
X158546Y-196958D01*
X158081Y-198625D01*
X157926Y-200500D01*
X158081Y-202375D01*
X158546Y-204042D01*
X159166Y-205292D01*
X160095Y-206333D01*
X161335Y-206750D01*
X162575Y-206333D01*
X163505Y-205292D01*
X164125Y-204042D01*
X164590Y-202375D01*
X164745Y-200500D01*
X164590Y-198625D01*
X164125Y-196958D01*
X163505Y-195708D01*
X162575Y-194667D01*
X161335Y-194250D01*
G01X173732Y-206750D02*
Y-194250D01*
X171873Y-196750D01*
G01Y-206750D02*
X175592D01*
G01X183185Y-196333D02*
X184115Y-195084D01*
X185200Y-194458D01*
X186440Y-194250D01*
X187989Y-194667D01*
X189074Y-195708D01*
X189384Y-196958D01*
X189229Y-198209D01*
X188609Y-199250D01*
X185510Y-201333D01*
X184115Y-202792D01*
X183185Y-204875D01*
X182875Y-206750D01*
X189384D01*
G01X31166Y-169250D02*
Y-181750D01*
G01X27602Y-169250D02*
X34731D01*
G01X43563Y-181750D02*
X42323Y-181542D01*
X41239Y-180709D01*
X40309Y-179458D01*
X39689Y-178000D01*
X39379Y-176333D01*
Y-174667D01*
X39689Y-173000D01*
X40309Y-171542D01*
X41239Y-170292D01*
X42323Y-169458D01*
X43563Y-169250D01*
X44803Y-169458D01*
X45888Y-170292D01*
X46818Y-171542D01*
X47438Y-173000D01*
X47748Y-174667D01*
Y-176333D01*
X47438Y-178000D01*
X46818Y-179458D01*
X45888Y-180709D01*
X44803Y-181542D01*
X43563Y-181750D01*
G01X52861Y-169250D02*
Y-181750D01*
X59060D01*
G01X71457D02*
X65258D01*
Y-169250D01*
X71457D01*
G01X68977Y-175292D02*
X65258D01*
G01X77655Y-181750D02*
Y-169250D01*
X81529D01*
X82769Y-169875D01*
X83544Y-170708D01*
X83854Y-172375D01*
X83544Y-174042D01*
X82614Y-175083D01*
X81529Y-175708D01*
X77655D01*
G01X81529D02*
X83854Y-181750D01*
G01X89277D02*
X93151Y-169250D01*
X97026Y-181750D01*
G01X95631Y-177375D02*
X90672D01*
G01X101984Y-181750D02*
Y-169250D01*
X109113Y-181750D01*
Y-169250D01*
G01X121355Y-170292D02*
X120425Y-169667D01*
X119340Y-169250D01*
X118101D01*
X116705Y-169875D01*
X115621Y-170917D01*
X114846Y-172167D01*
X114226Y-174250D01*
X114071Y-176125D01*
X114381Y-178000D01*
X114846Y-179250D01*
X115776Y-180500D01*
X116861Y-181333D01*
X117945Y-181750D01*
X119030D01*
X120115Y-181333D01*
X121045Y-180709D01*
X121820Y-179875D01*
G01X133442Y-181750D02*
X127243D01*
Y-169250D01*
X133442D01*
G01X130962Y-175292D02*
X127243D01*
G01X138090Y-185917D02*
X147389D01*
G01X151727Y-181750D02*
Y-169250D01*
X154826D01*
X156066Y-169875D01*
X156996Y-170708D01*
X157771Y-171958D01*
X158391Y-173417D01*
X158546Y-175500D01*
X158391Y-177583D01*
X157771Y-179042D01*
X156996Y-180292D01*
X156066Y-181125D01*
X154826Y-181750D01*
X151727D01*
G01X164434D02*
Y-169250D01*
X168308D01*
X169548Y-169875D01*
X170323Y-170708D01*
X170633Y-172375D01*
X170323Y-174042D01*
X169393Y-175083D01*
X168308Y-175708D01*
X164434D01*
G01X168308D02*
X170633Y-181750D01*
G01X178071Y-169250D02*
X181790D01*
G01X179930D02*
Y-181750D01*
G01X178071D02*
X181790D01*
G01X189228Y-169250D02*
Y-181750D01*
X195427D01*
G01X201625Y-169250D02*
Y-181750D01*
X207824D01*
G01X66653Y-427583D02*
X70372D01*
G01X68357Y-424875D02*
Y-430292D01*
G01X80754Y-419250D02*
X79514Y-419667D01*
X78585Y-420708D01*
X77965Y-421958D01*
X77500Y-423625D01*
X77345Y-425500D01*
X77500Y-427375D01*
X77965Y-429042D01*
X78585Y-430292D01*
X79514Y-431333D01*
X80754Y-431750D01*
X81994Y-431333D01*
X82924Y-430292D01*
X83544Y-429042D01*
X84009Y-427375D01*
X84164Y-425500D01*
X84009Y-423625D01*
X83544Y-421958D01*
X82924Y-420708D01*
X81994Y-419667D01*
X80754Y-419250D01*
G01X93151Y-432167D02*
X92841Y-431958D01*
Y-431542D01*
X93151Y-431333D01*
X93462Y-431542D01*
Y-431958D01*
X93151Y-432167D01*
G01X105548Y-419250D02*
X104308Y-419667D01*
X103379Y-420708D01*
X102759Y-421958D01*
X102294Y-423625D01*
X102139Y-425500D01*
X102294Y-427375D01*
X102759Y-429042D01*
X103379Y-430292D01*
X104308Y-431333D01*
X105548Y-431750D01*
X106788Y-431333D01*
X107718Y-430292D01*
X108338Y-429042D01*
X108803Y-427375D01*
X108958Y-425500D01*
X108803Y-423625D01*
X108338Y-421958D01*
X107718Y-420708D01*
X106788Y-419667D01*
X105548Y-419250D01*
G01X115156Y-432167D02*
X120735Y-419250D01*
G01X128328Y-427583D02*
X132357D01*
G01X142739Y-419250D02*
X141499Y-419667D01*
X140570Y-420708D01*
X139950Y-421958D01*
X139485Y-423625D01*
X139330Y-425500D01*
X139485Y-427375D01*
X139950Y-429042D01*
X140570Y-430292D01*
X141499Y-431333D01*
X142739Y-431750D01*
X143979Y-431333D01*
X144909Y-430292D01*
X145529Y-429042D01*
X145994Y-427375D01*
X146149Y-425500D01*
X145994Y-423625D01*
X145529Y-421958D01*
X144909Y-420708D01*
X143979Y-419667D01*
X142739Y-419250D01*
G01X155136Y-432167D02*
X154826Y-431958D01*
Y-431542D01*
X155136Y-431333D01*
X155447Y-431542D01*
Y-431958D01*
X155136Y-432167D01*
G01X167533Y-419250D02*
X166293Y-419667D01*
X165364Y-420708D01*
X164744Y-421958D01*
X164279Y-423625D01*
X164124Y-425500D01*
X164279Y-427375D01*
X164744Y-429042D01*
X165364Y-430292D01*
X166293Y-431333D01*
X167533Y-431750D01*
X168773Y-431333D01*
X169703Y-430292D01*
X170323Y-429042D01*
X170788Y-427375D01*
X170943Y-425500D01*
X170788Y-423625D01*
X170323Y-421958D01*
X169703Y-420708D01*
X168773Y-419667D01*
X167533Y-419250D01*
G01X66653Y-402583D02*
X70372D01*
G01X68357Y-399875D02*
Y-405292D01*
G01X80754Y-394250D02*
X79514Y-394667D01*
X78585Y-395708D01*
X77965Y-396958D01*
X77500Y-398625D01*
X77345Y-400500D01*
X77500Y-402375D01*
X77965Y-404042D01*
X78585Y-405292D01*
X79514Y-406333D01*
X80754Y-406750D01*
X81994Y-406333D01*
X82924Y-405292D01*
X83544Y-404042D01*
X84009Y-402375D01*
X84164Y-400500D01*
X84009Y-398625D01*
X83544Y-396958D01*
X82924Y-395708D01*
X81994Y-394667D01*
X80754Y-394250D01*
G01X93151Y-407167D02*
X92841Y-406958D01*
Y-406542D01*
X93151Y-406333D01*
X93462Y-406542D01*
Y-406958D01*
X93151Y-407167D01*
G01X105548Y-394250D02*
X104308Y-394667D01*
X103379Y-395708D01*
X102759Y-396958D01*
X102294Y-398625D01*
X102139Y-400500D01*
X102294Y-402375D01*
X102759Y-404042D01*
X103379Y-405292D01*
X104308Y-406333D01*
X105548Y-406750D01*
X106788Y-406333D01*
X107718Y-405292D01*
X108338Y-404042D01*
X108803Y-402375D01*
X108958Y-400500D01*
X108803Y-398625D01*
X108338Y-396958D01*
X107718Y-395708D01*
X106788Y-394667D01*
X105548Y-394250D01*
G01X115156Y-407167D02*
X120735Y-394250D01*
G01X128328Y-402583D02*
X132357D01*
G01X142739Y-394250D02*
X141499Y-394667D01*
X140570Y-395708D01*
X139950Y-396958D01*
X139485Y-398625D01*
X139330Y-400500D01*
X139485Y-402375D01*
X139950Y-404042D01*
X140570Y-405292D01*
X141499Y-406333D01*
X142739Y-406750D01*
X143979Y-406333D01*
X144909Y-405292D01*
X145529Y-404042D01*
X145994Y-402375D01*
X146149Y-400500D01*
X145994Y-398625D01*
X145529Y-396958D01*
X144909Y-395708D01*
X143979Y-394667D01*
X142739Y-394250D01*
G01X155136Y-407167D02*
X154826Y-406958D01*
Y-406542D01*
X155136Y-406333D01*
X155447Y-406542D01*
Y-406958D01*
X155136Y-407167D01*
G01X167533Y-394250D02*
X166293Y-394667D01*
X165364Y-395708D01*
X164744Y-396958D01*
X164279Y-398625D01*
X164124Y-400500D01*
X164279Y-402375D01*
X164744Y-404042D01*
X165364Y-405292D01*
X166293Y-406333D01*
X167533Y-406750D01*
X168773Y-406333D01*
X169703Y-405292D01*
X170323Y-404042D01*
X170788Y-402375D01*
X170943Y-400500D01*
X170788Y-398625D01*
X170323Y-396958D01*
X169703Y-395708D01*
X168773Y-394667D01*
X167533Y-394250D01*
G01X66653Y-377583D02*
X70372D01*
G01X68357Y-374875D02*
Y-380292D01*
G01X80754Y-369250D02*
X79514Y-369667D01*
X78585Y-370708D01*
X77965Y-371958D01*
X77500Y-373625D01*
X77345Y-375500D01*
X77500Y-377375D01*
X77965Y-379042D01*
X78585Y-380292D01*
X79514Y-381333D01*
X80754Y-381750D01*
X81994Y-381333D01*
X82924Y-380292D01*
X83544Y-379042D01*
X84009Y-377375D01*
X84164Y-375500D01*
X84009Y-373625D01*
X83544Y-371958D01*
X82924Y-370708D01*
X81994Y-369667D01*
X80754Y-369250D01*
G01X93151Y-382167D02*
X92841Y-381958D01*
Y-381542D01*
X93151Y-381333D01*
X93462Y-381542D01*
Y-381958D01*
X93151Y-382167D01*
G01X105548Y-369250D02*
X104308Y-369667D01*
X103379Y-370708D01*
X102759Y-371958D01*
X102294Y-373625D01*
X102139Y-375500D01*
X102294Y-377375D01*
X102759Y-379042D01*
X103379Y-380292D01*
X104308Y-381333D01*
X105548Y-381750D01*
X106788Y-381333D01*
X107718Y-380292D01*
X108338Y-379042D01*
X108803Y-377375D01*
X108958Y-375500D01*
X108803Y-373625D01*
X108338Y-371958D01*
X107718Y-370708D01*
X106788Y-369667D01*
X105548Y-369250D01*
G01X115156Y-382167D02*
X120735Y-369250D01*
G01X128328Y-377583D02*
X132357D01*
G01X142739Y-369250D02*
X141499Y-369667D01*
X140570Y-370708D01*
X139950Y-371958D01*
X139485Y-373625D01*
X139330Y-375500D01*
X139485Y-377375D01*
X139950Y-379042D01*
X140570Y-380292D01*
X141499Y-381333D01*
X142739Y-381750D01*
X143979Y-381333D01*
X144909Y-380292D01*
X145529Y-379042D01*
X145994Y-377375D01*
X146149Y-375500D01*
X145994Y-373625D01*
X145529Y-371958D01*
X144909Y-370708D01*
X143979Y-369667D01*
X142739Y-369250D01*
G01X155136Y-382167D02*
X154826Y-381958D01*
Y-381542D01*
X155136Y-381333D01*
X155447Y-381542D01*
Y-381958D01*
X155136Y-382167D01*
G01X167533Y-369250D02*
X166293Y-369667D01*
X165364Y-370708D01*
X164744Y-371958D01*
X164279Y-373625D01*
X164124Y-375500D01*
X164279Y-377375D01*
X164744Y-379042D01*
X165364Y-380292D01*
X166293Y-381333D01*
X167533Y-381750D01*
X168773Y-381333D01*
X169703Y-380292D01*
X170323Y-379042D01*
X170788Y-377375D01*
X170943Y-375500D01*
X170788Y-373625D01*
X170323Y-371958D01*
X169703Y-370708D01*
X168773Y-369667D01*
X167533Y-369250D01*
G01X66653Y-352583D02*
X70372D01*
G01X68357Y-349875D02*
Y-355292D01*
G01X80754Y-344250D02*
X79514Y-344667D01*
X78585Y-345708D01*
X77965Y-346958D01*
X77500Y-348625D01*
X77345Y-350500D01*
X77500Y-352375D01*
X77965Y-354042D01*
X78585Y-355292D01*
X79514Y-356333D01*
X80754Y-356750D01*
X81994Y-356333D01*
X82924Y-355292D01*
X83544Y-354042D01*
X84009Y-352375D01*
X84164Y-350500D01*
X84009Y-348625D01*
X83544Y-346958D01*
X82924Y-345708D01*
X81994Y-344667D01*
X80754Y-344250D01*
G01X93151Y-357167D02*
X92841Y-356958D01*
Y-356542D01*
X93151Y-356333D01*
X93462Y-356542D01*
Y-356958D01*
X93151Y-357167D01*
G01X105548Y-344250D02*
X104308Y-344667D01*
X103379Y-345708D01*
X102759Y-346958D01*
X102294Y-348625D01*
X102139Y-350500D01*
X102294Y-352375D01*
X102759Y-354042D01*
X103379Y-355292D01*
X104308Y-356333D01*
X105548Y-356750D01*
X106788Y-356333D01*
X107718Y-355292D01*
X108338Y-354042D01*
X108803Y-352375D01*
X108958Y-350500D01*
X108803Y-348625D01*
X108338Y-346958D01*
X107718Y-345708D01*
X106788Y-344667D01*
X105548Y-344250D01*
G01X115156Y-357167D02*
X120735Y-344250D01*
G01X128328Y-352583D02*
X132357D01*
G01X142739Y-344250D02*
X141499Y-344667D01*
X140570Y-345708D01*
X139950Y-346958D01*
X139485Y-348625D01*
X139330Y-350500D01*
X139485Y-352375D01*
X139950Y-354042D01*
X140570Y-355292D01*
X141499Y-356333D01*
X142739Y-356750D01*
X143979Y-356333D01*
X144909Y-355292D01*
X145529Y-354042D01*
X145994Y-352375D01*
X146149Y-350500D01*
X145994Y-348625D01*
X145529Y-346958D01*
X144909Y-345708D01*
X143979Y-344667D01*
X142739Y-344250D01*
G01X155136Y-357167D02*
X154826Y-356958D01*
Y-356542D01*
X155136Y-356333D01*
X155447Y-356542D01*
Y-356958D01*
X155136Y-357167D01*
G01X167533Y-344250D02*
X166293Y-344667D01*
X165364Y-345708D01*
X164744Y-346958D01*
X164279Y-348625D01*
X164124Y-350500D01*
X164279Y-352375D01*
X164744Y-354042D01*
X165364Y-355292D01*
X166293Y-356333D01*
X167533Y-356750D01*
X168773Y-356333D01*
X169703Y-355292D01*
X170323Y-354042D01*
X170788Y-352375D01*
X170943Y-350500D01*
X170788Y-348625D01*
X170323Y-346958D01*
X169703Y-345708D01*
X168773Y-344667D01*
X167533Y-344250D01*
G01X66653Y-327583D02*
X70372D01*
G01X68357Y-324875D02*
Y-330292D01*
G01X77345Y-329250D02*
X78275Y-330709D01*
X79514Y-331542D01*
X80910Y-331750D01*
X82149Y-331542D01*
X83389Y-330500D01*
X84164Y-329250D01*
X84319Y-328000D01*
X84009Y-326542D01*
X82924Y-325500D01*
X81839Y-325083D01*
X80444D01*
G01X81839D02*
X82769Y-324458D01*
X83544Y-323417D01*
X83854Y-322167D01*
X83544Y-320917D01*
X82769Y-319875D01*
X81374Y-319250D01*
X79980Y-319458D01*
X78585Y-320292D01*
G01X93151Y-332167D02*
X92841Y-331958D01*
Y-331542D01*
X93151Y-331333D01*
X93462Y-331542D01*
Y-331958D01*
X93151Y-332167D01*
G01X105548Y-319250D02*
X104308Y-319667D01*
X103379Y-320708D01*
X102759Y-321958D01*
X102294Y-323625D01*
X102139Y-325500D01*
X102294Y-327375D01*
X102759Y-329042D01*
X103379Y-330292D01*
X104308Y-331333D01*
X105548Y-331750D01*
X106788Y-331333D01*
X107718Y-330292D01*
X108338Y-329042D01*
X108803Y-327375D01*
X108958Y-325500D01*
X108803Y-323625D01*
X108338Y-321958D01*
X107718Y-320708D01*
X106788Y-319667D01*
X105548Y-319250D01*
G01X115156Y-332167D02*
X120735Y-319250D01*
G01X128328Y-327583D02*
X132357D01*
G01X139330Y-329250D02*
X140260Y-330709D01*
X141499Y-331542D01*
X142895Y-331750D01*
X144134Y-331542D01*
X145374Y-330500D01*
X146149Y-329250D01*
X146304Y-328000D01*
X145994Y-326542D01*
X144909Y-325500D01*
X143824Y-325083D01*
X142429D01*
G01X143824D02*
X144754Y-324458D01*
X145529Y-323417D01*
X145839Y-322167D01*
X145529Y-320917D01*
X144754Y-319875D01*
X143359Y-319250D01*
X141965Y-319458D01*
X140570Y-320292D01*
G01X155136Y-332167D02*
X154826Y-331958D01*
Y-331542D01*
X155136Y-331333D01*
X155447Y-331542D01*
Y-331958D01*
X155136Y-332167D01*
G01X167533Y-319250D02*
X166293Y-319667D01*
X165364Y-320708D01*
X164744Y-321958D01*
X164279Y-323625D01*
X164124Y-325500D01*
X164279Y-327375D01*
X164744Y-329042D01*
X165364Y-330292D01*
X166293Y-331333D01*
X167533Y-331750D01*
X168773Y-331333D01*
X169703Y-330292D01*
X170323Y-329042D01*
X170788Y-327375D01*
X170943Y-325500D01*
X170788Y-323625D01*
X170323Y-321958D01*
X169703Y-320708D01*
X168773Y-319667D01*
X167533Y-319250D01*
G01X66653Y-277583D02*
X70372D01*
G01X68357Y-274875D02*
Y-280292D01*
G01X80754Y-269250D02*
X79514Y-269667D01*
X78585Y-270708D01*
X77965Y-271958D01*
X77500Y-273625D01*
X77345Y-275500D01*
X77500Y-277375D01*
X77965Y-279042D01*
X78585Y-280292D01*
X79514Y-281333D01*
X80754Y-281750D01*
X81994Y-281333D01*
X82924Y-280292D01*
X83544Y-279042D01*
X84009Y-277375D01*
X84164Y-275500D01*
X84009Y-273625D01*
X83544Y-271958D01*
X82924Y-270708D01*
X81994Y-269667D01*
X80754Y-269250D01*
G01X93151Y-282167D02*
X92841Y-281958D01*
Y-281542D01*
X93151Y-281333D01*
X93462Y-281542D01*
Y-281958D01*
X93151Y-282167D01*
G01X105548Y-269250D02*
X104308Y-269667D01*
X103379Y-270708D01*
X102759Y-271958D01*
X102294Y-273625D01*
X102139Y-275500D01*
X102294Y-277375D01*
X102759Y-279042D01*
X103379Y-280292D01*
X104308Y-281333D01*
X105548Y-281750D01*
X106788Y-281333D01*
X107718Y-280292D01*
X108338Y-279042D01*
X108803Y-277375D01*
X108958Y-275500D01*
X108803Y-273625D01*
X108338Y-271958D01*
X107718Y-270708D01*
X106788Y-269667D01*
X105548Y-269250D01*
G01X115156Y-282167D02*
X120735Y-269250D01*
G01X128328Y-277583D02*
X132357D01*
G01X142739Y-269250D02*
X141499Y-269667D01*
X140570Y-270708D01*
X139950Y-271958D01*
X139485Y-273625D01*
X139330Y-275500D01*
X139485Y-277375D01*
X139950Y-279042D01*
X140570Y-280292D01*
X141499Y-281333D01*
X142739Y-281750D01*
X143979Y-281333D01*
X144909Y-280292D01*
X145529Y-279042D01*
X145994Y-277375D01*
X146149Y-275500D01*
X145994Y-273625D01*
X145529Y-271958D01*
X144909Y-270708D01*
X143979Y-269667D01*
X142739Y-269250D01*
G01X155136Y-282167D02*
X154826Y-281958D01*
Y-281542D01*
X155136Y-281333D01*
X155447Y-281542D01*
Y-281958D01*
X155136Y-282167D01*
G01X167533Y-269250D02*
X166293Y-269667D01*
X165364Y-270708D01*
X164744Y-271958D01*
X164279Y-273625D01*
X164124Y-275500D01*
X164279Y-277375D01*
X164744Y-279042D01*
X165364Y-280292D01*
X166293Y-281333D01*
X167533Y-281750D01*
X168773Y-281333D01*
X169703Y-280292D01*
X170323Y-279042D01*
X170788Y-277375D01*
X170943Y-275500D01*
X170788Y-273625D01*
X170323Y-271958D01*
X169703Y-270708D01*
X168773Y-269667D01*
X167533Y-269250D01*
G01X66653Y-252583D02*
X70372D01*
G01X68357Y-249875D02*
Y-255292D01*
G01X80754Y-244250D02*
X79514Y-244667D01*
X78585Y-245708D01*
X77965Y-246958D01*
X77500Y-248625D01*
X77345Y-250500D01*
X77500Y-252375D01*
X77965Y-254042D01*
X78585Y-255292D01*
X79514Y-256333D01*
X80754Y-256750D01*
X81994Y-256333D01*
X82924Y-255292D01*
X83544Y-254042D01*
X84009Y-252375D01*
X84164Y-250500D01*
X84009Y-248625D01*
X83544Y-246958D01*
X82924Y-245708D01*
X81994Y-244667D01*
X80754Y-244250D01*
G01X93151Y-257167D02*
X92841Y-256958D01*
Y-256542D01*
X93151Y-256333D01*
X93462Y-256542D01*
Y-256958D01*
X93151Y-257167D01*
G01X105548Y-244250D02*
X104308Y-244667D01*
X103379Y-245708D01*
X102759Y-246958D01*
X102294Y-248625D01*
X102139Y-250500D01*
X102294Y-252375D01*
X102759Y-254042D01*
X103379Y-255292D01*
X104308Y-256333D01*
X105548Y-256750D01*
X106788Y-256333D01*
X107718Y-255292D01*
X108338Y-254042D01*
X108803Y-252375D01*
X108958Y-250500D01*
X108803Y-248625D01*
X108338Y-246958D01*
X107718Y-245708D01*
X106788Y-244667D01*
X105548Y-244250D01*
G01X115156Y-257167D02*
X120735Y-244250D01*
G01X128328Y-252583D02*
X132357D01*
G01X142739Y-244250D02*
X141499Y-244667D01*
X140570Y-245708D01*
X139950Y-246958D01*
X139485Y-248625D01*
X139330Y-250500D01*
X139485Y-252375D01*
X139950Y-254042D01*
X140570Y-255292D01*
X141499Y-256333D01*
X142739Y-256750D01*
X143979Y-256333D01*
X144909Y-255292D01*
X145529Y-254042D01*
X145994Y-252375D01*
X146149Y-250500D01*
X145994Y-248625D01*
X145529Y-246958D01*
X144909Y-245708D01*
X143979Y-244667D01*
X142739Y-244250D01*
G01X155136Y-257167D02*
X154826Y-256958D01*
Y-256542D01*
X155136Y-256333D01*
X155447Y-256542D01*
Y-256958D01*
X155136Y-257167D01*
G01X167533Y-244250D02*
X166293Y-244667D01*
X165364Y-245708D01*
X164744Y-246958D01*
X164279Y-248625D01*
X164124Y-250500D01*
X164279Y-252375D01*
X164744Y-254042D01*
X165364Y-255292D01*
X166293Y-256333D01*
X167533Y-256750D01*
X168773Y-256333D01*
X169703Y-255292D01*
X170323Y-254042D01*
X170788Y-252375D01*
X170943Y-250500D01*
X170788Y-248625D01*
X170323Y-246958D01*
X169703Y-245708D01*
X168773Y-244667D01*
X167533Y-244250D01*
G01X66653Y-227583D02*
X70372D01*
G01X68357Y-224875D02*
Y-230292D01*
G01X80754Y-219250D02*
X79514Y-219667D01*
X78585Y-220708D01*
X77965Y-221958D01*
X77500Y-223625D01*
X77345Y-225500D01*
X77500Y-227375D01*
X77965Y-229042D01*
X78585Y-230292D01*
X79514Y-231333D01*
X80754Y-231750D01*
X81994Y-231333D01*
X82924Y-230292D01*
X83544Y-229042D01*
X84009Y-227375D01*
X84164Y-225500D01*
X84009Y-223625D01*
X83544Y-221958D01*
X82924Y-220708D01*
X81994Y-219667D01*
X80754Y-219250D01*
G01X93151Y-232167D02*
X92841Y-231958D01*
Y-231542D01*
X93151Y-231333D01*
X93462Y-231542D01*
Y-231958D01*
X93151Y-232167D01*
G01X105548Y-219250D02*
X104308Y-219667D01*
X103379Y-220708D01*
X102759Y-221958D01*
X102294Y-223625D01*
X102139Y-225500D01*
X102294Y-227375D01*
X102759Y-229042D01*
X103379Y-230292D01*
X104308Y-231333D01*
X105548Y-231750D01*
X106788Y-231333D01*
X107718Y-230292D01*
X108338Y-229042D01*
X108803Y-227375D01*
X108958Y-225500D01*
X108803Y-223625D01*
X108338Y-221958D01*
X107718Y-220708D01*
X106788Y-219667D01*
X105548Y-219250D01*
G01X115156Y-232167D02*
X120735Y-219250D01*
G01X128328Y-227583D02*
X132357D01*
G01X142739Y-219250D02*
X141499Y-219667D01*
X140570Y-220708D01*
X139950Y-221958D01*
X139485Y-223625D01*
X139330Y-225500D01*
X139485Y-227375D01*
X139950Y-229042D01*
X140570Y-230292D01*
X141499Y-231333D01*
X142739Y-231750D01*
X143979Y-231333D01*
X144909Y-230292D01*
X145529Y-229042D01*
X145994Y-227375D01*
X146149Y-225500D01*
X145994Y-223625D01*
X145529Y-221958D01*
X144909Y-220708D01*
X143979Y-219667D01*
X142739Y-219250D01*
G01X155136Y-232167D02*
X154826Y-231958D01*
Y-231542D01*
X155136Y-231333D01*
X155447Y-231542D01*
Y-231958D01*
X155136Y-232167D01*
G01X167533Y-219250D02*
X166293Y-219667D01*
X165364Y-220708D01*
X164744Y-221958D01*
X164279Y-223625D01*
X164124Y-225500D01*
X164279Y-227375D01*
X164744Y-229042D01*
X165364Y-230292D01*
X166293Y-231333D01*
X167533Y-231750D01*
X168773Y-231333D01*
X169703Y-230292D01*
X170323Y-229042D01*
X170788Y-227375D01*
X170943Y-225500D01*
X170788Y-223625D01*
X170323Y-221958D01*
X169703Y-220708D01*
X168773Y-219667D01*
X167533Y-219250D01*
G01X222851Y-431750D02*
Y-419250D01*
X229980Y-431750D01*
Y-419250D01*
G01X238812Y-431750D02*
X237572Y-431542D01*
X236488Y-430709D01*
X235558Y-429458D01*
X234938Y-428000D01*
X234628Y-426333D01*
Y-424667D01*
X234938Y-423000D01*
X235558Y-421542D01*
X236488Y-420292D01*
X237572Y-419458D01*
X238812Y-419250D01*
X240052Y-419458D01*
X241137Y-420292D01*
X242067Y-421542D01*
X242687Y-423000D01*
X242997Y-424667D01*
Y-426333D01*
X242687Y-428000D01*
X242067Y-429458D01*
X241137Y-430709D01*
X240052Y-431542D01*
X238812Y-431750D01*
G01X247645D02*
Y-419250D01*
X254774Y-431750D01*
Y-419250D01*
G01X261592Y-427583D02*
X265621D01*
G01X272904Y-431750D02*
Y-419250D01*
X276623D01*
X277863Y-419875D01*
X278793Y-421333D01*
X279103Y-423000D01*
X278793Y-424667D01*
X278018Y-425917D01*
X276623Y-426542D01*
X272904D01*
G01X285301Y-419250D02*
Y-431750D01*
X291500D01*
G01X296923D02*
X300797Y-419250D01*
X304672Y-431750D01*
G01X303277Y-427375D02*
X298318D01*
G01X313194Y-419250D02*
Y-431750D01*
G01X309630Y-419250D02*
X316759D01*
G01X328691Y-431750D02*
X322492D01*
Y-419250D01*
X328691D01*
G01X326211Y-425292D02*
X322492D01*
G01X334579Y-431750D02*
Y-419250D01*
X337678D01*
X338918Y-419875D01*
X339848Y-420708D01*
X340623Y-421958D01*
X341243Y-423417D01*
X341398Y-425500D01*
X341243Y-427583D01*
X340623Y-429042D01*
X339848Y-430292D01*
X338918Y-431125D01*
X337678Y-431750D01*
X334579D01*
G01X222851Y-406750D02*
Y-394250D01*
X229980Y-406750D01*
Y-394250D01*
G01X238812Y-406750D02*
X237572Y-406542D01*
X236488Y-405709D01*
X235558Y-404458D01*
X234938Y-403000D01*
X234628Y-401333D01*
Y-399667D01*
X234938Y-398000D01*
X235558Y-396542D01*
X236488Y-395292D01*
X237572Y-394458D01*
X238812Y-394250D01*
X240052Y-394458D01*
X241137Y-395292D01*
X242067Y-396542D01*
X242687Y-398000D01*
X242997Y-399667D01*
Y-401333D01*
X242687Y-403000D01*
X242067Y-404458D01*
X241137Y-405709D01*
X240052Y-406542D01*
X238812Y-406750D01*
G01X247645D02*
Y-394250D01*
X254774Y-406750D01*
Y-394250D01*
G01X261592Y-402583D02*
X265621D01*
G01X272904Y-406750D02*
Y-394250D01*
X276623D01*
X277863Y-394875D01*
X278793Y-396333D01*
X279103Y-398000D01*
X278793Y-399667D01*
X278018Y-400917D01*
X276623Y-401542D01*
X272904D01*
G01X285301Y-394250D02*
Y-406750D01*
X291500D01*
G01X296923D02*
X300797Y-394250D01*
X304672Y-406750D01*
G01X303277Y-402375D02*
X298318D01*
G01X313194Y-394250D02*
Y-406750D01*
G01X309630Y-394250D02*
X316759D01*
G01X328691Y-406750D02*
X322492D01*
Y-394250D01*
X328691D01*
G01X326211Y-400292D02*
X322492D01*
G01X334579Y-406750D02*
Y-394250D01*
X337678D01*
X338918Y-394875D01*
X339848Y-395708D01*
X340623Y-396958D01*
X341243Y-398417D01*
X341398Y-400500D01*
X341243Y-402583D01*
X340623Y-404042D01*
X339848Y-405292D01*
X338918Y-406125D01*
X337678Y-406750D01*
X334579D01*
G01X248110Y-381750D02*
Y-369250D01*
X251829D01*
X253069Y-369875D01*
X253999Y-371333D01*
X254309Y-373000D01*
X253999Y-374667D01*
X253224Y-375917D01*
X251829Y-376542D01*
X248110D01*
G01X260507Y-369250D02*
Y-381750D01*
X266706D01*
G01X272129D02*
X276003Y-369250D01*
X279878Y-381750D01*
G01X278483Y-377375D02*
X273524D01*
G01X288400Y-369250D02*
Y-381750D01*
G01X284836Y-369250D02*
X291965D01*
G01X303897Y-381750D02*
X297698D01*
Y-369250D01*
X303897D01*
G01X301417Y-375292D02*
X297698D01*
G01X309785Y-381750D02*
Y-369250D01*
X312884D01*
X314124Y-369875D01*
X315054Y-370708D01*
X315829Y-371958D01*
X316449Y-373417D01*
X316604Y-375500D01*
X316449Y-377583D01*
X315829Y-379042D01*
X315054Y-380292D01*
X314124Y-381125D01*
X312884Y-381750D01*
X309785D01*
G01X248110Y-356750D02*
Y-344250D01*
X251829D01*
X253069Y-344875D01*
X253999Y-346333D01*
X254309Y-348000D01*
X253999Y-349667D01*
X253224Y-350917D01*
X251829Y-351542D01*
X248110D01*
G01X260507Y-344250D02*
Y-356750D01*
X266706D01*
G01X272129D02*
X276003Y-344250D01*
X279878Y-356750D01*
G01X278483Y-352375D02*
X273524D01*
G01X288400Y-344250D02*
Y-356750D01*
G01X284836Y-344250D02*
X291965D01*
G01X303897Y-356750D02*
X297698D01*
Y-344250D01*
X303897D01*
G01X301417Y-350292D02*
X297698D01*
G01X309785Y-356750D02*
Y-344250D01*
X312884D01*
X314124Y-344875D01*
X315054Y-345708D01*
X315829Y-346958D01*
X316449Y-348417D01*
X316604Y-350500D01*
X316449Y-352583D01*
X315829Y-354042D01*
X315054Y-355292D01*
X314124Y-356125D01*
X312884Y-356750D01*
X309785D01*
G01X248110Y-331750D02*
Y-319250D01*
X251829D01*
X253069Y-319875D01*
X253999Y-321333D01*
X254309Y-323000D01*
X253999Y-324667D01*
X253224Y-325917D01*
X251829Y-326542D01*
X248110D01*
G01X260507Y-319250D02*
Y-331750D01*
X266706D01*
G01X272129D02*
X276003Y-319250D01*
X279878Y-331750D01*
G01X278483Y-327375D02*
X273524D01*
G01X288400Y-319250D02*
Y-331750D01*
G01X284836Y-319250D02*
X291965D01*
G01X303897Y-331750D02*
X297698D01*
Y-319250D01*
X303897D01*
G01X301417Y-325292D02*
X297698D01*
G01X309785Y-331750D02*
Y-319250D01*
X312884D01*
X314124Y-319875D01*
X315054Y-320708D01*
X315829Y-321958D01*
X316449Y-323417D01*
X316604Y-325500D01*
X316449Y-327583D01*
X315829Y-329042D01*
X315054Y-330292D01*
X314124Y-331125D01*
X312884Y-331750D01*
X309785D01*
G01X248110Y-306750D02*
Y-294250D01*
X251829D01*
X253069Y-294875D01*
X253999Y-296333D01*
X254309Y-298000D01*
X253999Y-299667D01*
X253224Y-300917D01*
X251829Y-301542D01*
X248110D01*
G01X260507Y-294250D02*
Y-306750D01*
X266706D01*
G01X272129D02*
X276003Y-294250D01*
X279878Y-306750D01*
G01X278483Y-302375D02*
X273524D01*
G01X288400Y-294250D02*
Y-306750D01*
G01X284836Y-294250D02*
X291965D01*
G01X303897Y-306750D02*
X297698D01*
Y-294250D01*
X303897D01*
G01X301417Y-300292D02*
X297698D01*
G01X309785Y-306750D02*
Y-294250D01*
X312884D01*
X314124Y-294875D01*
X315054Y-295708D01*
X315829Y-296958D01*
X316449Y-298417D01*
X316604Y-300500D01*
X316449Y-302583D01*
X315829Y-304042D01*
X315054Y-305292D01*
X314124Y-306125D01*
X312884Y-306750D01*
X309785D01*
G01X248110Y-281750D02*
Y-269250D01*
X251829D01*
X253069Y-269875D01*
X253999Y-271333D01*
X254309Y-273000D01*
X253999Y-274667D01*
X253224Y-275917D01*
X251829Y-276542D01*
X248110D01*
G01X260507Y-269250D02*
Y-281750D01*
X266706D01*
G01X272129D02*
X276003Y-269250D01*
X279878Y-281750D01*
G01X278483Y-277375D02*
X273524D01*
G01X288400Y-269250D02*
Y-281750D01*
G01X284836Y-269250D02*
X291965D01*
G01X303897Y-281750D02*
X297698D01*
Y-269250D01*
X303897D01*
G01X301417Y-275292D02*
X297698D01*
G01X309785Y-281750D02*
Y-269250D01*
X312884D01*
X314124Y-269875D01*
X315054Y-270708D01*
X315829Y-271958D01*
X316449Y-273417D01*
X316604Y-275500D01*
X316449Y-277583D01*
X315829Y-279042D01*
X315054Y-280292D01*
X314124Y-281125D01*
X312884Y-281750D01*
X309785D01*
G01X248110Y-256750D02*
Y-244250D01*
X251829D01*
X253069Y-244875D01*
X253999Y-246333D01*
X254309Y-248000D01*
X253999Y-249667D01*
X253224Y-250917D01*
X251829Y-251542D01*
X248110D01*
G01X260507Y-244250D02*
Y-256750D01*
X266706D01*
G01X272129D02*
X276003Y-244250D01*
X279878Y-256750D01*
G01X278483Y-252375D02*
X273524D01*
G01X288400Y-244250D02*
Y-256750D01*
G01X284836Y-244250D02*
X291965D01*
G01X303897Y-256750D02*
X297698D01*
Y-244250D01*
X303897D01*
G01X301417Y-250292D02*
X297698D01*
G01X309785Y-256750D02*
Y-244250D01*
X312884D01*
X314124Y-244875D01*
X315054Y-245708D01*
X315829Y-246958D01*
X316449Y-248417D01*
X316604Y-250500D01*
X316449Y-252583D01*
X315829Y-254042D01*
X315054Y-255292D01*
X314124Y-256125D01*
X312884Y-256750D01*
X309785D01*
G01X248110Y-231750D02*
Y-219250D01*
X251829D01*
X253069Y-219875D01*
X253999Y-221333D01*
X254309Y-223000D01*
X253999Y-224667D01*
X253224Y-225917D01*
X251829Y-226542D01*
X248110D01*
G01X260507Y-219250D02*
Y-231750D01*
X266706D01*
G01X272129D02*
X276003Y-219250D01*
X279878Y-231750D01*
G01X278483Y-227375D02*
X273524D01*
G01X288400Y-219250D02*
Y-231750D01*
G01X284836Y-219250D02*
X291965D01*
G01X303897Y-231750D02*
X297698D01*
Y-219250D01*
X303897D01*
G01X301417Y-225292D02*
X297698D01*
G01X309785Y-231750D02*
Y-219250D01*
X312884D01*
X314124Y-219875D01*
X315054Y-220708D01*
X315829Y-221958D01*
X316449Y-223417D01*
X316604Y-225500D01*
X316449Y-227583D01*
X315829Y-229042D01*
X315054Y-230292D01*
X314124Y-231125D01*
X312884Y-231750D01*
X309785D01*
G01X248110Y-206750D02*
Y-194250D01*
X251829D01*
X253069Y-194875D01*
X253999Y-196333D01*
X254309Y-198000D01*
X253999Y-199667D01*
X253224Y-200917D01*
X251829Y-201542D01*
X248110D01*
G01X260507Y-194250D02*
Y-206750D01*
X266706D01*
G01X272129D02*
X276003Y-194250D01*
X279878Y-206750D01*
G01X278483Y-202375D02*
X273524D01*
G01X288400Y-194250D02*
Y-206750D01*
G01X284836Y-194250D02*
X291965D01*
G01X303897Y-206750D02*
X297698D01*
Y-194250D01*
X303897D01*
G01X301417Y-200292D02*
X297698D01*
G01X309785Y-206750D02*
Y-194250D01*
X312884D01*
X314124Y-194875D01*
X315054Y-195708D01*
X315829Y-196958D01*
X316449Y-198417D01*
X316604Y-200500D01*
X316449Y-202583D01*
X315829Y-204042D01*
X315054Y-205292D01*
X314124Y-206125D01*
X312884Y-206750D01*
X309785D01*
G01X248110Y-181750D02*
Y-169250D01*
X251829D01*
X253069Y-169875D01*
X253999Y-171333D01*
X254309Y-173000D01*
X253999Y-174667D01*
X253224Y-175917D01*
X251829Y-176542D01*
X248110D01*
G01X260507Y-169250D02*
Y-181750D01*
X266706D01*
G01X272129D02*
X276003Y-169250D01*
X279878Y-181750D01*
G01X278483Y-177375D02*
X273524D01*
G01X288400Y-169250D02*
Y-181750D01*
G01X284836Y-169250D02*
X291965D01*
G01X303897Y-181750D02*
X297698D01*
Y-169250D01*
X303897D01*
G01X301417Y-175292D02*
X297698D01*
G01X309785Y-181750D02*
Y-169250D01*
X312884D01*
X314124Y-169875D01*
X315054Y-170708D01*
X315829Y-171958D01*
X316449Y-173417D01*
X316604Y-175500D01*
X316449Y-177583D01*
X315829Y-179042D01*
X315054Y-180292D01*
X314124Y-181125D01*
X312884Y-181750D01*
X309785D01*
G01X378276Y-306750D02*
Y-294250D01*
X376417Y-296750D01*
G01Y-306750D02*
X380136D01*
G01X390673Y-294250D02*
X389433Y-294667D01*
X388504Y-295708D01*
X387884Y-296958D01*
X387419Y-298625D01*
X387264Y-300500D01*
X387419Y-302375D01*
X387884Y-304042D01*
X388504Y-305292D01*
X389433Y-306333D01*
X390673Y-306750D01*
X391913Y-306333D01*
X392843Y-305292D01*
X393463Y-304042D01*
X393928Y-302375D01*
X394083Y-300500D01*
X393928Y-298625D01*
X393463Y-296958D01*
X392843Y-295708D01*
X391913Y-294667D01*
X390673Y-294250D01*
G01X378276Y-281750D02*
Y-269250D01*
X376417Y-271750D01*
G01Y-281750D02*
X380136D01*
G01X387729Y-271333D02*
X388659Y-270084D01*
X389744Y-269458D01*
X390984Y-269250D01*
X392533Y-269667D01*
X393618Y-270708D01*
X393928Y-271958D01*
X393773Y-273209D01*
X393153Y-274250D01*
X390054Y-276333D01*
X388659Y-277792D01*
X387729Y-279875D01*
X387419Y-281750D01*
X393928D01*
G01X369133Y-196333D02*
X370063Y-195084D01*
X371148Y-194458D01*
X372388Y-194250D01*
X373937Y-194667D01*
X375022Y-195708D01*
X375332Y-196958D01*
X375177Y-198209D01*
X374557Y-199250D01*
X371458Y-201333D01*
X370063Y-202792D01*
X369133Y-204875D01*
X368823Y-206750D01*
X375332D01*
G01X381530Y-196333D02*
X382460Y-195084D01*
X383545Y-194458D01*
X384785Y-194250D01*
X386334Y-194667D01*
X387419Y-195708D01*
X387729Y-196958D01*
X387574Y-198209D01*
X386954Y-199250D01*
X383855Y-201333D01*
X382460Y-202792D01*
X381530Y-204875D01*
X381220Y-206750D01*
X387729D01*
G01X393462Y-204250D02*
X394392Y-205709D01*
X395631Y-206542D01*
X397027Y-206750D01*
X398266Y-206542D01*
X399506Y-205500D01*
X400281Y-204250D01*
X400436Y-203000D01*
X400126Y-201542D01*
X399041Y-200500D01*
X397956Y-200083D01*
X396561D01*
G01X397956D02*
X398886Y-199458D01*
X399661Y-198417D01*
X399971Y-197167D01*
X399661Y-195917D01*
X398886Y-194875D01*
X397491Y-194250D01*
X396097Y-194458D01*
X394702Y-195292D01*
G01X372077Y-181750D02*
X370837Y-181542D01*
X369753Y-180709D01*
X368823Y-179458D01*
X368203Y-178000D01*
X367893Y-176333D01*
Y-174667D01*
X368203Y-173000D01*
X368823Y-171542D01*
X369753Y-170292D01*
X370837Y-169458D01*
X372077Y-169250D01*
X373317Y-169458D01*
X374402Y-170292D01*
X375332Y-171542D01*
X375952Y-173000D01*
X376262Y-174667D01*
Y-176333D01*
X375952Y-178000D01*
X375332Y-179458D01*
X374402Y-180709D01*
X373317Y-181542D01*
X372077Y-181750D01*
G01X373317Y-178417D02*
X375177Y-181750D01*
G01X384474Y-169250D02*
Y-181750D01*
G01X380910Y-169250D02*
X388039D01*
G01X396871Y-181750D02*
Y-176125D01*
X393772Y-169250D01*
G01X399971D02*
X396871Y-176125D01*
G01X384474Y-431750D02*
Y-419250D01*
X382615Y-421750D01*
G01Y-431750D02*
X386334D01*
G01X381530Y-396333D02*
X382460Y-395084D01*
X383545Y-394458D01*
X384785Y-394250D01*
X386334Y-394667D01*
X387419Y-395708D01*
X387729Y-396958D01*
X387574Y-398209D01*
X386954Y-399250D01*
X383855Y-401333D01*
X382460Y-402792D01*
X381530Y-404875D01*
X381220Y-406750D01*
X387729D01*
G01X386334Y-381750D02*
Y-369250D01*
X380600Y-378208D01*
X388349D01*
G01X381530Y-346333D02*
X382460Y-345084D01*
X383545Y-344458D01*
X384785Y-344250D01*
X386334Y-344667D01*
X387419Y-345708D01*
X387729Y-346958D01*
X387574Y-348209D01*
X386954Y-349250D01*
X383855Y-351333D01*
X382460Y-352792D01*
X381530Y-354875D01*
X381220Y-356750D01*
X387729D01*
G01X381530Y-326542D02*
X382615Y-325083D01*
X383545Y-324250D01*
X384785Y-323833D01*
X385869Y-324250D01*
X386644Y-325083D01*
X387264Y-326333D01*
X387419Y-327792D01*
X387264Y-329042D01*
X386644Y-330292D01*
X385714Y-331333D01*
X384630Y-331750D01*
X383390Y-331333D01*
X382305Y-330084D01*
X381685Y-328208D01*
X381530Y-326125D01*
X381840Y-323417D01*
X382305Y-321958D01*
X383080Y-320500D01*
X384164Y-319458D01*
X385249Y-319250D01*
X386334Y-319667D01*
X387109Y-320708D01*
G01X381530Y-246333D02*
X382460Y-245084D01*
X383545Y-244458D01*
X384785Y-244250D01*
X386334Y-244667D01*
X387419Y-245708D01*
X387729Y-246958D01*
X387574Y-248209D01*
X386954Y-249250D01*
X383855Y-251333D01*
X382460Y-252792D01*
X381530Y-254875D01*
X381220Y-256750D01*
X387729D01*
G01X381065Y-229250D02*
X381995Y-230709D01*
X383234Y-231542D01*
X384630Y-231750D01*
X385869Y-231542D01*
X387109Y-230500D01*
X387884Y-229250D01*
X388039Y-228000D01*
X387729Y-226542D01*
X386644Y-225500D01*
X385559Y-225083D01*
X384164D01*
G01X385559D02*
X386489Y-224458D01*
X387264Y-223417D01*
X387574Y-222167D01*
X387264Y-220917D01*
X386489Y-219875D01*
X385094Y-219250D01*
X383700Y-219458D01*
X382305Y-220292D01*
G54D11*
X-229162Y-400500D03*
X98500Y44858D03*
Y77142D03*
G54D21*
G01X-274100Y-438000D02*
Y-113000D01*
X423214D01*
Y-438000D01*
X-274100D01*
G01Y-413000D02*
X423214D01*
G01X-274100Y-388000D02*
X423214D01*
G01X-274100Y-363000D02*
X423214D01*
G01X-274100Y-338000D02*
X423214D01*
G01X-274100Y-313000D02*
X423214D01*
G01X-274100Y-288000D02*
X423214D01*
G01X-274100Y-263000D02*
X423214D01*
G01X-274100Y-238000D02*
X423214D01*
G01X-274100Y-213000D02*
X423214D01*
G01X-274100Y-188000D02*
X423214D01*
G01X-274100Y-163000D02*
X423214D01*
G01X-274100Y-138000D02*
X423214D01*
G01X-184224Y-163000D02*
Y-438000D01*
G01X17222Y-163000D02*
Y-438000D01*
G01X196850Y39370D02*
Y157480D01*
G03X157480Y196850I-39370J0D01*
G01X39370D01*
G03X0Y157480I0J-39370D01*
G01Y39370D01*
G03X39370Y0I39370J0D01*
G01X157480D01*
G03X196850Y39370I0J39370D01*
G01X218669Y-163000D02*
Y-438000D01*
G01X345735Y-163000D02*
Y-438000D01*
G54D12*
X-229162Y-375500D03*
X23622Y23622D03*
Y173228D03*
X173228Y23622D03*
Y173228D03*
G54D13*
X-229162Y-350500D03*
X53201Y27803D03*
X80799D03*
G54D14*
X-229162Y-325500D03*
X45000Y176000D03*
Y166000D03*
X65000Y176000D03*
Y166000D03*
X55000Y176000D03*
Y166000D03*
G54D15*
X-229162Y-300500D03*
X103500Y6000D03*
X93500D03*
X146000Y73500D03*
X156000D03*
X190500Y128500D03*
Y118500D03*
Y108500D03*
Y148500D03*
Y138500D03*
Y158500D03*
G54D16*
X-229162Y-275500D03*
X45000Y190500D03*
X75000D03*
X65000D03*
X55000D03*
X95000D03*
X85000D03*
X125000D03*
X115000D03*
X105000D03*
X145000D03*
X135000D03*
X155000D03*
G54D17*
X-229162Y-250500D03*
X75858Y18000D03*
X58142D03*
G54D18*
X-229162Y-225500D03*
X98500Y68874D03*
Y61000D03*
Y53126D03*
G54D19*
X-229162Y-200500D03*
X17541Y17541D03*
X23622Y15022D03*
X15022Y23622D03*
X16075Y41475D03*
X17541Y29703D03*
X23622Y32222D03*
X6500Y45000D03*
X14500Y72000D03*
Y66500D03*
X15500Y52000D03*
X21500Y54500D03*
Y59500D03*
X20000Y82700D03*
X15000Y98500D03*
Y91500D03*
Y84500D03*
X15400Y119500D03*
X21500D03*
X14500Y125654D03*
X4000Y149500D03*
X24000Y129800D03*
Y150000D03*
X19800Y130600D03*
X23500Y155200D03*
X17541Y167147D03*
X23622Y164628D03*
X15022Y173228D03*
X17541Y179309D03*
X23622Y181828D03*
X29703Y17541D03*
X32222Y23622D03*
X42500Y17500D03*
X50600Y49000D03*
X29703Y29703D03*
X42500Y31500D03*
X29496Y61996D03*
X37200Y62400D03*
X43500Y54000D03*
X51000D03*
X35500Y98500D03*
Y92500D03*
X28500Y98500D03*
X36000Y79000D03*
X28500D03*
Y92500D03*
X50500Y85500D03*
X45500Y79000D03*
X50500D03*
X44500Y92500D03*
X34000Y116500D03*
X38500D03*
X35500Y105000D03*
X44500D03*
X40331Y128631D03*
X32000Y129700D03*
X49000D03*
X28000Y129000D03*
X47646Y155099D03*
X35900Y159802D03*
X50000Y171000D03*
X29703Y167147D03*
X32222Y173228D03*
X29703Y179309D03*
X72500Y5500D03*
X59500D03*
X58500Y45500D03*
Y38500D03*
X52500Y42000D03*
X64500Y70000D03*
X62700Y65300D03*
X68100D03*
X70200Y70000D03*
X76500Y87000D03*
Y80500D03*
X55192Y116992D03*
X58023Y121323D03*
X57800Y125654D03*
X53200Y121400D03*
X73000Y119500D03*
Y123500D03*
X57784Y129984D03*
X72500Y150000D03*
X73000Y127500D03*
X74500Y146500D03*
X58000Y137500D03*
X51900Y146200D03*
X70453Y152651D03*
X68000Y155099D03*
X65505Y157505D03*
X73900Y168900D03*
X75400Y164500D03*
X85500Y5500D03*
Y19500D03*
X89500Y38500D03*
X79200Y38775D03*
X92000Y72500D03*
X86000Y67000D03*
X92000Y62000D03*
X79200Y60800D03*
X83500Y87000D03*
X92500Y97500D03*
X99000D03*
Y92000D03*
X92500D03*
X85500Y118500D03*
X81500Y123000D03*
X96500Y122500D03*
Y117500D03*
X81700Y144000D03*
X78900Y140900D03*
X84400Y140800D03*
X96500Y127000D03*
X101000Y133500D03*
X94500Y146000D03*
X87000Y147599D03*
X99484Y145884D03*
X81975Y174175D03*
X86500Y165000D03*
X88500Y162421D03*
X86450Y159960D03*
X86500Y168500D03*
X89642Y169500D03*
X113900Y20300D03*
X124500Y6000D03*
X110500Y5500D03*
X108500Y25500D03*
X112000Y44000D03*
X108500Y33500D03*
X106500Y48500D03*
X124500Y70000D03*
X124000Y52000D03*
X118200Y101300D03*
X112800Y96100D03*
X112000Y85500D03*
X105500Y97500D03*
X105000Y80500D03*
X126000Y90500D03*
X113300Y103200D03*
X107000Y109000D03*
Y117000D03*
X120800Y149600D03*
X113000Y130000D03*
X110500Y150500D03*
X117000Y142500D03*
X113500Y139500D03*
X113300Y134500D03*
X108950Y157950D03*
X108800Y161200D03*
X108400Y164400D03*
X120550Y155050D03*
X123100Y152000D03*
X110800Y155300D03*
X110400Y167558D03*
X104500Y168000D03*
X120500Y164500D03*
Y161000D03*
X115000Y177000D03*
X122500D03*
X134000Y6000D03*
X146000Y20000D03*
X140000Y11500D03*
X131500Y39700D03*
X135468Y39000D03*
X146000Y39500D03*
X137268Y59500D03*
X136000Y62500D03*
X134500Y65500D03*
X127000Y114900D03*
X140900Y126000D03*
X140800Y121400D03*
X150000Y125000D03*
Y117000D03*
Y108500D03*
X128000Y124000D03*
X150000Y133500D03*
X143000Y148000D03*
X128000Y134000D03*
X131400Y170225D03*
X129700Y154200D03*
X130500Y161900D03*
X144725Y171775D03*
X144500Y177500D03*
X164628Y23622D03*
X173228Y15022D03*
X167147Y17541D03*
X154000Y20000D03*
X173228Y32222D03*
X167147Y29703D03*
X154000Y39500D03*
X162500D03*
X154000Y29500D03*
X169500Y73000D03*
Y57500D03*
X153500Y87500D03*
X169500D03*
X161800Y111000D03*
X161900Y106000D03*
X161800Y116000D03*
X162500Y121000D03*
X158500Y143000D03*
X164628Y173228D03*
X173228Y164628D03*
X167147Y167147D03*
X155000Y165500D03*
X173228Y181828D03*
X167147Y179309D03*
X181828Y23622D03*
X179309Y17541D03*
Y29703D03*
X178500Y44500D03*
X185000Y73000D03*
X185500Y57500D03*
X181600Y99200D03*
X185000Y87500D03*
X194000Y123500D03*
Y114000D03*
Y102500D03*
Y143500D03*
Y133500D03*
X181828Y173228D03*
X179309Y167147D03*
X194000Y153500D03*
X179309Y179309D03*
M02*
