G04 ================== begin FILE IDENTIFICATION RECORD ==================*
G04 Layout Name:  e:/Project/SmartDiet/Device/Schematic/allegro/CyberBalance.brd*
G04 Film Name:    silkscreen_bottom*
G04 File Format:  Gerber RS274X*
G04 File Origin:  Cadence Allegro 17.4-S015*
G04 Origin Date:  Fri May 28 17:34:05 2021*
G04 *
G04 Layer:  MANUFACTURING/AUTOSILK_BOTTOM*
G04 Layer:  BOARD GEOMETRY/DESIGN_OUTLINE*
G04 *
G04 Offset:    (0.00 0.00)*
G04 Mirror:    No*
G04 Mode:      Positive*
G04 Rotation:  0*
G04 FullContactRelief:  No*
G04 UndefLineWidth:     2.00*
G04 ================== end FILE IDENTIFICATION RECORD ====================*
%FSLAX25Y25*MOIN*%
%IR0*IPPOS*OFA0.00000B0.00000*MIA0B0*SFA1.00000B1.00000*%
%ADD10C,.02*%
%ADD11C,.005*%
%ADD12C,.002*%
%ADD13C,.006*%
%ADD14C,.008*%
%ADD15C,.00787*%
G75*
%LPD*%
G75*
G54D10*
G01X109336Y16241D02*
G03I-1500J0D01*
G54D11*
G01X44956Y149362D02*
X39444D01*
G01X44956Y146606D02*
X42200Y149362D01*
X39444Y146606D01*
X44956D01*
G01X42200D02*
Y144744D01*
G01X48986Y158024D02*
G03I-880J0D01*
G01X93382Y44071D02*
X90035D01*
Y77929D01*
X92988D01*
G01X104012D02*
X106965D01*
Y49874D01*
G01Y47126D02*
Y44071D01*
X104012D01*
G54D12*
G01X196850Y39370D02*
Y157480D01*
G03X157480Y196850I-39370J0D01*
G01X39370D01*
G03X0Y157480I0J-39370D01*
G01Y39370D01*
G03X39370Y0I39370J0D01*
G01X157480D01*
G03X196850Y39370I0J39370D01*
G54D13*
G01X12333Y121167D02*
X12583Y121367D01*
X12875Y121500D01*
X13208D01*
X13583Y121300D01*
X13875Y120967D01*
X14083Y120567D01*
X14250Y119900D01*
X14292Y119300D01*
X14208Y118700D01*
X14083Y118300D01*
X13833Y117900D01*
X13542Y117633D01*
X13250Y117500D01*
X12958D01*
X12667Y117633D01*
X12417Y117833D01*
X12208Y118100D01*
G01X10650Y117500D02*
X10358Y117567D01*
X10025Y117767D01*
X9817Y118100D01*
X9733Y118567D01*
X9817Y119033D01*
X10067Y119433D01*
X10442Y119633D01*
X10858D01*
X11108Y119767D01*
X11317Y120100D01*
X11400Y120567D01*
X11275Y121033D01*
X10983Y121367D01*
X10650Y121500D01*
X10317Y121367D01*
X10025Y121033D01*
X9900Y120567D01*
X9983Y120100D01*
X10192Y119767D01*
X10442Y119633D01*
X10858D01*
X11233Y119433D01*
X11483Y119033D01*
X11567Y118567D01*
X11483Y118100D01*
X11275Y117767D01*
X10942Y117567D01*
X10650Y117500D01*
G01X20833Y121167D02*
X21083Y121367D01*
X21375Y121500D01*
X21708D01*
X22083Y121300D01*
X22375Y120967D01*
X22583Y120567D01*
X22750Y119900D01*
X22792Y119300D01*
X22708Y118700D01*
X22583Y118300D01*
X22333Y117900D01*
X22042Y117633D01*
X21750Y117500D01*
X21458D01*
X21167Y117633D01*
X20917Y117833D01*
X20708Y118100D01*
G01X19233Y117500D02*
X19150Y118367D01*
X19025Y119100D01*
X18858Y119767D01*
X18650Y120500D01*
X18317Y121500D01*
X19983D01*
G01X31083Y117500D02*
Y121500D01*
X30042D01*
X29708Y121300D01*
X29500Y121033D01*
X29417Y120500D01*
X29500Y119967D01*
X29750Y119633D01*
X30042Y119433D01*
X31083D01*
G01X30042D02*
X29417Y117500D01*
G01X28567Y118300D02*
X28317Y117833D01*
X27983Y117567D01*
X27608Y117500D01*
X27275Y117567D01*
X26942Y117900D01*
X26733Y118300D01*
X26692Y118700D01*
X26775Y119167D01*
X27067Y119500D01*
X27358Y119633D01*
X27733D01*
G01X27358D02*
X27108Y119833D01*
X26900Y120167D01*
X26817Y120567D01*
X26900Y120967D01*
X27108Y121300D01*
X27483Y121500D01*
X27858Y121433D01*
X28233Y121167D01*
G01X25967Y118300D02*
X25717Y117833D01*
X25383Y117567D01*
X25008Y117500D01*
X24675Y117567D01*
X24342Y117900D01*
X24133Y118300D01*
X24092Y118700D01*
X24175Y119167D01*
X24467Y119500D01*
X24758Y119633D01*
X25133D01*
G01X24758D02*
X24508Y119833D01*
X24300Y120167D01*
X24217Y120567D01*
X24300Y120967D01*
X24508Y121300D01*
X24883Y121500D01*
X25258Y121433D01*
X25633Y121167D01*
G01X7583Y117500D02*
Y121500D01*
X6542D01*
X6208Y121300D01*
X6000Y121033D01*
X5917Y120500D01*
X6000Y119967D01*
X6250Y119633D01*
X6542Y119433D01*
X7583D01*
G01X6542D02*
X5917Y117500D01*
G01X4150D02*
Y121500D01*
X4650Y120700D01*
G01Y117500D02*
X3650D01*
G01X2342Y120833D02*
X2092Y121233D01*
X1800Y121433D01*
X1467Y121500D01*
X1050Y121367D01*
X758Y121033D01*
X675Y120633D01*
X717Y120233D01*
X883Y119900D01*
X1717Y119233D01*
X2092Y118767D01*
X2342Y118100D01*
X2425Y117500D01*
X675D01*
G01X29083Y148000D02*
Y152000D01*
X28042D01*
X27708Y151800D01*
X27500Y151533D01*
X27417Y151000D01*
X27500Y150467D01*
X27750Y150133D01*
X28042Y149933D01*
X29083D01*
G01X28042D02*
X27417Y148000D01*
G01X26567Y148800D02*
X26317Y148333D01*
X25983Y148067D01*
X25608Y148000D01*
X25275Y148067D01*
X24942Y148400D01*
X24733Y148800D01*
X24692Y149200D01*
X24775Y149667D01*
X25067Y150000D01*
X25358Y150133D01*
X25733D01*
G01X25358D02*
X25108Y150333D01*
X24900Y150667D01*
X24817Y151067D01*
X24900Y151467D01*
X25108Y151800D01*
X25483Y152000D01*
X25858Y151933D01*
X26233Y151667D01*
G01X23842Y151333D02*
X23592Y151733D01*
X23300Y151933D01*
X22967Y152000D01*
X22550Y151867D01*
X22258Y151533D01*
X22175Y151133D01*
X22217Y150733D01*
X22383Y150400D01*
X23217Y149733D01*
X23592Y149267D01*
X23842Y148600D01*
X23925Y148000D01*
X22175D01*
G01X8083Y127500D02*
Y131500D01*
X7042D01*
X6708Y131300D01*
X6500Y131033D01*
X6417Y130500D01*
X6500Y129967D01*
X6750Y129633D01*
X7042Y129433D01*
X8083D01*
G01X7042D02*
X6417Y127500D01*
G01X4150D02*
Y131500D01*
X5692Y128633D01*
X3608D01*
G01X2050Y131500D02*
X2383Y131367D01*
X2633Y131033D01*
X2800Y130633D01*
X2925Y130100D01*
X2967Y129500D01*
X2925Y128900D01*
X2800Y128367D01*
X2633Y127967D01*
X2383Y127633D01*
X2050Y127500D01*
X1717Y127633D01*
X1467Y127967D01*
X1300Y128367D01*
X1175Y128900D01*
X1133Y129500D01*
X1175Y130100D01*
X1300Y130633D01*
X1467Y131033D01*
X1717Y131367D01*
X2050Y131500D01*
G01X15300Y127500D02*
X15633Y127567D01*
X15925Y127833D01*
X16175Y128233D01*
X16342Y128700D01*
X16425Y129233D01*
Y129767D01*
X16342Y130300D01*
X16175Y130767D01*
X15925Y131167D01*
X15633Y131433D01*
X15300Y131500D01*
X14967Y131433D01*
X14675Y131167D01*
X14425Y130767D01*
X14258Y130300D01*
X14175Y129767D01*
Y129233D01*
X14258Y128700D01*
X14425Y128233D01*
X14675Y127833D01*
X14967Y127567D01*
X15300Y127500D01*
G01X14967Y128567D02*
X14467Y127500D01*
G01X13492Y130833D02*
X13242Y131233D01*
X12950Y131433D01*
X12617Y131500D01*
X12200Y131367D01*
X11908Y131033D01*
X11825Y130633D01*
X11867Y130233D01*
X12033Y129900D01*
X12867Y129233D01*
X13242Y128767D01*
X13492Y128100D01*
X13575Y127500D01*
X11825D01*
G01X17083Y157000D02*
Y161000D01*
X16042D01*
X15708Y160800D01*
X15500Y160533D01*
X15417Y160000D01*
X15500Y159467D01*
X15750Y159133D01*
X16042Y158933D01*
X17083D01*
G01X16042D02*
X15417Y157000D01*
G01X13650D02*
Y161000D01*
X14150Y160200D01*
G01Y157000D02*
X13150D01*
G01X11133D02*
X11050Y157867D01*
X10925Y158600D01*
X10758Y159267D01*
X10550Y160000D01*
X10217Y161000D01*
X11883D01*
G01X36583Y148000D02*
Y152000D01*
X35542D01*
X35208Y151800D01*
X35000Y151533D01*
X34917Y151000D01*
X35000Y150467D01*
X35250Y150133D01*
X35542Y149933D01*
X36583D01*
G01X35542D02*
X34917Y148000D01*
G01X33942Y151333D02*
X33692Y151733D01*
X33400Y151933D01*
X33067Y152000D01*
X32650Y151867D01*
X32358Y151533D01*
X32275Y151133D01*
X32317Y150733D01*
X32483Y150400D01*
X33317Y149733D01*
X33692Y149267D01*
X33942Y148600D01*
X34025Y148000D01*
X32275D01*
G01X30550D02*
Y152000D01*
X31050Y151200D01*
G01Y148000D02*
X30050D01*
G01X51717Y149000D02*
Y153000D01*
X50883D01*
X50550Y152800D01*
X50300Y152533D01*
X50092Y152133D01*
X49925Y151667D01*
X49883Y151000D01*
X49925Y150333D01*
X50092Y149867D01*
X50300Y149467D01*
X50550Y149200D01*
X50883Y149000D01*
X51717D01*
G01X47700D02*
Y153000D01*
X49242Y150133D01*
X47158D01*
G01X76833Y5667D02*
X77083Y5867D01*
X77375Y6000D01*
X77708D01*
X78083Y5800D01*
X78375Y5467D01*
X78583Y5067D01*
X78750Y4400D01*
X78792Y3800D01*
X78708Y3200D01*
X78583Y2800D01*
X78333Y2400D01*
X78042Y2133D01*
X77750Y2000D01*
X77458D01*
X77167Y2133D01*
X76917Y2333D01*
X76708Y2600D01*
G01X76067Y2800D02*
X75817Y2333D01*
X75483Y2067D01*
X75108Y2000D01*
X74775Y2067D01*
X74442Y2400D01*
X74233Y2800D01*
X74192Y3200D01*
X74275Y3667D01*
X74567Y4000D01*
X74858Y4133D01*
X75233D01*
G01X74858D02*
X74608Y4333D01*
X74400Y4667D01*
X74317Y5067D01*
X74400Y5467D01*
X74608Y5800D01*
X74983Y6000D01*
X75358Y5933D01*
X75733Y5667D01*
G01X73467Y2800D02*
X73217Y2333D01*
X72883Y2067D01*
X72508Y2000D01*
X72175Y2067D01*
X71842Y2400D01*
X71633Y2800D01*
X71592Y3200D01*
X71675Y3667D01*
X71967Y4000D01*
X72258Y4133D01*
X72633D01*
G01X72258D02*
X72008Y4333D01*
X71800Y4667D01*
X71717Y5067D01*
X71800Y5467D01*
X72008Y5800D01*
X72383Y6000D01*
X72758Y5933D01*
X73133Y5667D01*
G01X70583Y31000D02*
Y35000D01*
X69542D01*
X69208Y34800D01*
X69000Y34533D01*
X68917Y34000D01*
X69000Y33467D01*
X69250Y33133D01*
X69542Y32933D01*
X70583D01*
G01X69542D02*
X68917Y31000D01*
G01X67942Y34333D02*
X67692Y34733D01*
X67400Y34933D01*
X67067Y35000D01*
X66650Y34867D01*
X66358Y34533D01*
X66275Y34133D01*
X66317Y33733D01*
X66483Y33400D01*
X67317Y32733D01*
X67692Y32267D01*
X67942Y31600D01*
X68025Y31000D01*
X66275D01*
G01X64550D02*
X64258Y31067D01*
X63925Y31267D01*
X63717Y31600D01*
X63633Y32067D01*
X63717Y32533D01*
X63967Y32933D01*
X64342Y33133D01*
X64758D01*
X65008Y33267D01*
X65217Y33600D01*
X65300Y34067D01*
X65175Y34533D01*
X64883Y34867D01*
X64550Y35000D01*
X64217Y34867D01*
X63925Y34533D01*
X63800Y34067D01*
X63883Y33600D01*
X64092Y33267D01*
X64342Y33133D01*
X64758D01*
X65133Y32933D01*
X65383Y32533D01*
X65467Y32067D01*
X65383Y31600D01*
X65175Y31267D01*
X64842Y31067D01*
X64550Y31000D01*
G01X60775Y102533D02*
X60442Y102200D01*
X60067Y102000D01*
X59733D01*
X59400Y102200D01*
X59150Y102533D01*
X59025Y103000D01*
X59108Y103467D01*
X59317Y103867D01*
X59692Y104133D01*
X60192Y104267D01*
X60483Y104533D01*
X60608Y105000D01*
X60525Y105467D01*
X60317Y105800D01*
X60025Y106000D01*
X59733D01*
X59442Y105867D01*
X59192Y105533D01*
G01X57800Y106000D02*
X56800D01*
G01X57300D02*
Y102000D01*
G01X57800D02*
X56800D01*
G01X55783D02*
Y106000D01*
X54700Y102667D01*
X53617Y106000D01*
Y102000D01*
G01X52100D02*
Y106000D01*
X52600Y105200D01*
G01Y102000D02*
X51600D01*
G01X100175Y84033D02*
X99842Y83700D01*
X99467Y83500D01*
X99133D01*
X98800Y83700D01*
X98550Y84033D01*
X98425Y84500D01*
X98508Y84967D01*
X98717Y85367D01*
X99092Y85633D01*
X99592Y85767D01*
X99883Y86033D01*
X100008Y86500D01*
X99925Y86967D01*
X99717Y87300D01*
X99425Y87500D01*
X99133D01*
X98842Y87367D01*
X98592Y87033D01*
G01X96700Y83500D02*
Y87500D01*
X97200Y86700D01*
G01Y83500D02*
X96200D01*
G01X84333Y138667D02*
X84583Y138867D01*
X84875Y139000D01*
X85208D01*
X85583Y138800D01*
X85875Y138467D01*
X86083Y138067D01*
X86250Y137400D01*
X86292Y136800D01*
X86208Y136200D01*
X86083Y135800D01*
X85833Y135400D01*
X85542Y135133D01*
X85250Y135000D01*
X84958D01*
X84667Y135133D01*
X84417Y135333D01*
X84208Y135600D01*
G01X83442Y138333D02*
X83192Y138733D01*
X82900Y138933D01*
X82567Y139000D01*
X82150Y138867D01*
X81858Y138533D01*
X81775Y138133D01*
X81817Y137733D01*
X81983Y137400D01*
X82817Y136733D01*
X83192Y136267D01*
X83442Y135600D01*
X83525Y135000D01*
X81775D01*
G01X80133D02*
X80050Y135867D01*
X79925Y136600D01*
X79758Y137267D01*
X79550Y138000D01*
X79217Y139000D01*
X80883D01*
G01X105583Y156500D02*
Y160500D01*
X104542D01*
X104208Y160300D01*
X104000Y160033D01*
X103917Y159500D01*
X104000Y158967D01*
X104250Y158633D01*
X104542Y158433D01*
X105583D01*
G01X104542D02*
X103917Y156500D01*
G01X102150D02*
Y160500D01*
X102650Y159700D01*
G01Y156500D02*
X101650D01*
G01X100258Y156967D02*
X99967Y156633D01*
X99633Y156500D01*
X99300Y156633D01*
X99008Y157033D01*
X98800Y157633D01*
X98717Y158233D01*
Y158967D01*
X98800Y159567D01*
X99008Y160100D01*
X99258Y160367D01*
X99550Y160500D01*
X99883Y160367D01*
X100133Y160100D01*
X100300Y159700D01*
X100383Y159167D01*
X100300Y158700D01*
X100092Y158233D01*
X99842Y157967D01*
X99550Y157900D01*
X99217Y158033D01*
X98967Y158367D01*
X98717Y158967D01*
G01X85833Y180167D02*
X86083Y180367D01*
X86375Y180500D01*
X86708D01*
X87083Y180300D01*
X87375Y179967D01*
X87583Y179567D01*
X87750Y178900D01*
X87792Y178300D01*
X87708Y177700D01*
X87583Y177300D01*
X87333Y176900D01*
X87042Y176633D01*
X86750Y176500D01*
X86458D01*
X86167Y176633D01*
X85917Y176833D01*
X85708Y177100D01*
G01X85067Y177300D02*
X84817Y176833D01*
X84483Y176567D01*
X84108Y176500D01*
X83775Y176567D01*
X83442Y176900D01*
X83233Y177300D01*
X83192Y177700D01*
X83275Y178167D01*
X83567Y178500D01*
X83858Y178633D01*
X84233D01*
G01X83858D02*
X83608Y178833D01*
X83400Y179167D01*
X83317Y179567D01*
X83400Y179967D01*
X83608Y180300D01*
X83983Y180500D01*
X84358Y180433D01*
X84733Y180167D01*
G01X82342Y178167D02*
X82050Y178633D01*
X81800Y178900D01*
X81467Y179033D01*
X81175Y178900D01*
X80967Y178633D01*
X80800Y178233D01*
X80758Y177767D01*
X80800Y177367D01*
X80967Y176967D01*
X81217Y176633D01*
X81508Y176500D01*
X81842Y176633D01*
X82133Y177033D01*
X82300Y177633D01*
X82342Y178300D01*
X82258Y179167D01*
X82133Y179633D01*
X81925Y180100D01*
X81633Y180433D01*
X81342Y180500D01*
X81050Y180367D01*
X80842Y180033D01*
G01X124583Y73500D02*
Y77500D01*
X123542D01*
X123208Y77300D01*
X123000Y77033D01*
X122917Y76500D01*
X123000Y75967D01*
X123250Y75633D01*
X123542Y75433D01*
X124583D01*
G01X123542D02*
X122917Y73500D01*
G01X121942Y76833D02*
X121692Y77233D01*
X121400Y77433D01*
X121067Y77500D01*
X120650Y77367D01*
X120358Y77033D01*
X120275Y76633D01*
X120317Y76233D01*
X120483Y75900D01*
X121317Y75233D01*
X121692Y74767D01*
X121942Y74100D01*
X122025Y73500D01*
X120275D01*
G01X118050D02*
Y77500D01*
X119592Y74633D01*
X117508D01*
G01X106833Y126667D02*
X107083Y126867D01*
X107375Y127000D01*
X107708D01*
X108083Y126800D01*
X108375Y126467D01*
X108583Y126067D01*
X108750Y125400D01*
X108792Y124800D01*
X108708Y124200D01*
X108583Y123800D01*
X108333Y123400D01*
X108042Y123133D01*
X107750Y123000D01*
X107458D01*
X107167Y123133D01*
X106917Y123333D01*
X106708Y123600D01*
G01X105942Y126333D02*
X105692Y126733D01*
X105400Y126933D01*
X105067Y127000D01*
X104650Y126867D01*
X104358Y126533D01*
X104275Y126133D01*
X104317Y125733D01*
X104483Y125400D01*
X105317Y124733D01*
X105692Y124267D01*
X105942Y123600D01*
X106025Y123000D01*
X104275D01*
G01X102050D02*
Y127000D01*
X103592Y124133D01*
X101508D01*
G01X106833Y118667D02*
X107083Y118867D01*
X107375Y119000D01*
X107708D01*
X108083Y118800D01*
X108375Y118467D01*
X108583Y118067D01*
X108750Y117400D01*
X108792Y116800D01*
X108708Y116200D01*
X108583Y115800D01*
X108333Y115400D01*
X108042Y115133D01*
X107750Y115000D01*
X107458D01*
X107167Y115133D01*
X106917Y115333D01*
X106708Y115600D01*
G01X105942Y118333D02*
X105692Y118733D01*
X105400Y118933D01*
X105067Y119000D01*
X104650Y118867D01*
X104358Y118533D01*
X104275Y118133D01*
X104317Y117733D01*
X104483Y117400D01*
X105317Y116733D01*
X105692Y116267D01*
X105942Y115600D01*
X106025Y115000D01*
X104275D01*
G01X103467Y115600D02*
X103217Y115267D01*
X102925Y115067D01*
X102550Y115000D01*
X102175Y115133D01*
X101883Y115400D01*
X101675Y115867D01*
X101633Y116400D01*
X101717Y116933D01*
X101925Y117267D01*
X102217Y117533D01*
X102508Y117600D01*
X102800Y117533D01*
X103175Y117267D01*
X103050Y119000D01*
X101925D01*
G01X108583Y111000D02*
Y107000D01*
X106917D01*
G01X105150D02*
Y111000D01*
X105650Y110200D01*
G01Y107000D02*
X104650D01*
G01X147333Y62167D02*
X147583Y62367D01*
X147875Y62500D01*
X148208D01*
X148583Y62300D01*
X148875Y61967D01*
X149083Y61567D01*
X149250Y60900D01*
X149292Y60300D01*
X149208Y59700D01*
X149083Y59300D01*
X148833Y58900D01*
X148542Y58633D01*
X148250Y58500D01*
X147958D01*
X147667Y58633D01*
X147417Y58833D01*
X147208Y59100D01*
G01X146567Y59300D02*
X146317Y58833D01*
X145983Y58567D01*
X145608Y58500D01*
X145275Y58567D01*
X144942Y58900D01*
X144733Y59300D01*
X144692Y59700D01*
X144775Y60167D01*
X145067Y60500D01*
X145358Y60633D01*
X145733D01*
G01X145358D02*
X145108Y60833D01*
X144900Y61167D01*
X144817Y61567D01*
X144900Y61967D01*
X145108Y62300D01*
X145483Y62500D01*
X145858Y62433D01*
X146233Y62167D01*
G01X143050Y58500D02*
Y62500D01*
X143550Y61700D01*
G01Y58500D02*
X142550D01*
G01X157083D02*
Y62500D01*
X156042D01*
X155708Y62300D01*
X155500Y62033D01*
X155417Y61500D01*
X155500Y60967D01*
X155750Y60633D01*
X156042Y60433D01*
X157083D01*
G01X156042D02*
X155417Y58500D01*
G01X154442Y61833D02*
X154192Y62233D01*
X153900Y62433D01*
X153567Y62500D01*
X153150Y62367D01*
X152858Y62033D01*
X152775Y61633D01*
X152817Y61233D01*
X152983Y60900D01*
X153817Y60233D01*
X154192Y59767D01*
X154442Y59100D01*
X154525Y58500D01*
X152775D01*
G01X151842Y61833D02*
X151592Y62233D01*
X151300Y62433D01*
X150967Y62500D01*
X150550Y62367D01*
X150258Y62033D01*
X150175Y61633D01*
X150217Y61233D01*
X150383Y60900D01*
X151217Y60233D01*
X151592Y59767D01*
X151842Y59100D01*
X151925Y58500D01*
X150175D01*
G01X153083Y111500D02*
Y115500D01*
X152042D01*
X151708Y115300D01*
X151500Y115033D01*
X151417Y114500D01*
X151500Y113967D01*
X151750Y113633D01*
X152042Y113433D01*
X153083D01*
G01X152042D02*
X151417Y111500D01*
G01X150567Y112300D02*
X150317Y111833D01*
X149983Y111567D01*
X149608Y111500D01*
X149275Y111567D01*
X148942Y111900D01*
X148733Y112300D01*
X148692Y112700D01*
X148775Y113167D01*
X149067Y113500D01*
X149358Y113633D01*
X149733D01*
G01X149358D02*
X149108Y113833D01*
X148900Y114167D01*
X148817Y114567D01*
X148900Y114967D01*
X149108Y115300D01*
X149483Y115500D01*
X149858Y115433D01*
X150233Y115167D01*
G01X146550Y111500D02*
Y115500D01*
X148092Y112633D01*
X146008D01*
G01X153083Y103000D02*
Y107000D01*
X152042D01*
X151708Y106800D01*
X151500Y106533D01*
X151417Y106000D01*
X151500Y105467D01*
X151750Y105133D01*
X152042Y104933D01*
X153083D01*
G01X152042D02*
X151417Y103000D01*
G01X150567Y103800D02*
X150317Y103333D01*
X149983Y103067D01*
X149608Y103000D01*
X149275Y103067D01*
X148942Y103400D01*
X148733Y103800D01*
X148692Y104200D01*
X148775Y104667D01*
X149067Y105000D01*
X149358Y105133D01*
X149733D01*
G01X149358D02*
X149108Y105333D01*
X148900Y105667D01*
X148817Y106067D01*
X148900Y106467D01*
X149108Y106800D01*
X149483Y107000D01*
X149858Y106933D01*
X150233Y106667D01*
G01X147967Y103600D02*
X147717Y103267D01*
X147425Y103067D01*
X147050Y103000D01*
X146675Y103133D01*
X146383Y103400D01*
X146175Y103867D01*
X146133Y104400D01*
X146217Y104933D01*
X146425Y105267D01*
X146717Y105533D01*
X147008Y105600D01*
X147300Y105533D01*
X147675Y105267D01*
X147550Y107000D01*
X146425D01*
G01X149833Y151667D02*
X150083Y151867D01*
X150375Y152000D01*
X150708D01*
X151083Y151800D01*
X151375Y151467D01*
X151583Y151067D01*
X151750Y150400D01*
X151792Y149800D01*
X151708Y149200D01*
X151583Y148800D01*
X151333Y148400D01*
X151042Y148133D01*
X150750Y148000D01*
X150458D01*
X150167Y148133D01*
X149917Y148333D01*
X149708Y148600D01*
G01X148942Y151333D02*
X148692Y151733D01*
X148400Y151933D01*
X148067Y152000D01*
X147650Y151867D01*
X147358Y151533D01*
X147275Y151133D01*
X147317Y150733D01*
X147483Y150400D01*
X148317Y149733D01*
X148692Y149267D01*
X148942Y148600D01*
X149025Y148000D01*
X147275D01*
G01X145550D02*
Y152000D01*
X146050Y151200D01*
G01Y148000D02*
X145050D01*
G01X142583Y171000D02*
Y175000D01*
X141542D01*
X141208Y174800D01*
X141000Y174533D01*
X140917Y174000D01*
X141000Y173467D01*
X141250Y173133D01*
X141542Y172933D01*
X142583D01*
G01X141542D02*
X140917Y171000D01*
G01X139150D02*
Y175000D01*
X139650Y174200D01*
G01Y171000D02*
X138650D01*
G01X136550D02*
X136258Y171067D01*
X135925Y171267D01*
X135717Y171600D01*
X135633Y172067D01*
X135717Y172533D01*
X135967Y172933D01*
X136342Y173133D01*
X136758D01*
X137008Y173267D01*
X137217Y173600D01*
X137300Y174067D01*
X137175Y174533D01*
X136883Y174867D01*
X136550Y175000D01*
X136217Y174867D01*
X135925Y174533D01*
X135800Y174067D01*
X135883Y173600D01*
X136092Y173267D01*
X136342Y173133D01*
X136758D01*
X137133Y172933D01*
X137383Y172533D01*
X137467Y172067D01*
X137383Y171600D01*
X137175Y171267D01*
X136842Y171067D01*
X136550Y171000D01*
G01X165083Y58500D02*
Y62500D01*
X164042D01*
X163708Y62300D01*
X163500Y62033D01*
X163417Y61500D01*
X163500Y60967D01*
X163750Y60633D01*
X164042Y60433D01*
X165083D01*
G01X164042D02*
X163417Y58500D01*
G01X162442Y61833D02*
X162192Y62233D01*
X161900Y62433D01*
X161567Y62500D01*
X161150Y62367D01*
X160858Y62033D01*
X160775Y61633D01*
X160817Y61233D01*
X160983Y60900D01*
X161817Y60233D01*
X162192Y59767D01*
X162442Y59100D01*
X162525Y58500D01*
X160775D01*
G01X159967Y59300D02*
X159717Y58833D01*
X159383Y58567D01*
X159008Y58500D01*
X158675Y58567D01*
X158342Y58900D01*
X158133Y59300D01*
X158092Y59700D01*
X158175Y60167D01*
X158467Y60500D01*
X158758Y60633D01*
X159133D01*
G01X158758D02*
X158508Y60833D01*
X158300Y61167D01*
X158217Y61567D01*
X158300Y61967D01*
X158508Y62300D01*
X158883Y62500D01*
X159258Y62433D01*
X159633Y62167D01*
G01X169083Y120000D02*
Y124000D01*
X168042D01*
X167708Y123800D01*
X167500Y123533D01*
X167417Y123000D01*
X167500Y122467D01*
X167750Y122133D01*
X168042Y121933D01*
X169083D01*
G01X168042D02*
X167417Y120000D01*
G01X166442Y121667D02*
X166150Y122133D01*
X165900Y122400D01*
X165567Y122533D01*
X165275Y122400D01*
X165067Y122133D01*
X164900Y121733D01*
X164858Y121267D01*
X164900Y120867D01*
X165067Y120467D01*
X165317Y120133D01*
X165608Y120000D01*
X165942Y120133D01*
X166233Y120533D01*
X166400Y121133D01*
X166442Y121800D01*
X166358Y122667D01*
X166233Y123133D01*
X166025Y123600D01*
X165733Y123933D01*
X165442Y124000D01*
X165150Y123867D01*
X164942Y123533D01*
G01X177583Y120000D02*
Y124000D01*
X176542D01*
X176208Y123800D01*
X176000Y123533D01*
X175917Y123000D01*
X176000Y122467D01*
X176250Y122133D01*
X176542Y121933D01*
X177583D01*
G01X176542D02*
X175917Y120000D01*
G01X175067Y120600D02*
X174817Y120267D01*
X174525Y120067D01*
X174150Y120000D01*
X173775Y120133D01*
X173483Y120400D01*
X173275Y120867D01*
X173233Y121400D01*
X173317Y121933D01*
X173525Y122267D01*
X173817Y122533D01*
X174108Y122600D01*
X174400Y122533D01*
X174775Y122267D01*
X174650Y124000D01*
X173525D01*
G01X167083Y136500D02*
Y140500D01*
X166042D01*
X165708Y140300D01*
X165500Y140033D01*
X165417Y139500D01*
X165500Y138967D01*
X165750Y138633D01*
X166042Y138433D01*
X167083D01*
G01X166042D02*
X165417Y136500D01*
G01X163150D02*
Y140500D01*
X164692Y137633D01*
X162608D01*
G01X161967Y137300D02*
X161717Y136833D01*
X161383Y136567D01*
X161008Y136500D01*
X160675Y136567D01*
X160342Y136900D01*
X160133Y137300D01*
X160092Y137700D01*
X160175Y138167D01*
X160467Y138500D01*
X160758Y138633D01*
X161133D01*
G01X160758D02*
X160508Y138833D01*
X160300Y139167D01*
X160217Y139567D01*
X160300Y139967D01*
X160508Y140300D01*
X160883Y140500D01*
X161258Y140433D01*
X161633Y140167D01*
G01X167083Y128500D02*
Y132500D01*
X166042D01*
X165708Y132300D01*
X165500Y132033D01*
X165417Y131500D01*
X165500Y130967D01*
X165750Y130633D01*
X166042Y130433D01*
X167083D01*
G01X166042D02*
X165417Y128500D01*
G01X163150D02*
Y132500D01*
X164692Y129633D01*
X162608D01*
G01X160550Y128500D02*
Y132500D01*
X162092Y129633D01*
X160008D01*
G01X167083Y144500D02*
Y148500D01*
X166042D01*
X165708Y148300D01*
X165500Y148033D01*
X165417Y147500D01*
X165500Y146967D01*
X165750Y146633D01*
X166042Y146433D01*
X167083D01*
G01X166042D02*
X165417Y144500D01*
G01X163150D02*
Y148500D01*
X164692Y145633D01*
X162608D01*
G01X161967Y145100D02*
X161717Y144767D01*
X161425Y144567D01*
X161050Y144500D01*
X160675Y144633D01*
X160383Y144900D01*
X160175Y145367D01*
X160133Y145900D01*
X160217Y146433D01*
X160425Y146767D01*
X160717Y147033D01*
X161008Y147100D01*
X161300Y147033D01*
X161675Y146767D01*
X161550Y148500D01*
X160425D01*
G01X167083Y153000D02*
Y157000D01*
X166042D01*
X165708Y156800D01*
X165500Y156533D01*
X165417Y156000D01*
X165500Y155467D01*
X165750Y155133D01*
X166042Y154933D01*
X167083D01*
G01X166042D02*
X165417Y153000D01*
G01X163150D02*
Y157000D01*
X164692Y154133D01*
X162608D01*
G01X161842Y154667D02*
X161550Y155133D01*
X161300Y155400D01*
X160967Y155533D01*
X160675Y155400D01*
X160467Y155133D01*
X160300Y154733D01*
X160258Y154267D01*
X160300Y153867D01*
X160467Y153467D01*
X160717Y153133D01*
X161008Y153000D01*
X161342Y153133D01*
X161633Y153533D01*
X161800Y154133D01*
X161842Y154800D01*
X161758Y155667D01*
X161633Y156133D01*
X161425Y156600D01*
X161133Y156933D01*
X160842Y157000D01*
X160550Y156867D01*
X160342Y156533D01*
G54D14*
G01X8550Y113500D02*
Y105500D01*
G01X15450D02*
Y113500D01*
G01X16550D02*
Y105500D01*
G01X23450D02*
Y113500D01*
G01X24550D02*
Y105500D01*
G01X7450D02*
Y113500D01*
G01X550D02*
Y105500D01*
G01X20550Y144000D02*
Y136000D01*
G01X10100Y148250D02*
X18100D01*
G01X550Y143800D02*
Y135800D01*
G01X7450D02*
Y143800D01*
G01X17000Y137244D02*
X19748D01*
Y140500D01*
G01X15000Y142756D02*
X13000D01*
G01X8252Y140500D02*
Y137244D01*
X11000D01*
G01X18100Y155150D02*
X10100D01*
G01X31450Y105500D02*
Y113500D01*
G01X27450Y136000D02*
Y144000D01*
G01X35450Y136000D02*
Y144000D01*
G01X28550D02*
Y136000D01*
G01X70050Y141000D02*
Y133000D01*
G01X71850Y181900D02*
Y173900D01*
G01X76950Y133000D02*
Y141000D01*
G01X98000Y147550D02*
X106000D01*
G01X78750Y173900D02*
Y181900D01*
G01X106000Y154450D02*
X98000D01*
G01X115450Y71500D02*
Y79500D01*
G01X108550D02*
Y71500D01*
G01X113000Y121550D02*
X121000D01*
G01X113000Y113550D02*
X121000D01*
G01Y120450D02*
X113000D01*
G01X121000Y112450D02*
X113000D01*
G01Y105550D02*
X121000D01*
G01Y128450D02*
X113399D01*
G01X149450Y45500D02*
Y53500D01*
G01X142550D02*
Y45500D01*
G01X142100Y118350D02*
X134100D01*
G01Y111450D02*
X142100D01*
G01X134100Y103750D02*
X142100D01*
G01Y110650D02*
X134100D01*
G01X144500Y154050D02*
X152500D01*
G01Y160950D02*
X144500D01*
G01X145000Y168950D02*
X137000D01*
G01Y162050D02*
X145000D01*
G01X170950Y107000D02*
Y115000D01*
G01X164050D02*
Y107000D01*
G01X172050Y115000D02*
Y107000D01*
G01X180000Y141950D02*
X172000D01*
G01Y135050D02*
X180000D01*
G01Y133950D02*
X172000D01*
G01Y127050D02*
X180000D01*
G01Y149950D02*
X172000D01*
G01Y143050D02*
X180000D01*
G01Y157950D02*
X172000D01*
G01Y151050D02*
X180000D01*
G01X178950Y107000D02*
Y115000D01*
G54D15*
G01X42559Y41563D02*
X17667D01*
G01X14483D02*
X2500D01*
Y53098D01*
G01Y87902D02*
Y99437D01*
X13710D01*
G01X16290D02*
X27210D01*
G01X29790D02*
X34210D01*
G01X36790D02*
X42559D01*
G01X50827Y41563D02*
X52048D01*
G01X55152D02*
X57275D01*
G01X60325D02*
X61555D01*
Y42843D01*
X66870D01*
Y54378D01*
X62343D01*
Y64043D01*
G01Y67157D02*
Y86622D01*
X66870D01*
Y98157D01*
X61555D01*
Y99437D01*
X50827D01*
G01X99091Y37969D02*
G03I-394J0D01*
M02*
