G04 ================== begin FILE IDENTIFICATION RECORD ==================*
G04 Layout Name:  e:/Project/SmartDiet/Device/Schematic/allegro/CyberBalance.brd*
G04 Film Name:    size_detail*
G04 File Format:  Gerber RS274X*
G04 File Origin:  Cadence Allegro 17.4-S015*
G04 Origin Date:  Fri May 28 17:34:05 2021*
G04 *
G04 Layer:  PACKAGE GEOMETRY/ASSEMBLY_TOP*
G04 Layer:  PACKAGE GEOMETRY/ASSEMBLY_BOTTOM*
G04 Layer:  PACKAGE GEOMETRY/PLACE_BOUND_TOP*
G04 Layer:  PACKAGE GEOMETRY/PLACE_BOUND_BOTTOM*
G04 Layer:  BOARD GEOMETRY/DIMENSION*
G04 Layer:  BOARD GEOMETRY/DESIGN_OUTLINE*
G04 Layer:  BOARD GEOMETRY/SIZE_DETAIL*
G04 *
G04 Offset:    (0.00 0.00)*
G04 Mirror:    No*
G04 Mode:      Positive*
G04 Rotation:  0*
G04 FullContactRelief:  No*
G04 UndefLineWidth:     2.00*
G04 ================== end FILE IDENTIFICATION RECORD ====================*
%FSLAX25Y25*MOIN*%
%IR0*IPPOS*OFA0.00000B0.00000*MIA0B0*SFA1.00000B1.00000*%
%ADD10C,.02*%
%ADD11C,.015*%
%ADD12C,.001*%
%ADD13C,.005*%
%ADD14C,.002*%
%ADD15C,.006*%
%ADD16C,.008*%
%ADD17C,.00591*%
%ADD18C,.00394*%
%ADD19C,.00197*%
%ADD20C,.00787*%
G75*
%LPD*%
G75*
G36*
G01X34385Y23622D02*
G03I-10763J0D01*
G37*
G36*
G01D02*
G03I-10763J0D01*
G37*
G36*
G01X25350Y37700D02*
Y52700D01*
X17650D01*
Y37700D01*
X25350D01*
G37*
G36*
G01X67102Y138843D02*
Y69157D01*
X4898D01*
Y138843D01*
X67102D01*
G37*
G36*
G01X10650Y53177D02*
Y59083D01*
X25965D01*
Y53177D01*
X10650D01*
G37*
G36*
G01Y63177D02*
Y69083D01*
X25965D01*
Y63177D01*
X10650D01*
G37*
G36*
G01X15302Y65002D02*
X12153D01*
Y67955D01*
X6247D01*
Y65002D01*
X3098D01*
Y64215D01*
X342D01*
Y53585D01*
X3098D01*
Y52798D01*
X7035D01*
Y51813D01*
X11365D01*
Y52798D01*
X15302D01*
Y53585D01*
X18058D01*
Y64215D01*
X15302D01*
Y65002D01*
G37*
G36*
G01X150Y102000D02*
Y117000D01*
X7850D01*
Y102000D01*
X150D01*
G37*
G36*
G01X20150Y132500D02*
Y147500D01*
X27850D01*
Y132500D01*
X20150D01*
G37*
G36*
G01X6600Y155550D02*
X21600D01*
Y147850D01*
X6600D01*
Y155550D01*
G37*
G36*
G01X7850Y147300D02*
Y132300D01*
X150D01*
Y147300D01*
X7850D01*
G37*
G36*
G01X20000Y143000D02*
X8000D01*
Y137000D01*
X20000D01*
Y143000D01*
G37*
G36*
G01X34385Y173228D02*
G03I-10763J0D01*
G37*
G36*
G01D02*
G03I-10763J0D01*
G37*
G36*
G01X59106Y-7220D02*
X48299D01*
Y28213D01*
X85701D01*
Y-7220D01*
X74894D01*
Y-22358D01*
X59106D01*
Y-7220D01*
G37*
G36*
G01X48500Y45050D02*
X33500D01*
Y37350D01*
X48500D01*
Y45050D01*
G37*
G36*
G01X33350Y37700D02*
Y52700D01*
X25650D01*
Y37700D01*
X33350D01*
G37*
G36*
G01X33500Y45350D02*
X48500D01*
Y53050D01*
X33500D01*
Y45350D01*
G37*
G36*
G01X26000Y53350D02*
X41000D01*
Y61050D01*
X26000D01*
Y53350D01*
G37*
G36*
G01X33091Y52665D02*
Y58571D01*
X54744D01*
Y52665D01*
X33091D01*
G37*
G36*
G01Y62665D02*
Y68571D01*
X54744D01*
Y62665D01*
X33091D01*
G37*
G36*
G01X28150Y132500D02*
Y147500D01*
X35850D01*
Y132500D01*
X28150D01*
G37*
G36*
G01X48499Y137143D02*
X35891D01*
Y156843D01*
X48499D01*
Y137143D01*
G37*
G36*
G01X40400Y159050D02*
X25400D01*
Y151350D01*
X40400D01*
Y159050D01*
G37*
G36*
G01X39400Y160400D02*
X70700D01*
Y181600D01*
X39400D01*
Y160400D01*
G37*
G36*
G01X39815Y196083D02*
Y184917D01*
X160185D01*
Y196083D01*
X39815D01*
G37*
G36*
G01X70850Y30000D02*
Y15000D01*
X63150D01*
Y30000D01*
X70850D01*
G37*
G36*
G01X54150Y58500D02*
Y43500D01*
X61850D01*
Y58500D01*
X54150D01*
G37*
G36*
G01X77850Y35000D02*
Y50000D01*
X70150D01*
Y35000D01*
X77850D01*
G37*
G36*
G01X70150D02*
Y50000D01*
X62450D01*
Y35000D01*
X70150D01*
G37*
G36*
G01X72650Y106500D02*
Y91500D01*
X80350D01*
Y106500D01*
X72650D01*
G37*
G36*
G01X88571Y106776D02*
Y116224D01*
X72429D01*
Y106776D01*
X88571D01*
G37*
G36*
G01X69650Y129500D02*
Y144500D01*
X77350D01*
Y129500D01*
X69650D01*
G37*
G36*
G01X79150Y185400D02*
Y170400D01*
X71450D01*
Y185400D01*
X79150D01*
G37*
G36*
G01X88550Y47700D02*
Y62700D01*
X80850D01*
Y47700D01*
X88550D01*
G37*
G36*
G01X80650Y106500D02*
Y91500D01*
X88350D01*
Y106500D01*
X80650D01*
G37*
G36*
G01X97150Y116000D02*
Y101000D01*
X104850D01*
Y116000D01*
X97150D01*
G37*
G36*
G01X88650D02*
Y101000D01*
X96350D01*
Y116000D01*
X88650D01*
G37*
G36*
G01X113650Y142350D02*
X111327D01*
Y136418D01*
X85673D01*
Y142350D01*
X83350D01*
Y144673D01*
X77418D01*
Y170327D01*
X83350D01*
Y172650D01*
X85673D01*
Y178582D01*
X111327D01*
Y172650D01*
X113650D01*
Y170327D01*
X119582D01*
Y144673D01*
X113650D01*
Y142350D01*
G37*
G36*
G01X111977Y19891D02*
Y-6117D01*
X148223D01*
Y19891D01*
X111977D01*
G37*
G36*
G01X112000Y21650D02*
X127000D01*
Y29350D01*
X112000D01*
Y21650D01*
G37*
G36*
G01Y29650D02*
X127000D01*
Y37350D01*
X112000D01*
Y29650D01*
G37*
G36*
G01X112201Y42643D02*
X124809D01*
Y62343D01*
X112201D01*
Y42643D01*
G37*
G36*
G01X108150Y68000D02*
Y83000D01*
X115850D01*
Y68000D01*
X108150D01*
G37*
G36*
G01X134857Y66201D02*
Y78809D01*
X115157D01*
Y66201D01*
X134857D01*
G37*
G36*
G01X115000Y92150D02*
X130000D01*
Y99850D01*
X115000D01*
Y92150D01*
G37*
G36*
G01X120000Y79500D02*
Y91500D01*
X126000D01*
Y79500D01*
X120000D01*
G37*
G36*
G01X109500Y128850D02*
X124500D01*
Y121150D01*
X109500D01*
Y128850D01*
G37*
G36*
G01Y120850D02*
X124500D01*
Y113150D01*
X109500D01*
Y120850D01*
G37*
G36*
G01X124500Y105150D02*
X109500D01*
Y112850D01*
X124500D01*
Y105150D01*
G37*
G36*
G01X125500Y112000D02*
Y100000D01*
X119500D01*
Y112000D01*
X125500D01*
G37*
G36*
G01X106343Y131299D02*
Y126378D01*
X101421Y131299D01*
X106343D01*
G37*
G36*
G01X129350Y159000D02*
Y174000D01*
X121650D01*
Y159000D01*
X129350D01*
G37*
G36*
G01X134850Y22000D02*
Y37000D01*
X127150D01*
Y22000D01*
X134850D01*
G37*
G36*
G01X135000Y21650D02*
X150000D01*
Y29350D01*
X135000D01*
Y21650D01*
G37*
G36*
G01X138337Y42200D02*
X128663D01*
Y43000D01*
X127000D01*
Y56000D01*
X128663D01*
Y56800D01*
X138337D01*
Y56000D01*
X140000D01*
Y43000D01*
X138337D01*
Y42200D01*
G37*
G36*
G01X150000Y37350D02*
X135000D01*
Y29650D01*
X150000D01*
Y37350D01*
G37*
G36*
G01X146000Y96850D02*
X131000D01*
Y89150D01*
X146000D01*
Y96850D01*
G37*
G36*
G01X145600Y111050D02*
X130600D01*
Y118750D01*
X145600D01*
Y111050D01*
G37*
G36*
G01X130600D02*
X145600D01*
Y103350D01*
X130600D01*
Y111050D01*
G37*
G36*
G01X145650Y158000D02*
Y143000D01*
X153350D01*
Y158000D01*
X145650D01*
G37*
G36*
G01X141000Y161350D02*
X156000D01*
Y153650D01*
X141000D01*
Y161350D01*
G37*
G36*
G01X148500Y161650D02*
X133500D01*
Y169350D01*
X148500D01*
Y161650D01*
G37*
G36*
G01X132489Y184683D02*
Y170117D01*
X156111D01*
Y184683D01*
X132489D01*
G37*
G36*
G01D02*
Y170117D01*
X156111D01*
Y184683D01*
X132489D01*
G37*
G36*
G01X183991Y23622D02*
G03I-10763J0D01*
G37*
G36*
G01D02*
G03I-10763J0D01*
G37*
G36*
G01X158150Y42000D02*
Y57000D01*
X165850D01*
Y42000D01*
X158150D01*
G37*
G36*
G01X150150D02*
Y57000D01*
X157850D01*
Y42000D01*
X150150D01*
G37*
G36*
G01X168500Y118650D02*
X183500D01*
Y126350D01*
X168500D01*
Y118650D01*
G37*
G36*
G01X183500Y118350D02*
X168500D01*
Y110650D01*
X183500D01*
Y118350D01*
G37*
G36*
G01X163650Y103500D02*
Y118500D01*
X171350D01*
Y103500D01*
X163650D01*
G37*
G36*
G01X171650D02*
Y118500D01*
X179350D01*
Y103500D01*
X171650D01*
G37*
G36*
G01X178500Y100500D02*
X166500D01*
Y106500D01*
X178500D01*
Y100500D01*
G37*
G36*
G01X168350Y127000D02*
Y142000D01*
X160650D01*
Y127000D01*
X168350D01*
G37*
G36*
G01X183500Y134350D02*
X168500D01*
Y126650D01*
X183500D01*
Y134350D01*
G37*
G36*
G01Y142350D02*
X168500D01*
Y134650D01*
X183500D01*
Y142350D01*
G37*
G36*
G01X168500Y150350D02*
X153500D01*
Y142650D01*
X168500D01*
Y150350D01*
G37*
G36*
G01X183500D02*
X168500D01*
Y142650D01*
X183500D01*
Y150350D01*
G37*
G36*
G01Y134650D02*
X168500D01*
Y142350D01*
X183500D01*
Y134650D01*
G37*
G36*
G01Y126650D02*
X168500D01*
Y134350D01*
X183500D01*
Y126650D01*
G37*
G36*
G01Y142650D02*
X168500D01*
Y150350D01*
X183500D01*
Y142650D01*
G37*
G36*
G01X168500Y158350D02*
X153500D01*
Y150650D01*
X168500D01*
Y158350D01*
G37*
G36*
G01X183500D02*
X168500D01*
Y150650D01*
X183500D01*
Y158350D01*
G37*
G36*
G01Y150650D02*
X168500D01*
Y158350D01*
X183500D01*
Y150650D01*
G37*
G36*
G01X183991Y173228D02*
G03I-10763J0D01*
G37*
G36*
G01D02*
G03I-10763J0D01*
G37*
G36*
G01X197000Y102000D02*
Y155000D01*
Y165000D01*
X184000D01*
Y155000D01*
Y102000D01*
X197000D01*
G37*
G36*
G01X10650Y73177D02*
Y79083D01*
X25965D01*
Y73177D01*
X10650D01*
G37*
G36*
G01X15850Y117000D02*
Y102000D01*
X8150D01*
Y117000D01*
X15850D01*
G37*
G36*
G01X23850D02*
Y102000D01*
X16150D01*
Y117000D01*
X23850D01*
G37*
G36*
G01X24150Y102000D02*
Y117000D01*
X31850D01*
Y102000D01*
X24150D01*
G37*
G36*
G01X33091Y72665D02*
Y78571D01*
X54744D01*
Y72665D01*
X33091D01*
G37*
G36*
G01X63150Y0D02*
Y15000D01*
X70850D01*
Y0D01*
X63150D01*
G37*
G36*
G01X94500Y154850D02*
X109500D01*
Y147150D01*
X94500D01*
Y154850D01*
G37*
G36*
G01X80437Y63988D02*
Y50012D01*
X62204D01*
Y63988D01*
X80437D01*
G37*
G36*
G01X87000Y-500D02*
Y12500D01*
X110000D01*
Y-500D01*
X87000D01*
G37*
G36*
G01X88953Y37181D02*
Y81768D01*
X108047D01*
Y37181D01*
X88953D01*
G37*
G36*
G01X85378Y133760D02*
X107622D01*
Y116240D01*
X85378D01*
Y133760D01*
G37*
G36*
G01X162500Y80000D02*
Y67000D01*
X139500D01*
Y80000D01*
X162500D01*
G37*
G36*
G01X160362Y139465D02*
Y97535D01*
X130638D01*
Y139465D01*
X160362D01*
G37*
G54D10*
G01X126482Y23741D02*
G02I-1500J0D01*
G54D20*
G01X9672Y69176D02*
G03I-393J0D01*
G01X45394Y199035D02*
G03I-394J0D01*
G01X99091Y52732D02*
G03I-394J0D01*
G54D11*
G01X-38641Y-10837D02*
X-37711Y-12296D01*
X-36472Y-13129D01*
X-35076Y-13337D01*
X-33837Y-13129D01*
X-32597Y-12087D01*
X-31822Y-10837D01*
X-31667Y-9587D01*
X-31977Y-8129D01*
X-33062Y-7087D01*
X-34147Y-6670D01*
X-35542D01*
G01X-34147D02*
X-33217Y-6045D01*
X-32442Y-5004D01*
X-32132Y-3754D01*
X-32442Y-2504D01*
X-33217Y-1462D01*
X-34612Y-837D01*
X-36006Y-1045D01*
X-37401Y-1879D01*
G01X-22835Y-13754D02*
X-23145Y-13545D01*
Y-13129D01*
X-22835Y-12920D01*
X-22524Y-13129D01*
Y-13545D01*
X-22835Y-13754D01*
G01X-10438Y-13337D02*
X-9353Y-13129D01*
X-8113Y-12504D01*
X-7338Y-11462D01*
X-7028Y-10004D01*
X-7338Y-8546D01*
X-8268Y-7295D01*
X-9663Y-6670D01*
X-11212D01*
X-12142Y-6254D01*
X-12917Y-5212D01*
X-13227Y-3754D01*
X-12762Y-2295D01*
X-11678Y-1254D01*
X-10438Y-837D01*
X-9198Y-1254D01*
X-8113Y-2295D01*
X-7648Y-3754D01*
X-7958Y-5212D01*
X-8733Y-6254D01*
X-9663Y-6670D01*
X-11212D01*
X-12607Y-7295D01*
X-13537Y-8546D01*
X-13847Y-10004D01*
X-13537Y-11462D01*
X-12762Y-12504D01*
X-11522Y-13129D01*
X-10438Y-13337D01*
G01X-33230Y94050D02*
X-32300Y93008D01*
X-31215Y92383D01*
X-29821Y92175D01*
X-28426Y92592D01*
X-27341Y93425D01*
X-26566Y94883D01*
X-26411Y96550D01*
X-26721Y98217D01*
X-27496Y99258D01*
X-28581Y100092D01*
X-29665Y100300D01*
X-30750Y100092D01*
X-32145Y99258D01*
X-31680Y104675D01*
X-27496D01*
G01X-17424D02*
X-18664Y104258D01*
X-19593Y103217D01*
X-20213Y101967D01*
X-20678Y100300D01*
X-20833Y98425D01*
X-20678Y96550D01*
X-20213Y94883D01*
X-19593Y93633D01*
X-18664Y92592D01*
X-17424Y92175D01*
X-16184Y92592D01*
X-15254Y93633D01*
X-14634Y94883D01*
X-14169Y96550D01*
X-14014Y98425D01*
X-14169Y100300D01*
X-14634Y101967D01*
X-15254Y103217D01*
X-16184Y104258D01*
X-17424Y104675D01*
G01X36728Y25427D02*
X37658Y26676D01*
X38743Y27302D01*
X39983Y27510D01*
X41532Y27093D01*
X42617Y26052D01*
X42927Y24802D01*
X42772Y23551D01*
X42152Y22510D01*
X39053Y20427D01*
X37658Y18968D01*
X36728Y16885D01*
X36418Y15010D01*
X42927D01*
G01X49125Y25427D02*
X50055Y26676D01*
X51140Y27302D01*
X52380Y27510D01*
X53929Y27093D01*
X55014Y26052D01*
X55324Y24802D01*
X55169Y23551D01*
X54549Y22510D01*
X51450Y20427D01*
X50055Y18968D01*
X49125Y16885D01*
X48815Y15010D01*
X55324D01*
G01X64466Y14593D02*
X64156Y14802D01*
Y15218D01*
X64466Y15427D01*
X64777Y15218D01*
Y14802D01*
X64466Y14593D01*
G01X73919Y20218D02*
X75004Y21677D01*
X75934Y22510D01*
X77174Y22927D01*
X78258Y22510D01*
X79033Y21677D01*
X79653Y20427D01*
X79808Y18968D01*
X79653Y17718D01*
X79033Y16468D01*
X78103Y15427D01*
X77019Y15010D01*
X75779Y15427D01*
X74694Y16676D01*
X74074Y18552D01*
X73919Y20635D01*
X74229Y23343D01*
X74694Y24802D01*
X75469Y26260D01*
X76553Y27302D01*
X77638Y27510D01*
X78723Y27093D01*
X79498Y26052D01*
G01X55847Y-29341D02*
X56777Y-30800D01*
X58016Y-31633D01*
X59412Y-31841D01*
X60651Y-31633D01*
X61891Y-30591D01*
X62666Y-29341D01*
X62821Y-28091D01*
X62511Y-26633D01*
X61426Y-25591D01*
X60341Y-25174D01*
X58946D01*
G01X60341D02*
X61271Y-24549D01*
X62046Y-23508D01*
X62356Y-22258D01*
X62046Y-21008D01*
X61271Y-19966D01*
X59876Y-19341D01*
X58482Y-19549D01*
X57087Y-20383D01*
G01X71653Y-32258D02*
X71343Y-32049D01*
Y-31633D01*
X71653Y-31424D01*
X71964Y-31633D01*
Y-32049D01*
X71653Y-32258D01*
G01X81106Y-26633D02*
X82191Y-25174D01*
X83121Y-24341D01*
X84361Y-23924D01*
X85445Y-24341D01*
X86220Y-25174D01*
X86840Y-26424D01*
X86995Y-27883D01*
X86840Y-29133D01*
X86220Y-30383D01*
X85290Y-31424D01*
X84206Y-31841D01*
X82966Y-31424D01*
X81881Y-30175D01*
X81261Y-28299D01*
X81106Y-26216D01*
X81416Y-23508D01*
X81881Y-22049D01*
X82656Y-20591D01*
X83740Y-19549D01*
X84825Y-19341D01*
X85910Y-19758D01*
X86685Y-20799D01*
G01X93834Y16885D02*
X94764Y15843D01*
X95849Y15218D01*
X97243Y15010D01*
X98638Y15427D01*
X99723Y16260D01*
X100498Y17718D01*
X100653Y19385D01*
X100343Y21052D01*
X99568Y22093D01*
X98483Y22927D01*
X97399Y23135D01*
X96314Y22927D01*
X94919Y22093D01*
X95384Y27510D01*
X99568D01*
G01X92754Y208223D02*
X93684Y207181D01*
X94769Y206556D01*
X96163Y206348D01*
X97558Y206765D01*
X98643Y207598D01*
X99418Y209056D01*
X99573Y210723D01*
X99263Y212390D01*
X98488Y213431D01*
X97403Y214265D01*
X96319Y214473D01*
X95234Y214265D01*
X93839Y213431D01*
X94304Y218848D01*
X98488D01*
G01X108560D02*
X107320Y218431D01*
X106391Y217390D01*
X105771Y216140D01*
X105306Y214473D01*
X105151Y212598D01*
X105306Y210723D01*
X105771Y209056D01*
X106391Y207806D01*
X107320Y206765D01*
X108560Y206348D01*
X109800Y206765D01*
X110730Y207806D01*
X111350Y209056D01*
X111815Y210723D01*
X111970Y212598D01*
X111815Y214473D01*
X111350Y216140D01*
X110730Y217390D01*
X109800Y218431D01*
X108560Y218848D01*
G01X117214Y-31841D02*
X117524Y-29133D01*
X117989Y-26841D01*
X118609Y-24758D01*
X119384Y-22466D01*
X120624Y-19341D01*
X114425D01*
G01X129921Y-32258D02*
X129611Y-32049D01*
Y-31633D01*
X129921Y-31424D01*
X130232Y-31633D01*
Y-32049D01*
X129921Y-32258D01*
G01X138909Y-29966D02*
X139839Y-31008D01*
X140924Y-31633D01*
X142318Y-31841D01*
X143713Y-31424D01*
X144798Y-30591D01*
X145573Y-29133D01*
X145728Y-27466D01*
X145418Y-25799D01*
X144643Y-24758D01*
X143558Y-23924D01*
X142474Y-23716D01*
X141389Y-23924D01*
X139994Y-24758D01*
X140459Y-19341D01*
X144643D01*
G01X204239Y21309D02*
Y33809D01*
X202380Y31309D01*
G01Y21309D02*
X206099D01*
G01X216636D02*
Y33809D01*
X214777Y31309D01*
G01Y21309D02*
X218496D01*
G01X229033Y20892D02*
X228723Y21101D01*
Y21517D01*
X229033Y21726D01*
X229344Y21517D01*
Y21101D01*
X229033Y20892D01*
G01X241430Y21309D02*
Y33809D01*
X239571Y31309D01*
G01Y21309D02*
X243290D01*
G01X210831Y-7825D02*
Y4675D01*
X208972Y2175D01*
G01Y-7825D02*
X212691D01*
G01X223228Y-8242D02*
X222918Y-8033D01*
Y-7617D01*
X223228Y-7408D01*
X223539Y-7617D01*
Y-8033D01*
X223228Y-8242D01*
G01X232216Y-5325D02*
X233146Y-6784D01*
X234385Y-7617D01*
X235781Y-7825D01*
X237020Y-7617D01*
X238260Y-6575D01*
X239035Y-5325D01*
X239190Y-4075D01*
X238880Y-2617D01*
X237795Y-1575D01*
X236710Y-1158D01*
X235315D01*
G01X236710D02*
X237640Y-533D01*
X238415Y508D01*
X238725Y1758D01*
X238415Y3008D01*
X237640Y4050D01*
X236245Y4675D01*
X234851Y4467D01*
X233456Y3633D01*
G01X210437Y55561D02*
X211522Y55769D01*
X212762Y56394D01*
X213537Y57436D01*
X213847Y58894D01*
X213537Y60352D01*
X212607Y61603D01*
X211212Y62228D01*
X209663D01*
X208733Y62644D01*
X207958Y63686D01*
X207648Y65144D01*
X208113Y66603D01*
X209197Y67644D01*
X210437Y68061D01*
X211677Y67644D01*
X212762Y66603D01*
X213227Y65144D01*
X212917Y63686D01*
X212142Y62644D01*
X211212Y62228D01*
X209663D01*
X208268Y61603D01*
X207338Y60352D01*
X207028Y58894D01*
X207338Y57436D01*
X208113Y56394D01*
X209353Y55769D01*
X210437Y55561D01*
G01X222834Y55144D02*
X222524Y55353D01*
Y55769D01*
X222834Y55978D01*
X223145Y55769D01*
Y55353D01*
X222834Y55144D01*
G01X235231Y55561D02*
X236316Y55769D01*
X237556Y56394D01*
X238331Y57436D01*
X238641Y58894D01*
X238331Y60352D01*
X237401Y61603D01*
X236006Y62228D01*
X234457D01*
X233527Y62644D01*
X232752Y63686D01*
X232442Y65144D01*
X232907Y66603D01*
X233991Y67644D01*
X235231Y68061D01*
X236471Y67644D01*
X237556Y66603D01*
X238021Y65144D01*
X237711Y63686D01*
X236936Y62644D01*
X236006Y62228D01*
X234457D01*
X233062Y61603D01*
X232132Y60352D01*
X231822Y58894D01*
X232132Y57436D01*
X232907Y56394D01*
X234147Y55769D01*
X235231Y55561D01*
G54D12*
G01X71630Y64630D02*
X370D01*
Y143370D01*
X71630D01*
Y64630D01*
G54D13*
G01X8019Y52798D02*
X10381D01*
Y53782D01*
X14318D01*
Y55357D01*
X15106D01*
Y62443D01*
X14318D01*
Y64018D01*
X10381D01*
Y65002D01*
X8019D01*
Y64018D01*
X4082D01*
Y62443D01*
X3294D01*
Y55357D01*
X4082D01*
Y53782D01*
X8019D01*
Y52798D01*
G01X36393Y156350D02*
Y137650D01*
X48007D01*
Y156350D01*
X36393D01*
G01X40799Y185902D02*
Y195098D01*
X159201D01*
Y185902D01*
X40799D01*
G01X60091Y-6197D02*
Y-21374D01*
X73909D01*
Y-6197D01*
G01X53004Y27287D02*
X80996D01*
Y-6197D01*
X53004D01*
Y27287D01*
G01X86799Y108547D02*
X74201D01*
Y114453D01*
X86799D01*
Y108547D01*
G01X106965Y44071D02*
Y77929D01*
X90035D01*
Y44071D01*
X106965D01*
G01X124307Y61850D02*
Y43150D01*
X112693D01*
Y61850D01*
X124307D01*
G01X115650Y78307D02*
X134350D01*
Y66693D01*
X115650D01*
Y78307D01*
G54D14*
G01X-20374Y-30709D02*
X-22835Y-14961D01*
X-25295Y-30709D01*
X-20374D01*
G01X42519Y-14961D02*
X-32678D01*
G01X-9843Y0D02*
X-33465D01*
G01X-26083Y15748D02*
X-23622Y0D01*
X-21161Y15748D01*
X-26083D01*
G01X42519Y0D02*
X-32678D01*
G01X-25295Y15748D02*
X-22835Y0D01*
X-20374Y15748D01*
X-25295D01*
G01X-9843Y196850D02*
X-33465D01*
G01X-21161Y181102D02*
X-23622Y196850D01*
X-26083Y181102D01*
X-21161D01*
G01X-22835Y-23461D02*
Y-14961D01*
G01X-23622Y82050D02*
Y0D01*
G01X-22835Y9288D02*
Y0D01*
G01X-23622Y114800D02*
Y196850D01*
G01X196850Y39370D02*
Y157480D01*
G03X157480Y196850I-39370J0D01*
G01X39370D01*
G03X0Y157480I0J-39370D01*
G01Y39370D01*
G03X39370Y0I39370J0D01*
G01X157480D01*
G03X196850Y39370I0J39370D01*
G01X0Y10237D02*
Y31103D01*
G01X24898Y21260D02*
X0D01*
G01X15748Y23720D02*
X0Y21260D01*
X15748Y18800D01*
Y23720D01*
G01X19050Y41200D02*
Y49200D01*
X23950D01*
Y41200D01*
X19050D01*
G01X9550Y113500D02*
Y105500D01*
X14450D01*
Y113500D01*
X9550D01*
G01X17550D02*
Y105500D01*
X22450D01*
Y113500D01*
X17550D01*
G01X6450Y105500D02*
Y113500D01*
X1550D01*
Y105500D01*
X6450D01*
G01X26450Y136000D02*
Y144000D01*
X21550D01*
Y136000D01*
X26450D01*
G01X10100Y149250D02*
X18100D01*
Y154150D01*
X10100D01*
Y149250D01*
G01X1550Y143800D02*
Y135800D01*
X6450D01*
Y143800D01*
X1550D01*
G01X8252Y142756D02*
Y137244D01*
X19748D01*
Y142756D01*
X8252D01*
G01X0Y206693D02*
Y222441D01*
G01X81390Y212598D02*
X0D01*
G01X15748Y215059D02*
X0Y212598D01*
X15748Y210138D01*
Y215059D01*
G01X44483Y-25591D02*
X59842D01*
G01X44094Y-28051D02*
X59842Y-25591D01*
X44094Y-23130D01*
Y-28051D01*
G01X45000Y38750D02*
X37000D01*
Y43650D01*
X45000D01*
Y38750D01*
G01X27050Y41200D02*
Y49200D01*
X31950D01*
Y41200D01*
X27050D01*
G01X37000Y51650D02*
X45000D01*
Y46750D01*
X37000D01*
Y51650D01*
G01X29500Y59650D02*
X37500D01*
Y54750D01*
X29500D01*
Y59650D01*
G01X30450Y105500D02*
Y113500D01*
X25550D01*
Y105500D01*
X30450D01*
G01X34450Y136000D02*
Y144000D01*
X29550D01*
Y136000D01*
X34450D01*
G01X36900Y152750D02*
X28900D01*
Y157650D01*
X36900D01*
Y152750D01*
G01X59842Y-25985D02*
Y-35434D01*
G01X74016Y-25985D02*
Y-35434D01*
G01X98824Y-25591D02*
X74016D01*
G01X89764Y-23130D02*
X74016Y-25591D01*
X89764Y-28051D01*
Y-23130D01*
G01X69450Y3500D02*
Y11500D01*
X64550D01*
Y3500D01*
X69450D01*
G01X64550Y26500D02*
Y18500D01*
X69450D01*
Y26500D01*
X64550D01*
G01X72835Y18800D02*
X88583Y21260D01*
X72835Y23720D01*
Y18800D01*
G01X73228D02*
X88976Y21260D01*
X73228Y23720D01*
Y18800D01*
G01X60450Y55000D02*
Y47000D01*
X55550D01*
Y55000D01*
X60450D01*
G01X71550Y38500D02*
Y46500D01*
X76450D01*
Y38500D01*
X71550D01*
G01X63850D02*
Y46500D01*
X68750D01*
Y38500D01*
X63850D01*
G01X78950Y103000D02*
Y95000D01*
X74050D01*
Y103000D01*
X78950D01*
G01X75950Y133000D02*
Y141000D01*
X71050D01*
Y133000D01*
X75950D01*
G01X72850Y181900D02*
Y173900D01*
X77750D01*
Y181900D01*
X72850D01*
G01X99606Y-28051D02*
X115354Y-25591D01*
X99606Y-23130D01*
Y-28051D01*
G01X88500Y1000D02*
Y11000D01*
X108500D01*
Y1000D01*
X88500D01*
G01X88583Y10237D02*
Y31103D01*
G01X82470Y21260D02*
X88583D01*
G01X88976Y10237D02*
Y31103D01*
G01X91637Y21260D02*
X88976D01*
G01X82250Y51200D02*
Y59200D01*
X87150D01*
Y51200D01*
X82250D01*
G01X86950Y103000D02*
Y95000D01*
X82050D01*
Y103000D01*
X86950D01*
G01X103450Y112500D02*
Y104500D01*
X98550D01*
Y112500D01*
X103450D01*
G01X94950D02*
Y104500D01*
X90050D01*
Y112500D01*
X94950D01*
G01X98000Y148550D02*
X106000D01*
Y153450D01*
X98000D01*
Y148550D01*
G01X84350Y143350D02*
X112650D01*
G01X84350Y171650D02*
Y143350D01*
G01X89350Y143349D02*
X84349Y148350D01*
G01X87974Y145618D02*
G02I-301J0D01*
G01X112650Y171650D02*
X84350D01*
G01X115354Y-16536D02*
Y-35434D01*
G01X102750Y-25591D02*
X115354D01*
G01X115336Y17717D02*
Y-5117D01*
G01D02*
X144864D01*
G01X115500Y27950D02*
X123500D01*
Y23050D01*
X115500D01*
Y27950D01*
G01X108268Y0D02*
X232678D01*
G01X108268Y10237D02*
Y31103D01*
G01X112018Y21260D02*
X108268D01*
G01X124016Y23720D02*
X108268Y21260D01*
X124016Y18800D01*
Y23720D01*
G01X144864Y17717D02*
X115336D01*
G01X115500Y35950D02*
X123500D01*
Y31050D01*
X115500D01*
Y35950D01*
G01X108268Y43701D02*
X232678D01*
G01X117323D02*
X232678D01*
G01X114450Y71500D02*
Y79500D01*
X109550D01*
Y71500D01*
X114450D01*
G01X118500Y98450D02*
X126500D01*
Y93550D01*
X118500D01*
Y98450D01*
G01X120244Y91248D02*
X125756D01*
Y79752D01*
X120244D01*
Y91248D01*
G01X117323Y78346D02*
X232678D01*
G01X113000Y122550D02*
X121000D01*
Y127450D01*
X113000D01*
Y122550D01*
G01Y114550D02*
X121000D01*
Y119450D01*
X113000D01*
Y114550D01*
G01X121000Y111450D02*
X113000D01*
Y106550D01*
X121000D01*
Y111450D01*
G01X125256Y100252D02*
X119744D01*
Y111748D01*
X125256D01*
Y100252D01*
G01X112650Y143350D02*
Y171650D01*
G01X123050Y162500D02*
Y170500D01*
X127950D01*
Y162500D01*
X123050D01*
G01X123335Y212598D02*
X196850D01*
G01X144882Y-16536D02*
Y-35434D01*
G01X157092Y-25591D02*
X144882D01*
G01X160630Y-23130D02*
X144882Y-25591D01*
X160630Y-28051D01*
Y-23130D01*
G01X144864Y-5117D02*
Y17717D01*
G01X138500Y27950D02*
X146500D01*
Y23050D01*
X138500D01*
Y27950D01*
G01X127400Y48300D02*
G03Y50700I0J1200D01*
G01Y43400D02*
X139600D01*
G01X127400Y55600D02*
Y43400D01*
G01X139600D02*
Y55600D01*
G01X129863Y45400D02*
G02I-300J0D01*
G01X148450Y45500D02*
Y53500D01*
X143550D01*
Y45500D01*
X148450D01*
G01X128550Y25500D02*
Y33500D01*
X133450D01*
Y25500D01*
X128550D01*
G01X146500Y31050D02*
X138500D01*
Y35950D01*
X146500D01*
Y31050D01*
G01X139600Y55600D02*
X127400D01*
G01X154000Y60050D02*
X146000D01*
Y64950D01*
X154000D01*
Y60050D01*
G01X161000Y78500D02*
Y68500D01*
X141000D01*
Y78500D01*
X161000D01*
G01X142500Y90550D02*
X134500D01*
Y95450D01*
X142500D01*
Y90550D01*
G01X142100Y117350D02*
X134100D01*
Y112450D01*
X142100D01*
Y117350D01*
G01X134100Y104750D02*
X142100D01*
Y109650D01*
X134100D01*
Y104750D01*
G01X151950Y154500D02*
Y146500D01*
X147050D01*
Y154500D01*
X151950D01*
G01X144500Y155050D02*
X152500D01*
Y159950D01*
X144500D01*
Y155050D01*
G01X145000Y167950D02*
X137000D01*
Y163050D01*
X145000D01*
Y167950D01*
G01X158268Y-5118D02*
X233071D01*
G01X158268Y0D02*
X233071D01*
G01X164450Y45500D02*
Y53500D01*
X159550D01*
Y45500D01*
X164450D01*
G01X156450D02*
Y53500D01*
X151550D01*
Y45500D01*
X156450D01*
G01X172000Y124950D02*
X180000D01*
Y120050D01*
X172000D01*
Y124950D01*
G01X180000Y112050D02*
X172000D01*
Y116950D01*
X180000D01*
Y112050D01*
G01X169950Y107000D02*
Y115000D01*
X165050D01*
Y107000D01*
X169950D01*
G01X177950D02*
Y115000D01*
X173050D01*
Y107000D01*
X177950D01*
G01X166752Y100744D02*
Y106256D01*
X178248D01*
Y100744D01*
X166752D01*
G01X162050Y130500D02*
Y138500D01*
X166950D01*
Y130500D01*
X162050D01*
G01X180000Y128050D02*
X172000D01*
Y132950D01*
X180000D01*
Y128050D01*
G01Y136050D02*
X172000D01*
Y140950D01*
X180000D01*
Y136050D01*
G01X165000Y144050D02*
X157000D01*
Y148950D01*
X165000D01*
Y144050D01*
G01X180000D02*
X172000D01*
Y148950D01*
X180000D01*
Y144050D01*
G01Y140950D02*
X172000D01*
Y136050D01*
X180000D01*
Y140950D01*
G01Y132950D02*
X172000D01*
Y128050D01*
X180000D01*
Y132950D01*
G01Y148950D02*
X172000D01*
Y144050D01*
X180000D01*
Y148950D01*
G01X165000Y152050D02*
X157000D01*
Y156950D01*
X165000D01*
Y152050D01*
G01X180000D02*
X172000D01*
Y156950D01*
X180000D01*
Y152050D01*
G01Y156950D02*
X172000D01*
Y152050D01*
X180000D01*
Y156950D01*
G01X185500Y103500D02*
Y163500D01*
X195500D01*
Y103500D01*
X185500D01*
G01X196850Y206693D02*
Y222441D01*
G01X181102Y210138D02*
X196850Y212598D01*
X181102Y215059D01*
Y210138D01*
G01X223228Y-17950D02*
Y-5118D01*
G01X225689Y-20866D02*
X223228Y-5118D01*
X220768Y-20866D01*
X225689D01*
G01X222835Y11184D02*
Y0D01*
G01X220374Y15748D02*
X222835Y0D01*
X225295Y15748D01*
X220374D01*
G01X223228Y14800D02*
Y0D01*
G01X220768Y15748D02*
X223228Y0D01*
X225689Y15748D01*
X220768D01*
G01X222835Y43934D02*
Y43701D01*
G01X225295Y27953D02*
X222835Y43701D01*
X220374Y27953D01*
X225295D01*
G01X222835Y45436D02*
Y43701D01*
G01X225295Y27953D02*
X222835Y43701D01*
X220374Y27953D01*
X225295D01*
G01X222835Y78186D02*
Y78346D01*
G01X220374Y94094D02*
X222835Y78346D01*
X225295Y94094D01*
X220374D01*
G54D15*
G01X82303Y58780D02*
X82386Y58714D01*
Y58580D01*
X82303Y58514D01*
X82220Y58580D01*
Y58714D01*
X82303Y58780D01*
G01X80620Y58647D02*
Y54647D01*
X79786D01*
X79453Y54847D01*
X79203Y55114D01*
X78995Y55514D01*
X78828Y55980D01*
X78786Y56647D01*
X78828Y57314D01*
X78995Y57780D01*
X79203Y58180D01*
X79453Y58447D01*
X79786Y58647D01*
X80620D01*
G01X77728Y56847D02*
X76395D01*
X76520Y56380D01*
X76728Y56114D01*
X77020Y55980D01*
X77311Y56047D01*
X77561Y56247D01*
X77728Y56714D01*
X77811Y57114D01*
Y57514D01*
X77728Y57914D01*
X77520Y58314D01*
X77270Y58580D01*
X76978Y58647D01*
X76686Y58514D01*
X76395Y58114D01*
G01X75128Y58180D02*
X74920Y58447D01*
X74628Y58647D01*
X74378D01*
X74128Y58514D01*
X73961Y58314D01*
X73878Y58047D01*
X73920Y57647D01*
X74086Y57447D01*
X74836Y57047D01*
X75003Y56580D01*
X74920Y56247D01*
X74753Y56047D01*
X74503Y55980D01*
X74253Y56047D01*
X74003Y56247D01*
G01X71903Y55980D02*
Y58647D01*
G01Y54914D02*
X71986Y54847D01*
Y54714D01*
X71903Y54647D01*
X71820Y54714D01*
Y54847D01*
X71903Y54914D01*
G01X69886Y59647D02*
X69595Y59914D01*
X69261Y59980D01*
X68970Y59914D01*
X68720Y59580D01*
X68553Y59114D01*
Y55980D01*
G01Y56514D02*
X68720Y56247D01*
X68970Y56047D01*
X69261Y55980D01*
X69595Y56114D01*
X69803Y56380D01*
X69970Y56847D01*
X70053Y57314D01*
X70011Y57714D01*
X69845Y58180D01*
X69595Y58514D01*
X69261Y58647D01*
X69011Y58580D01*
X68720Y58314D01*
X68553Y58047D01*
G01X67411Y58647D02*
Y55980D01*
G01Y56647D02*
X67245Y56314D01*
X66995Y56047D01*
X66661Y55980D01*
X66370Y56047D01*
X66120Y56314D01*
X65995Y56780D01*
Y58647D01*
G01X63353D02*
Y55980D01*
G01Y56447D02*
X63520Y56180D01*
X63770Y56047D01*
X64061Y55980D01*
X64353Y56114D01*
X64603Y56380D01*
X64770Y56780D01*
X64853Y57314D01*
X64770Y57847D01*
X64603Y58247D01*
X64353Y58514D01*
X64061Y58647D01*
X63770Y58580D01*
X63520Y58380D01*
X63353Y58114D01*
G01X61503Y54647D02*
Y58647D01*
G01X62086Y55980D02*
X60920D01*
G01X58903Y58647D02*
X59153Y58580D01*
X59403Y58314D01*
X59570Y57847D01*
X59653Y57314D01*
X59570Y56780D01*
X59403Y56314D01*
X59153Y56047D01*
X58903Y55980D01*
X58653Y56047D01*
X58403Y56314D01*
X58236Y56780D01*
X58195Y57314D01*
X58236Y57847D01*
X58403Y58314D01*
X58653Y58580D01*
X58903Y58647D01*
G01X56886D02*
Y55980D01*
G01Y56514D02*
X56678Y56247D01*
X56470Y56047D01*
X56178Y55980D01*
X55970Y56047D01*
X55720Y56247D01*
G54D16*
G01X39000Y160000D02*
X71000D01*
Y182000D01*
X39000D01*
Y160000D01*
G54D17*
G01X72650Y51291D02*
X66350D01*
G01Y62709D02*
Y51291D01*
G01X72650Y62709D02*
X66350D01*
G01X72650D02*
Y51291D01*
G54D18*
G01X61555Y41563D02*
Y42843D01*
X66870D01*
Y54378D01*
X62343D01*
Y86622D01*
X66870D01*
Y98157D01*
X61555D01*
Y99437D01*
X2500D01*
Y87902D01*
G02Y53098I-29680J-17402D01*
G01Y41563D01*
X61555D01*
G01X34685Y68531D02*
Y72469D01*
G01X32717Y70500D02*
X36654D01*
G01X106343Y118701D02*
X86657D01*
Y131299D01*
X106343D01*
Y118701D01*
G01X153177Y104012D02*
X148177Y99012D01*
G01X137823D02*
Y137988D01*
G01X153177Y99012D02*
X137823D01*
G01Y137988D02*
X153177D01*
G01D02*
Y99012D01*
G54D19*
G01X68150Y101996D02*
Y39004D01*
X236D01*
Y101996D01*
X68150D01*
G01X93579Y81669D02*
Y78913D01*
X89051D01*
Y43087D01*
X93579D01*
Y40331D01*
X103421D01*
Y43087D01*
X107949D01*
Y78913D01*
X103421D01*
Y81669D01*
X93579D01*
G01X130736Y97634D02*
Y139366D01*
G01X160264Y97634D02*
X130736D01*
G01Y139366D02*
X160264D01*
G01D02*
Y97634D01*
M02*
