G04 ================== begin FILE IDENTIFICATION RECORD ==================*
G04 Layout Name:  e:/Project/SmartDiet/Device/Schematic/allegro/CyberBalance.brd*
G04 Film Name:    TOP*
G04 File Format:  Gerber RS274X*
G04 File Origin:  Cadence Allegro 17.4-S015*
G04 Origin Date:  Fri May 28 17:10:05 2021*
G04 *
G04 Layer:  VIA CLASS/TOP*
G04 Layer:  PIN/TOP*
G04 Layer:  ETCH/TOP*
G04 Layer:  BOARD GEOMETRY/DESIGN_OUTLINE*
G04 *
G04 Offset:    (0.00 0.00)*
G04 Mirror:    No*
G04 Mode:      Positive*
G04 Rotation:  0*
G04 FullContactRelief:  No*
G04 UndefLineWidth:     2.00*
G04 ================== end FILE IDENTIFICATION RECORD ====================*
%FSLAX25Y25*MOIN*%
%IR0*IPPOS*OFA0.00000B0.00000*MIA0B0*SFA1.00000B1.00000*%
%ADD38R,.1X.06902*%
%ADD20C,.06*%
%ADD11C,.02402*%
%ADD27C,.0515*%
%ADD21R,.06X.06*%
%ADD28R,.0515X.0515*%
%ADD35R,.0689X.10433*%
%ADD26C,.05906*%
%ADD36R,.10433X.0689*%
%ADD18C,.07677*%
%ADD16R,.03937X.03937*%
%ADD22C,.05898*%
%ADD37R,.055X.04*%
%ADD42R,.04X.055*%
%ADD34R,.016X.053*%
%ADD31R,.01201X.04701*%
%ADD30R,.04701X.01201*%
%ADD12R,.05201X.055*%
%ADD32R,.032X.059*%
%ADD19R,.055X.05201*%
%ADD25C,.11811*%
%ADD39R,.01X.02799*%
%ADD40R,.06102X.02756*%
%ADD24R,.04331X.0748*%
%ADD23R,.05925X.02252*%
%ADD14R,.04134X.08661*%
%ADD33O,.02559X.03346*%
%ADD15R,.03937X.04134*%
%ADD10C,.21598*%
%ADD41O,.09843X.05512*%
%ADD17O,.09843X.02756*%
%ADD13O,.02756X.09843*%
%ADD29R,.0748X.07874*%
%ADD43C,.01*%
%ADD44C,.03*%
%ADD45C,.012*%
%ADD46C,.04*%
%ADD47C,.023*%
%ADD48C,.05*%
%ADD49C,.015*%
%ADD50C,.028*%
%ADD51C,.068*%
%ADD52C,.002*%
%ADD53C,.008*%
%ADD58C,.08004*%
%ADD59C,.07154*%
%ADD60C,.07902*%
%ADD54C,.07508*%
%ADD55C,.0968*%
%ADD56C,.13412*%
%ADD57C,.23602*%
G75*
%LPD*%
G75*
G36*
G01X1000Y157480D02*
G02X39370Y195850I38370J0D01*
G01X157481D01*
G02X195850Y157481I-1J-38370D01*
G01Y39370D01*
G02X157480Y1000I-38370J0D01*
G01X146066D01*
G02X145698Y1245I1J400D01*
G03X147698Y4360I-1426J3115D01*
G01Y7060D01*
G03X140848I-3425J0D01*
G01Y4360D01*
G03X142848Y1245I3426J0D01*
G02X142480Y1000I-369J155D01*
G01X117720D01*
G02X117352Y1245I1J400D01*
G03X119352Y4360I-1426J3115D01*
G01Y7060D01*
G03X112502I-3425J0D01*
G01Y4360D01*
G03X114502Y1245I3426J0D01*
G02X114134Y1000I-369J155D01*
G01X39370D01*
G02X1000Y39370I0J38370D01*
G01Y75400D01*
G02X1535Y75776I400J0D01*
G03X2338Y75636I804J2240D01*
G01X2880D01*
Y73838D01*
G03X3760Y71716I3001J1D01*
G01X6198Y69277D01*
Y64904D01*
G03X6228Y64484I3002J3D01*
G01X6230Y64470D01*
Y62840D01*
X5458D01*
Y54566D01*
X12942D01*
Y62840D01*
X12170D01*
Y64470D01*
X12172Y64484D01*
G03X12202Y64904I-2972J423D01*
G01Y70520D01*
G03X12186Y70818I-3001J-12D01*
G01X12184Y70838D01*
Y70839D01*
X12180Y70879D01*
X12244Y71109D01*
X12519Y71033D01*
X12559Y70958D01*
G03X14500Y69797I1941J1042D01*
G03X16703Y72000I0J2203D01*
G01Y72001D01*
G03X15902Y73700I-2203J0D01*
G01Y76619D01*
X19787Y80505D01*
X19877Y80500D01*
G03X20000Y80497I115J2200D01*
G03X17797Y82700I0J2203D01*
G03X17800Y82577I2203J-8D01*
G01X17805Y82487D01*
X13509Y78191D01*
G03X13098Y77200I991J-992D01*
G01Y73700D01*
G03X12342Y72442I1403J-1699D01*
G02X11627Y72287I-392J80D01*
G03X11322Y72642I-2422J-1773D01*
G01X8884Y75081D01*
Y75636D01*
X9426D01*
G03Y80396I-1J2380D01*
G01X7711D01*
G03X5882Y81018I-1830J-2380D01*
G03X4053Y80396I1J-3002D01*
G01X2338D01*
G03X1535Y80256I1J-2380D01*
G02X1000Y80632I-135J376D01*
G01Y84061D01*
G02X1535Y84437I400J0D01*
G03X2335Y84298I801J2240D01*
G01X9426D01*
G03X10917Y88531I-1J2379D01*
G02Y89154I251J312D01*
G03Y92862I-1492J1854D01*
G02Y93485I251J311D01*
G03X10918Y97192I-1492J1854D01*
G02Y97816I251J312D01*
G03X10917Y101523I-1493J1853D01*
G02Y102146I251J311D01*
G03Y105854I-1492J1854D01*
G02Y106477I251J311D01*
G03X9426Y110710I-1492J1854D01*
G01X2335D01*
G03X1535Y110571I1J-2379D01*
G02X1000Y110947I-135J376D01*
G01Y114376D01*
G02X1535Y114752I400J0D01*
G03X2338Y114612I804J2240D01*
G01X9426D01*
G03X10917Y118846I0J2380D01*
G02Y119469I251J311D01*
G03Y123177I-1492J1854D01*
G02Y123800I251J311D01*
G03X11348Y124252I-1492J1854D01*
G01X12800D01*
G03X14499Y123451I1699J1402D01*
G01X14500D01*
G03X16533Y124805I0J2203D01*
G02X17185Y124933I369J-154D01*
G01X17609Y124509D01*
G03X18600Y124098I992J991D01*
G01X25543D01*
G02X25943Y123695I0J-400D01*
G01Y119748D01*
G03X26944Y118747I1001J0D01*
G01X30882D01*
G03X31883Y119748I0J1001D01*
G01Y123695D01*
G02X32283Y124098I400J3D01*
G01X32630D01*
G02X33030Y123695I0J-400D01*
G01Y119748D01*
G03X34031Y118747I1001J0D01*
G01X37969D01*
G03X38970Y119748I-1J1001D01*
G01Y123686D01*
G03X38664Y124406I-1001J-1D01*
G02X38659Y124977I278J288D01*
G01X40118Y126436D01*
X40208Y126431D01*
G03X40331Y126428I115J2200D01*
G03X42534Y128631I0J2203D01*
G03X41732Y130331I-2203J0D01*
G01Y132392D01*
G03X42184Y132822I-1400J1924D01*
G02X42808I312J-251D01*
G03X46515Y132823I1853J1493D01*
G02X47138I311J-251D01*
G03X47590Y132392I1854J1492D01*
G01Y131393D01*
G03X46797Y129700I1411J-1693D01*
G03X51203I2203J0D01*
G03X50394Y131406I-2203J0D01*
G01Y132392D01*
G03X50846Y132823I-1402J1923D01*
G02X51469I311J-251D01*
G03X51922Y132392I1852J1493D01*
G01Y123194D01*
G03X50997Y121400I1277J-1794D01*
G03X55403I2203J0D01*
G03X54724Y122990I-2203J-1D01*
G01Y132392D01*
G03X55702Y134314I-1401J1923D01*
G01Y141402D01*
G03X51469Y142893I-2379J-1D01*
G02X50846I-312J251D01*
G03X47138I-1854J-1492D01*
G02X46515I-312J251D01*
G03X42808Y142894I-1854J-1492D01*
G02X42184I-312J251D01*
G03X38477Y142893I-1853J-1493D01*
G02X37854I-312J251D01*
G03X34146I-1854J-1492D01*
G02X33523I-311J251D01*
G03X29816Y142894I-1854J-1492D01*
G02X29192I-312J251D01*
G03X25485Y142893I-1853J-1493D01*
G02X24862I-311J251D01*
G03X21154I-1854J-1492D01*
G02X20531I-311J251D01*
G03X16298Y141402I-1854J-1492D01*
G01Y134314D01*
G03X20531Y132823I2379J1D01*
G02X21154I312J-251D01*
G03X22299Y132043I1854J1491D01*
G02X22460Y131375I-119J-382D01*
G03X21797Y129800I1539J-1575D01*
G03X26203I2203J0D01*
G03X26200Y129923I-2203J8D01*
G01X26195Y130013D01*
X28335Y132153D01*
X28366Y132168D01*
G03X29192Y132822I-1027J2146D01*
G02X29816I312J-251D01*
G03X30643Y132167I1854J1492D01*
G02X30706Y131483I-172J-361D01*
G03X29797Y129700I1294J-1783D01*
G03X32000Y127497I2203J0D01*
G01X32001D01*
G03X33700Y128298I0J2203D01*
G01X34401D01*
G03X35392Y128709I-1J1402D01*
G01X36991Y130308D01*
G03X37402Y131299I-991J992D01*
G01Y132392D01*
G03X37854Y132823I-1402J1923D01*
G02X38477I311J-251D01*
G03X38930Y132392I1852J1493D01*
G01Y130331D01*
G03X38128Y128631I1401J-1700D01*
G03X38131Y128508I2203J-8D01*
G01X38136Y128418D01*
X36619Y126902D01*
X19181D01*
X5402Y140681D01*
Y147800D01*
G03X6203Y149499I-1402J1699D01*
G01Y149500D01*
G03X1797I-2203J0D01*
G01Y149499D01*
G03X2598Y147800I2203J0D01*
G01Y140100D01*
G03X3009Y139109I1402J1D01*
G01X9072Y133046D01*
G02X8789Y132364I-283J-282D01*
G01X2338D01*
G03X1535Y132224I1J-2380D01*
G02X1000Y132600I-135J376D01*
G01Y157480D01*
G37*
%LPC*%
G75*
G36*
G01X129818Y174441D02*
G02X132134Y181158I2316J2959D01*
G01X136466D01*
G02X139971Y176046I0J-3758D01*
G01X139924Y175924D01*
X142672Y173176D01*
X143023D01*
X143083Y173243D01*
G02X144725Y173978I1642J-1467D01*
G02Y169572I0J-2203D01*
G02X143025Y170374I0J2203D01*
G01X142090D01*
G02X141100Y170784I0J1401D01*
G01X137942Y173942D01*
X137820Y173895D01*
G02X136466Y173642I-1356J3505D01*
G01X133873D01*
G03X133620Y172933I0J-400D01*
G02X133876Y172701I-2221J-2707D01*
G01X137799Y168778D01*
G02X138824Y166303I-2476J-2475D01*
G01Y151522D01*
G02X137799Y149047I-3501J0D01*
G01X125502Y136750D01*
Y120000D01*
G02X124476Y117524I-3501J0D01*
G01X120791Y113839D01*
G03X121708Y108708I4141J-1907D01*
G01X122012Y108404D01*
X121920Y104828D01*
Y104000D01*
G02X121905Y103823I-1001J-4D01*
G03X122178Y101566I11749J276D01*
G02X122450Y99785I-13433J-2963D01*
G01X122466Y99602D01*
X122792D01*
X123080Y100418D01*
Y104260D01*
G02X123093Y104421I1001J0D01*
G01X123095Y104437D01*
X123098Y104455D01*
Y105302D01*
X130602D01*
Y103402D01*
X152041D01*
G03X152365Y104036I0J400D01*
G02X152176Y104621I812J585D01*
G01Y107379D01*
G02X152577Y108180I1001J0D01*
G03Y108820I-240J320D01*
G02X152176Y109621I600J801D01*
G01Y112379D01*
G02X152577Y113180I1001J0D01*
G03Y113820I-240J320D01*
G02X152176Y114621I600J801D01*
G01Y117380D01*
G02X153177Y118380I1001J-1D01*
G01X159279D01*
G02X160089Y117967I0J-1001D01*
G03X160626Y117864I324J235D01*
G02X161800Y118203I1174J-1863D01*
G02X164003Y116000I0J-2203D01*
G02X162979Y114139I-2203J0D01*
G03X163194Y113402I215J-337D01*
G01X163600D01*
G02X165298Y112698I-1J-2402D01*
G01X167995Y110002D01*
X169498D01*
Y110581D01*
G02X169505Y110694I1002J-5D01*
G01X169514Y110773D01*
X169420Y110901D01*
X169342Y110915D01*
G02X168524Y111899I183J984D01*
G01Y117102D01*
G02X169525Y118102I1001J-1D01*
G01X175025D01*
G02X176012Y117269I0J-1001D01*
G01X176041Y117102D01*
X176978D01*
Y111898D01*
X176041D01*
X176012Y111731D01*
G02X175419Y110979I-987J169D01*
G02X175502Y110581I-919J-399D01*
G01Y110232D01*
X183637D01*
G02X185300Y110902I1664J-1732D01*
G01X186498D01*
Y111500D01*
G02X187500Y112502I1002J0D01*
G01X193500D01*
G02X194502Y111500I0J-1002D01*
G01Y105500D01*
G02X193500Y104498I-1002J0D01*
G01X187500D01*
G02X186498Y105500I0J1002D01*
G01Y105917D01*
X186371Y106044D01*
X186214Y106026D01*
G02X184631Y105430I-1583J1804D01*
G01X175502D01*
Y105081D01*
G02X174500Y104080I-1002J1D01*
G01X170500D01*
G02X169501Y105012I0J1001D01*
G01X169488Y105198D01*
X167000D01*
G02X165302Y105902I1J2402D01*
G01X164782Y106422D01*
G03X164100Y106118I-283J-283D01*
G02X164103Y106000I-2200J-115D01*
G02X162043Y103802I-2203J0D01*
G01X161962Y103797D01*
X161908Y103736D01*
G03X162056Y103402I148J-134D01*
G01X162729D01*
G02X164427Y102698I-1J-2402D01*
G01X165417Y101708D01*
G03X165758Y101850I141J142D01*
G01Y101919D01*
G02X166760Y102920I1002J-1D01*
G01X170762D01*
G02X171762Y101919I-1J-1001D01*
G01Y96419D01*
G02X170760Y95418I-1002J1D01*
G01X166758D01*
G02X165758Y96419I1J1001D01*
G01Y96768D01*
X164560D01*
G02X162862Y97471I0J2402D01*
G01X161734Y98598D01*
X138570D01*
X138545Y95602D01*
X139478D01*
Y90398D01*
X138538D01*
X138512Y90229D01*
G02X138506Y90196I-988J163D01*
G01X138502Y90176D01*
Y89398D01*
X130998D01*
Y89985D01*
X128586Y92398D01*
X122598D01*
G03X122262Y91781I0J-400D01*
G02X122420Y91240I-843J-540D01*
G01Y87238D01*
G02X121419Y86238I-1001J1D01*
G01X115919D01*
G02X115381Y86395I0J1002D01*
G01X115246Y86481D01*
X114203Y85439D01*
X114199Y85363D01*
G02X114180Y85185I-2198J145D01*
G03X114624Y84731I396J-57D01*
G02X115800Y84802I1178J-9731D01*
G01X122702D01*
Y76262D01*
X122710Y76233D01*
X122711Y76231D01*
G02X122753Y75945I-959J-287D01*
G01Y71693D01*
X122760Y71638D01*
X122763Y71626D01*
G02X122902Y70535I-4262J-1097D01*
G01Y66480D01*
X122906Y66465D01*
Y66460D01*
X122910Y66447D01*
G02X122946Y66182I-965J-266D01*
G01Y55748D01*
G02X122912Y55488I-1001J-1D01*
G01X122905Y55462D01*
X122910Y54989D01*
G02X122707Y54787I-200J-2D01*
G01X122247Y54793D01*
X122219Y54785D01*
G02X121946Y54747I-273J964D01*
G01X115055D01*
G02X114286Y55107I0J1001D01*
G03X99208Y57494I-15786J-50899D01*
G02X98500Y57423I-709J3506D01*
G02X97793Y57494I2J3577D01*
G01X97773Y57498D01*
X97556D01*
X97553Y57548D01*
X97422Y57589D01*
G02X94923Y61000I1078J3411D01*
G02X97029Y64261I3578J0D01*
G01X97155Y64318D01*
X97141Y64541D01*
X98171Y64602D01*
X98200D01*
G03X105998Y72400I0J7798D01*
G01Y75000D01*
G02X110476Y83229I9802J-1D01*
G03X110526Y83863I-217J336D01*
G02X109797Y85500I1473J1637D01*
G02X111863Y87699I2203J0D01*
G01X111939Y87703D01*
X114368Y90132D01*
G02X114804Y90443I1135J-1130D01*
G01X114918Y90497D01*
Y91240D01*
G02X115127Y91854I1002J2D01*
G03X114811Y92498I-316J244D01*
G01X114175D01*
X105201Y83524D01*
G02X102725Y82498I-2476J2475D01*
G01X95450D01*
X80476Y67524D01*
G02X78000Y66498I-2476J2475D01*
G01X73376D01*
X61707Y62255D01*
X61502Y62050D01*
Y60602D01*
X61854D01*
G03X61502Y59603I1246J-1001D01*
G01Y59600D01*
G03X63100Y58002I1598J0D01*
G01X65500D01*
G02X69092Y54663I0J-3602D01*
G02X69131Y54386I-963J-277D01*
G01Y52134D01*
G02X69107Y51917I-1001J1D01*
G01X69102Y51895D01*
Y50998D01*
X60824D01*
X60804Y50994D01*
G02X60771Y50988I-196J982D01*
G01X60602Y50962D01*
Y50022D01*
X55398D01*
Y50962D01*
X55229Y50988D01*
G02X55196Y50994I163J988D01*
G01X55176Y50999D01*
X54299D01*
G03X54398Y51952I-4999J1001D01*
G01Y52071D01*
G03X49300Y57098I-5098J-72D01*
G02X42198Y64200I0J7102D01*
G01Y73900D01*
G02X44400Y76102I2202J0D01*
G01X49200D01*
G02X50922Y75271I-1J-2202D01*
G03X51536Y75256I313J249D01*
G02X55702Y73686I1787J-1571D01*
G01Y67120D01*
G03X56385Y66837I400J0D01*
G01X62024Y72476D01*
G02X64500Y73502I2476J-2475D01*
G01X76550D01*
X91524Y88476D01*
G02X94000Y89502I2476J-2475D01*
G01X101275D01*
X109498Y97725D01*
Y112234D01*
X109753Y112314D01*
X109790Y112398D01*
G02X110524Y113476I3211J-1397D01*
G01X118498Y121450D01*
Y138200D01*
G02X119524Y140676I3501J0D01*
G01X131822Y152973D01*
Y164852D01*
X129950Y166724D01*
X128763D01*
G02X128269Y166488I-662J751D01*
G01X128102Y166459D01*
Y165522D01*
X122898D01*
Y166462D01*
X122729Y166488D01*
G02X122696Y166494I163J988D01*
G01X122676Y166498D01*
X121382D01*
X114965Y166725D01*
X112880D01*
G02X112503Y166799I1J1002D01*
G01X112470Y166813D01*
X111898Y166833D01*
Y167534D01*
X111895Y167551D01*
G02X111880Y167726I987J173D01*
G01Y168928D01*
G02X111900Y169127I1002J0D01*
G02X116800Y173902I4900J-127D01*
G01X122518D01*
X122552Y173914D01*
G02X122898Y173976I347J-939D01*
G01X128102D01*
G02X128763Y173726I-1J-1001D01*
G01X129572D01*
G03X129818Y174441I-1J400D01*
G37*
G36*
G01X90008Y176584D02*
G02X90135Y177071I1002J-1D01*
G01X90208Y177203D01*
X89984Y177427D01*
G03X89302Y177144I-282J-283D01*
G01Y170798D01*
X88281D01*
G03X88007Y170107I0J-400D01*
G02X88703Y168500I-1507J-1607D01*
G02X88131Y167019I-2203J0D01*
G03Y166481I296J-269D01*
G02X88703Y165000I-1631J-1481D01*
G02X88695Y164809I-2203J-3D01*
G03X88861Y164594I199J-18D01*
G02X90703Y162421I-361J-2173D01*
G02X88822Y160242I-2203J0D01*
G03X88652Y160037I30J-198D01*
G02X88653Y159960I-2202J-67D01*
G02X86450Y157757I-2203J0D01*
G02X85628Y157916I0J2204D01*
G03X85090Y157642I-150J-371D01*
G02X85044Y157500I-973J237D01*
G02X85120Y157116I-926J-383D01*
G01Y156148D01*
G03X85320Y155948I200J0D01*
G02X86310Y155538I0J-1401D01*
G01X87991Y153857D01*
G02X88402Y152866I-991J-992D01*
G01Y149299D01*
G02X89203Y147600I-1402J-1699D01*
G01Y147599D01*
G02X87000Y145396I-2203J0D01*
G02X85448Y146036I0J2202D01*
G03X85109Y145924I-141J-142D01*
G02X85105Y145897I-993J133D01*
G01X85102Y145880D01*
Y145281D01*
X86150Y144102D01*
X86877D01*
X86895Y144105D01*
G02X87072Y144120I173J-987D01*
G01X97267D01*
G03X97607Y144730I0J400D01*
G02X97281Y145883I1877J1153D01*
G01Y145884D01*
G02X101687I2203J0D01*
G02X100952Y144242I-2202J0D01*
G01X100886Y144182D01*
Y143724D01*
X100919Y143673D01*
G02X101086Y143118I-835J-554D01*
G01Y138417D01*
G02X100085Y137416I-1002J0D01*
G01X98918D01*
Y132439D01*
X101418Y129938D01*
X107917D01*
G02X108918Y128937I0J-1001D01*
G01Y121063D01*
G02X107917Y120062I-1001J0D01*
G01X105578D01*
Y119351D01*
G02X105168Y118361I-1401J0D01*
G01X103125Y116318D01*
G03X103266Y115976I141J-142D01*
G01X103602D01*
G02X104602Y114975I-1J-1001D01*
G01Y109475D01*
G02X103769Y108488I-1001J0D01*
G01X103602Y108459D01*
Y107522D01*
X98398D01*
Y108459D01*
X98231Y108488D01*
G02X97398Y109475I168J987D01*
G01Y114975D01*
G02X98398Y115976I1001J0D01*
G01X99598D01*
X99599Y116176D01*
G02X100009Y117166I1401J0D01*
G01X102222Y119379D01*
G03X101939Y120062I-283J283D01*
G01X100437D01*
G02X99436Y121063I0J1001D01*
G01Y127956D01*
X96500Y130892D01*
X93564Y127956D01*
Y121063D01*
G02X92563Y120062I-1001J0D01*
G01X91561D01*
G03X91278Y119379I0J-400D01*
G01X93491Y117166D01*
G02X93901Y116176I-991J-990D01*
G01X93902Y115976D01*
X95102D01*
G02X96102Y114975I-1J-1001D01*
G01Y109475D01*
G02X95269Y108488I-1001J0D01*
G01X95102Y108459D01*
Y107522D01*
X89898D01*
Y108459D01*
X89731Y108488D01*
G02X89248Y108714I168J987D01*
G03X88588Y108411I-260J-304D01*
G01Y107760D01*
G02X87954Y106828I-1002J0D01*
G03X87815Y106176I147J-372D01*
G02X88102Y105475I-714J-702D01*
G01Y99975D01*
G02X87269Y98988I-1001J0D01*
G01X87102Y98959D01*
Y98022D01*
X81898D01*
Y98959D01*
X81731Y98988D01*
G02X80898Y99975I168J987D01*
G01Y105475D01*
G02X81898Y106476I1001J0D01*
G01X82168D01*
G03X82478Y107129I0J400D01*
G02X82254Y107760I777J631D01*
G01Y114259D01*
X77663Y118850D01*
G03X76980Y118567I-283J-283D01*
G01Y116242D01*
X77744D01*
G02X78746Y115240I0J-1002D01*
G01Y107760D01*
G02X78522Y107129I-1001J0D01*
G03X78832Y106476I310J-253D01*
G01X79102D01*
G02X80102Y105475I-1J-1001D01*
G01Y99975D01*
G02X79269Y98988I-1001J0D01*
G01X79102Y98959D01*
Y98022D01*
X73898D01*
Y98959D01*
X73731Y98988D01*
G02X72898Y99975I168J987D01*
G01Y105475D01*
G02X73185Y106176I1001J-1D01*
G03X73046Y106828I-286J280D01*
G02X72412Y107760I368J932D01*
G01Y108145D01*
X72040D01*
X72014Y107975D01*
G02X71153Y106477I-2353J356D01*
G03Y105854I251J-311D01*
G02Y102146I-1492J-1854D01*
G03Y101523I251J-311D01*
G02X71154Y97816I-1492J-1854D01*
G03Y97192I251J-312D01*
G02X71153Y93485I-1493J-1853D01*
G03Y92862I251J-312D01*
G02Y89154I-1492J-1854D01*
G03Y88531I251J-311D01*
G02Y84823I-1492J-1854D01*
G03Y84200I251J-311D01*
G02X69662Y79966I-1491J-1854D01*
G01X62574D01*
G02X61083Y84200I0J2380D01*
G03Y84823I-251J312D01*
G02Y88531I1491J1854D01*
G03Y89154I-251J312D01*
G02Y92862I1491J1854D01*
G03Y93485I-251J311D01*
G02X61082Y97192I1492J1854D01*
G03Y97816I-251J312D01*
G02X61083Y101523I1493J1853D01*
G03Y102146I-251J311D01*
G02Y105854I1491J1854D01*
G03Y106477I-251J311D01*
G02X61082Y110184I1492J1854D01*
G03Y110808I-251J312D01*
G02X61083Y114515I1493J1853D01*
G03Y115138I-251J311D01*
G02X60652Y115590I1492J1854D01*
G01X56892D01*
G02X55192Y114789I-1699J1402D01*
G02X53796Y115287I-1J2203D01*
G03X53143Y114978I-253J-309D01*
G01Y112661D01*
G02X52142Y111660I-1001J1D01*
G01X48204D01*
G02X47203Y112661I0J1001D01*
G01Y116599D01*
G02X48204Y117600I1001J-1D01*
G01X52142D01*
G02X52569Y117504I-1J-1001D01*
G03X53117Y117731I171J362D01*
G02X55192Y119195I2075J-739D01*
G01X55193D01*
G02X56892Y118394I0J-2203D01*
G01X60652D01*
G02X61083Y118846I1923J-1402D01*
G03Y119469I-251J311D01*
G02X60652Y119922I1493J1852D01*
G01X59723D01*
G02X58023Y119120I-1700J1401D01*
G02X55820Y121323I0J2203D01*
G02X56712Y123093I2202J0D01*
G03X56677Y123759I-238J321D01*
G02X55597Y125654I1123J1895D01*
G02X56570Y127482I2204J0D01*
G03X56568Y128147I-223J332D01*
G02X55581Y129984I1216J1837D01*
G02X57784Y132187I2203J0D01*
G01X57785D01*
G02X59484Y131386I0J-2203D01*
G01X60652D01*
G02X62574Y132364I1923J-1402D01*
G01X69662D01*
G02X72040Y130034I-1J-2380D01*
G03X72526Y129651I400J8D01*
G02X72863Y129699I478J-2150D01*
G01X72939Y129703D01*
X79951Y136716D01*
G03X79668Y137398I-283J282D01*
G01X76803D01*
X75098Y140546D01*
Y143986D01*
X78398Y146586D01*
Y148302D01*
X84908D01*
X84958Y148426D01*
G02X85598Y149299I2042J-826D01*
G01Y152285D01*
X85461Y152423D01*
G03X85120Y152281I-141J-142D01*
G01Y151978D01*
G02X85043Y151594I-1001J1D01*
G02X85120Y151210I-924J-385D01*
G01Y150009D01*
G02X84119Y149008I-1002J1D01*
G01X79418D01*
G02X78816Y149208I-1J1002D01*
G01X75891D01*
G02X75148Y149422I1J1402D01*
G03X74562Y149224I-212J-339D01*
G02X72500Y147797I-2062J776D01*
G01X72499D01*
G02X70800Y148598I0J2203D01*
G01X25700D01*
G02X24001Y147797I-1699J1402D01*
G01X24000D01*
G02Y152203I0J2203D01*
G01X24002D01*
G02X24880Y152020I-1J-2203D01*
G03X25435Y152447I160J367D01*
G02X25423Y152600I990J155D01*
G01Y153089D01*
G03X24789Y153413I-400J0D01*
G02X23501Y152997I-1288J1787D01*
G01X23500D01*
G02Y157403I0J2203D01*
G01X23501D01*
G02X24789Y156987I0J-2203D01*
G03X25423Y157311I234J324D01*
G01Y157800D01*
G02X26425Y158802I1002J0D01*
G01X33367D01*
G03X33756Y159295I0J400D01*
G02X33697Y159801I2144J506D01*
G01Y159802D01*
G02X35900Y162005I2203J0D01*
G01X35901D01*
G02X37600Y161204I0J-2203D01*
G01X39071D01*
G02X40062Y160793I-1J-1402D01*
G01X41901Y158954D01*
X44151D01*
G02X44491Y158912I0J-1401D01*
G01X44514Y158906D01*
X51646D01*
G03X51929Y159589I0J400D01*
G01X49250Y162268D01*
G03X48691Y162275I-283J-283D01*
G02X48000Y161998I-692J725D01*
G01X42000D01*
G02X40998Y163000I0J1002D01*
G01Y169000D01*
G02X42000Y170002I1002J0D01*
G01X47467D01*
G03X47856Y170493I0J400D01*
G02X47797Y170999I2144J506D01*
G01Y171000D01*
G02X52203I2203J0D01*
G02X51468Y169358I-2202J0D01*
G01X51402Y169298D01*
Y169024D01*
G03X52092Y168750I400J1D01*
G02X55000Y170002I2908J-2751D01*
G02Y161998I0J-4002D01*
G02X53846Y162168I0J4002D01*
G01X53731Y162202D01*
X53506Y161976D01*
X54081Y161402D01*
X66501D01*
G02X66623Y161396I-8J-1402D01*
G03X66941Y162077I35J399D01*
G01X66661Y162357D01*
X66538Y162305D01*
G02X65002Y161998I-1537J3695D01*
G01X65000D01*
G02Y170002I0J4002D01*
G02X68090Y168544I0J-4003D01*
G03X68798Y168798I308J254D01*
G01Y170219D01*
X66661Y172357D01*
X66538Y172305D01*
G02X65002Y171998I-1537J3695D01*
G01X65000D01*
G02Y180002I0J4002D01*
G02X65377Y179984I-2J-4002D01*
G03X65698Y180665I38J398D01*
G01X64964Y181398D01*
X62509D01*
X59089Y177979D01*
G02X58794Y177754I-990J992D01*
G03X58708Y177505I99J-174D01*
G02X59002Y176000I-3708J-1506D01*
G02X55000Y180002I-4002J0D01*
G01X55002D01*
G02X56538Y179695I-1J-4002D01*
G01X56661Y179643D01*
X56979Y179961D01*
G02X57363Y180233I991J-991D01*
G01X57394Y180248D01*
X59462Y182316D01*
G03X59179Y182998I-283J282D01*
G01X53981D01*
X48643Y177661D01*
X48695Y177538D01*
G02X49002Y176002I-3695J-1537D01*
G01Y176000D01*
G02X45000Y180002I-4002J0D01*
G01X45002D01*
G02X46538Y179695I-1J-4002D01*
G01X46661Y179643D01*
X52409Y185391D01*
G02X53400Y185802I992J-991D01*
G01X56751D01*
G03X57034Y186484I0J400D01*
G01X56660Y186858D01*
G02X55002Y186498I-1659J3642D01*
G01X55000D01*
G02X59002Y190500I0J4002D01*
G01Y190498D01*
G02X58695Y188962I-4002J1D01*
G01X58643Y188839D01*
X60081Y187402D01*
X61522D01*
G03X61838Y188047I0J400D01*
G02X60998Y190500I3162J2453D01*
G02X69002I4002J0D01*
G01Y190498D01*
G02X68695Y188962I-4002J1D01*
G01X68643Y188839D01*
X73281Y184202D01*
X78351D01*
G03X78634Y184884I0J400D01*
G01X76661Y186857D01*
X76538Y186805D01*
G02X75002Y186498I-1537J3695D01*
G01X75000D01*
G02X79002Y190500I0J4002D01*
G01Y190498D01*
G02X78695Y188962I-4002J1D01*
G01X78643Y188839D01*
X81581Y185902D01*
X86651D01*
G03X86934Y186584I0J400D01*
G01X86661Y186857D01*
X86538Y186805D01*
G02X85002Y186498I-1537J3695D01*
G01X85000D01*
G02X89002Y190500I0J4002D01*
G01Y190498D01*
G02X88695Y188962I-4002J1D01*
G01X88643Y188839D01*
X89981Y187502D01*
X91447D01*
G03X91770Y188138I0J400D01*
G02X90998Y190500I3230J2363D01*
G02X99002I4002J0D01*
G01Y190498D01*
G02X98695Y188962I-4002J1D01*
G01X98643Y188839D01*
X105274Y182208D01*
G03X105956Y182491I282J283D01*
G01Y186133D01*
G03X105506Y186530I-400J0D01*
G02X105002Y186498I-505J3970D01*
G01X105000D01*
G02X109002Y190500I0J4002D01*
G01Y190499D01*
G02X108610Y188772I-4002J0D01*
G02X108760Y188142I-1252J-631D01*
G01Y187207D01*
G03X109442Y186924I400J0D01*
G01X111357Y188839D01*
X111305Y188962D01*
G02X110998Y190498I3695J1537D01*
G01Y190500D01*
G02X115000Y186498I4002J0D01*
G01X114998D01*
G02X113462Y186805I1J4002D01*
G01X113339Y186857D01*
X110728Y184246D01*
Y177184D01*
G02X110930Y176582I-800J-603D01*
G01Y171882D01*
G02X109928Y170880I-1002J0D01*
G01X91009D01*
G02X90008Y171881I1J1001D01*
G01Y176584D01*
G37*
G36*
G01X142524Y65100D02*
G02X142774Y65763I1001J1D01*
G01Y68317D01*
G03X142296Y68709I-400J-1D01*
G01X139589Y68174D01*
X139587Y68008D01*
X138703Y67999D01*
X138693Y67998D01*
X138600D01*
X135419Y67967D01*
X135162Y67710D01*
X135330Y67541D01*
X135366Y67526D01*
G02X136703Y65500I-867J-2026D01*
G01Y65498D01*
G02X136599Y64830I-2203J1D01*
G03X136724Y64581I190J-60D01*
G02X138203Y62500I-725J-2081D01*
G02X138073Y61756I-2203J2D01*
G03X138179Y61506I188J-68D01*
G02X139471Y59500I-911J-2006D01*
G02X137271Y57297I-2203J0D01*
G01X137188D01*
X136970Y57078D01*
Y53952D01*
X138502D01*
G02X139502Y52951I-1J-1001D01*
G01Y46049D01*
G02X139032Y45201I-1002J1D01*
G01X138938Y45142D01*
Y42723D01*
X139837Y41825D01*
G02X140276Y40765I-1062J-1061D01*
G01Y37102D01*
X141525D01*
G02X142512Y36269I0J-1001D01*
G01X142541Y36102D01*
X143478D01*
Y30898D01*
X142541D01*
X142512Y30731D01*
G02X141525Y29898I-987J168D01*
G01X136025D01*
G02X135024Y30898I0J1001D01*
G01Y31624D01*
X134602D01*
Y30475D01*
G02X134320Y29778I-1002J0D01*
G03Y29222I287J-278D01*
G02X134602Y28525I-720J-697D01*
G01Y27102D01*
X135024D01*
Y28102D01*
G02X136025Y29102I1001J-1D01*
G01X141525D01*
G02X142512Y28269I0J-1001D01*
G01X142541Y28102D01*
X143478D01*
Y22898D01*
X142541D01*
X142512Y22731D01*
G02X141525Y21898I-987J168D01*
G01X136025D01*
G02X135024Y22898I0J1001D01*
G01Y23898D01*
X134602D01*
Y23025D01*
G02X133602Y22024I-1001J0D01*
G01X128398D01*
G02X127398Y23025I1J1001D01*
G01Y23898D01*
X126976D01*
Y22898D01*
G02X126631Y22143I-1001J1D01*
G01X126541Y22065D01*
X126943Y20237D01*
G02X126975Y20064I-2442J-541D01*
G01X127000Y19893D01*
X133459D01*
G02X134461Y18891I0J-1002D01*
G01Y13591D01*
G02X133459Y12589I-1002J0D01*
G01X124182D01*
G02X123180Y13591I0J1002D01*
G01Y17575D01*
G02X122956Y17732I1322J2124D01*
G03X122633Y17574I-123J-158D01*
G01Y16927D01*
G02X118473I-2080J0D01*
G01Y17714D01*
G02X118478Y17862I2080J4D01*
G03X117796Y18173I-399J28D01*
G01X107186Y7563D01*
X107233Y7442D01*
G02X107502Y6000I-3733J-1442D01*
G02X99498I-4002J0D01*
G02X101195Y9272I4003J0D01*
G03X100965Y9998I-231J326D01*
G01X99622D01*
X97502Y7878D01*
Y3000D01*
G02X96500Y1998I-1002J0D01*
G01X90500D01*
G02X89498Y3000I0J1002D01*
G01Y9000D01*
G02X90500Y10002I1002J0D01*
G01X95378D01*
X97938Y12562D01*
G02X99000Y13002I1062J-1062D01*
G01X104478D01*
X111697Y20220D01*
Y20303D01*
G02X113900Y22503I2203J-3D01*
G02X115883Y21259I0J-2203D01*
G03X116526Y21150I360J174D01*
G01X117038Y21662D01*
G02X118100Y22102I1062J-1062D01*
G01X119131D01*
G03X119515Y22615I0J400D01*
G02X119488Y22731I960J285D01*
G01X119459Y22898D01*
X118522D01*
Y28102D01*
X119459D01*
X119488Y28269D01*
G02X119724Y28763I987J-168D01*
G01Y29898D01*
X119583D01*
G02X119383Y30102I0J200D01*
G01X119390Y30490D01*
G03X118991Y30898I-400J8D01*
G01X118522D01*
Y36102D01*
X118664D01*
Y36407D01*
X118578Y36467D01*
G03X115400Y37817I-4878J-7067D01*
G01X115055D01*
G02X114586Y37933I-1J1002D01*
G01X114555Y37950D01*
X113998Y38026D01*
Y42398D01*
X113515D01*
X113458Y42348D01*
G02X112001Y41797I-1458J1652D01*
G01X112000D01*
G02Y46203I0J2203D01*
G01X112001D01*
G02X113458Y45652I-1J-2203D01*
G01X113515Y45602D01*
X113998D01*
Y50302D01*
X122315D01*
X124245Y48371D01*
G03X126978Y46713I4754J4755D01*
G03X127498Y47094I120J381D01*
G01Y52829D01*
G02X123998Y57600I1502J4771D01*
G01Y65000D01*
G02X125024Y67476I3501J0D01*
G01X126983Y69435D01*
X126918Y69564D01*
G02X123600Y83299I28015J14036D01*
G02X123580Y83500I981J199D01*
G01Y87500D01*
G02X123595Y87677I1001J4D01*
G01X123598Y87695D01*
Y88502D01*
X130081D01*
G02X130119Y88501I-7J-1002D01*
G02X139702Y78800I-119J-9701D01*
G01Y77501D01*
G03X140129Y77102I400J0D01*
G01X145482Y77468D01*
X145488Y77469D01*
G02X145975Y77502I514J-3969D01*
G02X149776Y71691I230J-3998D01*
G01Y65763D01*
G02X150012Y65269I-751J-662D01*
G01X150041Y65102D01*
X150978D01*
Y59898D01*
X150041D01*
X150012Y59731D01*
G02X149025Y58898I-987J168D01*
G01X143525D01*
G02X142524Y59898I0J1001D01*
G01Y65100D01*
G37*
G36*
G01X118584Y163790D02*
G02X118507Y163406I-1001J1D01*
G02X118584Y163022I-924J-385D01*
G01Y161819D01*
G02X118508Y161437I-1002J1D01*
G02X118584Y161055I-926J-383D01*
G01Y159852D01*
G02X118507Y159468I-1001J1D01*
G02X118584Y159084I-924J-385D01*
G01Y157884D01*
G02X118508Y157500I-1002J-1D01*
G02X118584Y157116I-926J-383D01*
G01Y156480D01*
X118872D01*
X118931Y156544D01*
G02X120550Y157253I1619J-1494D01*
G02X122753Y155050I0J-2203D01*
G02X122720Y154672I-2203J2D01*
G03X123112Y154203I394J-69D01*
G02X125303Y152000I-12J-2203D01*
G02X123194Y149799I-2203J0D01*
G03X123003Y149599I9J-200D01*
G02X120800Y147397I-2203J1D01*
G02X118952Y148401I0J2203D01*
G01X118893Y148492D01*
X118584D01*
Y148042D01*
G02X118507Y147658I-1001J1D01*
G02X118584Y147274I-924J-385D01*
G01Y146072D01*
G02X117583Y145071I-1001J0D01*
G01X112881D01*
G02X111880Y146072I1J1001D01*
G01Y147274D01*
G02X111957Y147658I1001J-1D01*
G02X111880Y148042I924J385D01*
G01Y149242D01*
G02X111956Y149626I1002J1D01*
G02X111880Y150010I926J383D01*
G01Y151210D01*
G02X111957Y151594I1001J-1D01*
G02X111880Y151978I924J385D01*
G01Y152787D01*
G03X111376Y153174I-400J1D01*
G02X110800Y153097I-577J2126D01*
G02X108597Y155300I0J2203D01*
G02X108615Y155581I2202J0D01*
G03X108461Y155802I-198J26D01*
G02X106747Y157950I489J2148D01*
G02X107262Y159365I2203J-1D01*
G03X107249Y159635I-154J128D01*
G02X106597Y161200I1552J1565D01*
G02X106996Y162464I2202J0D01*
G03X106963Y162731I-164J115D01*
G02X106197Y164400I1437J1670D01*
G02X108400Y166603I2203J0D01*
G01X108401D01*
G02X110100Y165802I0J-2203D01*
G01X111001D01*
G02X111157Y165793I-3J-1402D01*
G01X111168Y165792D01*
X112280D01*
G02X112882Y165992I601J-802D01*
G01X117583D01*
G02X118584Y164991I0J-1002D01*
G01Y163790D01*
G37*
G36*
G01X101818Y138418D02*
Y143118D01*
G02X102820Y144120I1002J0D01*
G01X109928D01*
G02X110930Y143118I0J-1002D01*
G01Y138418D01*
G02X109928Y137416I-1002J0D01*
G01X105022D01*
Y136363D01*
X105284Y136102D01*
X106863D01*
G02X108300Y136652I1437J-1602D01*
G01X112826D01*
X112846Y136656D01*
G02X113297Y136703I453J-2156D01*
G01X113300D01*
G02Y132297I0J-2203D01*
G01X113297D01*
G02X112846Y132344I2J2203D01*
G01X112826Y132348D01*
X108300D01*
G02X106863Y132898I0J2152D01*
G01X104621D01*
G02X103489Y133368I1J1601D01*
G01X102289Y134568D01*
G02X101820Y135700I1132J1132D01*
G01Y138373D01*
X101819Y138377D01*
G02X101818Y138418I1001J45D01*
G37*
G36*
G01X130582Y111740D02*
Y107738D01*
G02X129581Y106738I-1001J1D01*
G01X124081D01*
G02X123080Y107740I1J1002D01*
G01Y111742D01*
G02X124081Y112742I1001J-1D01*
G01X125430D01*
Y113353D01*
X125377Y113410D01*
G02X124797Y114900I1624J1490D01*
G02X129203I2203J0D01*
G02X128313Y113131I-2203J0D01*
G01X128232Y113071D01*
Y112742D01*
X129581D01*
G02X130582Y111740I-1J-1002D01*
G37*
G36*
G01X174240Y102920D02*
X178242D01*
G02X179242Y101919I-1J-1001D01*
G01Y100802D01*
X180085D01*
X180142Y100852D01*
G02X181599Y101403I1458J-1652D01*
G01X181600D01*
G02Y96997I0J-2203D01*
G01X181599D01*
G02X180142Y97548I1J2203D01*
G01X180085Y97598D01*
X179242D01*
Y96419D01*
G02X178240Y95418I-1002J1D01*
G01X174238D01*
G02X173238Y96419I1J1001D01*
G01Y101919D01*
G02X174240Y102920I1002J-1D01*
G37*
G36*
G01X24960Y66598D02*
Y73686D01*
G02X29192Y75178I2379J-1D01*
G03X29816I312J251D01*
G02X34048Y73686I1853J-1493D01*
G01Y66598D01*
G02X29816Y65106I-2379J1D01*
G03X29192I-312J-251D01*
G02X24960Y66598I-1853J1493D01*
G37*
G36*
G01X33524Y43802D02*
G02X34525Y44802I1001J-1D01*
G01X35874D01*
Y45598D01*
X34525D01*
G02X33523Y46600I0J1002D01*
G01Y51800D01*
G02X34525Y52802I1002J0D01*
G01X35434D01*
G03X35832Y53246I0J400D01*
G02X35824Y53398I1393J150D01*
G01X35823Y53598D01*
X31176D01*
Y53150D01*
G02X31175Y53093I-1401J-4D01*
G03X31575Y52676I400J-17D01*
G01X32102D01*
G02X33102Y51675I-1J-1001D01*
G01Y46175D01*
G02X32269Y45188I-1001J0D01*
G01X32102Y45159D01*
Y44222D01*
X26898D01*
Y45159D01*
X26731Y45188D01*
G02X25898Y46175I168J987D01*
G01Y47524D01*
X25102D01*
Y46175D01*
G02X24820Y45478I-1002J0D01*
G03Y44922I287J-278D01*
G02X25102Y44225I-720J-697D01*
G01Y38725D01*
G02X24102Y37724I-1001J0D01*
G01X18898D01*
G02X17898Y38725I1J1001D01*
G01Y39296D01*
G03X17279Y39630I-400J-1D01*
G02X16075Y39272I-1204J1846D01*
G02Y43678I0J2203D01*
G02X17279Y43320I0J-2204D01*
G03X17898Y43654I219J335D01*
G01Y44225D01*
G02X18180Y44922I1002J0D01*
G03Y45478I-287J278D01*
G02X17898Y46175I720J697D01*
G01Y51675D01*
G02X18898Y52676I1001J0D01*
G01X24102D01*
G02X25102Y51675I-1J-1001D01*
G01Y50326D01*
X25898D01*
Y51675D01*
G02X26898Y52676I1001J0D01*
G01X28098D01*
X28099Y52876D01*
G02X28121Y53126I1401J3D01*
G03X27728Y53598I-394J72D01*
G01X27025D01*
G02X26023Y54600I0J1002D01*
G01Y59800D01*
G02X27025Y60802I1002J0D01*
G01X27308D01*
G03X27490Y61085I0J200D01*
G02X27293Y61995I2006J911D01*
G01Y61996D01*
G02X31699I2203J0D01*
G02X31594Y61324I-2203J0D01*
G03X31975Y60802I381J-122D01*
G01X34889D01*
G03X35244Y61386I0J400D01*
G02X34997Y62399I1956J1014D01*
G01Y62400D01*
G02X39403I2203J0D01*
G01Y62399D01*
G02X39156Y61386I-2203J1D01*
G03X39511Y60802I355J-184D01*
G01X39975D01*
G02X40977Y59800I0J-1002D01*
G01Y54600D01*
G02X39975Y53598I-1002J0D01*
G01X38676D01*
Y52802D01*
X47475D01*
G02X48477Y51800I0J-1002D01*
G01Y50402D01*
X48898D01*
X48958Y50468D01*
G02X50600Y51203I1642J-1467D01*
G02Y46797I0J-2203D01*
G02X48958Y47532I0J2202D01*
G01X48898Y47598D01*
X48477D01*
Y46600D01*
G02X47475Y45598I-1002J0D01*
G01X38676D01*
Y44802D01*
X40025D01*
G02X41012Y43969I0J-1001D01*
G01X41041Y43802D01*
X41978D01*
Y38598D01*
X41041D01*
X41012Y38431D01*
G02X40025Y37598I-987J168D01*
G01X34525D01*
G02X33524Y38598I0J1001D01*
G01Y43802D01*
G37*
G36*
G01X70870Y62868D02*
X76796D01*
G02X77541Y62535I-1J-1002D01*
G03X77815Y62513I149J134D01*
G02X79200Y63003I1385J-1712D01*
G02Y58597I0J-2203D01*
G01X79198D01*
G02X77870Y59043I1J2203D01*
G03X77591Y59005I-120J-159D01*
G02X76796Y58612I-796J609D01*
G01X70870D01*
G02X69869Y59614I1J1002D01*
G01Y61866D01*
G02X70870Y62868I1002J0D01*
G37*
G36*
G01X76602Y35024D02*
X71398D01*
G02X70398Y36025I1J1001D01*
G01Y37374D01*
X69902D01*
Y36025D01*
G02X68902Y35024I-1001J0D01*
G01X63698D01*
G02X62698Y36025I1J1001D01*
G01Y41525D01*
G02X63531Y42512I1001J0D01*
G01X63698Y42541D01*
Y43478D01*
X68902D01*
Y42541D01*
X69069Y42512D01*
G02X69902Y41525I-168J-987D01*
G01Y40176D01*
X70398D01*
Y41525D01*
G02X70680Y42222I1002J0D01*
G03Y42778I-287J278D01*
G02X70398Y43475I720J697D01*
G01Y48975D01*
G02X70575Y49543I1001J0D01*
G02X69798Y52100I3824J2559D01*
G01Y55402D01*
X82098D01*
Y56178D01*
X87302D01*
Y55402D01*
G03X95597Y56655I196J26786D01*
G01X95745Y56702D01*
X102102D01*
Y49498D01*
X95900D01*
G03X87742Y47498I0J-17638D01*
G01X77602D01*
Y43475D01*
G02X77320Y42778I-1002J0D01*
G03Y42222I287J-278D01*
G02X77602Y41525I-720J-697D01*
G01Y41086D01*
G03X78186Y40731I400J0D01*
G02X79199Y40978I1014J-1956D01*
G01X79200D01*
G02Y36572I0J-2203D01*
G01X79199D01*
G02X78186Y36819I1J2203D01*
G03X77602Y36464I-184J-355D01*
G01Y36025D01*
G02X76602Y35024I-1001J0D01*
G37*
G36*
G01X40117Y84314D02*
Y88252D01*
G02X41118Y89253I1001J0D01*
G01X45056D01*
G02X46057Y88252I0J-1001D01*
G01Y84314D01*
G02X45056Y83313I-1001J1D01*
G01X41118D01*
G02X40117Y84314I1J1001D01*
G37*
G36*
G01X34031Y89253D02*
X37969D01*
G02X38970Y88252I-1J-1001D01*
G01Y84314D01*
G02X37969Y83313I-1001J1D01*
G01X34031D01*
G02X33030Y84314I0J1001D01*
G01Y88252D01*
G02X34031Y89253I1001J0D01*
G37*
G36*
G01X25943Y84314D02*
Y88252D01*
G02X26944Y89253I1001J0D01*
G01X30882D01*
G02X31883Y88252I0J-1001D01*
G01Y84314D01*
G02X30882Y83313I-1001J1D01*
G01X26944D01*
G02X25943Y84314I0J1001D01*
G37*
G36*
G01X24797Y91401D02*
G02X23796Y90400I-1001J1D01*
G01X19858D01*
G02X18857Y91401I1J1001D01*
G01Y95339D01*
G02X19858Y96340I1002J0D01*
G01X23796D01*
G02X24797Y95339I0J-1001D01*
G01Y91401D01*
G37*
G36*
G01X18857Y98488D02*
Y102426D01*
G02X19858Y103427I1002J0D01*
G01X23796D01*
G02X24797Y102426I0J-1001D01*
G01Y98488D01*
G02X23796Y97487I-1001J1D01*
G01X19858D01*
G02X18857Y98488I1J1001D01*
G37*
G36*
G01Y105574D02*
Y109512D01*
G02X19858Y110513I1002J0D01*
G01X23796D01*
G02X24797Y109512I0J-1002D01*
G01Y105574D01*
G02X23796Y104573I-1001J0D01*
G01X19858D01*
G02X18857Y105574I1J1001D01*
G37*
G36*
G01X24797Y112661D02*
G02X23796Y111660I-1001J1D01*
G01X19858D01*
G02X18857Y112661I1J1001D01*
G01Y116599D01*
G02X19858Y117600I1002J-1D01*
G01X23796D01*
G02X24797Y116599I0J-1002D01*
G01Y112661D01*
G37*
G36*
G01X40117Y119748D02*
Y123686D01*
G02X41118Y124687I1001J0D01*
G01X45056D01*
G02X46057Y123686I0J-1001D01*
G01Y119748D01*
G02X45056Y118747I-1001J0D01*
G01X41118D01*
G02X40117Y119748I1J1001D01*
G37*
G36*
G01X47203Y105574D02*
Y109512D01*
G02X48204Y110513I1001J0D01*
G01X52142D01*
G02X53143Y109512I-1J-1002D01*
G01Y105574D01*
G02X52142Y104573I-1001J0D01*
G01X48204D01*
G02X47203Y105574I0J1001D01*
G37*
G36*
G01Y98488D02*
Y102426D01*
G02X48204Y103427I1001J0D01*
G01X52142D01*
G02X53143Y102426I-1J-1001D01*
G01Y98488D01*
G02X52142Y97487I-1001J1D01*
G01X48204D01*
G02X47203Y98488I0J1001D01*
G37*
G36*
G01X53143Y91401D02*
G02X52142Y90400I-1001J1D01*
G01X48204D01*
G02X47203Y91401I0J1001D01*
G01Y95339D01*
G02X48204Y96340I1001J0D01*
G01X52142D01*
G02X53143Y95339I-1J-1001D01*
G01Y91401D01*
G37*
G36*
G01X40998Y187500D02*
Y193500D01*
G02X42000Y194502I1002J0D01*
G01X48000D01*
G02X49002Y193500I0J-1002D01*
G01Y187500D01*
G02X48000Y186498I-1002J0D01*
G01X42000D01*
G02X40998Y187500I0J1002D01*
G37*
G36*
G01X151998Y70500D02*
Y76500D01*
G02X153000Y77502I1002J0D01*
G01X159000D01*
G02X160002Y76500I0J-1002D01*
G01Y70500D01*
G02X159000Y69498I-1002J0D01*
G01X153000D01*
G02X151998Y70500I0J1002D01*
G37*
G36*
G01X141727Y16927D02*
G02X137567I-2080J0D01*
G01Y17715D01*
G02X141727I2080J0D01*
G01Y16927D01*
G37*
G36*
G01X186537Y157933D02*
X186526Y158030D01*
Y158031D01*
G02X186498Y158500I3974J473D01*
G02X190500Y154498I4002J0D01*
G02X190030Y154526I3J4002D01*
G01X189933Y154537D01*
X188198Y152802D01*
G02X187829Y152500I-1698J1698D01*
G02X186500Y152098I-1330J2000D01*
G01X183477D01*
Y151898D01*
G02X182475Y150898I-1002J2D01*
G01X174676D01*
Y150102D01*
X182475D01*
G02X183477Y149102I0J-1002D01*
G01Y148902D01*
X186514D01*
X186539Y149073D01*
G02X190500Y152502I3961J-573D01*
G02Y144498I0J-4002D01*
G01X190498D01*
G02X189894Y144544I1J4002D01*
G02X188500Y144098I-1394J1956D01*
G01X183477D01*
Y143898D01*
G02X182475Y142898I-1002J2D01*
G01X169523D01*
G02X168792Y143216I1J1002D01*
G03X168208I-292J-273D01*
G02X167477Y142898I-732J684D01*
G01X154525D01*
G02X153523Y143900I0J1002D01*
G01Y144374D01*
X153102D01*
Y144025D01*
G02X152102Y143024I-1001J0D01*
G03X151902Y142824I0J-200D01*
G01Y138472D01*
G03X152551Y138160I400J0D01*
G02X153177Y138380I626J-781D01*
G01X155908D01*
X155921Y138382D01*
G02X156228Y138402I309J-2382D01*
G01X159450D01*
X160898Y139849D01*
Y140975D01*
G02X161898Y141976I1001J0D01*
G01X167102D01*
G02X168102Y140975I-1J-1001D01*
G01Y140626D01*
X168523D01*
Y141100D01*
G02X169525Y142102I1002J0D01*
G01X182475D01*
G02X183477Y141102I0J-1002D01*
G01Y140902D01*
X187299D01*
G02X190500Y142502I3201J-2402D01*
G02Y134498I0J-4002D01*
G02X187299Y136098I0J4002D01*
G01X183477D01*
Y135898D01*
G02X182475Y134898I-1002J2D01*
G01X169525D01*
G02X168550Y135669I0J1002D01*
G01X168513Y135824D01*
X168102D01*
Y135475D01*
G02X167820Y134778I-1002J0D01*
G03Y134222I287J-278D01*
G02X168102Y133525I-720J-697D01*
G01Y133176D01*
X168513D01*
X168550Y133331D01*
G02X169525Y134102I975J-231D01*
G01X182475D01*
G02X183477Y133102I0J-1002D01*
G01Y132902D01*
X188500D01*
G02X189894Y132456I0J-2402D01*
G02X190498Y132502I605J-3956D01*
G01X190500D01*
G02Y124498I0J-4002D01*
G02X186539Y127927I0J4002D01*
G01X186514Y128098D01*
X183477D01*
Y127898D01*
G02X182475Y126898I-1002J2D01*
G01X169525D01*
G02X168523Y127900I0J1002D01*
G01Y128374D01*
X168102D01*
Y128025D01*
G02X167102Y127024I-1001J0D01*
G01X166832D01*
G03X166549Y126341I0J-400D01*
G01X168182Y124708D01*
G03X168524Y124849I142J141D01*
G01Y125102D01*
G02X169525Y126102I1001J-1D01*
G01X175025D01*
G02X176012Y125269I0J-1001D01*
G01X176041Y125102D01*
X176978D01*
Y119898D01*
X176041D01*
X176012Y119731D01*
G02X175025Y118898I-987J168D01*
G01X169525D01*
G02X168524Y119898I0J1001D01*
G01Y120898D01*
X168125D01*
G02X166993Y121368I1J1601D01*
G01X163962Y124398D01*
X160265D01*
X160216Y124268D01*
G02X159279Y123620I-937J353D01*
G01X153177D01*
G02X152176Y124622I1J1002D01*
G01Y127379D01*
G02X152577Y128180I1001J0D01*
G03Y128820I-240J320D01*
G02X152176Y129621I600J801D01*
G01Y132379D01*
G02X152577Y133180I1001J0D01*
G03Y133820I-240J320D01*
G02X152176Y134621I600J801D01*
G01Y136176D01*
G03X151451Y136409I-400J0D01*
G02X151198Y136112I-1949J1404D01*
G01X144388Y129302D01*
G02X142690Y128598I-1699J1698D01*
G01X142294D01*
G03X142079Y127861I0J-400D01*
G02X143103Y126000I-1179J-1861D01*
G02X141888Y124031I-2203J0D01*
G03X141873Y123324I179J-357D01*
G02X143003Y121400I-1073J-1924D01*
G02X140800Y119197I-2203J0D01*
G02X139582Y119565I1J2203D01*
G01X139531Y119598D01*
X138825D01*
Y114622D01*
G02X137823Y113620I-1002J0D01*
G01X131721D01*
G02X130719Y114622I0J1002D01*
G01Y127378D01*
G02X131121Y128180I1001J0D01*
G03Y128820I-240J320D01*
G02X130720Y129621I600J801D01*
G01Y132379D01*
G02X131121Y133180I1001J0D01*
G03Y133820I-240J320D01*
G02X130720Y134621I600J801D01*
G01Y137380D01*
G02X131721Y138380I1001J-1D01*
G01X134452D01*
X134465Y138382D01*
G02X134772Y138402I309J-2382D01*
G01X140705D01*
X142098Y139795D01*
Y151055D01*
G02X142802Y152753I2402J-1D01*
G01X145898Y155849D01*
Y156975D01*
G02X146898Y157976I1001J0D01*
G01X152102D01*
G02X153102Y156975I-1J-1001D01*
G01Y156626D01*
X153523D01*
Y157100D01*
G02X154525Y158102I1002J0D01*
G01X165850D01*
X167638Y159889D01*
G02X168876Y160402I1238J-1237D01*
G01X176485D01*
G02X177723Y159889I0J-1750D01*
G01X179511Y158102D01*
X182475D01*
G02X183477Y157102I0J-1002D01*
G01Y156902D01*
X185505D01*
X186296Y157692D01*
X186537Y157933D01*
G37*
G54D58*
X190500Y118500D03*
X135000Y190500D03*
X145000D03*
X155000D03*
X125000D03*
G54D59*
X98500Y68874D03*
G54D60*
X58142Y11500D03*
X75858D03*
G54D54*
X98500Y44858D03*
Y77142D03*
G54D55*
X53201Y21303D03*
X80799D03*
G54D56*
X98425Y23622D03*
G54D57*
X23622Y173228D03*
Y23622D03*
X173228D03*
Y173228D03*
%LPD*%
G75*
G36*
G01X49300Y58100D02*
G02X43200Y64200I0J6100D01*
G01Y73900D01*
G02X44400Y75100I1200J0D01*
G01X49200D01*
G02X50400Y73900I0J-1200D01*
G01Y65200D01*
G03X52000Y63600I1600J0D01*
G01X53400D01*
G03X55448Y64449I-1J2897D01*
G01X56700Y65700D01*
X60500Y62500D01*
Y52000D01*
X55400D01*
G03X49300Y58100I-6100J0D01*
G37*
G36*
G01X70800Y52100D02*
G03X74400Y48500I3600J0D01*
G01X87500D01*
G02X95900Y50500I8400J-16640D01*
G01X101100D01*
Y55700D01*
X95900D01*
G02X87500Y54400I-8400J26488D01*
G01X70800D01*
Y52100D01*
G37*
G36*
G01X60400Y64300D02*
X60500Y67600D01*
X73100Y70400D01*
X73200Y67500D01*
X61100Y63100D01*
X60400Y64300D01*
G37*
G36*
G01X55400Y59600D02*
X60500D01*
G03X63100Y57000I2600J0D01*
G01X65500D01*
G02X68100Y54400I0J-2600D01*
G01Y52000D01*
X55400D01*
Y59600D01*
G37*
G36*
G01X72456Y125365D02*
G03X73000Y125297I543J2135D01*
G03X73896Y125488I-1J2203D01*
G02X74178Y125302I82J-183D01*
G01Y116242D01*
X73414D01*
G03X72412Y115240I0J-1002D01*
G01Y114144D01*
G02X71674Y113931I-400J1D01*
G03X71153Y114515I-2012J-1271D01*
G02Y115138I251J311D01*
G03Y118846I-1492J1854D01*
G02Y119469I251J311D01*
G03Y123177I-1492J1854D01*
G02Y123800I251J311D01*
G03X71969Y125075I-1492J1853D01*
G02X72456Y125365I388J-98D01*
G37*
G36*
G01X68643Y174339D02*
X68695Y174462D01*
G03X69002Y176000I-3695J1537D01*
G03X68984Y176377I-4002J-2D01*
G02X69665Y176698I398J38D01*
G01X78416Y167947D01*
Y167726D01*
G03X78493Y167342I1001J1D01*
G03X78416Y166958I924J-385D01*
G01Y165758D01*
G03X78492Y165374I1002J-1D01*
G03X78416Y164990I926J-383D01*
G01Y163790D01*
G03X78493Y163406I1001J1D01*
G03X78416Y163022I924J-385D01*
G01Y161820D01*
G03X78492Y161437I1002J0D01*
G03X78416Y161054I926J-383D01*
G01Y159886D01*
X75496D01*
X71602Y163780D01*
Y170800D01*
G03X71191Y171791I-1402J-1D01*
G01X68643Y174339D01*
G37*
G36*
G01X73094Y178198D02*
X89212D01*
X89468Y177943D01*
G02X89327Y177602I-141J-141D01*
G01X86869D01*
X86661Y177500D01*
G02X80898Y176448I-4760J9767D01*
G01Y176097D01*
G03Y172253I1077J-1922D01*
G01Y171952D01*
G02X81653Y171996I1009J-10818D01*
G03X81975Y171972I324J2179D01*
G03X82272Y171992I1J2203D01*
G02X85714Y171307I-372J-10859D01*
G02X85716Y170559I-140J-374D01*
G03X84687Y169752I784J-2059D01*
G03X84118Y169929I-569J-824D01*
G01X80398D01*
X72811Y177516D01*
G02X73094Y178198I283J282D01*
G37*
G36*
G01X98200Y63600D02*
G03X107000Y72400I0J8800D01*
G01Y75000D01*
G02X115800Y83800I8800J0D01*
G01X121700D01*
Y76000D01*
X121900Y55800D01*
X115100Y55900D01*
G03X98500Y58500I-16600J-51692D01*
G01X98200Y63600D01*
G37*
G36*
G01X78968Y124285D02*
X83399Y128717D01*
G02X84082Y128434I283J-283D01*
G01Y121063D01*
G03X85083Y120062I1001J0D01*
G01X87422D01*
Y119852D01*
G03X87832Y118861I1401J-1D01*
G01X90375Y116318D01*
G02X90234Y115976I-141J-142D01*
G01X89900D01*
G03X89137Y115624I-1J-1001D01*
G02X88476Y115699I-305J259D01*
G03X87586Y116242I-890J-458D01*
G01X84236D01*
X78968Y121510D01*
Y124285D01*
G37*
G36*
G01X79400Y147300D02*
X84100D01*
Y144900D01*
X85700Y143100D01*
X88200D01*
Y138400D01*
X77400D01*
X76100Y140800D01*
Y143500D01*
X79400Y146100D01*
Y147300D01*
G37*
G36*
G01X81900Y173000D02*
Y175400D01*
G03X87100Y176600I0J11867D01*
G01X88300D01*
Y171800D01*
X87100D01*
G03X81900Y173000I-5200J-10667D01*
G37*
G36*
G01X87900Y177600D02*
X88000D01*
G02X89000Y176600I0J-1000D01*
G01Y171800D01*
X90300D01*
Y177100D01*
X89200Y178200D01*
X87900D01*
Y177600D01*
G37*
G36*
G01X115000Y49300D02*
X121900D01*
X123537Y47663D01*
G03X129000Y45400I5463J5463D01*
G01X130000D01*
Y42600D01*
G02X128000Y39300I-3722J0D01*
G03X126000Y36000I1722J-3300D01*
G01Y30900D01*
X120400D01*
X120500Y36100D01*
X120458Y36202D01*
G03X115000Y38900I-6758J-6802D01*
G01Y49300D01*
G37*
G36*
G01X138700Y78800D02*
G03X130000Y87500I-8700J0D01*
G01X124600D01*
Y83600D01*
G03X128400Y68900I30333J0D01*
G01X138600Y69000D01*
X138700Y75800D01*
Y78800D01*
G37*
G36*
G01X120900Y104100D02*
G03X121200Y101350I12754J0D01*
G02X121500Y98600I-12454J-2750D01*
G01Y93500D01*
X110500Y93600D01*
Y111500D01*
X120000Y114500D01*
G03X121000Y108000I4932J-2568D01*
G01X120900Y104100D01*
G37*
G36*
G01X124100Y104300D02*
X129600D01*
Y100300D01*
X129000Y98600D01*
Y93400D01*
X123500D01*
Y98600D01*
X124100Y100300D01*
Y104200D01*
Y104300D01*
G37*
G36*
G01X123500Y98600D02*
Y93400D01*
X129000D01*
X132000Y90400D01*
X137500D01*
Y95600D01*
X132000D01*
X129000Y98600D01*
X123500D01*
G37*
G36*
G01X112900Y169000D02*
G02X116800Y172900I3900J0D01*
G01X126600D01*
Y167500D01*
X121400D01*
X112900Y167800D01*
Y169000D01*
G37*
G36*
G01X133034Y45048D02*
X135936D01*
Y42101D01*
G03X136375Y41039I1501J-1D01*
G01X137274Y40141D01*
Y37102D01*
X136025D01*
G03X135024Y36100I0J-1001D01*
G01Y34826D01*
X134602D01*
Y35975D01*
G03X133600Y36976I-1001J0D01*
G01X128400D01*
G03X127402Y36065I-1J-1001D01*
G01X127003Y36089D01*
G02X128463Y38412I2720J-89D01*
G03X129005Y38743I-2186J4188D01*
G02X129584Y38613I231J-327D01*
G03X131500Y37497I1916J1087D01*
G03X133703Y39700I0J2203D01*
G03X133034Y41282I-2203J1D01*
G01Y42572D01*
Y45048D01*
G37*
G36*
G01X125000Y59500D02*
Y57600D01*
G03X129000Y53600I4000J0D01*
G01X130000D01*
Y60100D01*
X125000Y59500D01*
G37*
G36*
G01X128200Y76000D02*
X138700D01*
X146000Y76500D01*
G02X146200Y70500I205J-2996D01*
G01X138600Y69000D01*
X128300Y69100D01*
X128200Y76000D01*
G37*
G36*
G01X131700Y99700D02*
X132000Y95600D01*
Y90400D01*
X137500D01*
X137600Y102400D01*
X131700D01*
Y99700D01*
G37*
G36*
G01X136900Y53600D02*
Y56400D01*
X140500D01*
Y53600D01*
X136900D01*
G37*
G54D10*
X23622Y23622D03*
Y173228D03*
X173228Y23622D03*
Y173228D03*
G54D11*
X17541Y17541D03*
X23622Y15022D03*
X15022Y23622D03*
X16075Y41475D03*
X17541Y29703D03*
X23622Y32222D03*
X6500Y45000D03*
X14500Y72000D03*
Y66500D03*
X15500Y52000D03*
X21500Y54500D03*
Y59500D03*
X20000Y82700D03*
X15000Y98500D03*
Y91500D03*
Y84500D03*
X15400Y119500D03*
X21500D03*
X14500Y125654D03*
X4000Y149500D03*
X24000Y129800D03*
Y150000D03*
X19800Y130600D03*
X23500Y155200D03*
X17541Y167147D03*
X23622Y164628D03*
X15022Y173228D03*
X17541Y179309D03*
X23622Y181828D03*
X29703Y17541D03*
X32222Y23622D03*
X42500Y17500D03*
X48000Y11500D03*
X50600Y49000D03*
X29703Y29703D03*
X42500Y31500D03*
X29496Y61996D03*
X37200Y62400D03*
X43500Y54000D03*
X50100Y53900D03*
X35500Y98500D03*
Y92500D03*
X28500Y98500D03*
X36000Y79000D03*
X28500D03*
Y92500D03*
X50500Y85500D03*
X45500Y79000D03*
X50500D03*
X44500Y92500D03*
X34000Y116500D03*
X38500D03*
X35500Y105000D03*
X44500D03*
X40331Y128631D03*
X32000Y129700D03*
X49000D03*
X28000Y129000D03*
X47646Y155099D03*
X35900Y159802D03*
X50000Y171000D03*
X29703Y167147D03*
X32222Y173228D03*
X29703Y179309D03*
X76500Y4000D03*
X58000D03*
X58800Y41100D03*
X53600Y41200D03*
X56500Y31500D03*
X76500D03*
X64500Y70000D03*
X70200D03*
X67200Y67100D03*
X62000Y65600D03*
X76500Y87000D03*
Y80500D03*
X55192Y116992D03*
X58023Y121323D03*
X57800Y125654D03*
X53200Y121400D03*
X73000Y119500D03*
Y123500D03*
X57784Y129984D03*
X72500Y150000D03*
X73000Y127500D03*
X74500Y146500D03*
X58000Y137500D03*
X51900Y146200D03*
X70453Y152651D03*
X68000Y155099D03*
X65505Y157505D03*
X73900Y168900D03*
X75400Y164500D03*
X85500Y5500D03*
X89500Y38500D03*
X89000Y31500D03*
X79200Y38775D03*
X92000Y72500D03*
X86000Y67000D03*
X92000Y62000D03*
X79200Y60800D03*
X83500Y87000D03*
X92500Y97500D03*
X99000D03*
Y92000D03*
X92500D03*
X85500Y118500D03*
X81500Y123000D03*
X96500Y122500D03*
Y117500D03*
X81700Y144000D03*
X78900Y140900D03*
X84400Y140800D03*
X96500Y127000D03*
X101000Y133500D03*
X94500Y146000D03*
X87000Y147599D03*
X99484Y145884D03*
X81975Y174175D03*
X86500Y165000D03*
X88500Y162421D03*
X86450Y159960D03*
X86500Y168500D03*
X89642Y169500D03*
X113900Y20300D03*
X124500Y6000D03*
X110500Y5500D03*
X108500Y25500D03*
X112000Y44000D03*
X108500Y33500D03*
X106500Y48500D03*
X124500Y70000D03*
X124000Y52000D03*
X118200Y101300D03*
X112800Y96100D03*
X112000Y85500D03*
X105500Y97500D03*
X105000Y80500D03*
X126000Y90500D03*
X113300Y103200D03*
X107000Y109000D03*
Y117000D03*
X120800Y149600D03*
X113000Y130000D03*
X110500Y150500D03*
X117000Y142500D03*
X113500Y139500D03*
X113300Y134500D03*
X108950Y157950D03*
X108800Y161200D03*
X108400Y164400D03*
X120550Y155050D03*
X123100Y152000D03*
X110800Y155300D03*
X110400Y167558D03*
X104500Y168000D03*
X120500Y164500D03*
Y161000D03*
X115000Y177000D03*
X122500D03*
X134000Y6000D03*
X146000Y20000D03*
X140000Y11500D03*
X131500Y39700D03*
X135468Y39000D03*
X146000Y39500D03*
X137268Y59500D03*
X136000Y62500D03*
X134500Y65500D03*
X127000Y114900D03*
X140900Y126000D03*
X140800Y121400D03*
X150000Y125000D03*
Y117000D03*
Y108500D03*
X128000Y124000D03*
X150000Y133500D03*
X128000Y134000D03*
X140000Y144000D03*
Y149000D03*
X131400Y170225D03*
X129700Y154200D03*
X130500Y161900D03*
X144725Y171775D03*
X144500Y177500D03*
X164628Y23622D03*
X173228Y15022D03*
X167147Y17541D03*
X154000Y20000D03*
X173228Y32222D03*
X167147Y29703D03*
X154000Y39500D03*
X162500D03*
X154000Y29500D03*
X169500Y73000D03*
Y57500D03*
X153500Y87500D03*
X169500D03*
X161800Y111000D03*
X161900Y106000D03*
X161800Y116000D03*
X162500Y121000D03*
X154000Y141000D03*
X158500D03*
X164628Y173228D03*
X173228Y164628D03*
X167147Y167147D03*
X153500Y165500D03*
X160000Y162500D03*
X173228Y181828D03*
X167147Y179309D03*
X181828Y23622D03*
X179309Y17541D03*
Y29703D03*
X178500Y44500D03*
X185000Y73000D03*
X185500Y57500D03*
X181600Y99200D03*
X185000Y87500D03*
X194000Y123500D03*
Y114000D03*
Y102500D03*
Y143500D03*
Y133500D03*
X181828Y173228D03*
X179309Y167147D03*
X194000Y153500D03*
X179309Y179309D03*
G54D20*
X45000Y176000D03*
X65000D03*
Y166000D03*
X55000Y176000D03*
Y166000D03*
X75000Y190500D03*
X65000D03*
X55000D03*
X103500Y6000D03*
X95000Y190500D03*
X85000D03*
X125000D03*
X115000D03*
X105000D03*
X146000Y73500D03*
X145000Y190500D03*
X135000D03*
X155000D03*
X190500Y128500D03*
Y118500D03*
Y148500D03*
Y138500D03*
Y158500D03*
G54D12*
X21500Y48925D03*
Y41475D03*
X29500Y48925D03*
Y41475D03*
X58000Y47275D03*
X74000Y46225D03*
Y38775D03*
X66300Y46225D03*
Y38775D03*
X58000Y54725D03*
X76500Y95275D03*
Y102725D03*
X84700Y51475D03*
Y58925D03*
X84500Y95275D03*
X101000Y104775D03*
Y112225D03*
X92500Y104775D03*
Y112225D03*
X84500Y102725D03*
X125500Y170225D03*
Y162775D03*
X131000Y25775D03*
Y33225D03*
X149500Y146775D03*
Y154225D03*
X164500Y138225D03*
Y130775D03*
G54D30*
X81768Y146673D03*
Y148642D03*
Y150610D03*
Y152579D03*
Y154547D03*
Y156516D03*
Y158484D03*
Y160453D03*
Y162421D03*
Y164390D03*
Y166358D03*
Y168327D03*
X115232Y148642D03*
Y146673D03*
Y168327D03*
Y166358D03*
Y164390D03*
Y162421D03*
Y160453D03*
Y158484D03*
Y156516D03*
Y154547D03*
Y152579D03*
Y150610D03*
G54D21*
X45000Y166000D03*
Y190500D03*
X93500Y6000D03*
X156000Y73500D03*
X190500Y108500D03*
G54D13*
X23008Y70142D03*
X18677D03*
Y137858D03*
X23008D03*
X48992Y70142D03*
X44661D03*
X40331D03*
X36000D03*
X31669D03*
X27339D03*
Y137858D03*
X31669D03*
X36000D03*
X40331D03*
X44661D03*
X48992D03*
X53323Y70142D03*
Y137858D03*
G54D40*
X134772Y101000D03*
Y106000D03*
Y111000D03*
Y116000D03*
Y121000D03*
Y126000D03*
Y131000D03*
Y136000D03*
X156228Y101000D03*
Y126000D03*
Y121000D03*
Y116000D03*
Y111000D03*
Y106000D03*
Y136000D03*
Y131000D03*
G54D31*
X99484Y140768D03*
X97516D03*
X95547D03*
X93579D03*
X91610D03*
X89642D03*
X87673D03*
Y174232D03*
X89642D03*
X91610D03*
X93579D03*
X95547D03*
X97516D03*
X99484D03*
X109327Y140768D03*
X107358D03*
X105390D03*
X103421D03*
X101453D03*
Y174232D03*
X103421D03*
X105390D03*
X107358D03*
X109327D03*
G54D22*
X75858Y11500D03*
X58142D03*
G54D50*
G01X134772Y101000D02*
X156228D01*
G01X134772Y136000D02*
X141700D01*
X144500Y138800D01*
Y151055D01*
X147670Y154225D01*
X149500D01*
G01Y146775D02*
Y137810D01*
X142690Y131000D01*
X134772D01*
G01X149500Y146775D02*
X157000D01*
X157275Y146500D01*
G01X149500Y154225D02*
X157000D01*
X157275Y154500D01*
G01X156228Y101000D02*
X162729D01*
X164560Y99169D01*
X168760D01*
G01X172500Y107831D02*
X172269Y107600D01*
X167000D01*
X163600Y111000D01*
X161800D01*
G01X172500Y107831D02*
X184631D01*
X185300Y108500D01*
X190500D01*
G01X161800Y111000D02*
X156228D01*
G01X172500Y107831D02*
Y114275D01*
X172275Y114500D01*
G01X164500Y138225D02*
X172000D01*
X172275Y138500D01*
G01X164500Y138225D02*
X162670D01*
X160445Y136000D01*
X156228D01*
G01Y131000D02*
X164275D01*
X164500Y130775D01*
G01D02*
X172000D01*
X172275Y130500D01*
G01X164725Y146500D02*
X172275D01*
G01Y154500D02*
Y146500D01*
G01X179725Y138500D02*
X190500D01*
G01X179725Y130500D02*
X188500D01*
X190500Y128500D01*
G01X179725Y146500D02*
X188500D01*
X190500Y148500D01*
G01Y158500D02*
X186500Y154500D01*
X179725D01*
G54D41*
X154300Y177400D03*
X134300D03*
G54D14*
X15007Y58900D03*
X3393D03*
G54D23*
X65167Y53260D03*
Y60740D03*
X73833D03*
Y57000D03*
Y53260D03*
G54D32*
X115927Y5710D03*
X144273D03*
G54D51*
G01X118500Y60965D02*
Y70535D01*
G54D15*
X9200Y64904D03*
G54D33*
X120553Y17321D03*
X139647D03*
G54D24*
X75579Y111500D03*
X85421D03*
G54D42*
X176240Y99169D03*
X168760D03*
X172500Y107831D03*
G54D52*
G01X196850Y39370D02*
Y157480D01*
G03X157480Y196850I-39370J0D01*
G01X39370D01*
G03X0Y157480I0J-39370D01*
G01Y39370D01*
G03X39370Y0I39370J0D01*
G01X157480D01*
G03X196850Y39370I0J39370D01*
G54D43*
G01X113900Y20300D02*
X105100Y11500D01*
X99000D01*
X93500Y6000D01*
G01X124982Y16241D02*
Y19600D01*
X123982Y20600D01*
X118100D01*
X103500Y6000D01*
G01X131532Y44000D02*
Y39732D01*
X131500Y39700D01*
G01X138775Y33500D02*
Y40763D01*
X137437Y42101D01*
Y44000D01*
G01X135468Y55000D02*
Y57700D01*
X137268Y59500D01*
G01X133500Y55000D02*
Y60000D01*
X136000Y62500D01*
G01X131532Y55000D02*
Y62532D01*
X134500Y65500D01*
G54D25*
X98425Y23622D03*
G54D34*
X124982Y16241D03*
X135218D03*
X132659D03*
X130100D03*
X127541D03*
G54D16*
X21827Y100457D03*
Y93370D03*
Y114630D03*
Y107543D03*
X28913Y86283D03*
X36000D03*
X43087D03*
X50173Y100457D03*
Y93370D03*
X28913Y121717D03*
X36000D03*
X43087D03*
X50173Y114630D03*
Y107543D03*
G54D53*
G01X23622Y23622D02*
Y32222D01*
G01Y11621D02*
Y23622D01*
G01X11621D02*
X23622D01*
G01D02*
X35623D01*
G01X21500Y41475D02*
X16075D01*
G01X29500Y48925D02*
X21500D01*
G01X23600Y36300D02*
X23622Y36278D01*
G01D02*
Y32222D01*
G01X14500Y72000D02*
Y77200D01*
X20000Y82700D01*
G01X40331Y128631D02*
X37200Y125500D01*
X18600D01*
X4000Y140100D01*
Y149500D01*
G01X24000Y129800D02*
X27339Y133139D01*
Y137858D01*
G01X72500Y150000D02*
X24000D01*
G01X5882Y125654D02*
X14500D01*
G01X29175Y155200D02*
X23500D01*
G01X23622Y173228D02*
Y181828D01*
G01Y161227D02*
Y173228D01*
G01X11621D02*
X23622D01*
G01D02*
X35623D01*
G01X23700Y186100D02*
X23622Y186022D01*
G01D02*
Y181828D01*
G01X50600Y49000D02*
X44925D01*
X44725Y49200D01*
G01X29775Y57200D02*
Y53150D01*
X29500Y52875D01*
Y48925D01*
G01X37275Y49200D02*
Y53349D01*
X37225Y53399D01*
Y57200D01*
G01X37275Y49200D02*
Y41200D01*
G01X29496Y61996D02*
Y57479D01*
X29775Y57200D01*
G01X37200Y62400D02*
Y57225D01*
X37225Y57200D01*
G01X40331Y137858D02*
Y128631D01*
G01X36000Y137858D02*
Y131299D01*
X34401Y129700D01*
X32000D01*
G01X49000D02*
X48992Y129708D01*
Y137858D01*
G01X36625Y155200D02*
X40575D01*
X43124Y152651D01*
X70453D01*
G01X47646Y155099D02*
X68000D01*
G01X35900Y159802D02*
X39071D01*
X41320Y157553D01*
X44150D01*
X44198Y157505D01*
X65505D01*
G01X50000Y171000D02*
Y163500D01*
X53500Y160000D01*
X66501D01*
X75891Y150610D01*
X81768D01*
G01X45000Y161798D02*
Y166000D01*
G01D02*
Y170202D01*
G01Y176000D02*
X53400Y184400D01*
X66337D01*
X71137Y179600D01*
X89793D01*
X91610Y177783D01*
Y174232D01*
G01X58142Y7349D02*
Y11500D01*
G01D02*
Y15651D01*
G01X53991Y11500D02*
X58142D01*
G01D02*
X62293D01*
G01X74000Y50175D02*
Y46225D01*
G01X73833Y53260D02*
Y50342D01*
X74000Y50175D01*
G01Y38775D02*
X66300D01*
G01X74000D02*
X79200D01*
G01Y60800D02*
X79140Y60740D01*
X73833D01*
G01X66118Y116992D02*
X55192D01*
G01X66118Y121323D02*
X58023D01*
G01X53323Y137858D02*
Y121523D01*
X53200Y121400D01*
G01X66118Y125654D02*
X57800D01*
G01X66118Y129984D02*
X57784D01*
G01X81768Y156516D02*
X74484D01*
X65000Y166000D01*
G01Y176000D02*
X70200Y170800D01*
Y163199D01*
X74915Y158484D01*
X81768D01*
G01Y168327D02*
X80018D01*
X65545Y182800D01*
X61928D01*
X58098Y178970D01*
X57970D01*
X55000Y176000D01*
G01X101453Y174232D02*
Y179447D01*
X96400Y184500D01*
X81000D01*
X75000Y190500D01*
G01X65000D02*
X72700Y182800D01*
X95200D01*
X99484Y178516D01*
Y174232D01*
G01X55000Y190500D02*
X59500Y186000D01*
X67000D01*
X71800Y181200D01*
X94099D01*
X97516Y177783D01*
Y174232D01*
G01X75579Y111500D02*
Y103646D01*
X76500Y102725D01*
G01X75579Y111500D02*
Y125279D01*
X83800Y133500D01*
X89000D01*
X91610Y136110D01*
Y140768D01*
G01X85421Y111500D02*
Y103646D01*
X84500Y102725D01*
G01X93579Y140768D02*
Y135579D01*
X89500Y131500D01*
X84200D01*
X77566Y124866D01*
Y120929D01*
X85421Y113074D01*
Y111500D01*
G01X95547Y140768D02*
Y131921D01*
X88823Y125197D01*
Y125000D01*
G01D02*
Y119852D01*
X92500Y116175D01*
Y112225D01*
G01X87000Y147599D02*
Y152866D01*
X85319Y154547D01*
X81768D01*
G01X99484Y140768D02*
Y145884D01*
G01X97516Y140768D02*
Y131858D01*
X104177Y125197D01*
Y125000D01*
G01X86500Y165000D02*
X85890Y164390D01*
X81768D01*
G01X88500Y162421D02*
X81768D01*
G01X86450Y159960D02*
X85957Y160453D01*
X81768D01*
G01X86500Y168500D02*
X84500Y166500D01*
X81910D01*
X81768Y166358D01*
G01X103421Y174232D02*
Y179779D01*
X97100Y186100D01*
X89400D01*
X85000Y190500D01*
G01X105390Y174232D02*
Y180110D01*
X95000Y190500D01*
G01X104177Y125000D02*
Y119352D01*
X101000Y116175D01*
Y112225D01*
G01X120800Y149600D02*
Y149810D01*
X120000Y150610D01*
X115232D01*
G01X108950Y157950D02*
X111453Y160453D01*
X115232D01*
G01X108800Y161200D02*
X110021Y162421D01*
X115232D01*
G01X108400Y164400D02*
X111001D01*
X111011Y164390D01*
X115232D01*
G01X120550Y155050D02*
X120047Y154547D01*
X115232D01*
G01X123100Y152000D02*
X122521Y152579D01*
X115232D01*
G01X107358Y174232D02*
Y188142D01*
X105000Y190500D01*
G01X110800Y155300D02*
Y155600D01*
X111400Y156200D01*
Y157684D01*
X112200Y158484D01*
X115232D01*
G01X109327Y174232D02*
Y184827D01*
X115000Y190500D01*
G01X133500Y44000D02*
X135468D01*
G01Y39000D02*
Y44000D01*
G01X126831Y109740D02*
Y114731D01*
X127000Y114900D01*
G01X134772Y121000D02*
X140400D01*
X140800Y121400D01*
G01X140900Y126000D02*
X134772D01*
G01X144725Y171775D02*
X142091D01*
X136466Y177400D01*
X134300D01*
G01X173228Y23622D02*
Y32222D01*
G01Y11621D02*
Y23622D01*
G01X161227D02*
X173228D01*
G01D02*
X185229D01*
G01X173200Y36500D02*
X173228Y36472D01*
G01D02*
Y32222D01*
G01X156000Y69298D02*
Y73500D01*
G01D02*
Y77702D01*
G01X151798Y73500D02*
X156000D01*
G01D02*
X160202D01*
G01X173228Y173228D02*
Y181828D01*
G01Y161227D02*
Y173228D01*
G01X161227D02*
X173228D01*
G01D02*
X185229D01*
G01X173200Y186100D02*
X173228Y186072D01*
G01D02*
Y181828D01*
G01X190500Y114298D02*
Y118500D01*
G01D02*
Y122702D01*
G01X186298Y118500D02*
X190500D01*
G01D02*
X194702D01*
G54D44*
G01X123225Y25500D02*
X124500Y19700D01*
G54D17*
X5882Y78016D03*
Y82346D03*
Y86677D03*
Y91008D03*
Y95339D03*
Y99669D03*
Y104000D03*
Y108331D03*
Y112661D03*
Y116992D03*
Y121323D03*
Y125654D03*
Y129984D03*
X66118Y99669D03*
Y95339D03*
Y91008D03*
Y86677D03*
Y82346D03*
Y78016D03*
Y125654D03*
Y121323D03*
Y116992D03*
Y112661D03*
Y108331D03*
Y104000D03*
Y129984D03*
G54D26*
X98500Y44858D03*
Y77142D03*
G54D35*
X118500Y44035D03*
Y60965D03*
G54D45*
G01X89642Y140768D02*
Y137862D01*
X88780Y137000D01*
X82500D01*
X73000Y127500D01*
G01X89642Y174232D02*
Y169500D01*
G01X89800D02*
X89642D01*
G01X123225Y25500D02*
X130725D01*
X131000Y25775D01*
G01X118500Y44035D02*
X118465Y44000D01*
G01D02*
X112000D01*
G01Y85500D02*
X115500Y89000D01*
X118429D01*
X118669Y89240D01*
G01X108300Y134500D02*
X104621D01*
X103421Y135700D01*
Y140768D01*
G01X115232Y166358D02*
X111600D01*
X110400Y167558D01*
G01X138775Y25500D02*
X131275D01*
X131000Y25775D01*
G01Y33225D02*
X138500D01*
X138775Y33500D01*
G01X156228Y106000D02*
X161900D01*
G01X156228Y116000D02*
X161800D01*
G01X156228Y126000D02*
X164625D01*
X168125Y122500D01*
X172275D01*
G01X181600Y99200D02*
X176271D01*
X176240Y99169D01*
G54D18*
X53201Y21303D03*
X80799D03*
G54D36*
X116535Y72500D03*
X133465D03*
G54D27*
X98500Y68874D03*
Y61000D03*
G54D46*
G01X9200Y64904D02*
Y70520D01*
X5882Y73838D01*
Y78016D01*
G54D19*
X37275Y41200D03*
X44725D03*
Y49200D03*
X37275D03*
X37225Y57200D03*
X29775D03*
X29175Y155200D03*
X36625D03*
X123225Y25500D03*
X115775D03*
X123225Y33500D03*
X115775D03*
X126225Y96000D03*
X118775D03*
X146225Y25500D03*
X138775D03*
Y33500D03*
X146225D03*
X146275Y62500D03*
X134775Y93000D03*
X142225D03*
X153725Y62500D03*
X172275Y122500D03*
Y114500D03*
Y130500D03*
Y138500D03*
X157275Y146500D03*
X164725D03*
X172275D03*
X157275Y154500D03*
X164725D03*
X172275D03*
X179725Y122500D03*
Y114500D03*
Y130500D03*
Y138500D03*
Y146500D03*
Y154500D03*
G54D37*
X118669Y81760D03*
Y89240D03*
X127331Y85500D03*
X126831Y109740D03*
Y102260D03*
X118169Y106000D03*
G54D28*
X98500Y53126D03*
G54D47*
G01X113300Y134500D02*
X108300D01*
G54D29*
X88823Y125000D03*
X104177D03*
G54D38*
X133500Y49500D03*
G54D48*
G01X45000Y166000D02*
X38500D01*
G01X64500Y70000D02*
X70200D01*
G01D02*
X78000D01*
X94000Y86000D01*
X102725D01*
X112725Y96000D01*
G01X58000Y54725D02*
Y63500D01*
G01D02*
X64500Y70000D01*
G01X123225Y25500D02*
Y33500D01*
G01X133465Y70965D02*
X127500Y65000D01*
Y59500D01*
G01X112725Y96000D02*
X118775D01*
G01X113000Y111000D02*
Y96275D01*
X112725Y96000D01*
G01X131400Y170225D02*
X135323Y166302D01*
Y151523D01*
X122000Y138200D01*
Y120000D01*
X113000Y111000D01*
G01X124000Y170225D02*
X125500D01*
G01X131400D02*
X125500D01*
G01X146000Y73500D02*
X146275Y73225D01*
G01D02*
Y62500D01*
G01X190500Y118500D02*
X186500Y122500D01*
G01D02*
X179725D01*
G54D39*
X137437Y44000D03*
X135468D03*
X133500D03*
X131532D03*
X129563D03*
Y55000D03*
X131532D03*
X133500D03*
X135468D03*
X137437D03*
G54D49*
G01X164725Y154500D02*
X168876Y158651D01*
X176485D01*
X179725Y155411D01*
Y154500D01*
M02*
