G04 ================== begin FILE IDENTIFICATION RECORD ==================*
G04 Layout Name:  E:/Project/SmartDiet/Device/Schematic/allegro/CyberBalance.brd*
G04 Film Name:    TOP*
G04 File Format:  Gerber RS274X*
G04 File Origin:  Cadence Allegro 17.4-S015*
G04 Origin Date:  Fri May 21 17:17:23 2021*
G04 *
G04 Layer:  VIA CLASS/TOP*
G04 Layer:  PIN/TOP*
G04 Layer:  ETCH/TOP*
G04 Layer:  BOARD GEOMETRY/DESIGN_OUTLINE*
G04 *
G04 Offset:    (0.00 0.00)*
G04 Mirror:    No*
G04 Mode:      Positive*
G04 Rotation:  0*
G04 FullContactRelief:  No*
G04 UndefLineWidth:     2.00*
G04 ================== end FILE IDENTIFICATION RECORD ====================*
%FSLAX25Y25*MOIN*%
%IR0*IPPOS*OFA0.00000B0.00000*MIA0B0*SFA1.00000B1.00000*%
%ADD38R,.1X.06902*%
%ADD20C,.06*%
%ADD11C,.02402*%
%ADD27C,.0515*%
%ADD21R,.06X.06*%
%ADD28R,.0515X.0515*%
%ADD35R,.0689X.10433*%
%ADD26C,.05906*%
%ADD36R,.10433X.0689*%
%ADD18C,.07677*%
%ADD16R,.03937X.03937*%
%ADD22C,.05898*%
%ADD37R,.055X.04*%
%ADD42R,.04X.055*%
%ADD34R,.016X.053*%
%ADD31R,.01201X.04701*%
%ADD30R,.04701X.01201*%
%ADD12R,.05201X.055*%
%ADD32R,.032X.059*%
%ADD19R,.055X.05201*%
%ADD25C,.11811*%
%ADD39R,.01X.02799*%
%ADD40R,.06102X.02756*%
%ADD24R,.04331X.0748*%
%ADD23R,.05925X.02252*%
%ADD14R,.04134X.08661*%
%ADD33O,.02559X.03346*%
%ADD15R,.03937X.04134*%
%ADD10C,.21598*%
%ADD41O,.09843X.05512*%
%ADD17O,.09843X.02756*%
%ADD13O,.02756X.09843*%
%ADD29R,.0748X.07874*%
%ADD43C,.01*%
%ADD44C,.03*%
%ADD45C,.012*%
%ADD46C,.04*%
%ADD47C,.023*%
%ADD48C,.05*%
%ADD49C,.028*%
%ADD50C,.068*%
%ADD51C,.002*%
%ADD52C,.008*%
%ADD57C,.08*%
%ADD58C,.0715*%
%ADD53C,.07504*%
%ADD54C,.09678*%
%ADD59C,.07898*%
%ADD55C,.1341*%
%ADD60O,.0456X.05347*%
%ADD56C,.23598*%
G75*
%LPD*%
G75*
G36*
G01X1000Y75401D02*
G02X1535Y75778I400J0D01*
G03X2338Y75638I804J2238D01*
G01X2882D01*
Y73838D01*
G03X3760Y71717I3000J0D01*
G01X6200Y69277D01*
Y64903D01*
G03X6229Y64483I3000J-4D01*
G01X6231Y64469D01*
Y62837D01*
X5460D01*
Y54569D01*
X12940D01*
Y62837D01*
X12169D01*
Y64469D01*
X12171Y64483D01*
G03X12200Y64903I-2971J416D01*
G01Y70520D01*
G03X12182Y70849I-3000J1D01*
G01X12163Y71022D01*
X12484Y71103D01*
X12557Y70965D01*
G03X14500Y69799I1943J1036D01*
G03X16701Y72000I0J2201D01*
G03X15900Y73698I-2200J0D01*
G01Y76620D01*
X19787Y80507D01*
X19877Y80502D01*
G03X20000Y80499I115J2198D01*
G03X17799Y82700I0J2201D01*
G03X17802Y82577I2201J-8D01*
G01X17807Y82487D01*
X13510Y78190D01*
G03X13100Y77200I990J-990D01*
G01Y73698D01*
G03X12343Y72439I1400J-1699D01*
G02X11627Y72283I-392J79D01*
G03X11322Y72642I-2432J-1757D01*
G01X8882Y75081D01*
Y75638D01*
X9425D01*
G03Y80394I0J2378D01*
G01X7711D01*
G03X5882Y81016I-1829J-2378D01*
G03X4053Y80394I0J-3000D01*
G01X2338D01*
G03X1535Y80254I1J-2378D01*
G02X1000Y80631I-135J377D01*
G01Y84062D01*
G02X1535Y84439I400J0D01*
G03X2338Y84299I804J2238D01*
G01X9425D01*
G03X11804Y86677I1J2378D01*
G03X10915Y88531I-2378J0D01*
G02Y89154I251J312D01*
G03X11804Y91008I-1489J1854D01*
G03X10915Y92862I-2378J0D01*
G02Y93485I251J311D01*
G03X11804Y95339I-1489J1854D01*
G03X10916Y97192I-2378J0D01*
G02Y97816I250J312D01*
G03X11804Y99669I-1490J1853D01*
G03X10915Y101523I-2378J0D01*
G02Y102146I251J311D01*
G03Y105854I-1490J1854D01*
G02Y106477I251J311D01*
G03X11804Y108331I-1489J1854D01*
G03X9426Y110709I-2378J0D01*
G01X2338D01*
G03X1535Y110570I-2J-2378D01*
G02X1000Y110946I-135J376D01*
G01Y114377D01*
G02X1535Y114754I400J0D01*
G03X2338Y114614I804J2238D01*
G01X9425D01*
G03X11804Y116992I1J2378D01*
G03X10915Y118846I-2378J0D01*
G02Y119469I251J311D01*
G03X11804Y121323I-1489J1854D01*
G03X10915Y123177I-2378J0D01*
G02Y123800I251J311D01*
G03X11348Y124254I-1489J1854D01*
G01X12802D01*
G03X14500Y123453I1698J1399D01*
G03X16532Y124807I0J2202D01*
G02X17184Y124936I369J-154D01*
G01X17610Y124510D01*
G03X18600Y124100I990J990D01*
G01X25544D01*
G02X25944Y123696I0J-400D01*
G03Y123685I1000J-6D01*
G01Y119748D01*
G03X26944Y118748I1000J0D01*
G01X30882D01*
G03X31882Y119748I0J1000D01*
G01Y123685D01*
G03Y123696I-1000J5D01*
G02X32282Y124100I400J4D01*
G01X32631D01*
G02X33031Y123696I0J-400D01*
G03Y123685I1000J-6D01*
G01Y119748D01*
G03X34032Y118748I1000J0D01*
G01X37968D01*
G03X38969Y119748I1J1000D01*
G01Y123685D01*
G03X38662Y124406I-1000J0D01*
G02X38657Y124977I278J288D01*
G01X40118Y126438D01*
X40208Y126433D01*
G03X40331Y126430I115J2198D01*
G03X42532Y128631I0J2201D01*
G03X41731Y130330I-2201J1D01*
G01Y132392D01*
G03X42184Y132824I-1400J1922D01*
G02X42808I312J-251D01*
G03X44661Y131936I1853J1490D01*
G03X46515Y132825I0J2378D01*
G02X47138I311J-251D01*
G03X47592Y132392I1854J1489D01*
G01Y131392D01*
G03X46799Y129700I1409J-1692D01*
G03X51201I2201J0D01*
G03X50392Y131405I-2201J0D01*
G01Y132392D01*
G03X50846Y132824I-1398J1924D01*
G02X51469I311J-250D01*
G03X51923Y132392I1852J1492D01*
G01Y123193D01*
G03X50999Y121400I1278J-1793D01*
G03X55401I2201J0D01*
G03X54723Y122989I-2201J0D01*
G01Y132392D01*
G03X55701Y134314I-1400J1922D01*
G01Y141401D01*
G03X53323Y143780I-2378J1D01*
G03X51469Y142891I0J-2378D01*
G02X50846I-312J251D01*
G03X48992Y143780I-1854J-1489D01*
G03X47138Y142891I0J-2378D01*
G02X46515I-312J251D01*
G03X44661Y143780I-1854J-1489D01*
G03X42808Y142892I0J-2378D01*
G02X42184I-312J250D01*
G03X40331Y143780I-1853J-1490D01*
G03X38477Y142891I0J-2378D01*
G02X37854I-312J251D01*
G03X34146I-1854J-1490D01*
G02X33523I-311J251D01*
G03X31669Y143780I-1854J-1489D01*
G03X29816Y142892I0J-2378D01*
G02X29192I-312J250D01*
G03X27339Y143780I-1853J-1490D01*
G03X25485Y142891I0J-2378D01*
G02X24862I-311J251D01*
G03X23008Y143780I-1854J-1489D01*
G03X21154Y142891I0J-2378D01*
G02X20531I-311J251D01*
G03X18677Y143780I-1854J-1489D01*
G03X16299Y141401I0J-2378D01*
G01Y134314D01*
G03X18677Y131936I2378J0D01*
G03X20531Y132824I1J2378D01*
G02X21154I312J-250D01*
G03X22302Y132044I1852J1491D01*
G02X22462Y131375I-119J-382D01*
G03X21799Y129800I1538J-1575D01*
G03X26201I2201J0D01*
G03X26198Y129923I-2201J8D01*
G01X26193Y130013D01*
X28335Y132154D01*
X28366Y132169D01*
G03X29192Y132824I-1028J2145D01*
G02X29816I312J-251D01*
G03X30646Y132168I1853J1491D01*
G02X30708Y131482I-172J-361D01*
G03X29799Y129700I1292J-1782D01*
G03X32000Y127499I2201J0D01*
G03X33698Y128300I0J2200D01*
G01X34401D01*
G03X35391Y128710I0J1400D01*
G01X36990Y130309D01*
G03X37400Y131299I-990J990D01*
G01Y132392D01*
G03X37854Y132825I-1400J1922D01*
G02X38477I311J-251D01*
G03X38931Y132392I1854J1489D01*
G01Y130330D01*
G03X38130Y128631I1400J-1698D01*
G03X38133Y128508I2201J-8D01*
G01X38138Y128418D01*
X36620Y126900D01*
X19180D01*
X5400Y140680D01*
Y147802D01*
G03X6201Y149500I-1399J1698D01*
G03X1799I-2201J0D01*
G03X2600Y147802I2200J0D01*
G01Y140100D01*
G03X3010Y139110I1400J0D01*
G01X9075Y133045D01*
G02X8792Y132362I-283J-283D01*
G01X2338D01*
G03X1535Y132222I1J-2378D01*
G02X1000Y132599I-135J377D01*
G01Y157480D01*
G02X39370Y195850I38370J0D01*
G01X157481D01*
G02X195850Y157481I-1J-38370D01*
G01Y39370D01*
G02X157480Y1000I-38370J0D01*
G01X39370D01*
G02X1000Y39370I0J38370D01*
G01Y75401D01*
G37*
%LPC*%
G75*
G36*
G01X186500Y158500D02*
G02X190500Y154500I4000J0D01*
G01X190499D01*
G02X190030Y154528I3J4000D01*
G01X189933Y154539D01*
X188197Y152803D01*
G02X186500Y152100I-1697J1697D01*
G01X183475D01*
Y151899D01*
G02X182475Y150899I-1000J0D01*
G01X169525D01*
G02X168551Y151671I0J1000D01*
G01X168515Y151825D01*
X168101D01*
Y151475D01*
G02X167818Y150779I-1000J1D01*
G03Y150221I287J-279D01*
G02X168101Y149525I-717J-697D01*
G01Y149175D01*
X168515D01*
X168551Y149329D01*
G02X169525Y150101I974J-228D01*
G01X182475D01*
G02X183475Y149101I0J-1000D01*
G01Y148900D01*
X186516D01*
X186541Y149072D01*
G02X190500Y152500I3959J-572D01*
G02Y144500I0J-4000D01*
G02X189894Y144546I-1J4000D01*
G02X188500Y144100I-1394J1954D01*
G01X183475D01*
Y143899D01*
G02X182475Y142899I-1000J0D01*
G01X169525D01*
G02X168525Y143899I0J1000D01*
G01Y144375D01*
X168101D01*
Y144025D01*
G02X167782Y143293I-1000J0D01*
G03Y142707I273J-293D01*
G02X168101Y141975I-681J-732D01*
G01Y141625D01*
X168673D01*
G02X169525Y142101I852J-524D01*
G01X182475D01*
G02X183475Y141101I0J-1000D01*
G01Y140900D01*
X187300D01*
G02X190500Y142500I3200J-2400D01*
G02Y134500I0J-4000D01*
G02X187300Y136100I0J4000D01*
G01X183475D01*
Y135899D01*
G02X182475Y134899I-1000J0D01*
G01X169525D01*
G02X168525Y135899I0J1000D01*
G01Y136825D01*
X168101D01*
Y136475D01*
G02X167818Y135779I-1000J1D01*
G03Y135221I287J-279D01*
G02X168101Y134525I-717J-697D01*
G01Y134175D01*
X171000D01*
G02X171569Y134106I-2J-2400D01*
G01X171593Y134101D01*
X182475D01*
G02X183475Y133101I0J-1000D01*
G01Y132900D01*
X188500D01*
G02X189894Y132454I0J-2400D01*
G02X190500Y132500I605J-3954D01*
G02Y124500I0J-4000D01*
G02X186541Y127928I0J4000D01*
G01X186516Y128100D01*
X183475D01*
Y127899D01*
G02X182475Y126899I-1000J0D01*
G01X169525D01*
G02X168525Y127899I0J1000D01*
G01Y129375D01*
X168101D01*
Y129025D01*
G02X167101Y128025I-1000J0D01*
G01X161899D01*
G02X161046Y128504I1J1000D01*
G01X160987Y128600D01*
X160413D01*
G03X160089Y127965I0J-400D01*
G02X160215Y127730I-811J-586D01*
G01X160264Y127600D01*
X164625D01*
G02X165756Y127132I0J-1600D01*
G01X168183Y124705D01*
G03X168525Y124846I142J141D01*
G01Y125101D01*
G02X169525Y126101I1000J0D01*
G01X175025D01*
G02X176011Y125267I0J-1000D01*
G01X176039Y125100D01*
X176975D01*
Y119900D01*
X176039D01*
X176011Y119733D01*
G02X175025Y118899I-986J166D01*
G01X169525D01*
G02X168525Y119899I0J1000D01*
G01Y120900D01*
X168125D01*
G02X166994Y121368I0J1600D01*
G01X163962Y124400D01*
X160264D01*
X160215Y124270D01*
G02X159279Y123622I-936J352D01*
G01X153177D01*
G02X152177Y124622I0J1000D01*
G01Y127378D01*
G02X152579Y128180I1000J0D01*
G03Y128820I-240J320D01*
G02X152177Y129622I598J802D01*
G01Y132378D01*
G02X152579Y133180I1000J0D01*
G03Y133820I-240J320D01*
G02X152177Y134622I598J802D01*
G01Y137378D01*
G02X153177Y138378I1000J0D01*
G01X155212D01*
X157756Y140922D01*
G02X159453Y141625I1697J-1697D01*
G01X160899D01*
Y141975D01*
G02X161218Y142707I1000J0D01*
G03Y143293I-273J293D01*
G02X160899Y144025I681J732D01*
G01Y144375D01*
X157269D01*
X142197Y129303D01*
G02X140500Y128600I-1697J1697D01*
G01X138957D01*
G03X138633Y127965I0J-400D01*
G02X138806Y127563I-810J-587D01*
G01X138837Y127400D01*
X139199D01*
X139259Y127467D01*
G02X140900Y128201I1641J-1467D01*
G02X143101Y126000I0J-2201D01*
G02X141885Y124031I-2202J0D01*
G03X141869Y123324I179J-358D01*
G02X143001Y121400I-1069J-1924D01*
G02X140800Y119199I-2201J0D01*
G02X139582Y119566I-1J2201D01*
G01X139532Y119600D01*
X138837D01*
X138806Y119437D01*
G02X138421Y118820I-983J185D01*
G03Y118180I240J-320D01*
G02X138823Y117378I-598J-802D01*
G01Y114622D01*
G02X137823Y113622I-1000J0D01*
G01X131721D01*
G02X130721Y114622I0J1000D01*
G01Y117378D01*
G02X131123Y118180I1000J0D01*
G03Y118820I-240J320D01*
G02X130721Y119622I598J802D01*
G01Y122378D01*
G02X131123Y123180I1000J0D01*
G03Y123820I-240J320D01*
G02X130721Y124622I598J802D01*
G01Y127378D01*
G02X131123Y128180I1000J0D01*
G03Y128820I-240J320D01*
G02X130721Y129622I598J802D01*
G01Y132378D01*
G02X131123Y133180I1000J0D01*
G03Y133820I-240J320D01*
G02X130721Y134622I598J802D01*
G01Y137378D01*
G02X131721Y138378I1000J0D01*
G01X134447D01*
X134460Y138380D01*
G02X134772Y138400I309J-2380D01*
G01X139029D01*
X156551Y155922D01*
G02X158248Y156625I1697J-1697D01*
G01X160899D01*
Y156975D01*
G02X161899Y157975I1000J0D01*
G01X167101D01*
G02X168101Y156975I0J-1000D01*
G01Y156625D01*
X168525D01*
Y157101D01*
G02X169525Y158101I1000J0D01*
G01X182475D01*
G02X183475Y157101I0J-1000D01*
G01Y156900D01*
X185506D01*
X186539Y157933D01*
X186528Y158030D01*
G02X186500Y158499I3972J472D01*
G01Y158500D01*
G37*
G36*
G01X136466Y173644D02*
X133870D01*
G03X133616Y172934I-1J-400D01*
G02X133875Y172700I-2214J-2711D01*
G01X138875Y167700D01*
G02X139900Y165225I-2475J-2475D01*
G01Y152600D01*
G02X138875Y150125I-3501J0D01*
G01X125500Y136750D01*
Y120000D01*
G02X124475Y117525I-3501J0D01*
G01X120790Y113840D01*
G03X121707Y108707I4142J-1908D01*
G01X122011Y108404D01*
X121919Y104824D01*
Y104000D01*
G02X121903Y103824I-1000J2D01*
G03X122177Y101566I11751J280D01*
G02X122449Y99784I-13432J-2962D01*
G01X122465Y99601D01*
X122793D01*
X123081Y100418D01*
Y104260D01*
G02X123097Y104437I1000J-1D01*
G01X123100Y104454D01*
Y105300D01*
X130600D01*
Y103400D01*
X152043D01*
G03X152367Y104035I0J400D01*
G02X152177Y104622I810J586D01*
G01Y107378D01*
G02X152579Y108180I1000J0D01*
G03Y108820I-240J320D01*
G02X152177Y109622I598J802D01*
G01Y112378D01*
G02X152579Y113180I1000J0D01*
G03Y113820I-240J320D01*
G02X152177Y114622I598J802D01*
G01Y117378D01*
G02X153177Y118378I1000J0D01*
G01X159279D01*
G02X160089Y117965I0J-1001D01*
G03X160626Y117862I323J235D01*
G02X161800Y118201I1174J-1863D01*
G02X164001Y116000I0J-2201D01*
G02X162975Y114138I-2201J-1D01*
G03X163188Y113400I214J-338D01*
G01X163600D01*
G02X165297Y112697I0J-2400D01*
G01X167994Y110000D01*
X169500D01*
Y110582D01*
G02X169506Y110696I1000J5D01*
G03X169344Y110916I-199J23D01*
G02X168525Y111899I181J983D01*
G01Y117101D01*
G02X169525Y118101I1000J0D01*
G01X175025D01*
G02X176011Y117267I0J-1000D01*
G01X176039Y117100D01*
X176975D01*
Y111900D01*
X176039D01*
X176011Y111733D01*
G02X175417Y110980I-986J167D01*
G02X175500Y110581I-917J-399D01*
G01Y110231D01*
X183638D01*
G02X185300Y110900I1662J-1730D01*
G01X186500D01*
Y111500D01*
G02X187500Y112500I1000J0D01*
G01X193500D01*
G02X194500Y111500I0J-1000D01*
G01Y105500D01*
G02X193500Y104500I-1000J0D01*
G01X187500D01*
G02X186500Y105500I0J1000D01*
G01Y106037D01*
X186227D01*
X186172Y105990D01*
G02X184631Y105431I-1540J1841D01*
G01X175500D01*
Y105081D01*
G02X174500Y104081I-1000J0D01*
G01X170500D01*
G02X169502Y105013I0J1000D01*
G01X169489Y105200D01*
X167000D01*
G02X165303Y105903I0J2400D01*
G01X164780Y106426D01*
G03X164098Y106121I-283J-283D01*
G02X164101Y106000I-2198J-115D01*
G02X161975Y103800I-2201J0D01*
G01X161782Y103794D01*
Y103400D01*
X162729D01*
G02X164426Y102697I0J-2400D01*
G01X165418Y101705D01*
G03X165760Y101846I142J141D01*
G01Y101919D01*
G02X166760Y102919I1000J0D01*
G01X170760D01*
G02X171760Y101919I0J-1000D01*
G01Y96419D01*
G02X170760Y95419I-1000J0D01*
G01X166760D01*
G02X165760Y96419I0J1000D01*
G01Y96769D01*
X164560D01*
G02X162862Y97472I-1J2400D01*
G01X161735Y98600D01*
X138569D01*
X138544Y95600D01*
X139475D01*
Y90400D01*
X138539D01*
X138511Y90233D01*
G02X138504Y90197I-985J173D01*
G01X138500Y90177D01*
Y89400D01*
X137560D01*
X137556D01*
G02X137525Y89399I-48J999D01*
G01X132025D01*
G02X131993Y89400I15J1000D01*
G01X131990D01*
X131000D01*
Y89986D01*
X128586Y92399D01*
X122596D01*
G03X122259Y91782I-1J-400D01*
G02X122419Y91240I-840J-543D01*
G01Y87240D01*
G02X121419Y86240I-1000J0D01*
G01X115919D01*
G02X115381Y86397I0J1000D01*
G01X115246Y86483D01*
X114202Y85439D01*
X114197Y85363D01*
G02X114178Y85184I-2196J143D01*
G03X114622Y84729I396J-58D01*
G02X115800Y84800I1178J-9729D01*
G01X122700D01*
Y76263D01*
X122709Y76235D01*
G02X122752Y75945I-957J-290D01*
G01Y71669D01*
X122758Y71644D01*
G02X122900Y70535I-4258J-1109D01*
G01Y66480D01*
X122908Y66453D01*
G02X122945Y66182I-963J-270D01*
G01Y55748D01*
G02X122911Y55488I-1000J-1D01*
G01X122904Y55461D01*
X122908Y54990D01*
G02X122705Y54788I-200J-2D01*
G01X122247Y54795D01*
X122219Y54786D01*
G02X121945Y54748I-273J962D01*
G01X115055D01*
G02X114287Y55108I0J1000D01*
G03X99206Y57495I-15786J-50900D01*
G02X98500Y57425I-704J3505D01*
G02X97791Y57496I0J3575D01*
G01X97771Y57500D01*
X97557D01*
X97554Y57550D01*
X97423Y57591D01*
G02X94925Y61000I1077J3409D01*
G02X97030Y64259I3575J0D01*
G01X97156Y64316D01*
X97143Y64540D01*
X98171Y64600D01*
X98200D01*
G03X106000Y72400I0J7800D01*
G01Y75000D01*
G02X110478Y83230I9800J1D01*
G03X110529Y83863I-217J336D01*
G02X109799Y85500I1470J1637D01*
G02X111863Y87697I2201J0D01*
G01X111939Y87702D01*
X114368Y90132D01*
G02X114806Y90442I1131J-1133D01*
G01X114919Y90496D01*
Y91240D01*
G02X115129Y91854I1000J1D01*
G03X114814Y92500I-315J246D01*
G01X114175D01*
X105200Y83525D01*
G02X102725Y82500I-2475J2475D01*
G01X95450D01*
X80475Y67525D01*
G02X78000Y66500I-2475J2476D01*
G01X75182D01*
X71671Y63574D01*
G03X71927Y62866I256J-308D01*
G01X76796D01*
G02X77541Y62533I0J-1000D01*
G03X77816Y62511I149J134D01*
G02X79200Y63001I1385J-1711D01*
G02Y58599I0J-2201D01*
G02X77871Y59046I1J2201D01*
G03X77591Y59008I-121J-160D01*
G02X76796Y58614I-796J606D01*
G01X70870D01*
G02X69870Y59614I0J1000D01*
G01Y61646D01*
G03X69542Y61800I-200J0D01*
G01X69340Y61632D01*
G03X69130Y61315I428J-512D01*
G01Y59614D01*
G02X69105Y59394I-1000J2D01*
G01X69100Y59372D01*
Y58669D01*
G03X68522Y58694I-997J-16363D01*
G02X68130Y58614I-392J920D01*
G01X66425D01*
G03X61600Y57356I1675J-16308D01*
G01Y57000D01*
X60823D01*
X60803Y56996D01*
G02X60767Y56989I-209J978D01*
G01X60600Y56961D01*
Y56025D01*
X55400D01*
Y56961D01*
X55233Y56989D01*
G02X55197Y56996I173J985D01*
G01X55177Y57000D01*
X48811D01*
X42300Y62960D01*
Y66315D01*
X42298Y66326D01*
G02X42283Y66599I2363J267D01*
G01Y73686D01*
G02X43937Y75951I2378J0D01*
G01X43994Y75969D01*
X44019Y76000D01*
X44114D01*
X44136Y76005D01*
G02X44661Y76064I526J-2319D01*
G02X45186Y76005I-1J-2378D01*
G01X45208Y76000D01*
X48446D01*
X48467Y76005D01*
G02X48992Y76064I526J-2319D01*
G02X50846Y75176I1J-2378D01*
G03X51469I311J250D01*
G02X53323Y76064I1853J-1490D01*
G02X55701Y73686I0J-2378D01*
G01Y67117D01*
G03X56384Y66834I400J0D01*
G01X62025Y72475D01*
G02X62868Y73097I2476J-2474D01*
G01X62897Y73112D01*
X63170Y73395D01*
X63673Y73401D01*
X63694Y73406D01*
G02X64500Y73500I806J-3406D01*
G01X72394D01*
X72948Y73506D01*
X72952Y73500D01*
X76550D01*
X91525Y88475D01*
G02X94000Y89500I2475J-2476D01*
G01X101275D01*
X109500Y97725D01*
Y112233D01*
X109754Y112313D01*
X109791Y112397D01*
G02X110525Y113475I3209J-1396D01*
G01X118500Y121450D01*
Y138200D01*
G02X119525Y140675I3501J0D01*
G01X132900Y154050D01*
Y163775D01*
X129950Y166725D01*
X128762D01*
G02X128267Y166489I-661J750D01*
G01X128100Y166461D01*
Y165525D01*
X122900D01*
Y166461D01*
X122733Y166489D01*
G02X122697Y166496I173J985D01*
G01X122677Y166500D01*
X121382D01*
X114962Y166726D01*
X112881D01*
G02X112503Y166801I2J1000D01*
G01X112470Y166814D01*
X111900Y166834D01*
Y167533D01*
X111897Y167551D01*
G02X111881Y167727I984J178D01*
G01Y168928D01*
G02X111902Y169129I1000J-3D01*
G02X116800Y173900I4898J-129D01*
G01X122517D01*
X122551Y173913D01*
G02X122899Y173975I347J-938D01*
G01X128101D01*
G02X128762Y173725I0J-1000D01*
G01X129575D01*
G03X129821Y174441I0J400D01*
G02X132134Y181156I2314J2959D01*
G01X136466D01*
G02X139969Y176046I-1J-3756D01*
G01X139922Y175924D01*
X142671Y173175D01*
X143024D01*
X143084Y173242D01*
G02X144725Y173976I1641J-1467D01*
G02Y169574I0J-2201D01*
G02X143027Y170375I0J2201D01*
G01X142091D01*
G02X141101Y170785I0J1400D01*
G01X137942Y173944D01*
X137820Y173897D01*
G02X136466Y173644I-1355J3503D01*
G37*
G36*
G01X106757Y144119D02*
X109928D01*
G02X110928Y143119I0J-1000D01*
G01Y138418D01*
G02X109928Y137417I-1000J-1D01*
G01X106757D01*
G02X106374Y137494I2J1000D01*
G02X105991Y137417I-385J923D01*
G01X105021D01*
Y136363D01*
X105284Y136100D01*
X106864D01*
G02X108300Y136650I1436J-1600D01*
G01X112828D01*
X112849Y136654D01*
G02X113300Y136701I452J-2154D01*
G02Y132299I0J-2201D01*
G02X112849Y132346I1J2201D01*
G01X112828Y132350D01*
X108300D01*
G02X106864Y132900I0J2150D01*
G01X104621D01*
G02X103489Y133368I-1J1600D01*
G01X102289Y134568D01*
G02X101821Y135700I1132J1131D01*
G01Y138383D01*
Y138386D01*
G02X101820Y138418I999J47D01*
G01Y143119D01*
G02X102820Y144119I1000J0D01*
G01X105991D01*
G02X106374Y144043I1J-1000D01*
G02X106757Y144119I382J-924D01*
G37*
G36*
G01X124799Y114900D02*
G02X129201I2201J0D01*
G02X128312Y113133I-2201J0D01*
G01X128231Y113073D01*
Y112740D01*
X129581D01*
G02X130581Y111740I0J-1000D01*
G01Y107740D01*
G02X129581Y106740I-1000J0D01*
G01X124081D01*
G02X123081Y107740I0J1000D01*
G01Y111740D01*
G02X124081Y112740I1000J0D01*
G01X125431D01*
Y113354D01*
X125378Y113412D01*
G02X124799Y114900I1623J1488D01*
G37*
G36*
G01X173240Y96419D02*
Y101919D01*
G02X174240Y102919I1000J0D01*
G01X178240D01*
G02X179240Y101919I0J-1000D01*
G01Y100800D01*
X180087D01*
X180143Y100850D01*
G02X181600Y101401I1457J-1650D01*
G02Y96999I0J-2201D01*
G02X180143Y97550I0J2201D01*
G01X180087Y97600D01*
X179240D01*
Y96419D01*
G02X178240Y95419I-1000J0D01*
G01X174240D01*
G02X173240Y96419I0J1000D01*
G37*
G36*
G01X34047Y73686D02*
Y66598D01*
G02X31669Y64220I-2378J0D01*
G02X29816Y65108I0J2378D01*
G03X29192I-312J-250D01*
G02X27339Y64220I-1853J1490D01*
G02X24961Y66599I0J2378D01*
G01Y73686D01*
G02X27339Y76064I2378J0D01*
G02X29192Y75176I0J-2378D01*
G03X29816I312J251D01*
G02X31669Y76064I1853J-1490D01*
G02X34047Y73686I0J-2378D01*
G37*
G36*
G01X39508Y60801D02*
X39975D01*
G02X40975Y59801I0J-1000D01*
G01Y54599D01*
G02X39975Y53599I-1000J0D01*
G01X38674D01*
Y53396D01*
Y53393D01*
G02X38675Y53349I-1399J-54D01*
G01Y52801D01*
X47475D01*
G02X48475Y51801I0J-1000D01*
G01Y50400D01*
X48899D01*
X48959Y50467D01*
G02X50600Y51201I1641J-1467D01*
G02Y46799I0J-2201D01*
G02X48959Y47533I0J2201D01*
G01X48899Y47600D01*
X48475D01*
Y46599D01*
G02X47475Y45599I-1000J0D01*
G01X38675D01*
Y44801D01*
X40025D01*
G02X41011Y43967I0J-1000D01*
G01X41039Y43800D01*
X41975D01*
Y38600D01*
X41039D01*
X41011Y38433D01*
G02X40025Y37599I-986J166D01*
G01X34525D01*
G02X33525Y38599I0J1000D01*
G01Y43801D01*
G02X34525Y44801I1000J0D01*
G01X35875D01*
Y45599D01*
X34525D01*
G02X33525Y46599I0J1000D01*
G01Y51801D01*
G02X34525Y52801I1000J0D01*
G01X35875D01*
Y53029D01*
X35868Y53053D01*
G02X35825Y53399I1357J344D01*
G01Y53599D01*
X31175D01*
Y53150D01*
G02X31174Y53092I-1400J-5D01*
G03X31573Y52675I400J-17D01*
G01X32101D01*
G02X33101Y51675I0J-1000D01*
G01Y46175D01*
G02X32267Y45189I-1000J0D01*
G01X32100Y45161D01*
Y44225D01*
X26900D01*
Y45161D01*
X26733Y45189D01*
G02X25899Y46175I166J986D01*
G01Y47525D01*
X25101D01*
Y46175D01*
G02X24818Y45479I-1000J1D01*
G03Y44921I287J-279D01*
G02X25101Y44225I-717J-697D01*
G01Y38725D01*
G02X24101Y37725I-1000J0D01*
G01X18899D01*
G02X17899Y38725I0J1000D01*
G01Y39298D01*
G03X17280Y39633I-400J0D01*
G02X16075Y39274I-1205J1842D01*
G02Y43676I0J2201D01*
G02X17280Y43317I0J-2201D01*
G03X17899Y43651I219J334D01*
G01Y44225D01*
G02X18182Y44921I1000J-1D01*
G03Y45479I-287J279D01*
G02X17899Y46175I717J697D01*
G01Y51675D01*
G02X18899Y52675I1000J0D01*
G01X24101D01*
G02X25101Y51675I0J-1000D01*
G01Y50325D01*
X25899D01*
Y51675D01*
G02X26899Y52675I1000J0D01*
G01X28100D01*
Y52875D01*
G02X28123Y53127I1400J-1D01*
G03X27729Y53599I-394J72D01*
G01X27025D01*
G02X26025Y54599I0J1000D01*
G01Y59801D01*
G02X27025Y60801I1000J0D01*
G01X27311D01*
G03X27493Y61084I0J200D01*
G02X27295Y61996I2003J912D01*
G02X31697I2201J0D01*
G02X31592Y61323I-2201J-1D01*
G03X31973Y60801I381J-122D01*
G01X34892D01*
G03X35247Y61385I0J400D01*
G02X34999Y62400I1953J1015D01*
G02X39401I2201J0D01*
G02X39153Y61385I-2201J0D01*
G03X39508Y60801I355J-184D01*
G37*
G36*
G01X77601Y36025D02*
G02X76601Y35025I-1000J0D01*
G01X71399D01*
G02X70399Y36025I0J1000D01*
G01Y37375D01*
X69901D01*
Y36025D01*
G02X68901Y35025I-1000J0D01*
G01X63699D01*
G02X62699Y36025I0J1000D01*
G01Y41525D01*
G02X63533Y42511I1000J0D01*
G01X63700Y42539D01*
Y43475D01*
X68900D01*
Y42539D01*
X69067Y42511D01*
G02X69901Y41525I-166J-986D01*
G01Y40175D01*
X70399D01*
Y41525D01*
G02X70682Y42221I1000J-1D01*
G03Y42779I-287J279D01*
G02X70399Y43475I717J697D01*
G01Y48975D01*
G02X70576Y49543I1000J0D01*
G02X69800Y52100I3825J2557D01*
G01Y55400D01*
X82100D01*
Y56175D01*
X87300D01*
Y55401D01*
G03X95598Y56653I202J26788D01*
G01X95745Y56700D01*
X95880D01*
X95884D01*
G02X95925Y56701I45J-999D01*
G01X101075D01*
G02X101116Y56700I-4J-1000D01*
G01X101120D01*
X102100D01*
Y49500D01*
X95900D01*
G03X87742Y47500I0J-17640D01*
G01X77601D01*
Y43475D01*
G02X77318Y42779I-1000J1D01*
G03Y42221I287J-279D01*
G02X77601Y41525I-717J-697D01*
G01Y41083D01*
G03X78185Y40728I400J0D01*
G02X79200Y40976I1015J-1953D01*
G02Y36574I0J-2201D01*
G02X78185Y36822I0J2201D01*
G03X77601Y36467I-184J-355D01*
G01Y36025D01*
G37*
G36*
G01X40118Y84315D02*
Y88252D01*
G02X41118Y89252I1000J0D01*
G01X45056D01*
G02X46056Y88252I0J-1000D01*
G01Y84315D01*
G02X45056Y83314I-1000J-1D01*
G01X41118D01*
G02X40118Y84315I0J1000D01*
G37*
G36*
G01X33031D02*
Y88252D01*
G02X34032Y89252I1000J0D01*
G01X37968D01*
G02X38969Y88252I1J-1000D01*
G01Y84315D01*
G02X37968Y83314I-1000J-1D01*
G01X34032D01*
G02X33031Y84315I-1J1000D01*
G37*
G36*
G01X25944D02*
Y88252D01*
G02X26944Y89252I1000J0D01*
G01X30882D01*
G02X31882Y88252I0J-1000D01*
G01Y84315D01*
G02X30882Y83314I-1000J-1D01*
G01X26944D01*
G02X25944Y84315I0J1000D01*
G37*
G36*
G01X18858Y91402D02*
Y95339D01*
G02X19859Y96339I1000J0D01*
G01X23796D01*
G02X24796Y95339I0J-1000D01*
G01Y91402D01*
G02X23796Y90401I-1000J-1D01*
G01X19859D01*
G02X18858Y91402I-1J1000D01*
G37*
G36*
G01Y98489D02*
Y102426D01*
G02X19859Y103426I1000J0D01*
G01X23796D01*
G02X24796Y102426I0J-1000D01*
G01Y98489D01*
G02X23796Y97488I-1000J-1D01*
G01X19859D01*
G02X18858Y98489I-1J1000D01*
G37*
G36*
G01Y105574D02*
Y109511D01*
G02X19859Y110512I1000J1D01*
G01X23796D01*
G02X24796Y109511I0J-1000D01*
G01Y105574D01*
G02X23796Y104574I-1000J0D01*
G01X19859D01*
G02X18858Y105574I-1J1000D01*
G37*
G36*
G01Y112661D02*
Y116598D01*
G02X19859Y117599I1000J1D01*
G01X23796D01*
G02X24796Y116598I0J-1000D01*
G01Y112661D01*
G02X23796Y111661I-1000J0D01*
G01X19859D01*
G02X18858Y112661I-1J1000D01*
G37*
G36*
G01X40118Y119748D02*
Y123685D01*
G02X41118Y124686I1000J1D01*
G01X45056D01*
G02X46056Y123685I0J-1000D01*
G01Y119748D01*
G02X45056Y118748I-1000J0D01*
G01X41118D01*
G02X40118Y119748I0J1000D01*
G37*
G36*
G01X47204Y105574D02*
Y109511D01*
G02X48204Y110512I1000J1D01*
G01X52141D01*
G02X53142Y109511I1J-1000D01*
G01Y105574D01*
G02X52141Y104574I-1000J0D01*
G01X48204D01*
G02X47204Y105574I0J1000D01*
G37*
G36*
G01Y98489D02*
Y102426D01*
G02X48204Y103426I1000J0D01*
G01X52141D01*
G02X53142Y102426I1J-1000D01*
G01Y98489D01*
G02X52141Y97488I-1000J-1D01*
G01X48204D01*
G02X47204Y98489I0J1000D01*
G37*
G36*
G01Y91402D02*
Y95339D01*
G02X48204Y96339I1000J0D01*
G01X52141D01*
G02X53142Y95339I1J-1000D01*
G01Y91402D01*
G02X52141Y90401I-1000J-1D01*
G01X48204D01*
G02X47204Y91402I0J1000D01*
G37*
G36*
G01X41000Y187500D02*
Y193500D01*
G02X42000Y194500I1000J0D01*
G01X48000D01*
G02X49000Y193500I0J-1000D01*
G01Y187500D01*
G02X48000Y186500I-1000J0D01*
G01X42000D01*
G02X41000Y187500I0J1000D01*
G37*
G36*
G01X152000Y70500D02*
Y76500D01*
G02X153000Y77500I1000J0D01*
G01X159000D01*
G02X160000Y76500I0J-1000D01*
G01Y70500D01*
G02X159000Y69500I-1000J0D01*
G01X153000D01*
G02X152000Y70500I0J1000D01*
G37*
G36*
G01X141673Y2760D02*
Y8660D01*
G02X142673Y9660I1000J0D01*
G01X145873D01*
G02X146873Y8660I0J-1000D01*
G01Y2760D01*
G02X145873Y1760I-1000J0D01*
G01X142673D01*
G02X141673Y2760I0J1000D01*
G37*
G36*
G01X113327D02*
Y8660D01*
G02X114327Y9660I1000J0D01*
G01X117527D01*
G02X118527Y8660I0J-1000D01*
G01Y2760D01*
G02X117527Y1760I-1000J0D01*
G01X114327D01*
G02X113327Y2760I0J1000D01*
G37*
G36*
G01X106965Y162731D02*
G02X106199Y164400I1435J1669D01*
G02X108400Y166601I2201J0D01*
G02X110098Y165800I0J-2200D01*
G01X111001D01*
G02X111156Y165792I5J-1400D01*
G01X111167Y165790D01*
X112280D01*
G02X112881Y165991I601J-799D01*
G01X117582D01*
G02X118583Y164991I1J-1000D01*
G01Y163790D01*
G02X118506Y163406I-1000J1D01*
G02X118583Y163022I-923J-385D01*
G01Y161820D01*
G02X118506Y161437I-1000J2D01*
G02X118583Y161054I-923J-385D01*
G01Y159852D01*
G02X118506Y159468I-1000J1D01*
G02X118583Y159084I-923J-385D01*
G01Y157883D01*
G02X118506Y157500I-1000J2D01*
G02X118583Y157117I-923J-385D01*
G01Y156476D01*
X118870D01*
X118930Y156540D01*
G02X120550Y157251I1620J-1490D01*
G02X122751Y155050I0J-2201D01*
G02X122718Y154670I-2201J0D01*
G03X123110Y154201I394J-69D01*
G02X125301Y152000I-10J-2201D01*
G02X123193Y149801I-2201J0D01*
G01X123192D01*
X122995Y149792D01*
G02X123004Y149600I-2195J-199D01*
G02X120800Y147396I-2204J0D01*
G02X118896Y148490I0J2204D01*
G01X118892Y148498D01*
X118583D01*
Y148042D01*
G02X118506Y147657I-1000J0D01*
G02X118583Y147273I-923J-385D01*
G01Y146072D01*
G02X117582Y145072I-1000J0D01*
G01X112881D01*
G02X111881Y146072I0J1000D01*
G01Y147273D01*
G02X111958Y147657I1000J-1D01*
G02X111881Y148042I923J385D01*
G01Y149243D01*
G02X111957Y149626I1000J1D01*
G02X111881Y150009I924J382D01*
G01Y151210D01*
G02X111958Y151594I1000J-1D01*
G02X111881Y151978I923J385D01*
G01Y152790D01*
G03X111376Y153176I-400J0D01*
G02X110800Y153099I-577J2124D01*
G02X108599Y155300I0J2201D01*
G02X108617Y155583I2201J2D01*
G03X108463Y155803I-198J25D01*
G02X106749Y157950I488J2147D01*
G02X107264Y159365I2201J0D01*
G03X107251Y159636I-153J128D01*
G02X106599Y161200I1550J1564D01*
G02X106998Y162464I2202J0D01*
G03X106965Y162731I-163J115D01*
G37*
G36*
G01X118100Y22100D02*
X119133D01*
G03X119516Y22614I0J400D01*
G02X119489Y22733I960J280D01*
G01X119461Y22900D01*
X118525D01*
Y28100D01*
X119461D01*
X119489Y28267D01*
G02X119725Y28762I986J-166D01*
G01Y29900D01*
X119584D01*
G02X119384Y30104I0J200D01*
G01X119392Y30497D01*
G03X118992Y30900I-400J3D01*
G01X118525D01*
Y36100D01*
X118670D01*
Y36404D01*
G03X118600Y36454I-5027J-6964D01*
G01X118583Y36465D01*
G03X115401Y37818I-4883J-7065D01*
G01X115055D01*
G02X114586Y37935I0J1000D01*
G01X114555Y37951D01*
X114000Y38027D01*
Y42400D01*
X113513D01*
X113457Y42350D01*
G02X112000Y41799I-1457J1650D01*
G02Y46201I0J2201D01*
G02X113457Y45650I0J-2201D01*
G01X113513Y45600D01*
X114000D01*
Y50300D01*
X122314D01*
X124244Y48370D01*
G03X124344Y48273I4732J4779D01*
G03X126986Y46709I4656J4852D01*
G03X127500Y47092I114J383D01*
G01Y52830D01*
G02X124000Y57600I1500J4770D01*
G01Y65000D01*
G02X125025Y67475I3501J0D01*
G01X126984Y69434D01*
X126920Y69563D01*
G02X123601Y83299I28013J14038D01*
G02X123581Y83500I980J199D01*
G01Y87500D01*
G02X123597Y87677I1000J-1D01*
G01X123600Y87694D01*
Y88500D01*
X130081D01*
G02X130120I20J-1000D01*
G02X139700Y78800I-121J-9700D01*
G01Y77499D01*
G03X140128Y77100I400J0D01*
G01X145491Y77468D01*
X145497D01*
G02X145966Y77500I506J-3968D01*
G02X149775Y71691I239J-3996D01*
G01Y65762D01*
G02X150011Y65267I-750J-661D01*
G01X150039Y65100D01*
X150975D01*
Y59900D01*
X150039D01*
X150011Y59733D01*
G02X149025Y58899I-986J166D01*
G01X143525D01*
G02X142525Y59899I0J1000D01*
G01Y65101D01*
G02X142775Y65762I1000J0D01*
G01Y68318D01*
G03X142297Y68710I-400J0D01*
G01X139588Y68176D01*
X139586Y68009D01*
X138703Y68001D01*
X138693Y67999D01*
X138600Y68000D01*
X135419Y67969D01*
X135159Y67709D01*
X135328Y67540D01*
X135363Y67525D01*
G02X136701Y65500I-863J-2025D01*
G02X136597Y64830I-2201J-1D01*
G03X136722Y64580I190J-61D01*
G02X138201Y62500I-723J-2080D01*
G02X138071Y61755I-2201J0D01*
G03X138177Y61505I188J-68D01*
G02X139469Y59500I-910J-2005D01*
G02X137271Y57299I-2201J0D01*
G01X137188D01*
X136968Y57079D01*
Y53951D01*
X138500D01*
G02X139500Y52951I0J-1000D01*
G01Y46049D01*
G02X139031Y45201I-1001J0D01*
G01X138937Y45143D01*
Y42722D01*
X139836Y41824D01*
G02X140275Y40763I-1061J-1060D01*
G01Y37101D01*
X141525D01*
G02X142511Y36267I0J-1000D01*
G01X142539Y36100D01*
X143475D01*
Y30900D01*
X142539D01*
X142511Y30733D01*
G02X141525Y29899I-986J166D01*
G01X136025D01*
G02X135025Y30899I0J1000D01*
G01Y31625D01*
X134601D01*
Y30475D01*
G02X134318Y29779I-1000J1D01*
G03Y29221I287J-279D01*
G02X134601Y28525I-717J-697D01*
G01Y27100D01*
X135025D01*
Y28101D01*
G02X136025Y29101I1000J0D01*
G01X141525D01*
G02X142511Y28267I0J-1000D01*
G01X142539Y28100D01*
X143475D01*
Y22900D01*
X142539D01*
X142511Y22733D01*
G02X141525Y21899I-986J166D01*
G01X136025D01*
G02X135025Y22899I0J1000D01*
G01Y23900D01*
X134601D01*
Y23025D01*
G02X133601Y22025I-1000J0D01*
G01X128399D01*
G02X127399Y23025I0J1000D01*
G01Y23900D01*
X126975D01*
Y22899D01*
G02X126630Y22143I-1000J0D01*
G01X126540Y22065D01*
X126942Y20237D01*
G02X126974Y20062I-2442J-537D01*
G01X126999Y19891D01*
X133459D01*
G02X134459Y18891I0J-1000D01*
G01Y13591D01*
G02X133459Y12591I-1000J0D01*
G01X124182D01*
G02X123182Y13591I0J1000D01*
G01Y15439D01*
G03X122449Y15661I-400J0D01*
G02X120553Y14648I-1895J1267D01*
G02X118273Y16927I0J2280D01*
G01Y17715D01*
G02X118322Y18180I2280J-5D01*
G01X118344Y18286D01*
X118126Y18504D01*
X107184Y7563D01*
X107231Y7442D01*
G02X107500Y6000I-3731J-1442D01*
G02X99500I-4000J0D01*
G02X101200Y9273I4001J0D01*
G03X100970Y10000I-230J327D01*
G01X99621D01*
X97500Y7879D01*
Y3000D01*
G02X96500Y2000I-1000J0D01*
G01X90500D01*
G02X89500Y3000I0J1000D01*
G01Y9000D01*
G02X90500Y10000I1000J0D01*
G01X95379D01*
X97939Y12561D01*
G02X99000Y13000I1060J-1061D01*
G01X104479D01*
X111699Y20220D01*
Y20303D01*
G02X113900Y22501I2201J-3D01*
G02X115883Y21256I0J-2202D01*
G03X116526Y21147I360J174D01*
G01X117039Y21661D01*
G02X118100Y22100I1060J-1061D01*
G37*
G36*
G01X72413Y108163D02*
X72040D01*
X72015Y107992D01*
G02X71151Y106477I-2354J339D01*
G03Y105854I251J-311D01*
G02Y102146I-1489J-1854D01*
G03Y101523I251J-311D01*
G02X72040Y99669I-1489J-1854D01*
G02X71152Y97816I-2378J0D01*
G03Y97192I251J-312D01*
G02X72040Y95339I-1490J-1853D01*
G02X71151Y93485I-2378J0D01*
G03Y92862I251J-312D01*
G02X72040Y91008I-1489J-1854D01*
G02X71152Y89154I-2378J-1D01*
G03Y88531I250J-311D01*
G02X72040Y86677I-1490J-1853D01*
G02X71151Y84823I-2378J0D01*
G03Y84200I251J-311D01*
G02X72040Y82346I-1489J-1854D01*
G02X69662Y79968I-2378J0D01*
G01X62574D01*
G02X60196Y82346I0J2378D01*
G02X61085Y84200I2378J0D01*
G03Y84823I-251J312D01*
G02X60196Y86677I1489J1854D01*
G02X61085Y88531I2378J0D01*
G03Y89154I-251J312D01*
G02X60196Y91008I1489J1854D01*
G02X61085Y92862I2378J0D01*
G03Y93485I-251J311D01*
G02X60196Y95339I1489J1854D01*
G02X61084Y97192I2378J0D01*
G03Y97816I-250J312D01*
G02X60196Y99669I1490J1853D01*
G02X61085Y101523I2378J0D01*
G03Y102146I-251J311D01*
G02Y105854I1490J1854D01*
G03Y106477I-251J311D01*
G02X60196Y108331I1489J1854D01*
G02X61084Y110184I2378J0D01*
G03Y110808I-250J312D01*
G02X60196Y112661I1490J1853D01*
G02X61085Y114515I2378J0D01*
G03Y115138I-251J311D01*
G02X60652Y115592I1490J1854D01*
G01X56890D01*
G02X55192Y114791I-1698J1400D01*
G02X53795Y115291I0J2201D01*
G03X53142Y114982I-253J-309D01*
G01Y112661D01*
G02X52141Y111661I-1000J0D01*
G01X48204D01*
G02X47204Y112661I0J1000D01*
G01Y116598D01*
G02X48204Y117599I1000J1D01*
G01X52141D01*
G02X52570Y117502I-1J-1000D01*
G03X53118Y117730I171J362D01*
G02X55192Y119193I2074J-738D01*
G02X56890Y118392I0J-2201D01*
G01X60652D01*
G02X61085Y118846I1922J-1400D01*
G03Y119469I-251J311D01*
G02X60652Y119923I1489J1854D01*
G01X59721D01*
G02X58023Y119122I-1698J1400D01*
G02X55822Y121323I0J2201D01*
G02X56714Y123093I2201J0D01*
G03X56680Y123759I-238J322D01*
G02X55599Y125654I1120J1895D01*
G02X56573Y127481I2201J0D01*
G03X56571Y128147I-223J332D01*
G02X55583Y129984I1213J1837D01*
G02X57784Y132185I2201J0D01*
G02X59482Y131384I0J-2201D01*
G01X60652D01*
G02X62575Y132362I1922J-1400D01*
G01X69662D01*
G02X72039Y130032I-1J-2378D01*
G03X72525Y129649I400J8D01*
G02X72863Y129697I478J-2149D01*
G01X72939Y129702D01*
X79954Y136717D01*
G03X79671Y137400I-283J283D01*
G01X76804D01*
X75100Y140546D01*
Y143985D01*
X78400Y146585D01*
Y148300D01*
X84909D01*
X84960Y148425D01*
G02X85600Y149297I2040J-826D01*
G01Y152286D01*
X85460Y152426D01*
G03X85119Y152284I-141J-142D01*
G01Y151978D01*
G02X85042Y151594I-1000J1D01*
G02X85119Y151210I-923J-385D01*
G01Y150009D01*
G02X84119Y149009I-1000J0D01*
G01X79418D01*
G02X78817Y149210I0J1000D01*
G01X75891D01*
G02X75147Y149423I-2J1400D01*
G03X74560Y149225I-213J-339D01*
G02X72500Y147799I-2060J775D01*
G02X70802Y148600I0J2200D01*
G01X25698D01*
G02X24000Y147799I-1698J1399D01*
G02Y152201I0J2201D01*
G02X24881Y152017I0J-2201D01*
G03X25436Y152445I160J367D01*
G02X25425Y152599I989J148D01*
G01Y153092D01*
G03X24790Y153416I-400J0D01*
G02X23500Y152999I-1289J1784D01*
G02Y157401I0J2201D01*
G02X24790Y156984I1J-2201D01*
G03X25425Y157308I235J324D01*
G01Y157801D01*
G02X26425Y158801I1000J0D01*
G01X33369D01*
G03X33758Y159293I0J400D01*
G02X33699Y159802I2142J506D01*
G02X35900Y162003I2201J0D01*
G02X37598Y161202I0J-2200D01*
G01X39071D01*
G02X40061Y160792I0J-1400D01*
G01X41900Y158953D01*
X44150D01*
G02X44490Y158911I0J-1400D01*
G01X44514Y158905D01*
X51649D01*
G03X51932Y159588I0J400D01*
G01X49250Y162270D01*
G03X48691Y162277I-283J-283D01*
G02X48000Y162000I-691J723D01*
G01X42000D01*
G02X41000Y163000I0J1000D01*
G01Y169000D01*
G02X42000Y170000I1000J0D01*
G01X47469D01*
G03X47858Y170492I0J400D01*
G02X47799Y171000I2142J506D01*
G02X52201I2201J0D01*
G02X51467Y169359I-2201J0D01*
G01X51400Y169299D01*
Y169020D01*
G03X52091Y168746I400J0D01*
G02X55000Y170000I2909J-2747D01*
G02Y162000I0J-4000D01*
G02X53841Y162171I-2J4000D01*
G03X53642Y161839I-57J-191D01*
G01X54080Y161400D01*
X66502D01*
G02X66626Y161395I6J-1400D01*
G03X66944Y162076I35J398D01*
G01X66661Y162359D01*
X66538Y162307D01*
G02X65000Y162000I-1537J3693D01*
G02Y170000I0J4000D01*
G02X68091Y168540I1J-4000D01*
G03X68800Y168793I309J254D01*
G01Y170220D01*
X66661Y172359D01*
X66538Y172307D01*
G02X65000Y172000I-1537J3693D01*
G02Y180000I0J4000D01*
G02X65381Y179982I2J-4000D01*
G03X65702Y180663I38J398D01*
G01X64965Y181400D01*
X62508D01*
X59088Y177980D01*
G02X58792Y177754I-990J990D01*
G03X58706Y177505I99J-174D01*
G02X59000Y176000I-3705J-1505D01*
G02X55000Y180000I-4000J0D01*
G02X56538Y179693I1J-4000D01*
G01X56661Y179641D01*
X56980Y179960D01*
G02X57394Y180246I990J-990D01*
G01X59465Y182317D01*
G03X59182Y183000I-283J283D01*
G01X53980D01*
X48641Y177661D01*
X48693Y177538D01*
G02X49000Y176000I-3693J-1537D01*
G02X45000Y180000I-4000J0D01*
G02X46538Y179693I1J-4000D01*
G01X46661Y179641D01*
X52410Y185390D01*
G02X53400Y185800I990J-990D01*
G01X56754D01*
G03X57037Y186483I0J400D01*
G01X56660Y186860D01*
G02X55000Y186500I-1659J3640D01*
G02X59000Y190500I0J4000D01*
G02X58640Y188840I-4000J-1D01*
G01X60080Y187400D01*
X61525D01*
G03X61841Y188046I0J400D01*
G02X61000Y190500I3160J2454D01*
G02X69000I4000J0D01*
G02X68640Y188840I-4000J-1D01*
G01X73280Y184200D01*
X78354D01*
G03X78637Y184883I0J400D01*
G01X76660Y186860D01*
G02X75000Y186500I-1659J3640D01*
G02X79000Y190500I0J4000D01*
G02X78640Y188840I-4000J-1D01*
G01X81580Y185900D01*
X86654D01*
G03X86937Y186583I0J400D01*
G01X86660Y186860D01*
G02X85000Y186500I-1659J3640D01*
G02X89000Y190500I0J4000D01*
G02X88640Y188840I-4000J-1D01*
G01X89980Y187500D01*
X91450D01*
G03X91773Y188136I0J400D01*
G02X91000Y190500I3228J2364D01*
G02X99000I4000J0D01*
G02X98640Y188840I-4000J-1D01*
G01X105275Y182205D01*
G03X105958Y182488I283J283D01*
G01Y186135D01*
G03X105507Y186532I-400J0D01*
G02X105000Y186500I-505J3968D01*
G02X109000Y190500I0J4000D01*
G02X108608Y188773I-4000J0D01*
G02X108758Y188142I-1250J-631D01*
G01Y187204D01*
G03X109441Y186921I400J0D01*
G01X111360Y188840D01*
G02X111000Y190500I3640J1659D01*
G02X115000Y186500I4000J0D01*
G02X113340Y186860I-1J4000D01*
G01X110727Y184247D01*
Y177183D01*
G02X110928Y176582I-799J-601D01*
G01Y171881D01*
G02X109928Y170881I-1000J0D01*
G01X106757D01*
G02X106374Y170957I-1J1000D01*
G02X105991Y170881I-382J924D01*
G01X102820D01*
G02X102437Y170958I2J1000D01*
G02X102054Y170881I-385J923D01*
G01X98883D01*
G02X98500Y170958I2J1000D01*
G02X98117Y170881I-385J923D01*
G01X94946D01*
G02X94563Y170958I2J1000D01*
G02X94180Y170881I-385J923D01*
G01X91009D01*
G02X90009Y171881I0J1000D01*
G01Y176582D01*
G02X90136Y177071I1000J1D01*
G01X90210Y177202D01*
Y177203D01*
X89983Y177430D01*
G03X89300Y177147I-283J-283D01*
G01Y170800D01*
X88277D01*
G03X88004Y170108I0J-400D01*
G02X88701Y168500I-1504J-1607D01*
G02X88129Y167019I-2201J-1D01*
G03Y166481I296J-269D01*
G02X88701Y165000I-1629J-1480D01*
G01Y164999D01*
G02X88693Y164807I-2201J-4D01*
G03X88859Y164593I199J-17D01*
G02X90701Y162421I-359J-2172D01*
G02X88821Y160243I-2201J0D01*
G03X88650Y160038I29J-198D01*
G02X88651Y159960I-2200J-67D01*
G02X86450Y157759I-2201J0D01*
G02X85627Y157918I-2J2201D01*
G03X85090Y157643I-149J-371D01*
G02X85042Y157500I-969J246D01*
G02X85119Y157117I-923J-385D01*
G01Y156147D01*
G03X85319Y155947I200J0D01*
G02X86309Y155537I0J-1400D01*
G01X87990Y153856D01*
G02X88400Y152866I-990J-990D01*
G01Y149297D01*
G02X89201Y147599I-1400J-1698D01*
G02X87000Y145398I-2201J0D01*
G02X85447Y146039I0J2202D01*
G03X85108Y145926I-141J-142D01*
G02X85103Y145896I-989J149D01*
G01X85100Y145879D01*
Y145280D01*
X86149Y144100D01*
X86879D01*
X86896Y144103D01*
G02X87072Y144119I178J-984D01*
G01X90243D01*
G02X90626Y144043I1J-1000D01*
G02X91009Y144119I382J-924D01*
G01X94180D01*
G02X94563Y144042I-2J-1000D01*
G02X94946Y144119I385J-923D01*
G01X97270D01*
G03X97610Y144729I0J400D01*
G02X97283Y145884I1874J1154D01*
G02X101685I2201J0D01*
G02X100951Y144243I-2201J0D01*
G01X100884Y144183D01*
Y143723D01*
X100918Y143672D01*
G02X101085Y143119I-833J-553D01*
G01Y138418D01*
G02X100084Y137417I-1001J-1D01*
G01X98916D01*
Y132438D01*
X101417Y129937D01*
X107917D01*
G02X108917Y128937I0J-1000D01*
G01Y121063D01*
G02X107917Y120063I-1000J0D01*
G01X105577D01*
Y119352D01*
G02X105167Y118362I-1400J0D01*
G01X103122Y116317D01*
G03X103264Y115975I141J-142D01*
G01X103601D01*
G02X104601Y114975I0J-1000D01*
G01Y109475D01*
G02X103767Y108489I-1000J0D01*
G01X103600Y108461D01*
Y107525D01*
X98400D01*
Y108461D01*
X98233Y108489D01*
G02X97399Y109475I166J986D01*
G01Y114975D01*
G02X98399Y115975I1000J0D01*
G01X99600D01*
Y116175D01*
G02X100010Y117165I1400J0D01*
G01X102225Y119380D01*
G03X101942Y120063I-283J283D01*
G01X100437D01*
G02X99437Y121063I0J1000D01*
G01Y127957D01*
X96500Y130894D01*
X93563Y127957D01*
Y121063D01*
G02X92563Y120063I-1000J0D01*
G01X91558D01*
G03X91275Y119380I0J-400D01*
G01X93490Y117165D01*
G02X93900Y116175I-990J-990D01*
G01Y115975D01*
X95101D01*
G02X96101Y114975I0J-1000D01*
G01Y109475D01*
G02X95267Y108489I-1000J0D01*
G01X95100Y108461D01*
Y107525D01*
X89900D01*
Y108461D01*
X89733Y108489D01*
G02X89247Y108717I166J986D01*
G03X88587Y108413I-260J-304D01*
G01Y107760D01*
G02X87952Y106829I-1000J0D01*
G03X87814Y106176I147J-372D01*
G02X88101Y105475I-713J-701D01*
G01Y99975D01*
G02X87267Y98989I-1000J0D01*
G01X87100Y98961D01*
Y98025D01*
X81900D01*
Y98961D01*
X81733Y98989D01*
G02X80899Y99975I166J986D01*
G01Y105475D01*
G02X81899Y106475I1000J0D01*
G01X82170D01*
G03X82480Y107128I0J400D01*
G02X82255Y107760I775J632D01*
G01Y114260D01*
X77662Y118853D01*
G03X76979Y118570I-283J-283D01*
G01Y116240D01*
X77745D01*
G02X78745Y115240I0J-1000D01*
G01Y107760D01*
G02X78520Y107128I-1000J0D01*
G03X78830Y106475I310J-253D01*
G01X79101D01*
G02X80101Y105475I0J-1000D01*
G01Y99975D01*
G02X79267Y98989I-1000J0D01*
G01X79100Y98961D01*
Y98025D01*
X73900D01*
Y98961D01*
X73733Y98989D01*
G02X72899Y99975I166J986D01*
G01Y105475D01*
G02X73186Y106176I1000J0D01*
G03X73048Y106829I-285J281D01*
G02X72413Y107760I365J931D01*
G01Y108163D01*
G37*
G54D57*
X190500Y118500D03*
X135000Y190500D03*
X145000D03*
X155000D03*
X125000D03*
G54D58*
X98500Y68874D03*
G54D53*
Y44858D03*
Y77142D03*
G54D54*
X53201Y27803D03*
X80799D03*
G54D59*
X58142Y18000D03*
X75858D03*
G54D55*
X98425Y23622D03*
G54D60*
X139647Y17321D03*
G54D56*
X173228Y173228D03*
X23622Y23622D03*
X173228D03*
X23622Y173228D03*
%LPD*%
G75*
G36*
G01X43300Y73500D02*
Y63400D01*
X49200Y58000D01*
X60600D01*
Y63400D01*
X52100D01*
X50300Y65300D01*
Y73800D01*
X49100Y75000D01*
X44500D01*
X43300Y73500D01*
G37*
G36*
G01X70800Y52100D02*
G03X74400Y48500I3600J0D01*
G01X87500D01*
G02X95900Y50500I8400J-16640D01*
G01X101100D01*
Y55700D01*
X95900D01*
G02X87500Y54400I-8400J26488D01*
G01X70800D01*
Y52100D01*
G37*
G36*
G01X68100Y61119D02*
G02X68700Y62400I1668J0D01*
G01X75300Y67900D01*
X72400Y72500D01*
X63600Y72400D01*
X55400Y63900D01*
Y58000D01*
X60600D01*
G02X68100Y59700I7500J-15694D01*
G01Y61119D01*
G37*
G36*
G01X72456Y125367D02*
G03X73000Y125299I543J2133D01*
G03X73898Y125490I1J2201D01*
G02X74179Y125304I81J-183D01*
G03Y125279I1400J-12D01*
G01Y116240D01*
X73414D01*
G03X72413Y115240I-1J-1000D01*
G01Y114140D01*
G02X71675Y113927I-400J0D01*
G03X71151Y114515I-2013J-1266D01*
G02Y115138I251J311D01*
G03X72040Y116992I-1489J1854D01*
G03X71152Y118846I-2378J1D01*
G02Y119469I250J311D01*
G03X72040Y121323I-1490J1853D01*
G03X71151Y123177I-2378J0D01*
G02Y123800I251J311D01*
G03X71969Y125077I-1489J1854D01*
G02X72456Y125367I388J-97D01*
G37*
G36*
G01X68641Y174339D02*
X68693Y174462D01*
G03X69000Y176000I-3693J1537D01*
G03X68982Y176381I-4000J2D01*
G02X69663Y176702I398J38D01*
G01X78417Y167948D01*
Y167727D01*
G03X78494Y167343I1000J1D01*
G03X78417Y166958I923J-385D01*
G01Y165757D01*
G03X78494Y165374I1000J2D01*
G03X78417Y164991I923J-385D01*
G01Y163790D01*
G03X78494Y163406I1000J1D01*
G03X78417Y163022I923J-385D01*
G01Y161820D01*
G03X78494Y161437I1000J2D01*
G03X78417Y161054I923J-385D01*
G01Y159884D01*
X75495D01*
X71600Y163779D01*
Y170800D01*
G03X71190Y171790I-1400J0D01*
G01X68641Y174339D01*
G37*
G36*
G01X73091Y178200D02*
X89213D01*
X89471Y177942D01*
G02X89330Y177600I-141J-142D01*
G01X86869D01*
X86662Y177499D01*
G02X80900Y176446I-4762J9768D01*
G01Y176096D01*
G03Y172254I1075J-1921D01*
G01Y171954D01*
G02X81654Y171997I995J-10821D01*
G03X81975Y171974I317J2178D01*
G03X82270Y171994I-1J2201D01*
G02X85718Y171307I-371J-10860D01*
G02X85720Y170558I-140J-375D01*
G03X84688Y169750I779J-2059D01*
G03X84119Y169928I-570J-822D01*
G01X80398D01*
X72808Y177517D01*
G02X73091Y178200I283J283D01*
G37*
G36*
G01X98200Y63600D02*
G03X107000Y72400I0J8800D01*
G01Y75000D01*
G02X115800Y83800I8800J0D01*
G01X121700D01*
Y76000D01*
X121900Y55800D01*
X115100Y55900D01*
G03X98500Y58500I-16600J-51692D01*
G01X98200Y63600D01*
G37*
G36*
G01X78966Y124286D02*
X83400Y128720D01*
G02X84083Y128437I283J-283D01*
G01Y121063D01*
G03X85083Y120063I1000J0D01*
G01X87423D01*
Y119852D01*
G03X87833Y118862I1400J0D01*
G01X90378Y116317D01*
G02X90236Y115975I-141J-142D01*
G01X89899D01*
G03X89136Y115622I0J-1000D01*
G02X88476Y115698I-305J259D01*
G03X87586Y116240I-889J-458D01*
G01X84235D01*
X78966Y121509D01*
Y124286D01*
G37*
G36*
G01X79400Y147300D02*
X84100D01*
Y144900D01*
X85700Y143100D01*
X88200D01*
Y138400D01*
X77400D01*
X76100Y140800D01*
Y143500D01*
X79400Y146100D01*
Y147300D01*
G37*
G36*
G01X81900Y173000D02*
Y175400D01*
G03X87100Y176600I0J11867D01*
G01X88300D01*
Y171800D01*
X87100D01*
G03X81900Y173000I-5200J-10667D01*
G37*
G36*
G01X87900Y177600D02*
X88000D01*
G02X89000Y176600I0J-1000D01*
G01Y171800D01*
X90300D01*
Y177100D01*
X89200Y178200D01*
X87900D01*
Y177600D01*
G37*
G36*
G01X115000Y49300D02*
X121900D01*
X123537Y47663D01*
G03X129000Y45400I5463J5463D01*
G01X130000D01*
Y42600D01*
G02X128000Y39300I-3722J0D01*
G03X126000Y36000I1722J-3300D01*
G01Y30900D01*
X120400D01*
X120500Y36100D01*
X120458Y36202D01*
G03X115000Y38900I-6758J-6802D01*
G01Y49300D01*
G37*
G36*
G01X138700Y78800D02*
G03X130000Y87500I-8700J0D01*
G01X124600D01*
Y83600D01*
G03X128400Y68900I30333J0D01*
G01X138600Y69000D01*
X138700Y75800D01*
Y78800D01*
G37*
G36*
G01X120900Y104100D02*
G03X121200Y101350I12754J0D01*
G02X121500Y98600I-12454J-2750D01*
G01Y93500D01*
X110500Y93600D01*
Y111500D01*
X120000Y114500D01*
G03X121000Y108000I4932J-2568D01*
G01X120900Y104100D01*
G37*
G36*
G01X124100Y104300D02*
X129600D01*
Y100300D01*
X129000Y98600D01*
Y93400D01*
X123500D01*
Y98600D01*
X124100Y100300D01*
Y104200D01*
Y104300D01*
G37*
G36*
G01X123500Y98600D02*
Y93400D01*
X129000D01*
X132000Y90400D01*
X137500D01*
Y95600D01*
X132000D01*
X129000Y98600D01*
X123500D01*
G37*
G36*
G01X112900Y169000D02*
G02X116800Y172900I3900J0D01*
G01X126600D01*
Y167500D01*
X121400D01*
X112900Y167800D01*
Y169000D01*
G37*
G36*
G01X133032Y45049D02*
X135937D01*
Y42101D01*
G03X136376Y41041I1500J0D01*
G01X137275Y40142D01*
Y37101D01*
X136025D01*
G03X135025Y36101I0J-1000D01*
G01Y34825D01*
X134601D01*
Y35975D01*
G03X133601Y36975I-1000J0D01*
G01X128399D01*
G03X127400Y36019I0J-1000D01*
G01X127000Y36030D01*
G02X128463Y38413I2722J-31D01*
G03X129005Y38745I-2190J4184D01*
G02X129585Y38615I231J-327D01*
G03X131500Y37499I1915J1085D01*
G03X133701Y39700I0J2201D01*
G03X133032Y41280I-2200J0D01*
G01Y45049D01*
G37*
G36*
G01X125000Y59500D02*
Y57600D01*
G03X129000Y53600I4000J0D01*
G01X130000D01*
Y60100D01*
X125000Y59500D01*
G37*
G36*
G01X128200Y76000D02*
X138700D01*
X146000Y76500D01*
G02X146200Y70500I205J-2996D01*
G01X138600Y69000D01*
X128300Y69100D01*
X128200Y76000D01*
G37*
G36*
G01X131700Y99700D02*
X132000Y95600D01*
Y90400D01*
X137500D01*
X137600Y102400D01*
X131700D01*
Y99700D01*
G37*
G36*
G01X136900Y53600D02*
Y56400D01*
X140500D01*
Y53600D01*
X136900D01*
G37*
G54D10*
X23622Y23622D03*
Y173228D03*
X173228Y23622D03*
Y173228D03*
G54D11*
X17541Y17541D03*
X23622Y15022D03*
X15022Y23622D03*
X16075Y41475D03*
X17541Y29703D03*
X23622Y32222D03*
X6500Y45000D03*
X14500Y72000D03*
Y66500D03*
X15500Y52000D03*
X21500Y54500D03*
Y59500D03*
X20000Y82700D03*
X15000Y98500D03*
Y91500D03*
Y84500D03*
X15400Y119500D03*
X21500D03*
X14500Y125654D03*
X4000Y149500D03*
X24000Y129800D03*
Y150000D03*
X19800Y130600D03*
X23500Y155200D03*
X17541Y167147D03*
X23622Y164628D03*
X15022Y173228D03*
X17541Y179309D03*
X23622Y181828D03*
X29703Y17541D03*
X32222Y23622D03*
X42500Y17500D03*
X50600Y49000D03*
X29703Y29703D03*
X42500Y31500D03*
X29496Y61996D03*
X37200Y62400D03*
X43500Y54000D03*
X51000D03*
X35500Y98500D03*
Y92500D03*
X28500Y98500D03*
X36000Y79000D03*
X28500D03*
Y92500D03*
X50500Y85500D03*
X45500Y79000D03*
X50500D03*
X44500Y92500D03*
X34000Y116500D03*
X38500D03*
X35500Y105000D03*
X44500D03*
X40331Y128631D03*
X32000Y129700D03*
X49000D03*
X28000Y129000D03*
X47646Y155099D03*
X35900Y159802D03*
X50000Y171000D03*
X29703Y167147D03*
X32222Y173228D03*
X29703Y179309D03*
X72500Y5500D03*
X59500D03*
X58500Y45500D03*
Y38500D03*
X52500Y42000D03*
X64500Y70000D03*
X62700Y65300D03*
X68100D03*
X70200Y70000D03*
X76500Y87000D03*
Y80500D03*
X55192Y116992D03*
X58023Y121323D03*
X57800Y125654D03*
X53200Y121400D03*
X73000Y119500D03*
Y123500D03*
X57784Y129984D03*
X72500Y150000D03*
X73000Y127500D03*
X74500Y146500D03*
X58000Y137500D03*
X51900Y146200D03*
X70453Y152651D03*
X68000Y155099D03*
X65505Y157505D03*
X73900Y168900D03*
X75400Y164500D03*
X85500Y5500D03*
Y19500D03*
X89500Y38500D03*
X79200Y38775D03*
X92000Y72500D03*
X86000Y67000D03*
X92000Y62000D03*
X79200Y60800D03*
X83500Y87000D03*
X92500Y97500D03*
X99000D03*
Y92000D03*
X92500D03*
X85500Y118500D03*
X81500Y123000D03*
X96500Y122500D03*
Y117500D03*
X81700Y144000D03*
X78900Y140900D03*
X84400Y140800D03*
X96500Y127000D03*
X101000Y133500D03*
X94500Y146000D03*
X87000Y147599D03*
X99484Y145884D03*
X81975Y174175D03*
X86500Y165000D03*
X88500Y162421D03*
X86450Y159960D03*
X86500Y168500D03*
X89642Y169500D03*
X113900Y20300D03*
X124500Y6000D03*
X110500Y5500D03*
X108500Y25500D03*
X112000Y44000D03*
X108500Y33500D03*
X106500Y48500D03*
X124500Y70000D03*
X124000Y52000D03*
X118200Y101300D03*
X112800Y96100D03*
X112000Y85500D03*
X105500Y97500D03*
X105000Y80500D03*
X126000Y90500D03*
X113300Y103200D03*
X107000Y109000D03*
Y117000D03*
X120800Y149600D03*
X113000Y130000D03*
X110500Y150500D03*
X117000Y142500D03*
X113500Y139500D03*
X113300Y134500D03*
X108950Y157950D03*
X108800Y161200D03*
X108400Y164400D03*
X120550Y155050D03*
X123100Y152000D03*
X110800Y155300D03*
X110400Y167558D03*
X104500Y168000D03*
X120500Y164500D03*
Y161000D03*
X115000Y177000D03*
X122500D03*
X134000Y6000D03*
X146000Y20000D03*
X140000Y11500D03*
X131500Y39700D03*
X135468Y39000D03*
X146000Y39500D03*
X137268Y59500D03*
X136000Y62500D03*
X134500Y65500D03*
X127000Y114900D03*
X140900Y126000D03*
X140800Y121400D03*
X150000Y125000D03*
Y117000D03*
Y108500D03*
X128000Y124000D03*
X150000Y133500D03*
X143000Y148000D03*
X128000Y134000D03*
X131400Y170225D03*
X129700Y154200D03*
X130500Y161900D03*
X144725Y171775D03*
X144500Y177500D03*
X164628Y23622D03*
X173228Y15022D03*
X167147Y17541D03*
X154000Y20000D03*
X173228Y32222D03*
X167147Y29703D03*
X154000Y39500D03*
X162500D03*
X154000Y29500D03*
X169500Y73000D03*
Y57500D03*
X153500Y87500D03*
X169500D03*
X161800Y111000D03*
X161900Y106000D03*
X161800Y116000D03*
X162500Y121000D03*
X158500Y143000D03*
X164628Y173228D03*
X173228Y164628D03*
X167147Y167147D03*
X155000Y165500D03*
X173228Y181828D03*
X167147Y179309D03*
X181828Y23622D03*
X179309Y17541D03*
Y29703D03*
X178500Y44500D03*
X185000Y73000D03*
X185500Y57500D03*
X181600Y99200D03*
X185000Y87500D03*
X194000Y123500D03*
Y114000D03*
Y102500D03*
Y143500D03*
Y133500D03*
X181828Y173228D03*
X179309Y167147D03*
X194000Y153500D03*
X179309Y179309D03*
G54D20*
X45000Y176000D03*
X65000D03*
Y166000D03*
X55000Y176000D03*
Y166000D03*
X75000Y190500D03*
X65000D03*
X55000D03*
X103500Y6000D03*
X95000Y190500D03*
X85000D03*
X125000D03*
X115000D03*
X105000D03*
X146000Y73500D03*
X145000Y190500D03*
X135000D03*
X155000D03*
X190500Y128500D03*
Y118500D03*
Y148500D03*
Y138500D03*
Y158500D03*
G54D12*
X21500Y48925D03*
Y41475D03*
X29500Y48925D03*
Y41475D03*
X74000Y46225D03*
Y38775D03*
X66300Y46225D03*
Y38775D03*
X58000Y53275D03*
Y60725D03*
X76500Y95275D03*
Y102725D03*
X84700Y51475D03*
Y58925D03*
X84500Y95275D03*
X101000Y104775D03*
Y112225D03*
X92500Y104775D03*
Y112225D03*
X84500Y102725D03*
X125500Y170225D03*
Y162775D03*
X131000Y25775D03*
Y33225D03*
X164500Y139225D03*
Y131775D03*
Y146775D03*
Y154225D03*
G54D30*
X81768Y146673D03*
Y148642D03*
Y150610D03*
Y152579D03*
Y154547D03*
Y156516D03*
Y158484D03*
Y160453D03*
Y162421D03*
Y164390D03*
Y166358D03*
Y168327D03*
X115232Y148642D03*
Y146673D03*
Y168327D03*
Y166358D03*
Y164390D03*
Y162421D03*
Y160453D03*
Y158484D03*
Y156516D03*
Y154547D03*
Y152579D03*
Y150610D03*
G54D21*
X45000Y166000D03*
Y190500D03*
X93500Y6000D03*
X156000Y73500D03*
X190500Y108500D03*
G54D13*
X23008Y70142D03*
X18677D03*
Y137858D03*
X23008D03*
X48992Y70142D03*
X44661D03*
X40331D03*
X36000D03*
X31669D03*
X27339D03*
Y137858D03*
X31669D03*
X36000D03*
X40331D03*
X44661D03*
X48992D03*
X53323Y70142D03*
Y137858D03*
G54D40*
X134772Y101000D03*
Y106000D03*
Y111000D03*
Y116000D03*
Y121000D03*
Y126000D03*
Y131000D03*
Y136000D03*
X156228Y101000D03*
Y126000D03*
Y121000D03*
Y116000D03*
Y111000D03*
Y106000D03*
Y136000D03*
Y131000D03*
G54D31*
X99484Y140768D03*
X97516D03*
X95547D03*
X93579D03*
X91610D03*
X89642D03*
X87673D03*
Y174232D03*
X89642D03*
X91610D03*
X93579D03*
X95547D03*
X97516D03*
X99484D03*
X109327Y140768D03*
X107358D03*
X105390D03*
X103421D03*
X101453D03*
Y174232D03*
X103421D03*
X105390D03*
X107358D03*
X109327D03*
G54D22*
X75858Y18000D03*
X58142D03*
G54D50*
G01X118500Y60965D02*
Y70535D01*
G54D41*
X154300Y177400D03*
X134300D03*
G54D14*
X15007Y58900D03*
X3393D03*
G54D23*
X65167Y53260D03*
Y60740D03*
X73833D03*
Y57000D03*
Y53260D03*
G54D32*
X115927Y5710D03*
X144273D03*
G54D51*
G01X196850Y39370D02*
Y157480D01*
G03X157480Y196850I-39370J0D01*
G01X39370D01*
G03X0Y157480I0J-39370D01*
G01Y39370D01*
G03X39370Y0I39370J0D01*
G01X157480D01*
G03X196850Y39370I0J39370D01*
G54D15*
X9200Y64904D03*
G54D33*
X120553Y17321D03*
X139647D03*
G54D24*
X75579Y111500D03*
X85421D03*
G54D42*
X176240Y99169D03*
X168760D03*
X172500Y107831D03*
G54D52*
G01X23622Y23622D02*
Y32222D01*
G01Y11623D02*
Y23622D01*
G01X11623D02*
X23622D01*
G01D02*
X35621D01*
G01X21500Y41475D02*
X16075D01*
G01X29500Y48925D02*
X21500D01*
G01X23600Y36300D02*
X23622Y36278D01*
G01D02*
Y32222D01*
G01X14500Y72000D02*
Y77200D01*
X20000Y82700D01*
G01X40331Y128631D02*
X37200Y125500D01*
X18600D01*
X4000Y140100D01*
Y149500D01*
G01X24000Y129800D02*
X27339Y133139D01*
Y137858D01*
G01X72500Y150000D02*
X24000D01*
G01X5882Y125654D02*
X14500D01*
G01X29175Y155200D02*
X23500D01*
G01X23622Y173228D02*
Y181828D01*
G01Y161229D02*
Y173228D01*
G01X11623D02*
X23622D01*
G01D02*
X35621D01*
G01X23700Y186100D02*
X23622Y186022D01*
G01D02*
Y181828D01*
G01X50600Y49000D02*
X44925D01*
X44725Y49200D01*
G01X29775Y57200D02*
Y53150D01*
X29500Y52875D01*
Y48925D01*
G01X37275Y49200D02*
Y53349D01*
X37225Y53399D01*
Y57200D01*
G01X37275Y49200D02*
Y41200D01*
G01X29496Y61996D02*
Y57479D01*
X29775Y57200D01*
G01X37200Y62400D02*
Y57225D01*
X37225Y57200D01*
G01X40331Y137858D02*
Y128631D01*
G01X36000Y137858D02*
Y131299D01*
X34401Y129700D01*
X32000D01*
G01X49000D02*
X48992Y129708D01*
Y137858D01*
G01X36625Y155200D02*
X40575D01*
X43124Y152651D01*
X70453D01*
G01X47646Y155099D02*
X68000D01*
G01X35900Y159802D02*
X39071D01*
X41320Y157553D01*
X44150D01*
X44198Y157505D01*
X65505D01*
G01X50000Y171000D02*
Y163500D01*
X53500Y160000D01*
X66501D01*
X75891Y150610D01*
X81768D01*
G01X45000Y161800D02*
Y166000D01*
G01D02*
Y170200D01*
G01Y176000D02*
X53400Y184400D01*
X66337D01*
X71137Y179600D01*
X89793D01*
X91610Y177783D01*
Y174232D01*
G01X58142Y13851D02*
Y18000D01*
G01D02*
Y22149D01*
G01X53993Y18000D02*
X58142D01*
G01D02*
X62291D01*
G01X74000Y50175D02*
Y46225D01*
G01X73833Y53260D02*
Y50342D01*
X74000Y50175D01*
G01Y38775D02*
X66300D01*
G01X74000D02*
X79200D01*
G01Y60800D02*
X79140Y60740D01*
X73833D01*
G01X66118Y116992D02*
X55192D01*
G01X66118Y121323D02*
X58023D01*
G01X53323Y137858D02*
Y121523D01*
X53200Y121400D01*
G01X66118Y125654D02*
X57800D01*
G01X66118Y129984D02*
X57784D01*
G01X81768Y156516D02*
X74484D01*
X65000Y166000D01*
G01Y176000D02*
X70200Y170800D01*
Y163199D01*
X74915Y158484D01*
X81768D01*
G01Y168327D02*
X80018D01*
X65545Y182800D01*
X61928D01*
X58098Y178970D01*
X57970D01*
X55000Y176000D01*
G01X101453Y174232D02*
Y179447D01*
X96400Y184500D01*
X81000D01*
X75000Y190500D01*
G01X65000D02*
X72700Y182800D01*
X95200D01*
X99484Y178516D01*
Y174232D01*
G01X55000Y190500D02*
X59500Y186000D01*
X67000D01*
X71800Y181200D01*
X94099D01*
X97516Y177783D01*
Y174232D01*
G01X75579Y111500D02*
Y103646D01*
X76500Y102725D01*
G01X75579Y111500D02*
Y125279D01*
X83800Y133500D01*
X89000D01*
X91610Y136110D01*
Y140768D01*
G01X85421Y111500D02*
Y103646D01*
X84500Y102725D01*
G01X93579Y140768D02*
Y135579D01*
X89500Y131500D01*
X84200D01*
X77566Y124866D01*
Y120929D01*
X85421Y113074D01*
Y111500D01*
G01X95547Y140768D02*
Y131921D01*
X88823Y125197D01*
Y125000D01*
G01D02*
Y119852D01*
X92500Y116175D01*
Y112225D01*
G01X87000Y147599D02*
Y152866D01*
X85319Y154547D01*
X81768D01*
G01X99484Y140768D02*
Y145884D01*
G01X97516Y140768D02*
Y131858D01*
X104177Y125197D01*
Y125000D01*
G01X86500Y165000D02*
X85890Y164390D01*
X81768D01*
G01X88500Y162421D02*
X81768D01*
G01X86450Y159960D02*
X85957Y160453D01*
X81768D01*
G01X86500Y168500D02*
X84500Y166500D01*
X81910D01*
X81768Y166358D01*
G01X103421Y174232D02*
Y179779D01*
X97100Y186100D01*
X89400D01*
X85000Y190500D01*
G01X105390Y174232D02*
Y180110D01*
X95000Y190500D01*
G01X104177Y125000D02*
Y119352D01*
X101000Y116175D01*
Y112225D01*
G01X120800Y149600D02*
Y149810D01*
X120000Y150610D01*
X115232D01*
G01X108950Y157950D02*
X111453Y160453D01*
X115232D01*
G01X108800Y161200D02*
X110021Y162421D01*
X115232D01*
G01X108400Y164400D02*
X111001D01*
X111011Y164390D01*
X115232D01*
G01X120550Y155050D02*
X120047Y154547D01*
X115232D01*
G01X123100Y152000D02*
X122521Y152579D01*
X115232D01*
G01X107358Y174232D02*
Y188142D01*
X105000Y190500D01*
G01X110800Y155300D02*
Y155600D01*
X111400Y156200D01*
Y157684D01*
X112200Y158484D01*
X115232D01*
G01X109327Y174232D02*
Y184827D01*
X115000Y190500D01*
G01X133500Y44000D02*
X135468D01*
G01Y39000D02*
Y44000D01*
G01X126831Y109740D02*
Y114731D01*
X127000Y114900D01*
G01X134772Y121000D02*
X140400D01*
X140800Y121400D01*
G01X140900Y126000D02*
X134772D01*
G01X144725Y171775D02*
X142091D01*
X136466Y177400D01*
X134300D01*
G01X173228Y23622D02*
Y32222D01*
G01Y11623D02*
Y23622D01*
G01X161229D02*
X173228D01*
G01D02*
X185227D01*
G01X173200Y36500D02*
X173228Y36472D01*
G01D02*
Y32222D01*
G01X156000Y69300D02*
Y73500D01*
G01D02*
Y77700D01*
G01X151800Y73500D02*
X156000D01*
G01D02*
X160200D01*
G01X173228Y173228D02*
Y181828D01*
G01Y161229D02*
Y173228D01*
G01X161229D02*
X173228D01*
G01D02*
X185227D01*
G01X173200Y186100D02*
X173228Y186072D01*
G01D02*
Y181828D01*
G01X190500Y114300D02*
Y118500D01*
G01D02*
Y122700D01*
G01X186300Y118500D02*
X190500D01*
G01D02*
X194700D01*
G54D43*
G01X113900Y20300D02*
X105100Y11500D01*
X99000D01*
X93500Y6000D01*
G01X124982Y16241D02*
Y19600D01*
X123982Y20600D01*
X118100D01*
X103500Y6000D01*
G01X131532Y44000D02*
Y39732D01*
X131500Y39700D01*
G01X138775Y33500D02*
Y40763D01*
X137437Y42101D01*
Y44000D01*
G01X135468Y55000D02*
Y57700D01*
X137268Y59500D01*
G01X133500Y55000D02*
Y60000D01*
X136000Y62500D01*
G01X131532Y55000D02*
Y62532D01*
X134500Y65500D01*
G54D25*
X98425Y23622D03*
G54D34*
X124982Y16241D03*
X135218D03*
X132659D03*
X130100D03*
X127541D03*
G54D16*
X21827Y100457D03*
Y93370D03*
Y114630D03*
Y107543D03*
X28913Y86283D03*
X36000D03*
X43087D03*
X50173Y100457D03*
Y93370D03*
X28913Y121717D03*
X36000D03*
X43087D03*
X50173Y114630D03*
Y107543D03*
G54D44*
G01X123225Y25500D02*
X124500Y19700D01*
G54D17*
X5882Y78016D03*
Y82346D03*
Y86677D03*
Y91008D03*
Y95339D03*
Y99669D03*
Y104000D03*
Y108331D03*
Y112661D03*
Y116992D03*
Y121323D03*
Y125654D03*
Y129984D03*
X66118Y99669D03*
Y95339D03*
Y91008D03*
Y86677D03*
Y82346D03*
Y78016D03*
Y125654D03*
Y121323D03*
Y116992D03*
Y112661D03*
Y108331D03*
Y104000D03*
Y129984D03*
G54D26*
X98500Y44858D03*
Y77142D03*
G54D35*
X118500Y44035D03*
Y60965D03*
G54D45*
G01X89642Y140768D02*
Y137862D01*
X88780Y137000D01*
X82500D01*
X73000Y127500D01*
G01X89642Y174232D02*
Y169500D01*
G01X89800D02*
X89642D01*
G01X123225Y25500D02*
X130725D01*
X131000Y25775D01*
G01X118500Y44035D02*
X118465Y44000D01*
G01D02*
X112000D01*
G01Y85500D02*
X115500Y89000D01*
X118429D01*
X118669Y89240D01*
G01X108300Y134500D02*
X104621D01*
X103421Y135700D01*
Y140768D01*
G01X115232Y166358D02*
X111600D01*
X110400Y167558D01*
G01X138775Y25500D02*
X131275D01*
X131000Y25775D01*
G01Y33225D02*
X138500D01*
X138775Y33500D01*
G01X156228Y106000D02*
X161900D01*
G01X156228Y116000D02*
X161800D01*
G01X156228Y126000D02*
X164625D01*
X168125Y122500D01*
X172275D01*
G01X181600Y99200D02*
X176271D01*
X176240Y99169D01*
G54D18*
X53201Y27803D03*
X80799D03*
G54D36*
X116535Y72500D03*
X133465D03*
G54D27*
X98500Y68874D03*
Y61000D03*
G54D46*
G01X9200Y64904D02*
Y70520D01*
X5882Y73838D01*
Y78016D01*
G54D19*
X37275Y41200D03*
X44725D03*
Y49200D03*
X37275D03*
X37225Y57200D03*
X29775D03*
X29175Y155200D03*
X36625D03*
X123225Y25500D03*
X115775D03*
X123225Y33500D03*
X115775D03*
X126225Y96000D03*
X118775D03*
X146225Y25500D03*
X138775D03*
Y33500D03*
X146225D03*
X146275Y62500D03*
X134775Y93000D03*
X142225D03*
X153725Y62500D03*
X172275Y122500D03*
Y114500D03*
Y130500D03*
Y138500D03*
Y146500D03*
Y154500D03*
X179725Y122500D03*
Y114500D03*
Y130500D03*
Y138500D03*
Y146500D03*
Y154500D03*
G54D37*
X118669Y81760D03*
Y89240D03*
X127331Y85500D03*
X126831Y109740D03*
Y102260D03*
X118169Y106000D03*
G54D28*
X98500Y53126D03*
G54D47*
G01X113300Y134500D02*
X108300D01*
G54D29*
X88823Y125000D03*
X104177D03*
G54D38*
X133500Y49500D03*
G54D48*
G01X45000Y166000D02*
X38500D01*
G01X58000Y60725D02*
Y63500D01*
X64500Y70000D01*
G01D02*
X70200D01*
G01D02*
X78000D01*
X94000Y86000D01*
X102725D01*
X112725Y96000D01*
G01X123225Y25500D02*
Y33500D01*
G01X133465Y70965D02*
X127500Y65000D01*
Y59500D01*
G01X112725Y96000D02*
X118775D01*
G01X113000Y111000D02*
Y96275D01*
X112725Y96000D01*
G01X113000Y111000D02*
X122000Y120000D01*
Y138200D01*
X136400Y152600D01*
Y165225D01*
X131400Y170225D01*
G01X124000D02*
X125500D01*
G01X131400D02*
X125500D01*
G01X146000Y73500D02*
X146275Y73225D01*
G01D02*
Y62500D01*
G01X190500Y118500D02*
X186500Y122500D01*
G01D02*
X179725D01*
G54D39*
X137437Y44000D03*
X135468D03*
X133500D03*
X131532D03*
X129563D03*
Y55000D03*
X131532D03*
X133500D03*
X135468D03*
X137437D03*
G54D49*
G01X134772Y101000D02*
X156228D01*
G01X164500Y154225D02*
X158248D01*
X140023Y136000D01*
X134772D01*
G01X164500Y146775D02*
X156275D01*
X140500Y131000D01*
X134772D01*
G01X156228Y101000D02*
X162729D01*
X164560Y99169D01*
X168760D01*
G01X172500Y107831D02*
X172269Y107600D01*
X167000D01*
X163600Y111000D01*
X161800D01*
G01X172500Y107831D02*
X184631D01*
X185300Y108500D01*
X190500D01*
G01X161800Y111000D02*
X156228D01*
G01X172500Y107831D02*
Y114275D01*
X172275Y114500D01*
G01X156228Y136000D02*
X159453Y139225D01*
X164500D01*
G01D02*
X171550D01*
X172275Y138500D01*
G01X164500Y146775D02*
X172000D01*
X172275Y146500D01*
G01X156228Y131000D02*
X163725D01*
X164500Y131775D01*
G01D02*
X171000D01*
X172275Y130500D01*
G01X164500Y154225D02*
X172000D01*
X172275Y154500D01*
G01X179725Y138500D02*
X190500D01*
G01X179725Y130500D02*
X188500D01*
X190500Y128500D01*
G01X179725Y146500D02*
X188500D01*
X190500Y148500D01*
G01X179725Y154500D02*
X186500D01*
X190500Y158500D01*
M02*
