G04 ================== begin FILE IDENTIFICATION RECORD ==================*
G04 Layout Name:  e:/Project/SmartDiet/Device/Schematic/allegro/CyberBalance.brd*
G04 Film Name:    drill*
G04 File Format:  Gerber RS274X*
G04 File Origin:  Cadence Allegro 17.4-S015*
G04 Origin Date:  Fri May 28 17:34:05 2021*
G04 *
G04 Layer:  MANUFACTURING/NCLEGEND-1-2*
G04 Layer:  BOARD GEOMETRY/DESIGN_OUTLINE*
G04 *
G04 Offset:    (0.00 0.00)*
G04 Mirror:    No*
G04 Mode:      Positive*
G04 Rotation:  0*
G04 FullContactRelief:  No*
G04 UndefLineWidth:     2.00*
G04 ================== end FILE IDENTIFICATION RECORD ====================*
%FSLAX25Y25*MOIN*%
%IR0*IPPOS*OFA0.00000B0.00000*MIA0B0*SFA1.00000B1.00000*%
%AMMACRO18*
1,1,.002,0.0,.01949*
20,1,.002,0.0,.01949,-.016879,.009745,0.0*
1,1,.002,-.016879,.009745*
20,1,.002,-.016879,.009745,-.016879,-.009745,0.0*
1,1,.002,-.016879,-.009745*
20,1,.002,-.016879,-.009745,0.0,-.01949,0.0*
1,1,.002,0.0,-.01949*
20,1,.002,0.0,-.01949,.016879,-.009745,0.0*
1,1,.002,.016879,-.009745*
20,1,.002,.016879,-.009745,.016879,.009745,0.0*
1,1,.002,.016879,.009745*
20,1,.002,.016879,.009745,0.0,.01949,0.0*
1,1,.002,0.0,.01949*
%
%ADD18MACRO18*%
%AMMACRO15*
1,1,.002,.008284,-.02*
20,1,.002,.008284,-.02,-.008284,-.02,0.0*
1,1,.002,-.008284,-.02*
20,1,.002,-.008284,-.02,-.02,-.008284,0.0*
1,1,.002,-.02,-.008284*
20,1,.002,-.02,-.008284,-.02,.008284,0.0*
1,1,.002,-.02,.008284*
20,1,.002,-.02,.008284,-.008284,.02,0.0*
1,1,.002,-.008284,.02*
20,1,.002,-.008284,.02,.008284,.02,0.0*
1,1,.002,.008284,.02*
20,1,.002,.008284,.02,.02,.008284,0.0*
1,1,.002,.02,.008284*
20,1,.002,.02,.008284,.02,-.008284,0.0*
1,1,.002,.02,-.008284*
20,1,.002,.02,-.008284,.008284,-.02,0.0*
1,1,.002,.008284,-.02*
%
%ADD15MACRO15*%
%AMMACRO21*
1,1,.002,.006005,0.0*
20,1,.002,.006005,0.0,-.006005,0.0,0.0*
1,1,.002,-.006005,0.0*
1,1,.002,0.0,.006005*
20,1,.002,0.0,.006005,0.0,-.006005,0.0*
1,1,.002,0.0,-.006005*
%
%ADD21MACRO21*%
%AMMACRO16*
1,1,.002,.02,0.0*
20,1,.002,.02,0.0,0.0,-.02,0.0*
1,1,.002,0.0,-.02*
20,1,.002,0.0,-.02,-.02,0.0,0.0*
1,1,.002,-.02,0.0*
20,1,.002,-.02,0.0,0.0,.02,0.0*
1,1,.002,0.0,.02*
20,1,.002,0.0,.02,.02,0.0,0.0*
1,1,.002,.02,0.0*
%
%ADD16MACRO16*%
%AMMACRO20*
1,1,.002,.01575,.01575*
20,1,.002,.01575,.01575,.01575,-.01575,0.0*
1,1,.002,.01575,-.01575*
20,1,.002,.01575,-.01575,-.01575,-.01575,0.0*
1,1,.002,-.01575,-.01575*
20,1,.002,-.01575,-.01575,-.01575,.01575,0.0*
1,1,.002,-.01575,.01575*
20,1,.002,-.01575,.01575,.01575,.01575,0.0*
1,1,.002,.01575,.01575*
%
%ADD20MACRO20*%
%AMMACRO11*
1,1,.002,.02953,0.0*
20,1,.002,.02953,0.0,.029081,-.005128,0.0*
1,1,.002,.029081,-.005128*
20,1,.002,.029081,-.005128,.027749,-.0101,0.0*
1,1,.002,.027749,-.0101*
20,1,.002,.027749,-.0101,.025574,-.014765,0.0*
1,1,.002,.025574,-.014765*
20,1,.002,.025574,-.014765,.022621,-.018982,0.0*
1,1,.002,.022621,-.018982*
20,1,.002,.022621,-.018982,.018982,-.022621,0.0*
1,1,.002,.018982,-.022621*
20,1,.002,.018982,-.022621,.014765,-.025574,0.0*
1,1,.002,.014765,-.025574*
20,1,.002,.014765,-.025574,.0101,-.027749,0.0*
1,1,.002,.0101,-.027749*
20,1,.002,.0101,-.027749,.005128,-.029081,0.0*
1,1,.002,.005128,-.029081*
20,1,.002,.005128,-.029081,0.0,-.02953,0.0*
1,1,.002,0.0,-.02953*
20,1,.002,0.0,-.02953,-.005128,-.029081,0.0*
1,1,.002,-.005128,-.029081*
20,1,.002,-.005128,-.029081,-.0101,-.027749,0.0*
1,1,.002,-.0101,-.027749*
20,1,.002,-.0101,-.027749,-.014765,-.025574,0.0*
1,1,.002,-.014765,-.025574*
20,1,.002,-.014765,-.025574,-.018982,-.022621,0.0*
1,1,.002,-.018982,-.022621*
20,1,.002,-.018982,-.022621,-.022621,-.018982,0.0*
1,1,.002,-.022621,-.018982*
20,1,.002,-.022621,-.018982,-.025574,-.014765,0.0*
1,1,.002,-.025574,-.014765*
20,1,.002,-.025574,-.014765,-.027749,-.0101,0.0*
1,1,.002,-.027749,-.0101*
20,1,.002,-.027749,-.0101,-.029081,-.005128,0.0*
1,1,.002,-.029081,-.005128*
20,1,.002,-.029081,-.005128,-.02953,0.0,0.0*
1,1,.002,-.02953,0.0*
20,1,.002,-.02953,0.0,-.029081,.005128,0.0*
1,1,.002,-.029081,.005128*
20,1,.002,-.029081,.005128,-.027749,.0101,0.0*
1,1,.002,-.027749,.0101*
20,1,.002,-.027749,.0101,-.025574,.014765,0.0*
1,1,.002,-.025574,.014765*
20,1,.002,-.025574,.014765,-.022621,.018982,0.0*
1,1,.002,-.022621,.018982*
20,1,.002,-.022621,.018982,-.018982,.022621,0.0*
1,1,.002,-.018982,.022621*
20,1,.002,-.018982,.022621,-.014765,.025574,0.0*
1,1,.002,-.014765,.025574*
20,1,.002,-.014765,.025574,-.0101,.027749,0.0*
1,1,.002,-.0101,.027749*
20,1,.002,-.0101,.027749,-.005128,.029081,0.0*
1,1,.002,-.005128,.029081*
20,1,.002,-.005128,.029081,0.0,.02953,0.0*
1,1,.002,0.0,.02953*
20,1,.002,0.0,.02953,.005128,.029081,0.0*
1,1,.002,.005128,.029081*
20,1,.002,.005128,.029081,.0101,.027749,0.0*
1,1,.002,.0101,.027749*
20,1,.002,.0101,.027749,.014765,.025574,0.0*
1,1,.002,.014765,.025574*
20,1,.002,.014765,.025574,.018982,.022621,0.0*
1,1,.002,.018982,.022621*
20,1,.002,.018982,.022621,.022621,.018982,0.0*
1,1,.002,.022621,.018982*
20,1,.002,.022621,.018982,.025574,.014765,0.0*
1,1,.002,.025574,.014765*
20,1,.002,.025574,.014765,.027749,.0101,0.0*
1,1,.002,.027749,.0101*
20,1,.002,.027749,.0101,.029081,.005128,0.0*
1,1,.002,.029081,.005128*
20,1,.002,.029081,.005128,.02953,0.0,0.0*
1,1,.002,.02953,0.0*
%
%ADD11MACRO11*%
%AMMACRO10*
1,1,.002,-.04921,-.05905*
20,1,.002,-.04921,-.05905,0.0,.05906,0.0*
1,1,.002,0.0,.05906*
20,1,.002,0.0,.05906,.04922,-.05905,0.0*
1,1,.002,.04922,-.05905*
1,1,.002,.0315,-.01771*
20,1,.002,.0315,-.01771,-.03149,-.01771,0.0*
1,1,.002,-.03149,-.01771*
%
%ADD10MACRO10*%
%AMMACRO17*
1,1,.002,0.0,.02*
20,1,.002,0.0,.02,.017321,-.01,0.0*
1,1,.002,.017321,-.01*
20,1,.002,.017321,-.01,-.017321,-.01,0.0*
1,1,.002,-.017321,-.01*
20,1,.002,-.017321,-.01,0.0,.02,0.0*
1,1,.002,0.0,.02*
%
%ADD17MACRO17*%
%AMMACRO13*
1,1,.002,-.022125,.007375*
20,1,.002,-.022125,.007375,-.021789,.011217,0.0*
1,1,.002,-.021789,.011217*
20,1,.002,-.021789,.011217,-.020791,.014942,0.0*
1,1,.002,-.020791,.014942*
20,1,.002,-.020791,.014942,-.019161,.018437,0.0*
1,1,.002,-.019161,.018437*
20,1,.002,-.019161,.018437,-.016949,.021597,0.0*
1,1,.002,-.016949,.021597*
20,1,.002,-.016949,.021597,-.014222,.024324,0.0*
1,1,.002,-.014222,.024324*
20,1,.002,-.014222,.024324,-.011063,.026536,0.0*
1,1,.002,-.011063,.026536*
20,1,.002,-.011063,.026536,-.007567,.028166,0.0*
1,1,.002,-.007567,.028166*
20,1,.002,-.007567,.028166,-.003842,.029164,0.0*
1,1,.002,-.003842,.029164*
20,1,.002,-.003842,.029164,0.0,.0295,0.0*
1,1,.002,0.0,.0295*
20,1,.002,0.0,.0295,.003842,.029164,0.0*
1,1,.002,.003842,.029164*
20,1,.002,.003842,.029164,.007567,.028166,0.0*
1,1,.002,.007567,.028166*
20,1,.002,.007567,.028166,.011062,.026536,0.0*
1,1,.002,.011062,.026536*
20,1,.002,.011062,.026536,.014222,.024324,0.0*
1,1,.002,.014222,.024324*
20,1,.002,.014222,.024324,.016949,.021597,0.0*
1,1,.002,.016949,.021597*
20,1,.002,.016949,.021597,.019161,.018438,0.0*
1,1,.002,.019161,.018438*
20,1,.002,.019161,.018438,.020791,.014942,0.0*
1,1,.002,.020791,.014942*
20,1,.002,.020791,.014942,.021789,.011217,0.0*
1,1,.002,.021789,.011217*
20,1,.002,.021789,.011217,.022125,.007375,0.0*
1,1,.002,.022125,.007375*
20,1,.002,.022125,.007375,.022125,-.007375,0.0*
1,1,.002,.022125,-.007375*
20,1,.002,.022125,-.007375,.021789,-.011217,0.0*
1,1,.002,.021789,-.011217*
20,1,.002,.021789,-.011217,.020791,-.014942,0.0*
1,1,.002,.020791,-.014942*
20,1,.002,.020791,-.014942,.019161,-.018437,0.0*
1,1,.002,.019161,-.018437*
20,1,.002,.019161,-.018437,.016949,-.021597,0.0*
1,1,.002,.016949,-.021597*
20,1,.002,.016949,-.021597,.014222,-.024324,0.0*
1,1,.002,.014222,-.024324*
20,1,.002,.014222,-.024324,.011063,-.026536,0.0*
1,1,.002,.011063,-.026536*
20,1,.002,.011063,-.026536,.007567,-.028166,0.0*
1,1,.002,.007567,-.028166*
20,1,.002,.007567,-.028166,.003842,-.029164,0.0*
1,1,.002,.003842,-.029164*
20,1,.002,.003842,-.029164,0.0,-.0295,0.0*
1,1,.002,0.0,-.0295*
20,1,.002,0.0,-.0295,-.003842,-.029164,0.0*
1,1,.002,-.003842,-.029164*
20,1,.002,-.003842,-.029164,-.007567,-.028166,0.0*
1,1,.002,-.007567,-.028166*
20,1,.002,-.007567,-.028166,-.011062,-.026536,0.0*
1,1,.002,-.011062,-.026536*
20,1,.002,-.011062,-.026536,-.014222,-.024324,0.0*
1,1,.002,-.014222,-.024324*
20,1,.002,-.014222,-.024324,-.016949,-.021597,0.0*
1,1,.002,-.016949,-.021597*
20,1,.002,-.016949,-.021597,-.019161,-.018438,0.0*
1,1,.002,-.019161,-.018438*
20,1,.002,-.019161,-.018438,-.020791,-.014942,0.0*
1,1,.002,-.020791,-.014942*
20,1,.002,-.020791,-.014942,-.021789,-.011217,0.0*
1,1,.002,-.021789,-.011217*
20,1,.002,-.021789,-.011217,-.022125,-.007375,0.0*
1,1,.002,-.022125,-.007375*
20,1,.002,-.022125,-.007375,-.022125,.007375,0.0*
1,1,.002,-.022125,.007375*
%
%ADD13MACRO13*%
%AMMACRO19*
1,1,.002,.01673,0.0*
20,1,.002,.01673,0.0,.008365,.014489,0.0*
1,1,.002,.008365,.014489*
20,1,.002,.008365,.014489,-.008365,.014489,0.0*
1,1,.002,-.008365,.014489*
20,1,.002,-.008365,.014489,-.01673,0.0,0.0*
1,1,.002,-.01673,0.0*
20,1,.002,-.01673,0.0,-.008365,-.014489,0.0*
1,1,.002,-.008365,-.014489*
20,1,.002,-.008365,-.014489,.008365,-.014489,0.0*
1,1,.002,.008365,-.014489*
20,1,.002,.008365,-.014489,.01673,0.0,0.0*
1,1,.002,.01673,0.0*
%
%ADD19MACRO19*%
%AMMACRO14*
1,1,.002,-.0064,.01919*
20,1,.002,-.0064,.01919,.0064,.01919,0.0*
1,1,.002,.0064,.01919*
20,1,.002,.0064,.01919,.009732,.018898,0.0*
1,1,.002,.009732,.018898*
20,1,.002,.009732,.018898,.012963,.018033,0.0*
1,1,.002,.012963,.018033*
20,1,.002,.012963,.018033,.015995,.016619,0.0*
1,1,.002,.015995,.016619*
20,1,.002,.015995,.016619,.018735,.0147,0.0*
1,1,.002,.018735,.0147*
20,1,.002,.018735,.0147,.0211,.012335,0.0*
1,1,.002,.0211,.012335*
20,1,.002,.0211,.012335,.023019,.009595,0.0*
1,1,.002,.023019,.009595*
20,1,.002,.023019,.009595,.024433,.006563,0.0*
1,1,.002,.024433,.006563*
20,1,.002,.024433,.006563,.025298,.003332,0.0*
1,1,.002,.025298,.003332*
20,1,.002,.025298,.003332,.02559,0.0,0.0*
1,1,.002,.02559,0.0*
20,1,.002,.02559,0.0,.025298,-.003332,0.0*
1,1,.002,.025298,-.003332*
20,1,.002,.025298,-.003332,.024433,-.006563,0.0*
1,1,.002,.024433,-.006563*
20,1,.002,.024433,-.006563,.023019,-.009595,0.0*
1,1,.002,.023019,-.009595*
20,1,.002,.023019,-.009595,.0211,-.012335,0.0*
1,1,.002,.0211,-.012335*
20,1,.002,.0211,-.012335,.018735,-.0147,0.0*
1,1,.002,.018735,-.0147*
20,1,.002,.018735,-.0147,.015995,-.016619,0.0*
1,1,.002,.015995,-.016619*
20,1,.002,.015995,-.016619,.012963,-.018033,0.0*
1,1,.002,.012963,-.018033*
20,1,.002,.012963,-.018033,.009732,-.018898,0.0*
1,1,.002,.009732,-.018898*
20,1,.002,.009732,-.018898,.0064,-.01919,0.0*
1,1,.002,.0064,-.01919*
20,1,.002,.0064,-.01919,-.0064,-.01919,0.0*
1,1,.002,-.0064,-.01919*
20,1,.002,-.0064,-.01919,-.009732,-.018898,0.0*
1,1,.002,-.009732,-.018898*
20,1,.002,-.009732,-.018898,-.012963,-.018033,0.0*
1,1,.002,-.012963,-.018033*
20,1,.002,-.012963,-.018033,-.015995,-.016619,0.0*
1,1,.002,-.015995,-.016619*
20,1,.002,-.015995,-.016619,-.018735,-.0147,0.0*
1,1,.002,-.018735,-.0147*
20,1,.002,-.018735,-.0147,-.0211,-.012335,0.0*
1,1,.002,-.0211,-.012335*
20,1,.002,-.0211,-.012335,-.023019,-.009595,0.0*
1,1,.002,-.023019,-.009595*
20,1,.002,-.023019,-.009595,-.024433,-.006563,0.0*
1,1,.002,-.024433,-.006563*
20,1,.002,-.024433,-.006563,-.025298,-.003332,0.0*
1,1,.002,-.025298,-.003332*
20,1,.002,-.025298,-.003332,-.02559,0.0,0.0*
1,1,.002,-.02559,0.0*
20,1,.002,-.02559,0.0,-.025298,.003332,0.0*
1,1,.002,-.025298,.003332*
20,1,.002,-.025298,.003332,-.024433,.006563,0.0*
1,1,.002,-.024433,.006563*
20,1,.002,-.024433,.006563,-.023019,.009595,0.0*
1,1,.002,-.023019,.009595*
20,1,.002,-.023019,.009595,-.0211,.012335,0.0*
1,1,.002,-.0211,.012335*
20,1,.002,-.0211,.012335,-.018735,.0147,0.0*
1,1,.002,-.018735,.0147*
20,1,.002,-.018735,.0147,-.015995,.016619,0.0*
1,1,.002,-.015995,.016619*
20,1,.002,-.015995,.016619,-.012963,.018033,0.0*
1,1,.002,-.012963,.018033*
20,1,.002,-.012963,.018033,-.009732,.018898,0.0*
1,1,.002,-.009732,.018898*
20,1,.002,-.009732,.018898,-.0064,.01919,0.0*
1,1,.002,-.0064,.01919*
%
%ADD14MACRO14*%
%AMMACRO12*
1,1,.002,.06299,.04724*
20,1,.002,.06299,.04724,.06299,-.04724,0.0*
1,1,.002,.06299,-.04724*
20,1,.002,.06299,-.04724,-.06299,-.04724,0.0*
1,1,.002,-.06299,-.04724*
20,1,.002,-.06299,-.04724,-.06299,.04724,0.0*
1,1,.002,-.06299,.04724*
20,1,.002,-.06299,.04724,.06299,.04724,0.0*
1,1,.002,.06299,.04724*
%
%ADD12MACRO12*%
%ADD22C,.015*%
%ADD23C,.002*%
G75*
%LPD*%
G75*
G54D10*
X-358662Y-427200D03*
X98425Y23622D03*
G54D11*
X-358662Y-402200D03*
X98500Y44858D03*
Y77142D03*
G54D20*
X-358662Y-177200D03*
X98500Y68874D03*
Y61000D03*
Y53126D03*
G54D12*
X-358662Y-377200D03*
X23622Y23622D03*
Y173228D03*
X173228Y23622D03*
Y173228D03*
G54D21*
X-358662Y-152200D03*
X17541Y17541D03*
X23622Y15022D03*
X15022Y23622D03*
X16075Y41475D03*
X17541Y29703D03*
X23622Y32222D03*
X6500Y45000D03*
X14500Y72000D03*
Y66500D03*
X15500Y52000D03*
X21500Y54500D03*
Y59500D03*
X20000Y82700D03*
X15000Y98500D03*
Y91500D03*
Y84500D03*
X15400Y119500D03*
X21500D03*
X14500Y125654D03*
X4000Y149500D03*
X24000Y129800D03*
Y150000D03*
X19800Y130600D03*
X23500Y155200D03*
X17541Y167147D03*
X23622Y164628D03*
X15022Y173228D03*
X17541Y179309D03*
X23622Y181828D03*
X29703Y17541D03*
X32222Y23622D03*
X42500Y17500D03*
X48000Y11500D03*
X50600Y49000D03*
X29703Y29703D03*
X42500Y31500D03*
X29496Y61996D03*
X37200Y62400D03*
X43500Y54000D03*
X50100Y53900D03*
X35500Y98500D03*
Y92500D03*
X28500Y98500D03*
X36000Y79000D03*
X28500D03*
Y92500D03*
X50500Y85500D03*
X45500Y79000D03*
X50500D03*
X44500Y92500D03*
X34000Y116500D03*
X38500D03*
X35500Y105000D03*
X44500D03*
X40331Y128631D03*
X32000Y129700D03*
X49000D03*
X28000Y129000D03*
X47646Y155099D03*
X35900Y159802D03*
X50000Y171000D03*
X29703Y167147D03*
X32222Y173228D03*
X29703Y179309D03*
X76500Y4000D03*
X58000D03*
X58800Y41100D03*
X53600Y41200D03*
X56500Y31500D03*
X76500D03*
X64500Y70000D03*
X70200D03*
X67200Y67100D03*
X62000Y65600D03*
X76500Y87000D03*
Y80500D03*
X55192Y116992D03*
X58023Y121323D03*
X57800Y125654D03*
X53200Y121400D03*
X73000Y119500D03*
Y123500D03*
X57784Y129984D03*
X72500Y150000D03*
X73000Y127500D03*
X74500Y146500D03*
X58000Y137500D03*
X51900Y146200D03*
X70453Y152651D03*
X68000Y155099D03*
X65505Y157505D03*
X73900Y168900D03*
X75400Y164500D03*
X85500Y5500D03*
X89500Y38500D03*
X89000Y31500D03*
X79200Y38775D03*
X92000Y72500D03*
X86000Y67000D03*
X92000Y62000D03*
X79200Y60800D03*
X83500Y87000D03*
X92500Y97500D03*
X99000D03*
Y92000D03*
X92500D03*
X85500Y118500D03*
X81500Y123000D03*
X96500Y122500D03*
Y117500D03*
X81700Y144000D03*
X78900Y140900D03*
X84400Y140800D03*
X96500Y127000D03*
X101000Y133500D03*
X94500Y146000D03*
X87000Y147599D03*
X99484Y145884D03*
X81975Y174175D03*
X86500Y165000D03*
X88500Y162421D03*
X86450Y159960D03*
X86500Y168500D03*
X89642Y169500D03*
X113900Y20300D03*
X124500Y6000D03*
X110500Y5500D03*
X108500Y25500D03*
X112000Y44000D03*
X108500Y33500D03*
X106500Y48500D03*
X124500Y70000D03*
X124000Y52000D03*
X118200Y101300D03*
X112800Y96100D03*
X112000Y85500D03*
X105500Y97500D03*
X105000Y80500D03*
X126000Y90500D03*
X113300Y103200D03*
X107000Y109000D03*
Y117000D03*
X120800Y149600D03*
X113000Y130000D03*
X110500Y150500D03*
X117000Y142500D03*
X113500Y139500D03*
X113300Y134500D03*
X108950Y157950D03*
X108800Y161200D03*
X108400Y164400D03*
X120550Y155050D03*
X123100Y152000D03*
X110800Y155300D03*
X110400Y167558D03*
X104500Y168000D03*
X120500Y164500D03*
Y161000D03*
X115000Y177000D03*
X122500D03*
X134000Y6000D03*
X146000Y20000D03*
X140000Y11500D03*
X131500Y39700D03*
X135468Y39000D03*
X146000Y39500D03*
X137268Y59500D03*
X136000Y62500D03*
X134500Y65500D03*
X127000Y114900D03*
X140900Y126000D03*
X140800Y121400D03*
X150000Y125000D03*
Y117000D03*
Y108500D03*
X128000Y124000D03*
X150000Y133500D03*
X128000Y134000D03*
X140000Y144000D03*
Y149000D03*
X131400Y170225D03*
X129700Y154200D03*
X130500Y161900D03*
X144725Y171775D03*
X144500Y177500D03*
X164628Y23622D03*
X173228Y15022D03*
X167147Y17541D03*
X154000Y20000D03*
X173228Y32222D03*
X167147Y29703D03*
X154000Y39500D03*
X162500D03*
X154000Y29500D03*
X169500Y73000D03*
Y57500D03*
X153500Y87500D03*
X169500D03*
X161800Y111000D03*
X161900Y106000D03*
X161800Y116000D03*
X162500Y121000D03*
X154000Y141000D03*
X158500D03*
X164628Y173228D03*
X173228Y164628D03*
X167147Y167147D03*
X153500Y165500D03*
X160000Y162500D03*
X173228Y181828D03*
X167147Y179309D03*
X181828Y23622D03*
X179309Y17541D03*
Y29703D03*
X178500Y44500D03*
X185000Y73000D03*
X185500Y57500D03*
X181600Y99200D03*
X185000Y87500D03*
X194000Y123500D03*
Y114000D03*
Y102500D03*
Y143500D03*
Y133500D03*
X181828Y173228D03*
X179309Y167147D03*
X194000Y153500D03*
X179309Y179309D03*
G54D22*
G01X-392599Y-133450D02*
Y-120950D01*
X-386710D01*
G01X-388880Y-126992D02*
X-392599D01*
G01X-379117Y-120950D02*
X-375398D01*
G01X-377258D02*
Y-133450D01*
G01X-379117D02*
X-375398D01*
G01X-363931Y-127200D02*
X-360831D01*
Y-130950D01*
X-361761Y-132200D01*
X-362846Y-133033D01*
X-364396Y-133450D01*
X-365945Y-133033D01*
X-367030Y-132200D01*
X-367960Y-130950D01*
X-368580Y-129492D01*
X-368890Y-127825D01*
Y-126367D01*
X-368580Y-125117D01*
X-367960Y-123658D01*
X-367030Y-122408D01*
X-366101Y-121575D01*
X-364861Y-120950D01*
X-363776D01*
X-362536Y-121367D01*
X-361606Y-122200D01*
G01X-355873Y-120950D02*
Y-129908D01*
X-355253Y-131784D01*
X-354013Y-133033D01*
X-352464Y-133450D01*
X-350914Y-133033D01*
X-349674Y-131784D01*
X-349054Y-129908D01*
Y-120950D01*
G01X-343166Y-133450D02*
Y-120950D01*
X-339292D01*
X-338052Y-121575D01*
X-337277Y-122408D01*
X-336967Y-124075D01*
X-337277Y-125742D01*
X-338207Y-126783D01*
X-339292Y-127408D01*
X-343166D01*
G01X-339292D02*
X-336967Y-133450D01*
G01X-324570D02*
X-330769D01*
Y-120950D01*
X-324570D01*
G01X-327050Y-126992D02*
X-330769D01*
G01X-290325Y-133450D02*
Y-120950D01*
X-284436D01*
G01X-286606Y-126992D02*
X-290325D01*
G01X-276843Y-120950D02*
X-273124D01*
G01X-274984D02*
Y-133450D01*
G01X-276843D02*
X-273124D01*
G01X-266151D02*
Y-120950D01*
X-259022Y-133450D01*
Y-120950D01*
G01X-252049D02*
X-248330D01*
G01X-250190D02*
Y-133450D01*
G01X-252049D02*
X-248330D01*
G01X-241047Y-131784D02*
X-239807Y-132825D01*
X-238412Y-133450D01*
X-237173D01*
X-235933Y-132825D01*
X-235003Y-131784D01*
X-234538Y-130325D01*
X-234848Y-128867D01*
X-235623Y-127617D01*
X-237018Y-126783D01*
X-238877Y-126367D01*
X-239962Y-125533D01*
X-240427Y-124075D01*
X-240117Y-122617D01*
X-239342Y-121575D01*
X-238257Y-120950D01*
X-237173D01*
X-236088Y-121367D01*
X-235158Y-122408D01*
G01X-228650Y-133450D02*
Y-120950D01*
G01X-222141D02*
Y-133450D01*
G01Y-127200D02*
X-228650D01*
G01X-209899Y-133450D02*
X-216098D01*
Y-120950D01*
X-209899D01*
G01X-212379Y-126992D02*
X-216098D01*
G01X-204011Y-133450D02*
Y-120950D01*
X-200912D01*
X-199672Y-121575D01*
X-198742Y-122408D01*
X-197967Y-123658D01*
X-197347Y-125117D01*
X-197192Y-127200D01*
X-197347Y-129283D01*
X-197967Y-130742D01*
X-198742Y-131992D01*
X-199672Y-132825D01*
X-200912Y-133450D01*
X-204011D01*
G01X-192854Y-137617D02*
X-183555D01*
G01X-179062Y-131784D02*
X-177822Y-132825D01*
X-176427Y-133450D01*
X-175188D01*
X-173948Y-132825D01*
X-173018Y-131784D01*
X-172553Y-130325D01*
X-172863Y-128867D01*
X-173638Y-127617D01*
X-175033Y-126783D01*
X-176892Y-126367D01*
X-177977Y-125533D01*
X-178442Y-124075D01*
X-178132Y-122617D01*
X-177357Y-121575D01*
X-176272Y-120950D01*
X-175188D01*
X-174103Y-121367D01*
X-173173Y-122408D01*
G01X-165270Y-120950D02*
X-161551D01*
G01X-163411D02*
Y-133450D01*
G01X-165270D02*
X-161551D01*
G01X-153958Y-120950D02*
X-148069D01*
X-153958Y-133450D01*
X-148069D01*
G01X-135517D02*
X-141716D01*
Y-120950D01*
X-135517D01*
G01X-137997Y-126992D02*
X-141716D01*
G01X-243991Y-433450D02*
Y-420950D01*
X-245850Y-423450D01*
G01Y-433450D02*
X-242131D01*
G01X-231594D02*
Y-420950D01*
X-233453Y-423450D01*
G01Y-433450D02*
X-229734D01*
G01X-219197D02*
X-218112Y-433242D01*
X-216872Y-432617D01*
X-216097Y-431575D01*
X-215787Y-430117D01*
X-216097Y-428659D01*
X-217027Y-427408D01*
X-218422Y-426783D01*
X-219971D01*
X-220901Y-426367D01*
X-221676Y-425325D01*
X-221986Y-423867D01*
X-221521Y-422408D01*
X-220437Y-421367D01*
X-219197Y-420950D01*
X-217957Y-421367D01*
X-216872Y-422408D01*
X-216407Y-423867D01*
X-216717Y-425325D01*
X-217492Y-426367D01*
X-218422Y-426783D01*
X-219971D01*
X-221366Y-427408D01*
X-222296Y-428659D01*
X-222606Y-430117D01*
X-222296Y-431575D01*
X-221521Y-432617D01*
X-220281Y-433242D01*
X-219197Y-433450D01*
G01X-206800Y-433867D02*
X-207110Y-433658D01*
Y-433242D01*
X-206800Y-433033D01*
X-206489Y-433242D01*
Y-433658D01*
X-206800Y-433867D01*
G01X-194403Y-433450D02*
Y-420950D01*
X-196262Y-423450D01*
G01Y-433450D02*
X-192543D01*
G01X-182006D02*
Y-420950D01*
X-183865Y-423450D01*
G01Y-433450D02*
X-180146D01*
G01X-241202Y-406575D02*
X-240272Y-407617D01*
X-239187Y-408242D01*
X-237793Y-408450D01*
X-236398Y-408033D01*
X-235313Y-407200D01*
X-234538Y-405742D01*
X-234383Y-404075D01*
X-234693Y-402408D01*
X-235468Y-401367D01*
X-236553Y-400533D01*
X-237637Y-400325D01*
X-238722Y-400533D01*
X-240117Y-401367D01*
X-239652Y-395950D01*
X-235468D01*
G01X-228030Y-406992D02*
X-226945Y-408033D01*
X-225706Y-408450D01*
X-224466Y-408033D01*
X-223381Y-406784D01*
X-222606Y-404908D01*
X-222296Y-403033D01*
Y-400742D01*
X-222606Y-398867D01*
X-223381Y-397200D01*
X-224311Y-396367D01*
X-225396Y-395950D01*
X-226636Y-396367D01*
X-227565Y-397200D01*
X-228185Y-398450D01*
X-228495Y-400117D01*
X-228185Y-401575D01*
X-227410Y-403033D01*
X-226480Y-403867D01*
X-225396Y-404075D01*
X-224156Y-403659D01*
X-223226Y-402617D01*
X-222296Y-400742D01*
G01X-212999Y-408867D02*
X-213309Y-408658D01*
Y-408242D01*
X-212999Y-408033D01*
X-212688Y-408242D01*
Y-408658D01*
X-212999Y-408867D01*
G01X-200602Y-395950D02*
X-201842Y-396367D01*
X-202771Y-397408D01*
X-203391Y-398658D01*
X-203856Y-400325D01*
X-204011Y-402200D01*
X-203856Y-404075D01*
X-203391Y-405742D01*
X-202771Y-406992D01*
X-201842Y-408033D01*
X-200602Y-408450D01*
X-199362Y-408033D01*
X-198432Y-406992D01*
X-197812Y-405742D01*
X-197347Y-404075D01*
X-197192Y-402200D01*
X-197347Y-400325D01*
X-197812Y-398658D01*
X-198432Y-397408D01*
X-199362Y-396367D01*
X-200602Y-395950D01*
G01X-191149Y-403242D02*
X-190064Y-401783D01*
X-189134Y-400950D01*
X-187894Y-400533D01*
X-186810Y-400950D01*
X-186035Y-401783D01*
X-185415Y-403033D01*
X-185260Y-404492D01*
X-185415Y-405742D01*
X-186035Y-406992D01*
X-186965Y-408033D01*
X-188049Y-408450D01*
X-189289Y-408033D01*
X-190374Y-406784D01*
X-190994Y-404908D01*
X-191149Y-402825D01*
X-190839Y-400117D01*
X-190374Y-398658D01*
X-189599Y-397200D01*
X-188515Y-396158D01*
X-187430Y-395950D01*
X-186345Y-396367D01*
X-185570Y-397408D01*
G01X-243991Y-383450D02*
Y-370950D01*
X-245850Y-373450D01*
G01Y-383450D02*
X-242131D01*
G01X-234538Y-373033D02*
X-233608Y-371784D01*
X-232523Y-371158D01*
X-231283Y-370950D01*
X-229734Y-371367D01*
X-228649Y-372408D01*
X-228339Y-373658D01*
X-228494Y-374909D01*
X-229114Y-375950D01*
X-232213Y-378033D01*
X-233608Y-379492D01*
X-234538Y-381575D01*
X-234848Y-383450D01*
X-228339D01*
G01X-222606Y-381575D02*
X-221676Y-382617D01*
X-220591Y-383242D01*
X-219197Y-383450D01*
X-217802Y-383033D01*
X-216717Y-382200D01*
X-215942Y-380742D01*
X-215787Y-379075D01*
X-216097Y-377408D01*
X-216872Y-376367D01*
X-217957Y-375533D01*
X-219041Y-375325D01*
X-220126Y-375533D01*
X-221521Y-376367D01*
X-221056Y-370950D01*
X-216872D01*
G01X-206800Y-383867D02*
X-207110Y-383658D01*
Y-383242D01*
X-206800Y-383033D01*
X-206489Y-383242D01*
Y-383658D01*
X-206800Y-383867D01*
G01X-197037Y-381992D02*
X-195952Y-383033D01*
X-194713Y-383450D01*
X-193473Y-383033D01*
X-192388Y-381784D01*
X-191613Y-379908D01*
X-191303Y-378033D01*
Y-375742D01*
X-191613Y-373867D01*
X-192388Y-372200D01*
X-193318Y-371367D01*
X-194403Y-370950D01*
X-195643Y-371367D01*
X-196572Y-372200D01*
X-197192Y-373450D01*
X-197502Y-375117D01*
X-197192Y-376575D01*
X-196417Y-378033D01*
X-195487Y-378867D01*
X-194403Y-379075D01*
X-193163Y-378659D01*
X-192233Y-377617D01*
X-191303Y-375742D01*
G01X-182006Y-383450D02*
X-180921Y-383242D01*
X-179681Y-382617D01*
X-178906Y-381575D01*
X-178596Y-380117D01*
X-178906Y-378659D01*
X-179836Y-377408D01*
X-181231Y-376783D01*
X-182780D01*
X-183710Y-376367D01*
X-184485Y-375325D01*
X-184795Y-373867D01*
X-184330Y-372408D01*
X-183246Y-371367D01*
X-182006Y-370950D01*
X-180766Y-371367D01*
X-179681Y-372408D01*
X-179216Y-373867D01*
X-179526Y-375325D01*
X-180301Y-376367D01*
X-181231Y-376783D01*
X-182780D01*
X-184175Y-377408D01*
X-185105Y-378659D01*
X-185415Y-380117D01*
X-185105Y-381575D01*
X-184330Y-382617D01*
X-183090Y-383242D01*
X-182006Y-383450D01*
G01X-235003Y-356575D02*
X-234073Y-357617D01*
X-232988Y-358242D01*
X-231594Y-358450D01*
X-230199Y-358033D01*
X-229114Y-357200D01*
X-228339Y-355742D01*
X-228184Y-354075D01*
X-228494Y-352408D01*
X-229269Y-351367D01*
X-230354Y-350533D01*
X-231438Y-350325D01*
X-232523Y-350533D01*
X-233918Y-351367D01*
X-233453Y-345950D01*
X-229269D01*
G01X-221831Y-356992D02*
X-220746Y-358033D01*
X-219507Y-358450D01*
X-218267Y-358033D01*
X-217182Y-356784D01*
X-216407Y-354908D01*
X-216097Y-353033D01*
Y-350742D01*
X-216407Y-348867D01*
X-217182Y-347200D01*
X-218112Y-346367D01*
X-219197Y-345950D01*
X-220437Y-346367D01*
X-221366Y-347200D01*
X-221986Y-348450D01*
X-222296Y-350117D01*
X-221986Y-351575D01*
X-221211Y-353033D01*
X-220281Y-353867D01*
X-219197Y-354075D01*
X-217957Y-353659D01*
X-217027Y-352617D01*
X-216097Y-350742D01*
G01X-206800Y-358867D02*
X-207110Y-358658D01*
Y-358242D01*
X-206800Y-358033D01*
X-206489Y-358242D01*
Y-358658D01*
X-206800Y-358867D01*
G01X-194403Y-345950D02*
X-195643Y-346367D01*
X-196572Y-347408D01*
X-197192Y-348658D01*
X-197657Y-350325D01*
X-197812Y-352200D01*
X-197657Y-354075D01*
X-197192Y-355742D01*
X-196572Y-356992D01*
X-195643Y-358033D01*
X-194403Y-358450D01*
X-193163Y-358033D01*
X-192233Y-356992D01*
X-191613Y-355742D01*
X-191148Y-354075D01*
X-190993Y-352200D01*
X-191148Y-350325D01*
X-191613Y-348658D01*
X-192233Y-347408D01*
X-193163Y-346367D01*
X-194403Y-345950D01*
G01X-241202Y-331575D02*
X-240272Y-332617D01*
X-239187Y-333242D01*
X-237793Y-333450D01*
X-236398Y-333033D01*
X-235313Y-332200D01*
X-234538Y-330742D01*
X-234383Y-329075D01*
X-234693Y-327408D01*
X-235468Y-326367D01*
X-236553Y-325533D01*
X-237637Y-325325D01*
X-238722Y-325533D01*
X-240117Y-326367D01*
X-239652Y-320950D01*
X-235468D01*
G01X-225396Y-333450D02*
Y-320950D01*
X-227255Y-323450D01*
G01Y-333450D02*
X-223536D01*
G01X-212999Y-333867D02*
X-213309Y-333658D01*
Y-333242D01*
X-212999Y-333033D01*
X-212688Y-333242D01*
Y-333658D01*
X-212999Y-333867D01*
G01X-200602Y-333450D02*
Y-320950D01*
X-202461Y-323450D01*
G01Y-333450D02*
X-198742D01*
G01X-188205D02*
X-187120Y-333242D01*
X-185880Y-332617D01*
X-185105Y-331575D01*
X-184795Y-330117D01*
X-185105Y-328659D01*
X-186035Y-327408D01*
X-187430Y-326783D01*
X-188979D01*
X-189909Y-326367D01*
X-190684Y-325325D01*
X-190994Y-323867D01*
X-190529Y-322408D01*
X-189445Y-321367D01*
X-188205Y-320950D01*
X-186965Y-321367D01*
X-185880Y-322408D01*
X-185415Y-323867D01*
X-185725Y-325325D01*
X-186500Y-326367D01*
X-187430Y-326783D01*
X-188979D01*
X-190374Y-327408D01*
X-191304Y-328659D01*
X-191614Y-330117D01*
X-191304Y-331575D01*
X-190529Y-332617D01*
X-189289Y-333242D01*
X-188205Y-333450D01*
G01X-229734Y-308450D02*
Y-295950D01*
X-235468Y-304908D01*
X-227719D01*
G01X-219197Y-295950D02*
X-220437Y-296367D01*
X-221366Y-297408D01*
X-221986Y-298658D01*
X-222451Y-300325D01*
X-222606Y-302200D01*
X-222451Y-304075D01*
X-221986Y-305742D01*
X-221366Y-306992D01*
X-220437Y-308033D01*
X-219197Y-308450D01*
X-217957Y-308033D01*
X-217027Y-306992D01*
X-216407Y-305742D01*
X-215942Y-304075D01*
X-215787Y-302200D01*
X-215942Y-300325D01*
X-216407Y-298658D01*
X-217027Y-297408D01*
X-217957Y-296367D01*
X-219197Y-295950D01*
G01X-206800Y-308867D02*
X-207110Y-308658D01*
Y-308242D01*
X-206800Y-308033D01*
X-206489Y-308242D01*
Y-308658D01*
X-206800Y-308867D01*
G01X-194403Y-295950D02*
X-195643Y-296367D01*
X-196572Y-297408D01*
X-197192Y-298658D01*
X-197657Y-300325D01*
X-197812Y-302200D01*
X-197657Y-304075D01*
X-197192Y-305742D01*
X-196572Y-306992D01*
X-195643Y-308033D01*
X-194403Y-308450D01*
X-193163Y-308033D01*
X-192233Y-306992D01*
X-191613Y-305742D01*
X-191148Y-304075D01*
X-190993Y-302200D01*
X-191148Y-300325D01*
X-191613Y-298658D01*
X-192233Y-297408D01*
X-193163Y-296367D01*
X-194403Y-295950D01*
G01X-229734Y-283450D02*
Y-270950D01*
X-235468Y-279908D01*
X-227719D01*
G01X-219197Y-270950D02*
X-220437Y-271367D01*
X-221366Y-272408D01*
X-221986Y-273658D01*
X-222451Y-275325D01*
X-222606Y-277200D01*
X-222451Y-279075D01*
X-221986Y-280742D01*
X-221366Y-281992D01*
X-220437Y-283033D01*
X-219197Y-283450D01*
X-217957Y-283033D01*
X-217027Y-281992D01*
X-216407Y-280742D01*
X-215942Y-279075D01*
X-215787Y-277200D01*
X-215942Y-275325D01*
X-216407Y-273658D01*
X-217027Y-272408D01*
X-217957Y-271367D01*
X-219197Y-270950D01*
G01X-206800Y-283867D02*
X-207110Y-283658D01*
Y-283242D01*
X-206800Y-283033D01*
X-206489Y-283242D01*
Y-283658D01*
X-206800Y-283867D01*
G01X-194403Y-270950D02*
X-195643Y-271367D01*
X-196572Y-272408D01*
X-197192Y-273658D01*
X-197657Y-275325D01*
X-197812Y-277200D01*
X-197657Y-279075D01*
X-197192Y-280742D01*
X-196572Y-281992D01*
X-195643Y-283033D01*
X-194403Y-283450D01*
X-193163Y-283033D01*
X-192233Y-281992D01*
X-191613Y-280742D01*
X-191148Y-279075D01*
X-190993Y-277200D01*
X-191148Y-275325D01*
X-191613Y-273658D01*
X-192233Y-272408D01*
X-193163Y-271367D01*
X-194403Y-270950D01*
G01X-229734Y-258450D02*
Y-245950D01*
X-235468Y-254908D01*
X-227719D01*
G01X-219197Y-245950D02*
X-220437Y-246367D01*
X-221366Y-247408D01*
X-221986Y-248658D01*
X-222451Y-250325D01*
X-222606Y-252200D01*
X-222451Y-254075D01*
X-221986Y-255742D01*
X-221366Y-256992D01*
X-220437Y-258033D01*
X-219197Y-258450D01*
X-217957Y-258033D01*
X-217027Y-256992D01*
X-216407Y-255742D01*
X-215942Y-254075D01*
X-215787Y-252200D01*
X-215942Y-250325D01*
X-216407Y-248658D01*
X-217027Y-247408D01*
X-217957Y-246367D01*
X-219197Y-245950D01*
G01X-206800Y-258867D02*
X-207110Y-258658D01*
Y-258242D01*
X-206800Y-258033D01*
X-206489Y-258242D01*
Y-258658D01*
X-206800Y-258867D01*
G01X-194403Y-245950D02*
X-195643Y-246367D01*
X-196572Y-247408D01*
X-197192Y-248658D01*
X-197657Y-250325D01*
X-197812Y-252200D01*
X-197657Y-254075D01*
X-197192Y-255742D01*
X-196572Y-256992D01*
X-195643Y-258033D01*
X-194403Y-258450D01*
X-193163Y-258033D01*
X-192233Y-256992D01*
X-191613Y-255742D01*
X-191148Y-254075D01*
X-190993Y-252200D01*
X-191148Y-250325D01*
X-191613Y-248658D01*
X-192233Y-247408D01*
X-193163Y-246367D01*
X-194403Y-245950D01*
G01X-241202Y-230950D02*
X-240272Y-232409D01*
X-239033Y-233242D01*
X-237637Y-233450D01*
X-236398Y-233242D01*
X-235158Y-232200D01*
X-234383Y-230950D01*
X-234228Y-229700D01*
X-234538Y-228242D01*
X-235623Y-227200D01*
X-236708Y-226783D01*
X-238103D01*
G01X-236708D02*
X-235778Y-226158D01*
X-235003Y-225117D01*
X-234693Y-223867D01*
X-235003Y-222617D01*
X-235778Y-221575D01*
X-237173Y-220950D01*
X-238567Y-221158D01*
X-239962Y-221992D01*
G01X-225396Y-233450D02*
X-224311Y-233242D01*
X-223071Y-232617D01*
X-222296Y-231575D01*
X-221986Y-230117D01*
X-222296Y-228659D01*
X-223226Y-227408D01*
X-224621Y-226783D01*
X-226170D01*
X-227100Y-226367D01*
X-227875Y-225325D01*
X-228185Y-223867D01*
X-227720Y-222408D01*
X-226636Y-221367D01*
X-225396Y-220950D01*
X-224156Y-221367D01*
X-223071Y-222408D01*
X-222606Y-223867D01*
X-222916Y-225325D01*
X-223691Y-226367D01*
X-224621Y-226783D01*
X-226170D01*
X-227565Y-227408D01*
X-228495Y-228659D01*
X-228805Y-230117D01*
X-228495Y-231575D01*
X-227720Y-232617D01*
X-226480Y-233242D01*
X-225396Y-233450D01*
G01X-212999Y-233867D02*
X-213309Y-233658D01*
Y-233242D01*
X-212999Y-233033D01*
X-212688Y-233242D01*
Y-233658D01*
X-212999Y-233867D01*
G01X-203236Y-231992D02*
X-202151Y-233033D01*
X-200912Y-233450D01*
X-199672Y-233033D01*
X-198587Y-231784D01*
X-197812Y-229908D01*
X-197502Y-228033D01*
Y-225742D01*
X-197812Y-223867D01*
X-198587Y-222200D01*
X-199517Y-221367D01*
X-200602Y-220950D01*
X-201842Y-221367D01*
X-202771Y-222200D01*
X-203391Y-223450D01*
X-203701Y-225117D01*
X-203391Y-226575D01*
X-202616Y-228033D01*
X-201686Y-228867D01*
X-200602Y-229075D01*
X-199362Y-228659D01*
X-198432Y-227617D01*
X-197502Y-225742D01*
G01X-188205Y-233450D02*
X-187120Y-233242D01*
X-185880Y-232617D01*
X-185105Y-231575D01*
X-184795Y-230117D01*
X-185105Y-228659D01*
X-186035Y-227408D01*
X-187430Y-226783D01*
X-188979D01*
X-189909Y-226367D01*
X-190684Y-225325D01*
X-190994Y-223867D01*
X-190529Y-222408D01*
X-189445Y-221367D01*
X-188205Y-220950D01*
X-186965Y-221367D01*
X-185880Y-222408D01*
X-185415Y-223867D01*
X-185725Y-225325D01*
X-186500Y-226367D01*
X-187430Y-226783D01*
X-188979D01*
X-190374Y-227408D01*
X-191304Y-228659D01*
X-191614Y-230117D01*
X-191304Y-231575D01*
X-190529Y-232617D01*
X-189289Y-233242D01*
X-188205Y-233450D01*
G01X-241202Y-205950D02*
X-240272Y-207409D01*
X-239033Y-208242D01*
X-237637Y-208450D01*
X-236398Y-208242D01*
X-235158Y-207200D01*
X-234383Y-205950D01*
X-234228Y-204700D01*
X-234538Y-203242D01*
X-235623Y-202200D01*
X-236708Y-201783D01*
X-238103D01*
G01X-236708D02*
X-235778Y-201158D01*
X-235003Y-200117D01*
X-234693Y-198867D01*
X-235003Y-197617D01*
X-235778Y-196575D01*
X-237173Y-195950D01*
X-238567Y-196158D01*
X-239962Y-196992D01*
G01X-228805Y-205950D02*
X-227875Y-207409D01*
X-226636Y-208242D01*
X-225240Y-208450D01*
X-224001Y-208242D01*
X-222761Y-207200D01*
X-221986Y-205950D01*
X-221831Y-204700D01*
X-222141Y-203242D01*
X-223226Y-202200D01*
X-224311Y-201783D01*
X-225706D01*
G01X-224311D02*
X-223381Y-201158D01*
X-222606Y-200117D01*
X-222296Y-198867D01*
X-222606Y-197617D01*
X-223381Y-196575D01*
X-224776Y-195950D01*
X-226170Y-196158D01*
X-227565Y-196992D01*
G01X-212999Y-208867D02*
X-213309Y-208658D01*
Y-208242D01*
X-212999Y-208033D01*
X-212688Y-208242D01*
Y-208658D01*
X-212999Y-208867D01*
G01X-198742Y-208450D02*
Y-195950D01*
X-204476Y-204908D01*
X-196727D01*
G01X-191149Y-203242D02*
X-190064Y-201783D01*
X-189134Y-200950D01*
X-187894Y-200533D01*
X-186810Y-200950D01*
X-186035Y-201783D01*
X-185415Y-203033D01*
X-185260Y-204492D01*
X-185415Y-205742D01*
X-186035Y-206992D01*
X-186965Y-208033D01*
X-188049Y-208450D01*
X-189289Y-208033D01*
X-190374Y-206784D01*
X-190994Y-204908D01*
X-191149Y-202825D01*
X-190839Y-200117D01*
X-190374Y-198658D01*
X-189599Y-197200D01*
X-188515Y-196158D01*
X-187430Y-195950D01*
X-186345Y-196367D01*
X-185570Y-197408D01*
G01X-235003Y-180950D02*
X-234073Y-182409D01*
X-232834Y-183242D01*
X-231438Y-183450D01*
X-230199Y-183242D01*
X-228959Y-182200D01*
X-228184Y-180950D01*
X-228029Y-179700D01*
X-228339Y-178242D01*
X-229424Y-177200D01*
X-230509Y-176783D01*
X-231904D01*
G01X-230509D02*
X-229579Y-176158D01*
X-228804Y-175117D01*
X-228494Y-173867D01*
X-228804Y-172617D01*
X-229579Y-171575D01*
X-230974Y-170950D01*
X-232368Y-171158D01*
X-233763Y-171992D01*
G01X-219197Y-183450D02*
Y-170950D01*
X-221056Y-173450D01*
G01Y-183450D02*
X-217337D01*
G01X-206800Y-183867D02*
X-207110Y-183658D01*
Y-183242D01*
X-206800Y-183033D01*
X-206489Y-183242D01*
Y-183658D01*
X-206800Y-183867D01*
G01X-197812Y-181575D02*
X-196882Y-182617D01*
X-195797Y-183242D01*
X-194403Y-183450D01*
X-193008Y-183033D01*
X-191923Y-182200D01*
X-191148Y-180742D01*
X-190993Y-179075D01*
X-191303Y-177408D01*
X-192078Y-176367D01*
X-193163Y-175533D01*
X-194247Y-175325D01*
X-195332Y-175533D01*
X-196727Y-176367D01*
X-196262Y-170950D01*
X-192078D01*
G01X-237793Y-158450D02*
Y-145950D01*
X-239652Y-148450D01*
G01Y-158450D02*
X-235933D01*
G01X-228340Y-148033D02*
X-227410Y-146784D01*
X-226325Y-146158D01*
X-225085Y-145950D01*
X-223536Y-146367D01*
X-222451Y-147408D01*
X-222141Y-148658D01*
X-222296Y-149909D01*
X-222916Y-150950D01*
X-226015Y-153033D01*
X-227410Y-154492D01*
X-228340Y-156575D01*
X-228650Y-158450D01*
X-222141D01*
G01X-212999Y-158867D02*
X-213309Y-158658D01*
Y-158242D01*
X-212999Y-158033D01*
X-212688Y-158242D01*
Y-158658D01*
X-212999Y-158867D01*
G01X-200602Y-145950D02*
X-201842Y-146367D01*
X-202771Y-147408D01*
X-203391Y-148658D01*
X-203856Y-150325D01*
X-204011Y-152200D01*
X-203856Y-154075D01*
X-203391Y-155742D01*
X-202771Y-156992D01*
X-201842Y-158033D01*
X-200602Y-158450D01*
X-199362Y-158033D01*
X-198432Y-156992D01*
X-197812Y-155742D01*
X-197347Y-154075D01*
X-197192Y-152200D01*
X-197347Y-150325D01*
X-197812Y-148658D01*
X-198432Y-147408D01*
X-199362Y-146367D01*
X-200602Y-145950D01*
G01X-188205Y-158450D02*
Y-145950D01*
X-190064Y-148450D01*
G01Y-158450D02*
X-186345D01*
G01X-213309Y-83450D02*
Y-70950D01*
X-210210D01*
X-208970Y-71575D01*
X-208040Y-72408D01*
X-207265Y-73658D01*
X-206645Y-75117D01*
X-206490Y-77200D01*
X-206645Y-79283D01*
X-207265Y-80742D01*
X-208040Y-81992D01*
X-208970Y-82825D01*
X-210210Y-83450D01*
X-213309D01*
G01X-200602D02*
Y-70950D01*
X-196728D01*
X-195488Y-71575D01*
X-194713Y-72408D01*
X-194403Y-74075D01*
X-194713Y-75742D01*
X-195643Y-76783D01*
X-196728Y-77408D01*
X-200602D01*
G01X-196728D02*
X-194403Y-83450D01*
G01X-186965Y-70950D02*
X-183246D01*
G01X-185106D02*
Y-83450D01*
G01X-186965D02*
X-183246D01*
G01X-175808Y-70950D02*
Y-83450D01*
X-169609D01*
G01X-163411Y-70950D02*
Y-83450D01*
X-157212D01*
G01X-132108Y-71992D02*
X-133038Y-71367D01*
X-134123Y-70950D01*
X-135362D01*
X-136758Y-71575D01*
X-137842Y-72617D01*
X-138617Y-73867D01*
X-139237Y-75950D01*
X-139392Y-77825D01*
X-139082Y-79700D01*
X-138617Y-80950D01*
X-137687Y-82200D01*
X-136602Y-83033D01*
X-135518Y-83450D01*
X-134433D01*
X-133348Y-83033D01*
X-132418Y-82409D01*
X-131643Y-81575D01*
G01X-126375Y-83450D02*
Y-70950D01*
G01X-119866D02*
Y-83450D01*
G01Y-77200D02*
X-126375D01*
G01X-114598Y-83450D02*
X-110724Y-70950D01*
X-106849Y-83450D01*
G01X-108244Y-79075D02*
X-113203D01*
G01X-101426Y-83450D02*
Y-70950D01*
X-97552D01*
X-96312Y-71575D01*
X-95537Y-72408D01*
X-95227Y-74075D01*
X-95537Y-75742D01*
X-96467Y-76783D01*
X-97552Y-77408D01*
X-101426D01*
G01X-97552D02*
X-95227Y-83450D01*
G01X-85930Y-70950D02*
Y-83450D01*
G01X-89494Y-70950D02*
X-82365D01*
G01X-73533Y-83867D02*
X-73843Y-83658D01*
Y-83242D01*
X-73533Y-83033D01*
X-73222Y-83242D01*
Y-83658D01*
X-73533Y-83867D01*
G01Y-78242D02*
X-73843Y-78033D01*
Y-77617D01*
X-73533Y-77408D01*
X-73222Y-77617D01*
Y-78033D01*
X-73533Y-78242D01*
G01X-48739Y-70950D02*
Y-83450D01*
G01X-52303Y-70950D02*
X-45174D01*
G01X-36342Y-83450D02*
X-37582Y-83242D01*
X-38666Y-82409D01*
X-39596Y-81158D01*
X-40216Y-79700D01*
X-40526Y-78033D01*
Y-76367D01*
X-40216Y-74700D01*
X-39596Y-73242D01*
X-38666Y-71992D01*
X-37582Y-71158D01*
X-36342Y-70950D01*
X-35102Y-71158D01*
X-34017Y-71992D01*
X-33087Y-73242D01*
X-32467Y-74700D01*
X-32157Y-76367D01*
Y-78033D01*
X-32467Y-79700D01*
X-33087Y-81158D01*
X-34017Y-82409D01*
X-35102Y-83242D01*
X-36342Y-83450D01*
G01X-27044D02*
Y-70950D01*
X-23325D01*
X-22085Y-71575D01*
X-21155Y-73033D01*
X-20845Y-74700D01*
X-21155Y-76367D01*
X-21930Y-77617D01*
X-23325Y-78242D01*
X-27044D01*
G01X849Y-70950D02*
Y-83450D01*
G01X-1320Y-75117D02*
X3019D01*
G01X13246Y-83450D02*
X12317Y-83242D01*
X11387Y-82409D01*
X10767Y-80950D01*
X10457Y-79283D01*
X10767Y-77617D01*
X11387Y-76158D01*
X12317Y-75325D01*
X13246Y-75117D01*
X14176Y-75325D01*
X15106Y-76158D01*
X15726Y-77617D01*
X15881Y-79283D01*
X15726Y-80950D01*
X15106Y-82409D01*
X14176Y-83242D01*
X13246Y-83450D01*
G01X39280Y-76783D02*
X39900Y-76158D01*
X40365Y-75117D01*
X40675Y-73658D01*
X40365Y-72408D01*
X39745Y-71575D01*
X38660Y-70950D01*
X34476D01*
Y-83450D01*
X39590D01*
X40675Y-82617D01*
X41295Y-81367D01*
X41605Y-79908D01*
X41295Y-78450D01*
X40365Y-77200D01*
X39280Y-76783D01*
X34476D01*
G01X50437Y-83450D02*
X49197Y-83242D01*
X48113Y-82409D01*
X47183Y-81158D01*
X46563Y-79700D01*
X46253Y-78033D01*
Y-76367D01*
X46563Y-74700D01*
X47183Y-73242D01*
X48113Y-71992D01*
X49197Y-71158D01*
X50437Y-70950D01*
X51677Y-71158D01*
X52762Y-71992D01*
X53692Y-73242D01*
X54312Y-74700D01*
X54622Y-76367D01*
Y-78033D01*
X54312Y-79700D01*
X53692Y-81158D01*
X52762Y-82409D01*
X51677Y-83242D01*
X50437Y-83450D01*
G01X62834Y-70950D02*
Y-83450D01*
G01X59270Y-70950D02*
X66399D01*
G01X75231D02*
Y-83450D01*
G01X71667Y-70950D02*
X78796D01*
G01X87628Y-83450D02*
X86388Y-83242D01*
X85304Y-82409D01*
X84374Y-81158D01*
X83754Y-79700D01*
X83444Y-78033D01*
Y-76367D01*
X83754Y-74700D01*
X84374Y-73242D01*
X85304Y-71992D01*
X86388Y-71158D01*
X87628Y-70950D01*
X88868Y-71158D01*
X89953Y-71992D01*
X90883Y-73242D01*
X91503Y-74700D01*
X91813Y-76367D01*
Y-78033D01*
X91503Y-79700D01*
X90883Y-81158D01*
X89953Y-82409D01*
X88868Y-83242D01*
X87628Y-83450D01*
G01X95996D02*
Y-70950D01*
X100025Y-81367D01*
X104055Y-70950D01*
Y-83450D01*
G01X-182782Y-108450D02*
X-178908Y-95950D01*
X-175033Y-108450D01*
G01X-176428Y-104075D02*
X-181387D01*
G01X-169610Y-95950D02*
Y-108450D01*
X-163411D01*
G01X-157213Y-95950D02*
Y-108450D01*
X-151014D01*
G01X-132729Y-95950D02*
Y-104908D01*
X-132109Y-106784D01*
X-130869Y-108033D01*
X-129320Y-108450D01*
X-127770Y-108033D01*
X-126530Y-106784D01*
X-125910Y-104908D01*
Y-95950D01*
G01X-120487Y-108450D02*
Y-95950D01*
X-113358Y-108450D01*
Y-95950D01*
G01X-106385D02*
X-102666D01*
G01X-104526D02*
Y-108450D01*
G01X-106385D02*
X-102666D01*
G01X-92129Y-95950D02*
Y-108450D01*
G01X-95693Y-95950D02*
X-88564D01*
G01X-82986Y-106784D02*
X-81746Y-107825D01*
X-80351Y-108450D01*
X-79112D01*
X-77872Y-107825D01*
X-76942Y-106784D01*
X-76477Y-105325D01*
X-76787Y-103867D01*
X-77562Y-102617D01*
X-78957Y-101783D01*
X-80816Y-101367D01*
X-81901Y-100533D01*
X-82366Y-99075D01*
X-82056Y-97617D01*
X-81281Y-96575D01*
X-80196Y-95950D01*
X-79112D01*
X-78027Y-96367D01*
X-77097Y-97408D01*
G01X-58812Y-108450D02*
X-54938Y-95950D01*
X-51063Y-108450D01*
G01X-52458Y-104075D02*
X-57417D01*
G01X-45640Y-108450D02*
Y-95950D01*
X-41766D01*
X-40526Y-96575D01*
X-39751Y-97408D01*
X-39441Y-99075D01*
X-39751Y-100742D01*
X-40681Y-101783D01*
X-41766Y-102408D01*
X-45640D01*
G01X-41766D02*
X-39441Y-108450D01*
G01X-27044D02*
X-33243D01*
Y-95950D01*
X-27044D01*
G01X-29524Y-101992D02*
X-33243D01*
G01X-7209Y-95950D02*
X-3490D01*
G01X-5350D02*
Y-108450D01*
G01X-7209D02*
X-3490D01*
G01X3483D02*
Y-95950D01*
X10612Y-108450D01*
Y-95950D01*
G01X27812Y-108450D02*
Y-95950D01*
X31841Y-106367D01*
X35871Y-95950D01*
Y-108450D01*
G01X42379Y-95950D02*
X46098D01*
G01X44238D02*
Y-108450D01*
G01X42379D02*
X46098D01*
G01X53536Y-95950D02*
Y-108450D01*
X59735D01*
G01X65778Y-106784D02*
X67018Y-107825D01*
X68413Y-108450D01*
X69652D01*
X70892Y-107825D01*
X71822Y-106784D01*
X72287Y-105325D01*
X71977Y-103867D01*
X71202Y-102617D01*
X69807Y-101783D01*
X67948Y-101367D01*
X66863Y-100533D01*
X66398Y-99075D01*
X66708Y-97617D01*
X67483Y-96575D01*
X68568Y-95950D01*
X69652D01*
X70737Y-96367D01*
X71667Y-97408D01*
G01X-98328Y-120950D02*
Y-133450D01*
G01X-101892Y-120950D02*
X-94763D01*
G01X-85931Y-133450D02*
X-87171Y-133242D01*
X-88255Y-132409D01*
X-89185Y-131158D01*
X-89805Y-129700D01*
X-90115Y-128033D01*
Y-126367D01*
X-89805Y-124700D01*
X-89185Y-123242D01*
X-88255Y-121992D01*
X-87171Y-121158D01*
X-85931Y-120950D01*
X-84691Y-121158D01*
X-83606Y-121992D01*
X-82676Y-123242D01*
X-82056Y-124700D01*
X-81746Y-126367D01*
Y-128033D01*
X-82056Y-129700D01*
X-82676Y-131158D01*
X-83606Y-132409D01*
X-84691Y-133242D01*
X-85931Y-133450D01*
G01X-76633Y-120950D02*
Y-133450D01*
X-70434D01*
G01X-58037D02*
X-64236D01*
Y-120950D01*
X-58037D01*
G01X-60517Y-126992D02*
X-64236D01*
G01X-51839Y-133450D02*
Y-120950D01*
X-47965D01*
X-46725Y-121575D01*
X-45950Y-122408D01*
X-45640Y-124075D01*
X-45950Y-125742D01*
X-46880Y-126783D01*
X-47965Y-127408D01*
X-51839D01*
G01X-47965D02*
X-45640Y-133450D01*
G01X-40217D02*
X-36343Y-120950D01*
X-32468Y-133450D01*
G01X-33863Y-129075D02*
X-38822D01*
G01X-27510Y-133450D02*
Y-120950D01*
X-20381Y-133450D01*
Y-120950D01*
G01X-8139Y-121992D02*
X-9069Y-121367D01*
X-10154Y-120950D01*
X-11393D01*
X-12789Y-121575D01*
X-13873Y-122617D01*
X-14648Y-123867D01*
X-15268Y-125950D01*
X-15423Y-127825D01*
X-15113Y-129700D01*
X-14648Y-130950D01*
X-13718Y-132200D01*
X-12633Y-133033D01*
X-11549Y-133450D01*
X-10464D01*
X-9379Y-133033D01*
X-8449Y-132409D01*
X-7674Y-131575D01*
G01X3948Y-133450D02*
X-2251D01*
Y-120950D01*
X3948D01*
G01X1468Y-126992D02*
X-2251D01*
G01X8596Y-137617D02*
X17895D01*
G01X22233Y-133450D02*
Y-120950D01*
X25332D01*
X26572Y-121575D01*
X27502Y-122408D01*
X28277Y-123658D01*
X28897Y-125117D01*
X29052Y-127200D01*
X28897Y-129283D01*
X28277Y-130742D01*
X27502Y-131992D01*
X26572Y-132825D01*
X25332Y-133450D01*
X22233D01*
G01X34940D02*
Y-120950D01*
X38814D01*
X40054Y-121575D01*
X40829Y-122408D01*
X41139Y-124075D01*
X40829Y-125742D01*
X39899Y-126783D01*
X38814Y-127408D01*
X34940D01*
G01X38814D02*
X41139Y-133450D01*
G01X48577Y-120950D02*
X52296D01*
G01X50436D02*
Y-133450D01*
G01X48577D02*
X52296D01*
G01X59734Y-120950D02*
Y-133450D01*
X65933D01*
G01X72131Y-120950D02*
Y-133450D01*
X78330D01*
G01X-75238Y-279283D02*
X-71519D01*
G01X-73534Y-276575D02*
Y-281992D01*
G01X-64081Y-273033D02*
X-63151Y-271784D01*
X-62066Y-271158D01*
X-60826Y-270950D01*
X-59277Y-271367D01*
X-58192Y-272408D01*
X-57882Y-273658D01*
X-58037Y-274909D01*
X-58657Y-275950D01*
X-61756Y-278033D01*
X-63151Y-279492D01*
X-64081Y-281575D01*
X-64391Y-283450D01*
X-57882D01*
G01X-48740Y-283867D02*
X-49050Y-283658D01*
Y-283242D01*
X-48740Y-283033D01*
X-48429Y-283242D01*
Y-283658D01*
X-48740Y-283867D01*
G01X-38977Y-281992D02*
X-37892Y-283033D01*
X-36653Y-283450D01*
X-35413Y-283033D01*
X-34328Y-281784D01*
X-33553Y-279908D01*
X-33243Y-278033D01*
Y-275742D01*
X-33553Y-273867D01*
X-34328Y-272200D01*
X-35258Y-271367D01*
X-36343Y-270950D01*
X-37583Y-271367D01*
X-38512Y-272200D01*
X-39132Y-273450D01*
X-39442Y-275117D01*
X-39132Y-276575D01*
X-38357Y-278033D01*
X-37427Y-278867D01*
X-36343Y-279075D01*
X-35103Y-278659D01*
X-34173Y-277617D01*
X-33243Y-275742D01*
G01X-26580Y-281992D02*
X-25495Y-283033D01*
X-24256Y-283450D01*
X-23016Y-283033D01*
X-21931Y-281784D01*
X-21156Y-279908D01*
X-20846Y-278033D01*
Y-275742D01*
X-21156Y-273867D01*
X-21931Y-272200D01*
X-22861Y-271367D01*
X-23946Y-270950D01*
X-25186Y-271367D01*
X-26115Y-272200D01*
X-26735Y-273450D01*
X-27045Y-275117D01*
X-26735Y-276575D01*
X-25960Y-278033D01*
X-25030Y-278867D01*
X-23946Y-279075D01*
X-22706Y-278659D01*
X-21776Y-277617D01*
X-20846Y-275742D01*
G01X-14338Y-283867D02*
X-8759Y-270950D01*
G01X-1166Y-279283D02*
X2863D01*
G01X10301Y-273033D02*
X11231Y-271784D01*
X12316Y-271158D01*
X13556Y-270950D01*
X15105Y-271367D01*
X16190Y-272408D01*
X16500Y-273658D01*
X16345Y-274909D01*
X15725Y-275950D01*
X12626Y-278033D01*
X11231Y-279492D01*
X10301Y-281575D01*
X9991Y-283450D01*
X16500D01*
G01X25642Y-283867D02*
X25332Y-283658D01*
Y-283242D01*
X25642Y-283033D01*
X25953Y-283242D01*
Y-283658D01*
X25642Y-283867D01*
G01X35405Y-281992D02*
X36490Y-283033D01*
X37729Y-283450D01*
X38969Y-283033D01*
X40054Y-281784D01*
X40829Y-279908D01*
X41139Y-278033D01*
Y-275742D01*
X40829Y-273867D01*
X40054Y-272200D01*
X39124Y-271367D01*
X38039Y-270950D01*
X36799Y-271367D01*
X35870Y-272200D01*
X35250Y-273450D01*
X34940Y-275117D01*
X35250Y-276575D01*
X36025Y-278033D01*
X36955Y-278867D01*
X38039Y-279075D01*
X39279Y-278659D01*
X40209Y-277617D01*
X41139Y-275742D01*
G01X47802Y-281992D02*
X48887Y-283033D01*
X50126Y-283450D01*
X51366Y-283033D01*
X52451Y-281784D01*
X53226Y-279908D01*
X53536Y-278033D01*
Y-275742D01*
X53226Y-273867D01*
X52451Y-272200D01*
X51521Y-271367D01*
X50436Y-270950D01*
X49196Y-271367D01*
X48267Y-272200D01*
X47647Y-273450D01*
X47337Y-275117D01*
X47647Y-276575D01*
X48422Y-278033D01*
X49352Y-278867D01*
X50436Y-279075D01*
X51676Y-278659D01*
X52606Y-277617D01*
X53536Y-275742D01*
G01X-75238Y-154283D02*
X-71519D01*
G01X-73534Y-151575D02*
Y-156992D01*
G01X-61137Y-145950D02*
X-62377Y-146367D01*
X-63306Y-147408D01*
X-63926Y-148658D01*
X-64391Y-150325D01*
X-64546Y-152200D01*
X-64391Y-154075D01*
X-63926Y-155742D01*
X-63306Y-156992D01*
X-62377Y-158033D01*
X-61137Y-158450D01*
X-59897Y-158033D01*
X-58967Y-156992D01*
X-58347Y-155742D01*
X-57882Y-154075D01*
X-57727Y-152200D01*
X-57882Y-150325D01*
X-58347Y-148658D01*
X-58967Y-147408D01*
X-59897Y-146367D01*
X-61137Y-145950D01*
G01X-48740Y-158867D02*
X-49050Y-158658D01*
Y-158242D01*
X-48740Y-158033D01*
X-48429Y-158242D01*
Y-158658D01*
X-48740Y-158867D01*
G01X-36343Y-145950D02*
X-37583Y-146367D01*
X-38512Y-147408D01*
X-39132Y-148658D01*
X-39597Y-150325D01*
X-39752Y-152200D01*
X-39597Y-154075D01*
X-39132Y-155742D01*
X-38512Y-156992D01*
X-37583Y-158033D01*
X-36343Y-158450D01*
X-35103Y-158033D01*
X-34173Y-156992D01*
X-33553Y-155742D01*
X-33088Y-154075D01*
X-32933Y-152200D01*
X-33088Y-150325D01*
X-33553Y-148658D01*
X-34173Y-147408D01*
X-35103Y-146367D01*
X-36343Y-145950D01*
G01X-26735Y-158867D02*
X-21156Y-145950D01*
G01X-13563Y-154283D02*
X-9534D01*
G01X848Y-158450D02*
Y-145950D01*
X-1011Y-148450D01*
G01Y-158450D02*
X2708D01*
G01X10301Y-148033D02*
X11231Y-146784D01*
X12316Y-146158D01*
X13556Y-145950D01*
X15105Y-146367D01*
X16190Y-147408D01*
X16500Y-148658D01*
X16345Y-149909D01*
X15725Y-150950D01*
X12626Y-153033D01*
X11231Y-154492D01*
X10301Y-156575D01*
X9991Y-158450D01*
X16500D01*
G01X25642Y-158867D02*
X25332Y-158658D01*
Y-158242D01*
X25642Y-158033D01*
X25953Y-158242D01*
Y-158658D01*
X25642Y-158867D01*
G01X38039Y-145950D02*
X36799Y-146367D01*
X35870Y-147408D01*
X35250Y-148658D01*
X34785Y-150325D01*
X34630Y-152200D01*
X34785Y-154075D01*
X35250Y-155742D01*
X35870Y-156992D01*
X36799Y-158033D01*
X38039Y-158450D01*
X39279Y-158033D01*
X40209Y-156992D01*
X40829Y-155742D01*
X41294Y-154075D01*
X41449Y-152200D01*
X41294Y-150325D01*
X40829Y-148658D01*
X40209Y-147408D01*
X39279Y-146367D01*
X38039Y-145950D01*
G01X50436Y-158450D02*
Y-145950D01*
X48577Y-148450D01*
G01Y-158450D02*
X52296D01*
G01X-62841Y-429283D02*
X-59122D01*
G01X-61137Y-426575D02*
Y-431992D01*
G01X-48740Y-420950D02*
X-49980Y-421367D01*
X-50909Y-422408D01*
X-51529Y-423658D01*
X-51994Y-425325D01*
X-52149Y-427200D01*
X-51994Y-429075D01*
X-51529Y-430742D01*
X-50909Y-431992D01*
X-49980Y-433033D01*
X-48740Y-433450D01*
X-47500Y-433033D01*
X-46570Y-431992D01*
X-45950Y-430742D01*
X-45485Y-429075D01*
X-45330Y-427200D01*
X-45485Y-425325D01*
X-45950Y-423658D01*
X-46570Y-422408D01*
X-47500Y-421367D01*
X-48740Y-420950D01*
G01X-36343Y-433867D02*
X-36653Y-433658D01*
Y-433242D01*
X-36343Y-433033D01*
X-36032Y-433242D01*
Y-433658D01*
X-36343Y-433867D01*
G01X-23946Y-420950D02*
X-25186Y-421367D01*
X-26115Y-422408D01*
X-26735Y-423658D01*
X-27200Y-425325D01*
X-27355Y-427200D01*
X-27200Y-429075D01*
X-26735Y-430742D01*
X-26115Y-431992D01*
X-25186Y-433033D01*
X-23946Y-433450D01*
X-22706Y-433033D01*
X-21776Y-431992D01*
X-21156Y-430742D01*
X-20691Y-429075D01*
X-20536Y-427200D01*
X-20691Y-425325D01*
X-21156Y-423658D01*
X-21776Y-422408D01*
X-22706Y-421367D01*
X-23946Y-420950D01*
G01X-14338Y-433867D02*
X-8759Y-420950D01*
G01X-1166Y-429283D02*
X2863D01*
G01X13245Y-420950D02*
X12005Y-421367D01*
X11076Y-422408D01*
X10456Y-423658D01*
X9991Y-425325D01*
X9836Y-427200D01*
X9991Y-429075D01*
X10456Y-430742D01*
X11076Y-431992D01*
X12005Y-433033D01*
X13245Y-433450D01*
X14485Y-433033D01*
X15415Y-431992D01*
X16035Y-430742D01*
X16500Y-429075D01*
X16655Y-427200D01*
X16500Y-425325D01*
X16035Y-423658D01*
X15415Y-422408D01*
X14485Y-421367D01*
X13245Y-420950D01*
G01X25642Y-433867D02*
X25332Y-433658D01*
Y-433242D01*
X25642Y-433033D01*
X25953Y-433242D01*
Y-433658D01*
X25642Y-433867D01*
G01X38039Y-420950D02*
X36799Y-421367D01*
X35870Y-422408D01*
X35250Y-423658D01*
X34785Y-425325D01*
X34630Y-427200D01*
X34785Y-429075D01*
X35250Y-430742D01*
X35870Y-431992D01*
X36799Y-433033D01*
X38039Y-433450D01*
X39279Y-433033D01*
X40209Y-431992D01*
X40829Y-430742D01*
X41294Y-429075D01*
X41449Y-427200D01*
X41294Y-425325D01*
X40829Y-423658D01*
X40209Y-422408D01*
X39279Y-421367D01*
X38039Y-420950D01*
G01X-62841Y-404283D02*
X-59122D01*
G01X-61137Y-401575D02*
Y-406992D01*
G01X-48740Y-395950D02*
X-49980Y-396367D01*
X-50909Y-397408D01*
X-51529Y-398658D01*
X-51994Y-400325D01*
X-52149Y-402200D01*
X-51994Y-404075D01*
X-51529Y-405742D01*
X-50909Y-406992D01*
X-49980Y-408033D01*
X-48740Y-408450D01*
X-47500Y-408033D01*
X-46570Y-406992D01*
X-45950Y-405742D01*
X-45485Y-404075D01*
X-45330Y-402200D01*
X-45485Y-400325D01*
X-45950Y-398658D01*
X-46570Y-397408D01*
X-47500Y-396367D01*
X-48740Y-395950D01*
G01X-36343Y-408867D02*
X-36653Y-408658D01*
Y-408242D01*
X-36343Y-408033D01*
X-36032Y-408242D01*
Y-408658D01*
X-36343Y-408867D01*
G01X-23946Y-395950D02*
X-25186Y-396367D01*
X-26115Y-397408D01*
X-26735Y-398658D01*
X-27200Y-400325D01*
X-27355Y-402200D01*
X-27200Y-404075D01*
X-26735Y-405742D01*
X-26115Y-406992D01*
X-25186Y-408033D01*
X-23946Y-408450D01*
X-22706Y-408033D01*
X-21776Y-406992D01*
X-21156Y-405742D01*
X-20691Y-404075D01*
X-20536Y-402200D01*
X-20691Y-400325D01*
X-21156Y-398658D01*
X-21776Y-397408D01*
X-22706Y-396367D01*
X-23946Y-395950D01*
G01X-14338Y-408867D02*
X-8759Y-395950D01*
G01X-1166Y-404283D02*
X2863D01*
G01X13245Y-395950D02*
X12005Y-396367D01*
X11076Y-397408D01*
X10456Y-398658D01*
X9991Y-400325D01*
X9836Y-402200D01*
X9991Y-404075D01*
X10456Y-405742D01*
X11076Y-406992D01*
X12005Y-408033D01*
X13245Y-408450D01*
X14485Y-408033D01*
X15415Y-406992D01*
X16035Y-405742D01*
X16500Y-404075D01*
X16655Y-402200D01*
X16500Y-400325D01*
X16035Y-398658D01*
X15415Y-397408D01*
X14485Y-396367D01*
X13245Y-395950D01*
G01X25642Y-408867D02*
X25332Y-408658D01*
Y-408242D01*
X25642Y-408033D01*
X25953Y-408242D01*
Y-408658D01*
X25642Y-408867D01*
G01X38039Y-395950D02*
X36799Y-396367D01*
X35870Y-397408D01*
X35250Y-398658D01*
X34785Y-400325D01*
X34630Y-402200D01*
X34785Y-404075D01*
X35250Y-405742D01*
X35870Y-406992D01*
X36799Y-408033D01*
X38039Y-408450D01*
X39279Y-408033D01*
X40209Y-406992D01*
X40829Y-405742D01*
X41294Y-404075D01*
X41449Y-402200D01*
X41294Y-400325D01*
X40829Y-398658D01*
X40209Y-397408D01*
X39279Y-396367D01*
X38039Y-395950D01*
G01X-62841Y-379283D02*
X-59122D01*
G01X-61137Y-376575D02*
Y-381992D01*
G01X-48740Y-370950D02*
X-49980Y-371367D01*
X-50909Y-372408D01*
X-51529Y-373658D01*
X-51994Y-375325D01*
X-52149Y-377200D01*
X-51994Y-379075D01*
X-51529Y-380742D01*
X-50909Y-381992D01*
X-49980Y-383033D01*
X-48740Y-383450D01*
X-47500Y-383033D01*
X-46570Y-381992D01*
X-45950Y-380742D01*
X-45485Y-379075D01*
X-45330Y-377200D01*
X-45485Y-375325D01*
X-45950Y-373658D01*
X-46570Y-372408D01*
X-47500Y-371367D01*
X-48740Y-370950D01*
G01X-36343Y-383867D02*
X-36653Y-383658D01*
Y-383242D01*
X-36343Y-383033D01*
X-36032Y-383242D01*
Y-383658D01*
X-36343Y-383867D01*
G01X-23946Y-370950D02*
X-25186Y-371367D01*
X-26115Y-372408D01*
X-26735Y-373658D01*
X-27200Y-375325D01*
X-27355Y-377200D01*
X-27200Y-379075D01*
X-26735Y-380742D01*
X-26115Y-381992D01*
X-25186Y-383033D01*
X-23946Y-383450D01*
X-22706Y-383033D01*
X-21776Y-381992D01*
X-21156Y-380742D01*
X-20691Y-379075D01*
X-20536Y-377200D01*
X-20691Y-375325D01*
X-21156Y-373658D01*
X-21776Y-372408D01*
X-22706Y-371367D01*
X-23946Y-370950D01*
G01X-14338Y-383867D02*
X-8759Y-370950D01*
G01X-1166Y-379283D02*
X2863D01*
G01X13245Y-370950D02*
X12005Y-371367D01*
X11076Y-372408D01*
X10456Y-373658D01*
X9991Y-375325D01*
X9836Y-377200D01*
X9991Y-379075D01*
X10456Y-380742D01*
X11076Y-381992D01*
X12005Y-383033D01*
X13245Y-383450D01*
X14485Y-383033D01*
X15415Y-381992D01*
X16035Y-380742D01*
X16500Y-379075D01*
X16655Y-377200D01*
X16500Y-375325D01*
X16035Y-373658D01*
X15415Y-372408D01*
X14485Y-371367D01*
X13245Y-370950D01*
G01X25642Y-383867D02*
X25332Y-383658D01*
Y-383242D01*
X25642Y-383033D01*
X25953Y-383242D01*
Y-383658D01*
X25642Y-383867D01*
G01X38039Y-370950D02*
X36799Y-371367D01*
X35870Y-372408D01*
X35250Y-373658D01*
X34785Y-375325D01*
X34630Y-377200D01*
X34785Y-379075D01*
X35250Y-380742D01*
X35870Y-381992D01*
X36799Y-383033D01*
X38039Y-383450D01*
X39279Y-383033D01*
X40209Y-381992D01*
X40829Y-380742D01*
X41294Y-379075D01*
X41449Y-377200D01*
X41294Y-375325D01*
X40829Y-373658D01*
X40209Y-372408D01*
X39279Y-371367D01*
X38039Y-370950D01*
G01X-62841Y-354283D02*
X-59122D01*
G01X-61137Y-351575D02*
Y-356992D01*
G01X-48740Y-345950D02*
X-49980Y-346367D01*
X-50909Y-347408D01*
X-51529Y-348658D01*
X-51994Y-350325D01*
X-52149Y-352200D01*
X-51994Y-354075D01*
X-51529Y-355742D01*
X-50909Y-356992D01*
X-49980Y-358033D01*
X-48740Y-358450D01*
X-47500Y-358033D01*
X-46570Y-356992D01*
X-45950Y-355742D01*
X-45485Y-354075D01*
X-45330Y-352200D01*
X-45485Y-350325D01*
X-45950Y-348658D01*
X-46570Y-347408D01*
X-47500Y-346367D01*
X-48740Y-345950D01*
G01X-36343Y-358867D02*
X-36653Y-358658D01*
Y-358242D01*
X-36343Y-358033D01*
X-36032Y-358242D01*
Y-358658D01*
X-36343Y-358867D01*
G01X-23946Y-345950D02*
X-25186Y-346367D01*
X-26115Y-347408D01*
X-26735Y-348658D01*
X-27200Y-350325D01*
X-27355Y-352200D01*
X-27200Y-354075D01*
X-26735Y-355742D01*
X-26115Y-356992D01*
X-25186Y-358033D01*
X-23946Y-358450D01*
X-22706Y-358033D01*
X-21776Y-356992D01*
X-21156Y-355742D01*
X-20691Y-354075D01*
X-20536Y-352200D01*
X-20691Y-350325D01*
X-21156Y-348658D01*
X-21776Y-347408D01*
X-22706Y-346367D01*
X-23946Y-345950D01*
G01X-14338Y-358867D02*
X-8759Y-345950D01*
G01X-1166Y-354283D02*
X2863D01*
G01X13245Y-345950D02*
X12005Y-346367D01*
X11076Y-347408D01*
X10456Y-348658D01*
X9991Y-350325D01*
X9836Y-352200D01*
X9991Y-354075D01*
X10456Y-355742D01*
X11076Y-356992D01*
X12005Y-358033D01*
X13245Y-358450D01*
X14485Y-358033D01*
X15415Y-356992D01*
X16035Y-355742D01*
X16500Y-354075D01*
X16655Y-352200D01*
X16500Y-350325D01*
X16035Y-348658D01*
X15415Y-347408D01*
X14485Y-346367D01*
X13245Y-345950D01*
G01X25642Y-358867D02*
X25332Y-358658D01*
Y-358242D01*
X25642Y-358033D01*
X25953Y-358242D01*
Y-358658D01*
X25642Y-358867D01*
G01X38039Y-345950D02*
X36799Y-346367D01*
X35870Y-347408D01*
X35250Y-348658D01*
X34785Y-350325D01*
X34630Y-352200D01*
X34785Y-354075D01*
X35250Y-355742D01*
X35870Y-356992D01*
X36799Y-358033D01*
X38039Y-358450D01*
X39279Y-358033D01*
X40209Y-356992D01*
X40829Y-355742D01*
X41294Y-354075D01*
X41449Y-352200D01*
X41294Y-350325D01*
X40829Y-348658D01*
X40209Y-347408D01*
X39279Y-346367D01*
X38039Y-345950D01*
G01X-62841Y-329283D02*
X-59122D01*
G01X-61137Y-326575D02*
Y-331992D01*
G01X-48740Y-320950D02*
X-49980Y-321367D01*
X-50909Y-322408D01*
X-51529Y-323658D01*
X-51994Y-325325D01*
X-52149Y-327200D01*
X-51994Y-329075D01*
X-51529Y-330742D01*
X-50909Y-331992D01*
X-49980Y-333033D01*
X-48740Y-333450D01*
X-47500Y-333033D01*
X-46570Y-331992D01*
X-45950Y-330742D01*
X-45485Y-329075D01*
X-45330Y-327200D01*
X-45485Y-325325D01*
X-45950Y-323658D01*
X-46570Y-322408D01*
X-47500Y-321367D01*
X-48740Y-320950D01*
G01X-36343Y-333867D02*
X-36653Y-333658D01*
Y-333242D01*
X-36343Y-333033D01*
X-36032Y-333242D01*
Y-333658D01*
X-36343Y-333867D01*
G01X-23946Y-320950D02*
X-25186Y-321367D01*
X-26115Y-322408D01*
X-26735Y-323658D01*
X-27200Y-325325D01*
X-27355Y-327200D01*
X-27200Y-329075D01*
X-26735Y-330742D01*
X-26115Y-331992D01*
X-25186Y-333033D01*
X-23946Y-333450D01*
X-22706Y-333033D01*
X-21776Y-331992D01*
X-21156Y-330742D01*
X-20691Y-329075D01*
X-20536Y-327200D01*
X-20691Y-325325D01*
X-21156Y-323658D01*
X-21776Y-322408D01*
X-22706Y-321367D01*
X-23946Y-320950D01*
G01X-14338Y-333867D02*
X-8759Y-320950D01*
G01X-1166Y-329283D02*
X2863D01*
G01X13245Y-320950D02*
X12005Y-321367D01*
X11076Y-322408D01*
X10456Y-323658D01*
X9991Y-325325D01*
X9836Y-327200D01*
X9991Y-329075D01*
X10456Y-330742D01*
X11076Y-331992D01*
X12005Y-333033D01*
X13245Y-333450D01*
X14485Y-333033D01*
X15415Y-331992D01*
X16035Y-330742D01*
X16500Y-329075D01*
X16655Y-327200D01*
X16500Y-325325D01*
X16035Y-323658D01*
X15415Y-322408D01*
X14485Y-321367D01*
X13245Y-320950D01*
G01X25642Y-333867D02*
X25332Y-333658D01*
Y-333242D01*
X25642Y-333033D01*
X25953Y-333242D01*
Y-333658D01*
X25642Y-333867D01*
G01X38039Y-320950D02*
X36799Y-321367D01*
X35870Y-322408D01*
X35250Y-323658D01*
X34785Y-325325D01*
X34630Y-327200D01*
X34785Y-329075D01*
X35250Y-330742D01*
X35870Y-331992D01*
X36799Y-333033D01*
X38039Y-333450D01*
X39279Y-333033D01*
X40209Y-331992D01*
X40829Y-330742D01*
X41294Y-329075D01*
X41449Y-327200D01*
X41294Y-325325D01*
X40829Y-323658D01*
X40209Y-322408D01*
X39279Y-321367D01*
X38039Y-320950D01*
G01X-62841Y-304283D02*
X-59122D01*
G01X-61137Y-301575D02*
Y-306992D01*
G01X-52149Y-305950D02*
X-51219Y-307409D01*
X-49980Y-308242D01*
X-48584Y-308450D01*
X-47345Y-308242D01*
X-46105Y-307200D01*
X-45330Y-305950D01*
X-45175Y-304700D01*
X-45485Y-303242D01*
X-46570Y-302200D01*
X-47655Y-301783D01*
X-49050D01*
G01X-47655D02*
X-46725Y-301158D01*
X-45950Y-300117D01*
X-45640Y-298867D01*
X-45950Y-297617D01*
X-46725Y-296575D01*
X-48120Y-295950D01*
X-49514Y-296158D01*
X-50909Y-296992D01*
G01X-36343Y-308867D02*
X-36653Y-308658D01*
Y-308242D01*
X-36343Y-308033D01*
X-36032Y-308242D01*
Y-308658D01*
X-36343Y-308867D01*
G01X-23946Y-295950D02*
X-25186Y-296367D01*
X-26115Y-297408D01*
X-26735Y-298658D01*
X-27200Y-300325D01*
X-27355Y-302200D01*
X-27200Y-304075D01*
X-26735Y-305742D01*
X-26115Y-306992D01*
X-25186Y-308033D01*
X-23946Y-308450D01*
X-22706Y-308033D01*
X-21776Y-306992D01*
X-21156Y-305742D01*
X-20691Y-304075D01*
X-20536Y-302200D01*
X-20691Y-300325D01*
X-21156Y-298658D01*
X-21776Y-297408D01*
X-22706Y-296367D01*
X-23946Y-295950D01*
G01X-14338Y-308867D02*
X-8759Y-295950D01*
G01X-1166Y-304283D02*
X2863D01*
G01X9836Y-305950D02*
X10766Y-307409D01*
X12005Y-308242D01*
X13401Y-308450D01*
X14640Y-308242D01*
X15880Y-307200D01*
X16655Y-305950D01*
X16810Y-304700D01*
X16500Y-303242D01*
X15415Y-302200D01*
X14330Y-301783D01*
X12935D01*
G01X14330D02*
X15260Y-301158D01*
X16035Y-300117D01*
X16345Y-298867D01*
X16035Y-297617D01*
X15260Y-296575D01*
X13865Y-295950D01*
X12471Y-296158D01*
X11076Y-296992D01*
G01X25642Y-308867D02*
X25332Y-308658D01*
Y-308242D01*
X25642Y-308033D01*
X25953Y-308242D01*
Y-308658D01*
X25642Y-308867D01*
G01X38039Y-295950D02*
X36799Y-296367D01*
X35870Y-297408D01*
X35250Y-298658D01*
X34785Y-300325D01*
X34630Y-302200D01*
X34785Y-304075D01*
X35250Y-305742D01*
X35870Y-306992D01*
X36799Y-308033D01*
X38039Y-308450D01*
X39279Y-308033D01*
X40209Y-306992D01*
X40829Y-305742D01*
X41294Y-304075D01*
X41449Y-302200D01*
X41294Y-300325D01*
X40829Y-298658D01*
X40209Y-297408D01*
X39279Y-296367D01*
X38039Y-295950D01*
G01X-62841Y-254283D02*
X-59122D01*
G01X-61137Y-251575D02*
Y-256992D01*
G01X-48740Y-245950D02*
X-49980Y-246367D01*
X-50909Y-247408D01*
X-51529Y-248658D01*
X-51994Y-250325D01*
X-52149Y-252200D01*
X-51994Y-254075D01*
X-51529Y-255742D01*
X-50909Y-256992D01*
X-49980Y-258033D01*
X-48740Y-258450D01*
X-47500Y-258033D01*
X-46570Y-256992D01*
X-45950Y-255742D01*
X-45485Y-254075D01*
X-45330Y-252200D01*
X-45485Y-250325D01*
X-45950Y-248658D01*
X-46570Y-247408D01*
X-47500Y-246367D01*
X-48740Y-245950D01*
G01X-36343Y-258867D02*
X-36653Y-258658D01*
Y-258242D01*
X-36343Y-258033D01*
X-36032Y-258242D01*
Y-258658D01*
X-36343Y-258867D01*
G01X-23946Y-245950D02*
X-25186Y-246367D01*
X-26115Y-247408D01*
X-26735Y-248658D01*
X-27200Y-250325D01*
X-27355Y-252200D01*
X-27200Y-254075D01*
X-26735Y-255742D01*
X-26115Y-256992D01*
X-25186Y-258033D01*
X-23946Y-258450D01*
X-22706Y-258033D01*
X-21776Y-256992D01*
X-21156Y-255742D01*
X-20691Y-254075D01*
X-20536Y-252200D01*
X-20691Y-250325D01*
X-21156Y-248658D01*
X-21776Y-247408D01*
X-22706Y-246367D01*
X-23946Y-245950D01*
G01X-14338Y-258867D02*
X-8759Y-245950D01*
G01X-1166Y-254283D02*
X2863D01*
G01X13245Y-245950D02*
X12005Y-246367D01*
X11076Y-247408D01*
X10456Y-248658D01*
X9991Y-250325D01*
X9836Y-252200D01*
X9991Y-254075D01*
X10456Y-255742D01*
X11076Y-256992D01*
X12005Y-258033D01*
X13245Y-258450D01*
X14485Y-258033D01*
X15415Y-256992D01*
X16035Y-255742D01*
X16500Y-254075D01*
X16655Y-252200D01*
X16500Y-250325D01*
X16035Y-248658D01*
X15415Y-247408D01*
X14485Y-246367D01*
X13245Y-245950D01*
G01X25642Y-258867D02*
X25332Y-258658D01*
Y-258242D01*
X25642Y-258033D01*
X25953Y-258242D01*
Y-258658D01*
X25642Y-258867D01*
G01X38039Y-245950D02*
X36799Y-246367D01*
X35870Y-247408D01*
X35250Y-248658D01*
X34785Y-250325D01*
X34630Y-252200D01*
X34785Y-254075D01*
X35250Y-255742D01*
X35870Y-256992D01*
X36799Y-258033D01*
X38039Y-258450D01*
X39279Y-258033D01*
X40209Y-256992D01*
X40829Y-255742D01*
X41294Y-254075D01*
X41449Y-252200D01*
X41294Y-250325D01*
X40829Y-248658D01*
X40209Y-247408D01*
X39279Y-246367D01*
X38039Y-245950D01*
G01X-62841Y-229283D02*
X-59122D01*
G01X-61137Y-226575D02*
Y-231992D01*
G01X-48740Y-220950D02*
X-49980Y-221367D01*
X-50909Y-222408D01*
X-51529Y-223658D01*
X-51994Y-225325D01*
X-52149Y-227200D01*
X-51994Y-229075D01*
X-51529Y-230742D01*
X-50909Y-231992D01*
X-49980Y-233033D01*
X-48740Y-233450D01*
X-47500Y-233033D01*
X-46570Y-231992D01*
X-45950Y-230742D01*
X-45485Y-229075D01*
X-45330Y-227200D01*
X-45485Y-225325D01*
X-45950Y-223658D01*
X-46570Y-222408D01*
X-47500Y-221367D01*
X-48740Y-220950D01*
G01X-36343Y-233867D02*
X-36653Y-233658D01*
Y-233242D01*
X-36343Y-233033D01*
X-36032Y-233242D01*
Y-233658D01*
X-36343Y-233867D01*
G01X-23946Y-220950D02*
X-25186Y-221367D01*
X-26115Y-222408D01*
X-26735Y-223658D01*
X-27200Y-225325D01*
X-27355Y-227200D01*
X-27200Y-229075D01*
X-26735Y-230742D01*
X-26115Y-231992D01*
X-25186Y-233033D01*
X-23946Y-233450D01*
X-22706Y-233033D01*
X-21776Y-231992D01*
X-21156Y-230742D01*
X-20691Y-229075D01*
X-20536Y-227200D01*
X-20691Y-225325D01*
X-21156Y-223658D01*
X-21776Y-222408D01*
X-22706Y-221367D01*
X-23946Y-220950D01*
G01X-14338Y-233867D02*
X-8759Y-220950D01*
G01X-1166Y-229283D02*
X2863D01*
G01X13245Y-220950D02*
X12005Y-221367D01*
X11076Y-222408D01*
X10456Y-223658D01*
X9991Y-225325D01*
X9836Y-227200D01*
X9991Y-229075D01*
X10456Y-230742D01*
X11076Y-231992D01*
X12005Y-233033D01*
X13245Y-233450D01*
X14485Y-233033D01*
X15415Y-231992D01*
X16035Y-230742D01*
X16500Y-229075D01*
X16655Y-227200D01*
X16500Y-225325D01*
X16035Y-223658D01*
X15415Y-222408D01*
X14485Y-221367D01*
X13245Y-220950D01*
G01X25642Y-233867D02*
X25332Y-233658D01*
Y-233242D01*
X25642Y-233033D01*
X25953Y-233242D01*
Y-233658D01*
X25642Y-233867D01*
G01X38039Y-220950D02*
X36799Y-221367D01*
X35870Y-222408D01*
X35250Y-223658D01*
X34785Y-225325D01*
X34630Y-227200D01*
X34785Y-229075D01*
X35250Y-230742D01*
X35870Y-231992D01*
X36799Y-233033D01*
X38039Y-233450D01*
X39279Y-233033D01*
X40209Y-231992D01*
X40829Y-230742D01*
X41294Y-229075D01*
X41449Y-227200D01*
X41294Y-225325D01*
X40829Y-223658D01*
X40209Y-222408D01*
X39279Y-221367D01*
X38039Y-220950D01*
G01X-62841Y-204283D02*
X-59122D01*
G01X-61137Y-201575D02*
Y-206992D01*
G01X-48740Y-195950D02*
X-49980Y-196367D01*
X-50909Y-197408D01*
X-51529Y-198658D01*
X-51994Y-200325D01*
X-52149Y-202200D01*
X-51994Y-204075D01*
X-51529Y-205742D01*
X-50909Y-206992D01*
X-49980Y-208033D01*
X-48740Y-208450D01*
X-47500Y-208033D01*
X-46570Y-206992D01*
X-45950Y-205742D01*
X-45485Y-204075D01*
X-45330Y-202200D01*
X-45485Y-200325D01*
X-45950Y-198658D01*
X-46570Y-197408D01*
X-47500Y-196367D01*
X-48740Y-195950D01*
G01X-36343Y-208867D02*
X-36653Y-208658D01*
Y-208242D01*
X-36343Y-208033D01*
X-36032Y-208242D01*
Y-208658D01*
X-36343Y-208867D01*
G01X-23946Y-195950D02*
X-25186Y-196367D01*
X-26115Y-197408D01*
X-26735Y-198658D01*
X-27200Y-200325D01*
X-27355Y-202200D01*
X-27200Y-204075D01*
X-26735Y-205742D01*
X-26115Y-206992D01*
X-25186Y-208033D01*
X-23946Y-208450D01*
X-22706Y-208033D01*
X-21776Y-206992D01*
X-21156Y-205742D01*
X-20691Y-204075D01*
X-20536Y-202200D01*
X-20691Y-200325D01*
X-21156Y-198658D01*
X-21776Y-197408D01*
X-22706Y-196367D01*
X-23946Y-195950D01*
G01X-14338Y-208867D02*
X-8759Y-195950D01*
G01X-1166Y-204283D02*
X2863D01*
G01X13245Y-195950D02*
X12005Y-196367D01*
X11076Y-197408D01*
X10456Y-198658D01*
X9991Y-200325D01*
X9836Y-202200D01*
X9991Y-204075D01*
X10456Y-205742D01*
X11076Y-206992D01*
X12005Y-208033D01*
X13245Y-208450D01*
X14485Y-208033D01*
X15415Y-206992D01*
X16035Y-205742D01*
X16500Y-204075D01*
X16655Y-202200D01*
X16500Y-200325D01*
X16035Y-198658D01*
X15415Y-197408D01*
X14485Y-196367D01*
X13245Y-195950D01*
G01X25642Y-208867D02*
X25332Y-208658D01*
Y-208242D01*
X25642Y-208033D01*
X25953Y-208242D01*
Y-208658D01*
X25642Y-208867D01*
G01X38039Y-195950D02*
X36799Y-196367D01*
X35870Y-197408D01*
X35250Y-198658D01*
X34785Y-200325D01*
X34630Y-202200D01*
X34785Y-204075D01*
X35250Y-205742D01*
X35870Y-206992D01*
X36799Y-208033D01*
X38039Y-208450D01*
X39279Y-208033D01*
X40209Y-206992D01*
X40829Y-205742D01*
X41294Y-204075D01*
X41449Y-202200D01*
X41294Y-200325D01*
X40829Y-198658D01*
X40209Y-197408D01*
X39279Y-196367D01*
X38039Y-195950D01*
G01X-62841Y-179283D02*
X-59122D01*
G01X-61137Y-176575D02*
Y-181992D01*
G01X-48740Y-170950D02*
X-49980Y-171367D01*
X-50909Y-172408D01*
X-51529Y-173658D01*
X-51994Y-175325D01*
X-52149Y-177200D01*
X-51994Y-179075D01*
X-51529Y-180742D01*
X-50909Y-181992D01*
X-49980Y-183033D01*
X-48740Y-183450D01*
X-47500Y-183033D01*
X-46570Y-181992D01*
X-45950Y-180742D01*
X-45485Y-179075D01*
X-45330Y-177200D01*
X-45485Y-175325D01*
X-45950Y-173658D01*
X-46570Y-172408D01*
X-47500Y-171367D01*
X-48740Y-170950D01*
G01X-36343Y-183867D02*
X-36653Y-183658D01*
Y-183242D01*
X-36343Y-183033D01*
X-36032Y-183242D01*
Y-183658D01*
X-36343Y-183867D01*
G01X-23946Y-170950D02*
X-25186Y-171367D01*
X-26115Y-172408D01*
X-26735Y-173658D01*
X-27200Y-175325D01*
X-27355Y-177200D01*
X-27200Y-179075D01*
X-26735Y-180742D01*
X-26115Y-181992D01*
X-25186Y-183033D01*
X-23946Y-183450D01*
X-22706Y-183033D01*
X-21776Y-181992D01*
X-21156Y-180742D01*
X-20691Y-179075D01*
X-20536Y-177200D01*
X-20691Y-175325D01*
X-21156Y-173658D01*
X-21776Y-172408D01*
X-22706Y-171367D01*
X-23946Y-170950D01*
G01X-14338Y-183867D02*
X-8759Y-170950D01*
G01X-1166Y-179283D02*
X2863D01*
G01X13245Y-170950D02*
X12005Y-171367D01*
X11076Y-172408D01*
X10456Y-173658D01*
X9991Y-175325D01*
X9836Y-177200D01*
X9991Y-179075D01*
X10456Y-180742D01*
X11076Y-181992D01*
X12005Y-183033D01*
X13245Y-183450D01*
X14485Y-183033D01*
X15415Y-181992D01*
X16035Y-180742D01*
X16500Y-179075D01*
X16655Y-177200D01*
X16500Y-175325D01*
X16035Y-173658D01*
X15415Y-172408D01*
X14485Y-171367D01*
X13245Y-170950D01*
G01X25642Y-183867D02*
X25332Y-183658D01*
Y-183242D01*
X25642Y-183033D01*
X25953Y-183242D01*
Y-183658D01*
X25642Y-183867D01*
G01X38039Y-170950D02*
X36799Y-171367D01*
X35870Y-172408D01*
X35250Y-173658D01*
X34785Y-175325D01*
X34630Y-177200D01*
X34785Y-179075D01*
X35250Y-180742D01*
X35870Y-181992D01*
X36799Y-183033D01*
X38039Y-183450D01*
X39279Y-183033D01*
X40209Y-181992D01*
X40829Y-180742D01*
X41294Y-179075D01*
X41449Y-177200D01*
X41294Y-175325D01*
X40829Y-173658D01*
X40209Y-172408D01*
X39279Y-171367D01*
X38039Y-170950D01*
G01X93360Y-433450D02*
Y-420950D01*
X100489Y-433450D01*
Y-420950D01*
G01X109321Y-433450D02*
X108081Y-433242D01*
X106997Y-432409D01*
X106067Y-431158D01*
X105447Y-429700D01*
X105137Y-428033D01*
Y-426367D01*
X105447Y-424700D01*
X106067Y-423242D01*
X106997Y-421992D01*
X108081Y-421158D01*
X109321Y-420950D01*
X110561Y-421158D01*
X111646Y-421992D01*
X112576Y-423242D01*
X113196Y-424700D01*
X113506Y-426367D01*
Y-428033D01*
X113196Y-429700D01*
X112576Y-431158D01*
X111646Y-432409D01*
X110561Y-433242D01*
X109321Y-433450D01*
G01X118154D02*
Y-420950D01*
X125283Y-433450D01*
Y-420950D01*
G01X132101Y-429283D02*
X136130D01*
G01X143413Y-433450D02*
Y-420950D01*
X147132D01*
X148372Y-421575D01*
X149302Y-423033D01*
X149612Y-424700D01*
X149302Y-426367D01*
X148527Y-427617D01*
X147132Y-428242D01*
X143413D01*
G01X155810Y-420950D02*
Y-433450D01*
X162009D01*
G01X167432D02*
X171306Y-420950D01*
X175181Y-433450D01*
G01X173786Y-429075D02*
X168827D01*
G01X183703Y-420950D02*
Y-433450D01*
G01X180139Y-420950D02*
X187268D01*
G01X199200Y-433450D02*
X193001D01*
Y-420950D01*
X199200D01*
G01X196720Y-426992D02*
X193001D01*
G01X205088Y-433450D02*
Y-420950D01*
X208187D01*
X209427Y-421575D01*
X210357Y-422408D01*
X211132Y-423658D01*
X211752Y-425117D01*
X211907Y-427200D01*
X211752Y-429283D01*
X211132Y-430742D01*
X210357Y-431992D01*
X209427Y-432825D01*
X208187Y-433450D01*
X205088D01*
G01X93360Y-408450D02*
Y-395950D01*
X100489Y-408450D01*
Y-395950D01*
G01X109321Y-408450D02*
X108081Y-408242D01*
X106997Y-407409D01*
X106067Y-406158D01*
X105447Y-404700D01*
X105137Y-403033D01*
Y-401367D01*
X105447Y-399700D01*
X106067Y-398242D01*
X106997Y-396992D01*
X108081Y-396158D01*
X109321Y-395950D01*
X110561Y-396158D01*
X111646Y-396992D01*
X112576Y-398242D01*
X113196Y-399700D01*
X113506Y-401367D01*
Y-403033D01*
X113196Y-404700D01*
X112576Y-406158D01*
X111646Y-407409D01*
X110561Y-408242D01*
X109321Y-408450D01*
G01X118154D02*
Y-395950D01*
X125283Y-408450D01*
Y-395950D01*
G01X132101Y-404283D02*
X136130D01*
G01X143413Y-408450D02*
Y-395950D01*
X147132D01*
X148372Y-396575D01*
X149302Y-398033D01*
X149612Y-399700D01*
X149302Y-401367D01*
X148527Y-402617D01*
X147132Y-403242D01*
X143413D01*
G01X155810Y-395950D02*
Y-408450D01*
X162009D01*
G01X167432D02*
X171306Y-395950D01*
X175181Y-408450D01*
G01X173786Y-404075D02*
X168827D01*
G01X183703Y-395950D02*
Y-408450D01*
G01X180139Y-395950D02*
X187268D01*
G01X199200Y-408450D02*
X193001D01*
Y-395950D01*
X199200D01*
G01X196720Y-401992D02*
X193001D01*
G01X205088Y-408450D02*
Y-395950D01*
X208187D01*
X209427Y-396575D01*
X210357Y-397408D01*
X211132Y-398658D01*
X211752Y-400117D01*
X211907Y-402200D01*
X211752Y-404283D01*
X211132Y-405742D01*
X210357Y-406992D01*
X209427Y-407825D01*
X208187Y-408450D01*
X205088D01*
G01X118619Y-383450D02*
Y-370950D01*
X122338D01*
X123578Y-371575D01*
X124508Y-373033D01*
X124818Y-374700D01*
X124508Y-376367D01*
X123733Y-377617D01*
X122338Y-378242D01*
X118619D01*
G01X131016Y-370950D02*
Y-383450D01*
X137215D01*
G01X142638D02*
X146512Y-370950D01*
X150387Y-383450D01*
G01X148992Y-379075D02*
X144033D01*
G01X158909Y-370950D02*
Y-383450D01*
G01X155345Y-370950D02*
X162474D01*
G01X174406Y-383450D02*
X168207D01*
Y-370950D01*
X174406D01*
G01X171926Y-376992D02*
X168207D01*
G01X180294Y-383450D02*
Y-370950D01*
X183393D01*
X184633Y-371575D01*
X185563Y-372408D01*
X186338Y-373658D01*
X186958Y-375117D01*
X187113Y-377200D01*
X186958Y-379283D01*
X186338Y-380742D01*
X185563Y-381992D01*
X184633Y-382825D01*
X183393Y-383450D01*
X180294D01*
G01X118619Y-358450D02*
Y-345950D01*
X122338D01*
X123578Y-346575D01*
X124508Y-348033D01*
X124818Y-349700D01*
X124508Y-351367D01*
X123733Y-352617D01*
X122338Y-353242D01*
X118619D01*
G01X131016Y-345950D02*
Y-358450D01*
X137215D01*
G01X142638D02*
X146512Y-345950D01*
X150387Y-358450D01*
G01X148992Y-354075D02*
X144033D01*
G01X158909Y-345950D02*
Y-358450D01*
G01X155345Y-345950D02*
X162474D01*
G01X174406Y-358450D02*
X168207D01*
Y-345950D01*
X174406D01*
G01X171926Y-351992D02*
X168207D01*
G01X180294Y-358450D02*
Y-345950D01*
X183393D01*
X184633Y-346575D01*
X185563Y-347408D01*
X186338Y-348658D01*
X186958Y-350117D01*
X187113Y-352200D01*
X186958Y-354283D01*
X186338Y-355742D01*
X185563Y-356992D01*
X184633Y-357825D01*
X183393Y-358450D01*
X180294D01*
G01X118619Y-333450D02*
Y-320950D01*
X122338D01*
X123578Y-321575D01*
X124508Y-323033D01*
X124818Y-324700D01*
X124508Y-326367D01*
X123733Y-327617D01*
X122338Y-328242D01*
X118619D01*
G01X131016Y-320950D02*
Y-333450D01*
X137215D01*
G01X142638D02*
X146512Y-320950D01*
X150387Y-333450D01*
G01X148992Y-329075D02*
X144033D01*
G01X158909Y-320950D02*
Y-333450D01*
G01X155345Y-320950D02*
X162474D01*
G01X174406Y-333450D02*
X168207D01*
Y-320950D01*
X174406D01*
G01X171926Y-326992D02*
X168207D01*
G01X180294Y-333450D02*
Y-320950D01*
X183393D01*
X184633Y-321575D01*
X185563Y-322408D01*
X186338Y-323658D01*
X186958Y-325117D01*
X187113Y-327200D01*
X186958Y-329283D01*
X186338Y-330742D01*
X185563Y-331992D01*
X184633Y-332825D01*
X183393Y-333450D01*
X180294D01*
G01X118619Y-308450D02*
Y-295950D01*
X122338D01*
X123578Y-296575D01*
X124508Y-298033D01*
X124818Y-299700D01*
X124508Y-301367D01*
X123733Y-302617D01*
X122338Y-303242D01*
X118619D01*
G01X131016Y-295950D02*
Y-308450D01*
X137215D01*
G01X142638D02*
X146512Y-295950D01*
X150387Y-308450D01*
G01X148992Y-304075D02*
X144033D01*
G01X158909Y-295950D02*
Y-308450D01*
G01X155345Y-295950D02*
X162474D01*
G01X174406Y-308450D02*
X168207D01*
Y-295950D01*
X174406D01*
G01X171926Y-301992D02*
X168207D01*
G01X180294Y-308450D02*
Y-295950D01*
X183393D01*
X184633Y-296575D01*
X185563Y-297408D01*
X186338Y-298658D01*
X186958Y-300117D01*
X187113Y-302200D01*
X186958Y-304283D01*
X186338Y-305742D01*
X185563Y-306992D01*
X184633Y-307825D01*
X183393Y-308450D01*
X180294D01*
G01X118619Y-283450D02*
Y-270950D01*
X122338D01*
X123578Y-271575D01*
X124508Y-273033D01*
X124818Y-274700D01*
X124508Y-276367D01*
X123733Y-277617D01*
X122338Y-278242D01*
X118619D01*
G01X131016Y-270950D02*
Y-283450D01*
X137215D01*
G01X142638D02*
X146512Y-270950D01*
X150387Y-283450D01*
G01X148992Y-279075D02*
X144033D01*
G01X158909Y-270950D02*
Y-283450D01*
G01X155345Y-270950D02*
X162474D01*
G01X174406Y-283450D02*
X168207D01*
Y-270950D01*
X174406D01*
G01X171926Y-276992D02*
X168207D01*
G01X180294Y-283450D02*
Y-270950D01*
X183393D01*
X184633Y-271575D01*
X185563Y-272408D01*
X186338Y-273658D01*
X186958Y-275117D01*
X187113Y-277200D01*
X186958Y-279283D01*
X186338Y-280742D01*
X185563Y-281992D01*
X184633Y-282825D01*
X183393Y-283450D01*
X180294D01*
G01X118619Y-258450D02*
Y-245950D01*
X122338D01*
X123578Y-246575D01*
X124508Y-248033D01*
X124818Y-249700D01*
X124508Y-251367D01*
X123733Y-252617D01*
X122338Y-253242D01*
X118619D01*
G01X131016Y-245950D02*
Y-258450D01*
X137215D01*
G01X142638D02*
X146512Y-245950D01*
X150387Y-258450D01*
G01X148992Y-254075D02*
X144033D01*
G01X158909Y-245950D02*
Y-258450D01*
G01X155345Y-245950D02*
X162474D01*
G01X174406Y-258450D02*
X168207D01*
Y-245950D01*
X174406D01*
G01X171926Y-251992D02*
X168207D01*
G01X180294Y-258450D02*
Y-245950D01*
X183393D01*
X184633Y-246575D01*
X185563Y-247408D01*
X186338Y-248658D01*
X186958Y-250117D01*
X187113Y-252200D01*
X186958Y-254283D01*
X186338Y-255742D01*
X185563Y-256992D01*
X184633Y-257825D01*
X183393Y-258450D01*
X180294D01*
G01X118619Y-233450D02*
Y-220950D01*
X122338D01*
X123578Y-221575D01*
X124508Y-223033D01*
X124818Y-224700D01*
X124508Y-226367D01*
X123733Y-227617D01*
X122338Y-228242D01*
X118619D01*
G01X131016Y-220950D02*
Y-233450D01*
X137215D01*
G01X142638D02*
X146512Y-220950D01*
X150387Y-233450D01*
G01X148992Y-229075D02*
X144033D01*
G01X158909Y-220950D02*
Y-233450D01*
G01X155345Y-220950D02*
X162474D01*
G01X174406Y-233450D02*
X168207D01*
Y-220950D01*
X174406D01*
G01X171926Y-226992D02*
X168207D01*
G01X180294Y-233450D02*
Y-220950D01*
X183393D01*
X184633Y-221575D01*
X185563Y-222408D01*
X186338Y-223658D01*
X186958Y-225117D01*
X187113Y-227200D01*
X186958Y-229283D01*
X186338Y-230742D01*
X185563Y-231992D01*
X184633Y-232825D01*
X183393Y-233450D01*
X180294D01*
G01X118619Y-208450D02*
Y-195950D01*
X122338D01*
X123578Y-196575D01*
X124508Y-198033D01*
X124818Y-199700D01*
X124508Y-201367D01*
X123733Y-202617D01*
X122338Y-203242D01*
X118619D01*
G01X131016Y-195950D02*
Y-208450D01*
X137215D01*
G01X142638D02*
X146512Y-195950D01*
X150387Y-208450D01*
G01X148992Y-204075D02*
X144033D01*
G01X158909Y-195950D02*
Y-208450D01*
G01X155345Y-195950D02*
X162474D01*
G01X174406Y-208450D02*
X168207D01*
Y-195950D01*
X174406D01*
G01X171926Y-201992D02*
X168207D01*
G01X180294Y-208450D02*
Y-195950D01*
X183393D01*
X184633Y-196575D01*
X185563Y-197408D01*
X186338Y-198658D01*
X186958Y-200117D01*
X187113Y-202200D01*
X186958Y-204283D01*
X186338Y-205742D01*
X185563Y-206992D01*
X184633Y-207825D01*
X183393Y-208450D01*
X180294D01*
G01X118619Y-183450D02*
Y-170950D01*
X122338D01*
X123578Y-171575D01*
X124508Y-173033D01*
X124818Y-174700D01*
X124508Y-176367D01*
X123733Y-177617D01*
X122338Y-178242D01*
X118619D01*
G01X131016Y-170950D02*
Y-183450D01*
X137215D01*
G01X142638D02*
X146512Y-170950D01*
X150387Y-183450D01*
G01X148992Y-179075D02*
X144033D01*
G01X158909Y-170950D02*
Y-183450D01*
G01X155345Y-170950D02*
X162474D01*
G01X174406Y-183450D02*
X168207D01*
Y-170950D01*
X174406D01*
G01X171926Y-176992D02*
X168207D01*
G01X180294Y-183450D02*
Y-170950D01*
X183393D01*
X184633Y-171575D01*
X185563Y-172408D01*
X186338Y-173658D01*
X186958Y-175117D01*
X187113Y-177200D01*
X186958Y-179283D01*
X186338Y-180742D01*
X185563Y-181992D01*
X184633Y-182825D01*
X183393Y-183450D01*
X180294D01*
G01X118619Y-158450D02*
Y-145950D01*
X122338D01*
X123578Y-146575D01*
X124508Y-148033D01*
X124818Y-149700D01*
X124508Y-151367D01*
X123733Y-152617D01*
X122338Y-153242D01*
X118619D01*
G01X131016Y-145950D02*
Y-158450D01*
X137215D01*
G01X142638D02*
X146512Y-145950D01*
X150387Y-158450D01*
G01X148992Y-154075D02*
X144033D01*
G01X158909Y-145950D02*
Y-158450D01*
G01X155345Y-145950D02*
X162474D01*
G01X174406Y-158450D02*
X168207D01*
Y-145950D01*
X174406D01*
G01X171926Y-151992D02*
X168207D01*
G01X180294Y-158450D02*
Y-145950D01*
X183393D01*
X184633Y-146575D01*
X185563Y-147408D01*
X186338Y-148658D01*
X186958Y-150117D01*
X187113Y-152200D01*
X186958Y-154283D01*
X186338Y-155742D01*
X185563Y-156992D01*
X184633Y-157825D01*
X183393Y-158450D01*
X180294D01*
G01X118619Y-133450D02*
Y-120950D01*
X122338D01*
X123578Y-121575D01*
X124508Y-123033D01*
X124818Y-124700D01*
X124508Y-126367D01*
X123733Y-127617D01*
X122338Y-128242D01*
X118619D01*
G01X131016Y-120950D02*
Y-133450D01*
X137215D01*
G01X142638D02*
X146512Y-120950D01*
X150387Y-133450D01*
G01X148992Y-129075D02*
X144033D01*
G01X158909Y-120950D02*
Y-133450D01*
G01X155345Y-120950D02*
X162474D01*
G01X174406Y-133450D02*
X168207D01*
Y-120950D01*
X174406D01*
G01X171926Y-126992D02*
X168207D01*
G01X180294Y-133450D02*
Y-120950D01*
X183393D01*
X184633Y-121575D01*
X185563Y-122408D01*
X186338Y-123658D01*
X186958Y-125117D01*
X187113Y-127200D01*
X186958Y-129283D01*
X186338Y-130742D01*
X185563Y-131992D01*
X184633Y-132825D01*
X183393Y-133450D01*
X180294D01*
G01X254984Y-433450D02*
Y-420950D01*
X253125Y-423450D01*
G01Y-433450D02*
X256844D01*
G01X252040Y-398033D02*
X252970Y-396784D01*
X254055Y-396158D01*
X255295Y-395950D01*
X256844Y-396367D01*
X257929Y-397408D01*
X258239Y-398658D01*
X258084Y-399909D01*
X257464Y-400950D01*
X254365Y-403033D01*
X252970Y-404492D01*
X252040Y-406575D01*
X251730Y-408450D01*
X258239D01*
G01X256844Y-383450D02*
Y-370950D01*
X251110Y-379908D01*
X258859D01*
G01X252040Y-348033D02*
X252970Y-346784D01*
X254055Y-346158D01*
X255295Y-345950D01*
X256844Y-346367D01*
X257929Y-347408D01*
X258239Y-348658D01*
X258084Y-349909D01*
X257464Y-350950D01*
X254365Y-353033D01*
X252970Y-354492D01*
X252040Y-356575D01*
X251730Y-358450D01*
X258239D01*
G01X252040Y-323033D02*
X252970Y-321784D01*
X254055Y-321158D01*
X255295Y-320950D01*
X256844Y-321367D01*
X257929Y-322408D01*
X258239Y-323658D01*
X258084Y-324909D01*
X257464Y-325950D01*
X254365Y-328033D01*
X252970Y-329492D01*
X252040Y-331575D01*
X251730Y-333450D01*
X258239D01*
G01X252040Y-303242D02*
X253125Y-301783D01*
X254055Y-300950D01*
X255295Y-300533D01*
X256379Y-300950D01*
X257154Y-301783D01*
X257774Y-303033D01*
X257929Y-304492D01*
X257774Y-305742D01*
X257154Y-306992D01*
X256224Y-308033D01*
X255140Y-308450D01*
X253900Y-308033D01*
X252815Y-306784D01*
X252195Y-304908D01*
X252040Y-302825D01*
X252350Y-300117D01*
X252815Y-298658D01*
X253590Y-297200D01*
X254674Y-296158D01*
X255759Y-295950D01*
X256844Y-296367D01*
X257619Y-297408D01*
G01X248786Y-283450D02*
Y-270950D01*
X246927Y-273450D01*
G01Y-283450D02*
X250646D01*
G01X261183Y-270950D02*
X259943Y-271367D01*
X259014Y-272408D01*
X258394Y-273658D01*
X257929Y-275325D01*
X257774Y-277200D01*
X257929Y-279075D01*
X258394Y-280742D01*
X259014Y-281992D01*
X259943Y-283033D01*
X261183Y-283450D01*
X262423Y-283033D01*
X263353Y-281992D01*
X263973Y-280742D01*
X264438Y-279075D01*
X264593Y-277200D01*
X264438Y-275325D01*
X263973Y-273658D01*
X263353Y-272408D01*
X262423Y-271367D01*
X261183Y-270950D01*
G01X248786Y-258450D02*
Y-245950D01*
X246927Y-248450D01*
G01Y-258450D02*
X250646D01*
G01X258239Y-248033D02*
X259169Y-246784D01*
X260254Y-246158D01*
X261494Y-245950D01*
X263043Y-246367D01*
X264128Y-247408D01*
X264438Y-248658D01*
X264283Y-249909D01*
X263663Y-250950D01*
X260564Y-253033D01*
X259169Y-254492D01*
X258239Y-256575D01*
X257929Y-258450D01*
X264438D01*
G01X252040Y-223033D02*
X252970Y-221784D01*
X254055Y-221158D01*
X255295Y-220950D01*
X256844Y-221367D01*
X257929Y-222408D01*
X258239Y-223658D01*
X258084Y-224909D01*
X257464Y-225950D01*
X254365Y-228033D01*
X252970Y-229492D01*
X252040Y-231575D01*
X251730Y-233450D01*
X258239D01*
G01X252040Y-198033D02*
X252970Y-196784D01*
X254055Y-196158D01*
X255295Y-195950D01*
X256844Y-196367D01*
X257929Y-197408D01*
X258239Y-198658D01*
X258084Y-199909D01*
X257464Y-200950D01*
X254365Y-203033D01*
X252970Y-204492D01*
X252040Y-206575D01*
X251730Y-208450D01*
X258239D01*
G01X251575Y-180950D02*
X252505Y-182409D01*
X253744Y-183242D01*
X255140Y-183450D01*
X256379Y-183242D01*
X257619Y-182200D01*
X258394Y-180950D01*
X258549Y-179700D01*
X258239Y-178242D01*
X257154Y-177200D01*
X256069Y-176783D01*
X254674D01*
G01X256069D02*
X256999Y-176158D01*
X257774Y-175117D01*
X258084Y-173867D01*
X257774Y-172617D01*
X256999Y-171575D01*
X255604Y-170950D01*
X254210Y-171158D01*
X252815Y-171992D01*
G01X239643Y-148033D02*
X240573Y-146784D01*
X241658Y-146158D01*
X242898Y-145950D01*
X244447Y-146367D01*
X245532Y-147408D01*
X245842Y-148658D01*
X245687Y-149909D01*
X245067Y-150950D01*
X241968Y-153033D01*
X240573Y-154492D01*
X239643Y-156575D01*
X239333Y-158450D01*
X245842D01*
G01X252040Y-148033D02*
X252970Y-146784D01*
X254055Y-146158D01*
X255295Y-145950D01*
X256844Y-146367D01*
X257929Y-147408D01*
X258239Y-148658D01*
X258084Y-149909D01*
X257464Y-150950D01*
X254365Y-153033D01*
X252970Y-154492D01*
X252040Y-156575D01*
X251730Y-158450D01*
X258239D01*
G01X267381D02*
X268466Y-158242D01*
X269706Y-157617D01*
X270481Y-156575D01*
X270791Y-155117D01*
X270481Y-153659D01*
X269551Y-152408D01*
X268156Y-151783D01*
X266607D01*
X265677Y-151367D01*
X264902Y-150325D01*
X264592Y-148867D01*
X265057Y-147408D01*
X266141Y-146367D01*
X267381Y-145950D01*
X268621Y-146367D01*
X269706Y-147408D01*
X270171Y-148867D01*
X269861Y-150325D01*
X269086Y-151367D01*
X268156Y-151783D01*
X266607D01*
X265212Y-152408D01*
X264282Y-153659D01*
X263972Y-155117D01*
X264282Y-156575D01*
X265057Y-157617D01*
X266297Y-158242D01*
X267381Y-158450D01*
G01X242587Y-133450D02*
X241347Y-133242D01*
X240263Y-132409D01*
X239333Y-131158D01*
X238713Y-129700D01*
X238403Y-128033D01*
Y-126367D01*
X238713Y-124700D01*
X239333Y-123242D01*
X240263Y-121992D01*
X241347Y-121158D01*
X242587Y-120950D01*
X243827Y-121158D01*
X244912Y-121992D01*
X245842Y-123242D01*
X246462Y-124700D01*
X246772Y-126367D01*
Y-128033D01*
X246462Y-129700D01*
X245842Y-131158D01*
X244912Y-132409D01*
X243827Y-133242D01*
X242587Y-133450D01*
G01X243827Y-130117D02*
X245687Y-133450D01*
G01X254984Y-120950D02*
Y-133450D01*
G01X251420Y-120950D02*
X258549D01*
G01X267381Y-133450D02*
Y-127825D01*
X264282Y-120950D01*
G01X270481D02*
X267381Y-127825D01*
G54D13*
X-358662Y-352200D03*
X115927Y5710D03*
X144273D03*
G54D23*
G01X-403600Y-439700D02*
Y-64700D01*
X293725D01*
Y-439700D01*
X-403600D01*
G01Y-414700D02*
X293725D01*
G01X-403600Y-389700D02*
X293725D01*
G01X-403600Y-364700D02*
X293725D01*
G01X-403600Y-339700D02*
X293725D01*
G01X-403600Y-314700D02*
X293725D01*
G01X-403600Y-289700D02*
X293725D01*
G01X-403600Y-264700D02*
X293725D01*
G01X-403600Y-239700D02*
X293725D01*
G01X-403600Y-214700D02*
X293725D01*
G01X-403600Y-189700D02*
X293725D01*
G01X-403600Y-164700D02*
X293725D01*
G01X-403600Y-139700D02*
X293725D01*
G01X-403600Y-114700D02*
X293725D01*
G01X-403600Y-89700D02*
X293725D01*
G01X-313723Y-114700D02*
Y-439700D01*
G01X-112273Y-114700D02*
Y-439700D01*
G01X196850Y39370D02*
Y157480D01*
G03X157480Y196850I-39370J0D01*
G01X39370D01*
G03X0Y157480I0J-39370D01*
G01Y39370D01*
G03X39370Y0I39370J0D01*
G01X157480D01*
G03X196850Y39370I0J39370D01*
G01X89177Y-114700D02*
Y-439700D01*
G01X216245Y-114700D02*
Y-439700D01*
G54D14*
X-358662Y-327200D03*
X53201Y21303D03*
X80799D03*
G54D15*
X-358662Y-302200D03*
X45000Y176000D03*
Y166000D03*
X65000Y176000D03*
Y166000D03*
X55000Y176000D03*
Y166000D03*
G54D16*
X-358662Y-277200D03*
X103500Y6000D03*
X93500D03*
X146000Y73500D03*
X156000D03*
X190500Y128500D03*
Y118500D03*
Y108500D03*
Y148500D03*
Y138500D03*
Y158500D03*
G54D17*
X-358662Y-252200D03*
X45000Y190500D03*
X75000D03*
X65000D03*
X55000D03*
X95000D03*
X85000D03*
X125000D03*
X115000D03*
X105000D03*
X145000D03*
X135000D03*
X155000D03*
G54D18*
X-358662Y-227200D03*
X75858Y11500D03*
X58142D03*
G54D19*
X-358662Y-202200D03*
X120553Y17321D03*
X139647D03*
M02*
