G04 ================== begin FILE IDENTIFICATION RECORD ==================*
G04 Layout Name:  e:/Project/SmartDiet/Device/Schematic/allegro/CyberBalance.brd*
G04 Film Name:    soldermask_top*
G04 File Format:  Gerber RS274X*
G04 File Origin:  Cadence Allegro 17.4-S015*
G04 Origin Date:  Fri May 28 17:34:05 2021*
G04 *
G04 Layer:  PIN/SOLDERMASK_TOP*
G04 Layer:  BOARD GEOMETRY/DESIGN_OUTLINE*
G04 *
G04 Offset:    (0.00 0.00)*
G04 Mirror:    No*
G04 Mode:      Positive*
G04 Rotation:  0*
G04 FullContactRelief:  No*
G04 UndefLineWidth:     2.00*
G04 ================== end FILE IDENTIFICATION RECORD ====================*
%FSLAX25Y25*MOIN*%
%IR0*IPPOS*OFA0.00000B0.00000*MIA0B0*SFA1.00000B1.00000*%
%ADD40R,.1X.06902*%
%ADD16O,.10236X.0315*%
%ADD34C,.032*%
%ADD12O,.0315X.10236*%
%ADD25C,.06*%
%ADD19C,.063*%
%ADD29C,.0515*%
%ADD26C,.06402*%
%ADD21R,.06X.06*%
%ADD43O,.10236X.05906*%
%ADD20R,.063X.063*%
%ADD30R,.0515X.0515*%
%ADD15R,.04331X.04331*%
%ADD27R,.06402X.06402*%
%ADD37R,.0689X.10433*%
%ADD28C,.05906*%
%ADD38R,.10433X.0689*%
%ADD35C,.02559*%
%ADD17C,.07677*%
%ADD22C,.05898*%
%ADD10C,.22*%
%ADD36R,.016X.053*%
%ADD33R,.01201X.04701*%
%ADD32R,.04701X.01201*%
%ADD39R,.05902X.04402*%
%ADD44R,.04402X.05902*%
%ADD41R,.01X.02799*%
%ADD24R,.04331X.0748*%
%ADD23R,.05925X.02252*%
%ADD13R,.04134X.08661*%
%ADD42R,.06496X.0315*%
%ADD14R,.03937X.04134*%
%ADD11R,.05598X.05902*%
%ADD18R,.05902X.05598*%
%ADD31R,.07874X.08268*%
%ADD45C,.002*%
G75*
%LPD*%
G75*
G54D10*
X23622Y23622D03*
Y173228D03*
X173228Y23622D03*
Y173228D03*
G54D11*
X21500Y48925D03*
Y41475D03*
X29500Y48925D03*
Y41475D03*
X58000Y47275D03*
X74000Y46225D03*
Y38775D03*
X66300Y46225D03*
Y38775D03*
X58000Y54725D03*
X76500Y95275D03*
Y102725D03*
X84700Y51475D03*
Y58925D03*
X84500Y95275D03*
X101000Y104775D03*
Y112225D03*
X92500Y104775D03*
Y112225D03*
X84500Y102725D03*
X125500Y170225D03*
Y162775D03*
X131000Y25775D03*
Y33225D03*
X149500Y146775D03*
Y154225D03*
X164500Y138225D03*
Y130775D03*
G54D20*
X45000Y166000D03*
G54D30*
X98500Y53126D03*
G54D21*
X45000Y190500D03*
G54D12*
X23008Y70142D03*
X18677D03*
Y137858D03*
X23008D03*
X48992Y70142D03*
X44661D03*
X40331D03*
X36000D03*
X31669D03*
X27339D03*
Y137858D03*
X31669D03*
X36000D03*
X40331D03*
X44661D03*
X48992D03*
X53323Y70142D03*
Y137858D03*
G54D31*
X88823Y125000D03*
X104177D03*
G54D13*
X15007Y58900D03*
X3393D03*
G54D22*
X75858Y11500D03*
X58142D03*
G54D40*
X133500Y49500D03*
G54D14*
X9200Y64904D03*
G54D23*
X65167Y53260D03*
Y60740D03*
X73833D03*
Y57000D03*
Y53260D03*
G54D41*
X137437Y44000D03*
X135468D03*
X133500D03*
X131532D03*
X129563D03*
Y55000D03*
X131532D03*
X133500D03*
X135468D03*
X137437D03*
G54D32*
X81768Y146673D03*
Y148642D03*
Y150610D03*
Y152579D03*
Y154547D03*
Y156516D03*
Y158484D03*
Y160453D03*
Y162421D03*
Y164390D03*
Y166358D03*
Y168327D03*
X115232Y148642D03*
Y146673D03*
Y168327D03*
Y166358D03*
Y164390D03*
Y162421D03*
Y160453D03*
Y158484D03*
Y156516D03*
Y154547D03*
Y152579D03*
Y150610D03*
G54D42*
X134772Y101000D03*
Y106000D03*
Y111000D03*
Y116000D03*
Y121000D03*
Y126000D03*
Y131000D03*
Y136000D03*
X156228Y101000D03*
Y126000D03*
Y121000D03*
Y116000D03*
Y111000D03*
Y106000D03*
Y136000D03*
Y131000D03*
G54D24*
X75579Y111500D03*
X85421D03*
G54D33*
X99484Y140768D03*
X97516D03*
X95547D03*
X93579D03*
X91610D03*
X89642D03*
X87673D03*
Y174232D03*
X89642D03*
X91610D03*
X93579D03*
X95547D03*
X97516D03*
X99484D03*
X109327Y140768D03*
X107358D03*
X105390D03*
X103421D03*
X101453D03*
Y174232D03*
X103421D03*
X105390D03*
X107358D03*
X109327D03*
G54D15*
X21827Y100457D03*
Y93370D03*
Y114630D03*
Y107543D03*
X28913Y86283D03*
X36000D03*
X43087D03*
X50173Y100457D03*
Y93370D03*
X28913Y121717D03*
X36000D03*
X43087D03*
X50173Y114630D03*
Y107543D03*
G54D43*
X154300Y177400D03*
X134300D03*
G54D25*
X75000Y190500D03*
X65000D03*
X55000D03*
X95000D03*
X85000D03*
X125000D03*
X115000D03*
X105000D03*
X145000D03*
X135000D03*
X155000D03*
G54D34*
X115927Y5710D03*
X144273D03*
G54D16*
X5882Y78016D03*
Y82346D03*
Y86677D03*
Y91008D03*
Y95339D03*
Y99669D03*
Y104000D03*
Y108331D03*
Y112661D03*
Y116992D03*
Y121323D03*
Y125654D03*
Y129984D03*
X66118Y99669D03*
Y95339D03*
Y91008D03*
Y86677D03*
Y82346D03*
Y78016D03*
Y125654D03*
Y121323D03*
Y116992D03*
Y112661D03*
Y108331D03*
Y104000D03*
Y129984D03*
G54D44*
X176240Y99169D03*
X168760D03*
X172500Y107831D03*
G54D17*
X53201Y21303D03*
X80799D03*
G54D35*
X120553Y17321D03*
X139647D03*
G54D26*
X103500Y6000D03*
X146000Y73500D03*
X190500Y128500D03*
Y118500D03*
Y148500D03*
Y138500D03*
Y158500D03*
G54D45*
G01X196850Y39370D02*
Y157480D01*
G03X157480Y196850I-39370J0D01*
G01X39370D01*
G03X0Y157480I0J-39370D01*
G01Y39370D01*
G03X39370Y0I39370J0D01*
G01X157480D01*
G03X196850Y39370I0J39370D01*
G54D18*
X37275Y41200D03*
X44725D03*
Y49200D03*
X37275D03*
X37225Y57200D03*
X29775D03*
X29175Y155200D03*
X36625D03*
X123225Y25500D03*
X115775D03*
X123225Y33500D03*
X115775D03*
X126225Y96000D03*
X118775D03*
X146225Y25500D03*
X138775D03*
Y33500D03*
X146225D03*
X146275Y62500D03*
X134775Y93000D03*
X142225D03*
X153725Y62500D03*
X172275Y122500D03*
Y114500D03*
Y130500D03*
Y138500D03*
X157275Y146500D03*
X164725D03*
X172275D03*
X157275Y154500D03*
X164725D03*
X172275D03*
X179725Y122500D03*
Y114500D03*
Y130500D03*
Y138500D03*
Y146500D03*
Y154500D03*
G54D36*
X124982Y16241D03*
X135218D03*
X132659D03*
X130100D03*
X127541D03*
G54D27*
X93500Y6000D03*
X156000Y73500D03*
X190500Y108500D03*
G54D28*
X98500Y44858D03*
Y77142D03*
G54D37*
X118500Y44035D03*
Y60965D03*
G54D19*
X45000Y176000D03*
X65000D03*
Y166000D03*
X55000Y176000D03*
Y166000D03*
G54D38*
X116535Y72500D03*
X133465D03*
G54D29*
X98500Y68874D03*
Y61000D03*
G54D39*
X118669Y81760D03*
Y89240D03*
X127331Y85500D03*
X126831Y109740D03*
Y102260D03*
X118169Y106000D03*
M02*
